<svg xmlns="http://www.w3.org/2000/svg" xml:space="preserve" id="svg1" width="417.605" height="177.225" viewBox="0 0 110.491 46.891">
    <g id="layer1" transform="translate(-2469.755 -125.055)">
        <g id="g90">
            <path id="path125-4" d="M2499.053 130.148c-2.83.935-5.547.09-8.899.852s-7.028 3.25-11.576 10.627a.8.8 0 0 0-.119.414l-.117 22.871a.8.8 0 0 0 1.125.734c3.09-1.372 5.945-.514 9.373-1.181 3.428-.668 7.088-3.034 11.33-10.63a.8.8 0 0 0 .102-.396l-.168-22.537a.8.8 0 0 0-1.051-.754m-.543 1.657.16 21.412c-4.07 7.222-7.194 9.105-10.135 9.678-2.648.515-5.444-.05-8.588.947l.11-21.547c4.37-7.028 7.6-9.086 10.453-9.734 2.56-.582 5.12-.124 8-.756" style="baseline-shift:baseline;display:inline;overflow:visible;opacity:1;vector-effect:none;fill:#ff9200;stroke-linecap:round;stroke-linejoin:round;paint-order:stroke fill markers;stop-color:#000;stop-opacity:1"/>
            <path id="path19-2-0-4" d="M2491.26 136.4a5.687 5.687 0 0 0-5.681 5.68v.02c-.131 2.097-.912 3.727-2.616 5.01-1.078.776-2.408 1.235-3.704 1.235-.56 0-1.063-.065-1.613-.217-.715-.17-1.434-.395-2.208-.395-.613 0-1.224.1-1.81.298a5.56 5.56 0 0 0-3.273 2.853 5.54 5.54 0 0 0-.482 3.647 5.68 5.68 0 0 0 5.568 4.576c.777 0 1.187-.265 2.163-.479a7 7 0 0 1 1.689-.161c1.319.03 2.528.446 3.628 1.23 1.634 1.186 2.683 3.2 2.672 5.22 0 .621.065 1.067.268 1.674a5.68 5.68 0 0 0 5.38 3.87c.615 0 1.223-.1 1.81-.298a5.64 5.64 0 0 0 3.27-2.86 5.64 5.64 0 0 0 .3-4.336 5.677 5.677 0 0 0-7.172-3.578l-.112.038a6.263 6.263 0 0 1-5.642-.886 6.27 6.27 0 0 1-2.581-5.097v-.159a6.26 6.26 0 0 1 2.611-4.995 6.25 6.25 0 0 1 5.694-.835 5.685 5.685 0 0 0 7.52-5.376 5.685 5.685 0 0 0-5.68-5.68z" style="baseline-shift:baseline;display:inline;overflow:visible;vector-effect:none;fill:gray;fill-opacity:1;stroke-width:.264584;stroke-linecap:round;paint-order:stroke fill markers;stop-color:#000"/>
            <path id="path17-3-1-2" d="M2502.388 153.445a2.916 2.916 0 0 1-2.916 2.916 2.916 2.916 0 0 1-2.916-2.916 2.916 2.916 0 0 1 2.916-2.916 2.916 2.916 0 0 1 2.916 2.916" style="baseline-shift:baseline;display:inline;overflow:visible;vector-effect:none;fill:#ff9200;fill-opacity:1;stroke-width:.264584;paint-order:stroke fill markers;stop-color:#000"/>
            <path id="path15-3-5-5" d="M2503.057 130.908a3.75 3.75 0 0 1-3.752 3.753 3.75 3.75 0 0 1-3.753-3.753 3.75 3.75 0 0 1 3.752-3.752 3.75 3.75 0 0 1 3.753 3.752" style="baseline-shift:baseline;display:inline;overflow:visible;vector-effect:none;fill:#ff9200;fill-opacity:1;stroke-width:.264584;stroke-linecap:round;paint-order:stroke fill markers;stop-color:#000"/>
            <path id="path13-2-5-4" d="M2484.243 164.916a5.1 5.1 0 0 1-5.101 5.102 5.1 5.1 0 0 1-5.102-5.102 5.1 5.1 0 0 1 5.102-5.101 5.1 5.1 0 0 1 5.101 5.101" style="baseline-shift:baseline;display:inline;overflow:visible;vector-effect:none;fill:#ff9200;fill-opacity:1;stroke-width:.264584;paint-order:stroke fill markers;stop-color:#000"/>
            <path id="path11-3-4-7" d="M2481.171 142.046a1.91 1.91 0 0 1-1.912 1.912 1.91 1.91 0 0 1-1.912-1.912 1.91 1.91 0 0 1 1.912-1.912 1.91 1.91 0 0 1 1.912 1.912" style="baseline-shift:baseline;display:inline;overflow:visible;vector-effect:none;fill:#ff9200;fill-opacity:1;stroke-width:.264584;stroke-linecap:round;stroke-linejoin:round;paint-order:stroke fill markers;stop-color:#000"/>
            <path id="path7-7-6-5" d="M2487.425 125.055c3.133 0 5.745 2.56 5.745 5.692v.02c-.024 2.152.988 3.948 2.545 5.101a6.05 6.05 0 0 0 3.68 1.176 6.4 6.4 0 0 0 1.648-.211c.683-.18 1.429-.445 2.203-.445.613 0 1.224.101 1.81.298a5.56 5.56 0 0 1 3.272 2.854 5.54 5.54 0 0 1 .483 3.647 5.68 5.68 0 0 1-5.568 4.575c-.777 0-1.44-.294-2.17-.463a6.4 6.4 0 0 0-1.681-.201c-1.307 0-2.585.456-3.668 1.244a6.43 6.43 0 0 0-2.599 5.053c0 .622-.099 1.245-.302 1.851a5.68 5.68 0 0 1-5.38 3.87 5.6 5.6 0 0 1-1.81-.298 5.64 5.64 0 0 1-3.271-2.86 5.64 5.64 0 0 1-.3-4.335 5.677 5.677 0 0 1 7.173-3.579l.112.038a6.263 6.263 0 0 0 5.642-.886 6.27 6.27 0 0 0 2.581-5.096v-.16a6.26 6.26 0 0 0-2.611-4.995 6.25 6.25 0 0 0-5.694-.834 5.686 5.686 0 0 1-7.52-5.376 5.685 5.685 0 0 1 5.68-5.68z" style="display:inline;fill:#000;fill-opacity:1;stroke-width:0"/>
            <path id="path132" d="M2479.045 141.275a.8.8 0 0 0-.483.377.8.8 0 0 0 .305 1.09l20.211 11.4a.8.8 0 0 0 1.09-.304.8.8 0 0 0-.303-1.09l-20.213-11.398a.8.8 0 0 0-.607-.075" style="baseline-shift:baseline;display:inline;overflow:visible;opacity:1;vector-effect:none;fill:#ff9200;stroke-linecap:round;stroke-linejoin:round;paint-order:stroke fill markers;stop-color:#000;stop-opacity:1"/>
            <path id="path133" d="M2499.713 130.22a.8.8 0 0 0-1.096.28l-20.164 34.008a.8.8 0 0 0 .281 1.096.8.8 0 0 0 1.096-.28l20.162-34.008a.8.8 0 0 0-.28-1.095" style="baseline-shift:baseline;display:inline;overflow:visible;opacity:1;vector-effect:none;fill:#ff9200;stroke-linecap:round;stroke-linejoin:round;paint-order:stroke fill markers;stop-color:#000;stop-opacity:1"/>
            <path id="path134" d="M2499.695 130.209a.8.8 0 0 0-1.09.309c-1.947 3.488-3.924 6.8-6.771 8.898s-6.577 3.093-12.408 1.848a.8.8 0 0 0-.95.615.8.8 0 0 0 .616.95c6.147 1.311 10.487.237 13.691-2.124 3.204-2.36 5.262-5.897 7.22-9.406a.8.8 0 0 0-.308-1.09" style="baseline-shift:baseline;display:inline;overflow:visible;opacity:1;vector-effect:none;fill:#ff9200;stroke-linecap:round;stroke-linejoin:round;paint-order:stroke fill markers;stop-color:#000;stop-opacity:1"/>
            <path id="path135" d="M2494.928 152.256c-4.268 0-7.373 1.146-9.737 2.973-3.151 2.434-4.95 5.956-6.753 9.308a.8.8 0 0 0 .326 1.084.8.8 0 0 0 1.082-.326c1.81-3.367 3.533-6.647 6.322-8.8 2.789-2.155 6.678-3.304 13.178-2.26a.8.8 0 0 0 .916-.663.8.8 0 0 0-.662-.916c-1.697-.272-3.25-.4-4.672-.4" style="baseline-shift:baseline;display:inline;overflow:visible;opacity:1;vector-effect:none;fill:#ff9200;stroke-linecap:round;stroke-linejoin:round;paint-order:stroke fill markers;stop-color:#000;stop-opacity:1"/>
            <path id="text163" d="M2515.386 161.595c.546 0 1.016.495 1.016 1.067v4.673c0 .572-.47 1.042-1.016 1.042h-1.701c0-2.3-.013-4.496-.013-6.782zm-1.943 7.836h1.943c1.08 0 2.07-.89 2.07-2.096v-4.686c0-1.13-.99-2.108-2.07-2.108h-1.943c-.47 0-.813.33-.813.813v7.251c0 .432.305.826.813.826m5.631-8.09c-.33 0-.622.254-.622.648 0 .368.292.635.622.635.343 0 .66-.267.66-.635 0-.394-.317-.648-.66-.648m.52 1.981h-1.015v6.109h1.016zm4.793 1.067c-.52-.788-1.206-1.143-1.854-1.143-1.016 0-2.02.698-2.006 1.943 0 1.181.85 1.626 1.904 1.65.496.014.953.268.953.801 0 .559-.483.85-.99.85-.394 0-.839-.228-1.13-.71l-.877.47c.47.825 1.308 1.27 1.994 1.27 1.016 0 2.044-.597 2.032-1.88 0-1.22-.965-1.816-1.969-1.841-.495-.013-.901-.153-.889-.61 0-.267.102-.47.229-.61.19-.203.47-.33.762-.33.28 0 .648.254.978.711zm1.91-1.092v-2.477h-1.016v6.553c0 1.207 1.118 2.058 2.4 2.058v-1.016c-.749 0-1.384-.457-1.384-1.042v-3.048h1.27v-1.028zm6.202 1.955c0-1.371-1.028-2.006-2.07-2.006-1.028 0-2.057.635-2.057 2.006v2.223c0 1.359 1.016 2.02 2.057 2.02 1.029 0 2.07-.661 2.07-2.02zm-1.028 2.223c0 .648-.521.978-1.042.978-.508 0-1.041-.33-1.041-.978v-2.223c0-.647.533-.99 1.041-.99.521 0 1.042.343 1.042.99zm4.145-4.267c-.381 0-.826.19-1.054.71l-.204-.634h-.774v8.661h1.028v-3.022c.229.419.635.495.978.52 1.13.09 2.045-.927 2.045-1.955v-2.426c0-1.054-.635-1.854-2.02-1.854m.99 4.28c0 .52-.47.927-1.016.927-.635 0-.965-.369-.978-.877v-2.413c0-.444.432-.901.978-.901.559 0 1.016.33 1.016.838zm2.697-6.147c-.33 0-.622.254-.622.648 0 .368.292.635.622.635.343 0 .66-.267.66-.635 0-.394-.317-.648-.66-.648m.521 1.981h-1.016v6.109h1.016zm2.532 6.185c.318 0 .965-.19 1.092-.724l.102.648h.825v-4.153c0-1.118-.94-2.02-2.019-2.02-.495 0-1.092.28-1.524.674l.559.85c.343-.33.711-.482.965-.482a.99.99 0 0 1 .99.978l.026.533c-.14-.406-.635-.673-1.042-.673-1.168 0-1.981.915-1.981 1.981v.356c0 1.092.914 2.032 2.007 2.032zm-.978-2.032v-.356c0-.546.445-.978.978-.978.546 0 .99.356.99.864v.622c0 .458-.507.851-.99.851-.533 0-.978-.457-.978-1.003" aria-label="Distopia" style="fill:gray;stroke-width:.177966;stroke-linecap:round;stroke-linejoin:round;paint-order:stroke fill markers"/>
            <path id="text164" d="m2517.773 133.749-.105 1.132h-.126l-.104-1.09c-.587-2.181-1.09-4.32-1.804-6.584a1.38 1.38 0 0 0-1.3-.944c-.67 0-1.488.377-1.467 1.258v13.42h1.719l-.042-10.19-.21-2.81h.147l.377 2.16 1.678 5.598c.23.503.67.797 1.048.797.483 0 .923-.315 1.09-.797.546-1.678 1.154-3.733 1.72-5.494l.482-2.265h.273l-.482 2.915-.063 9.792.02.294h1.72v-13.462c-.042-.88-.755-1.3-1.384-1.3-.503 0-1.048.315-1.279.965a109 109 0 0 0-1.111 3.648c-.294.986-.525 1.992-.797 2.957zm11.176-5.746c.902 0 1.678.818 1.678 1.762v7.716c0 .944-.776 1.72-1.678 1.72h-2.81c0-3.796-.02-7.423-.02-11.198zm-3.208 12.938h3.208a3.454 3.454 0 0 0 3.418-3.46v-7.737c0-1.866-1.635-3.481-3.418-3.481h-3.208c-.776 0-1.342.545-1.342 1.342v11.973c0 .713.503 1.363 1.342 1.363" aria-label="MD" style="stroke-width:.258219"/>
            <path id="text165" d="M2520.752 158.13h1.912l-3.63-14.052c-.194-.688-.86-1.16-1.397-1.16-.559 0-1.182.43-1.44 1.203l-3.566 14.008h1.869c.193-.794.472-1.869 1.31-5.135h3.61zm-4.512-6.897c.408-1.72.71-3.631 1.139-5.35l.172-1.461h.172l.15 1.46 1.096 5.35zm14.052-8.143.086 10.42.623 2.836h-.13l-4.425-12.504.02.043c-.107-.538-.751-.86-1.267-.86-.623 0-1.225.473-1.203 1.268v13.836h1.826l-.086-10.356-.516-2.642.258-.065c.194.559.623 2.643 1.01 3.674 1.117 2.922 2.149 5.973 3.223 8.616.215.473.795.773 1.225.773.58 0 1.138-.408 1.138-1.224V143.09zm11.43 15.04h1.912l-3.63-14.052c-.194-.688-.86-1.16-1.397-1.16-.559 0-1.182.43-1.44 1.203l-3.566 14.008h1.869c.193-.795.473-1.869 1.31-5.135h3.61zm-4.512-6.897c.408-1.72.71-3.631 1.139-5.35l.172-1.461h.172l.15 1.46 1.096 5.35zm14.782 6.896v-1.783h-5.2l-.02-13.256h-1.805v13.664c0 .838.752 1.418 1.482 1.375zm6.36-15.04h-1.934c-.472 1.118-1.912 4.9-2.406 6.102-.043.194-.15 1.01-.172 1.182l-.193-1.16c-.559-1.397-1.805-4.705-2.428-6.123h-1.891a199 199 0 0 0 2.213 5.22c.494 1.14.945 2.214 1.397 3.288v6.531h1.783v-6.488zm.344 3.438v1.246c.02 2.772 1.912 3.202 3.781 3.567 1.16.193 2.364.473 2.364 1.762v1.547c0 1.182-1.118 1.826-2.213 1.826-1.118 0-2.192-.816-2.192-2.428h-1.74c-.022 2.793 1.89 4.233 3.932 4.233 1.955 0 3.974-1.225 3.974-3.631v-1.547c0-2.621-2.02-3.159-3.76-3.524-1.052-.215-2.406-.623-2.406-1.805v-1.246c0-1.181 1.096-1.826 2.213-1.826 1.096 0 2.192.838 2.192 2.428h1.761c0-2.772-1.998-4.211-3.953-4.211-2.02 0-3.953 1.224-3.953 3.61m11.645 11.602v-15.04h-1.783v15.04zm1.998-11.602v1.246c.021 2.772 1.912 3.202 3.781 3.567 1.16.193 2.364.473 2.364 1.762v1.547c0 1.182-1.117 1.826-2.213 1.826-1.117 0-2.192-.816-2.192-2.428h-1.74c-.022 2.793 1.89 4.233 3.932 4.233 1.955 0 3.975-1.225 3.975-3.631v-1.547c0-2.621-2.02-3.159-3.76-3.524-1.053-.215-2.407-.623-2.407-1.805v-1.246c0-1.181 1.096-1.826 2.213-1.826 1.096 0 2.192.838 2.192 2.428h1.762c0-2.772-1.998-4.211-3.954-4.211-2.02 0-3.953 1.224-3.953 3.61" aria-label="ANALYSIS" style="fill:#ff9200;stroke-width:.264584"/>
        </g>
    </g>
</svg>
