<?xml version="1.0" encoding="UTF-8" standalone="no"?>
<!-- Created with Inkscape (http://www.inkscape.org/) -->

<svg
   width="110.49126mm"
   height="46.890671mm"
   viewBox="0 0 110.49126 46.890671"
   version="1.1"
   id="svg1"
   xml:space="preserve"
   xmlns="http://www.w3.org/2000/svg"
   xmlns:svg="http://www.w3.org/2000/svg"><defs
     id="defs1"><style
       id="style1">
      .cls-1, .cls-2 {
        font-family: ZagBold, 'Zag Bold';
        font-size: 96px;
      }

      .cls-3 {
        letter-spacing: -.16em;
      }

      .cls-4 {
        letter-spacing: -.02em;
      }

      .cls-2, .cls-5 {
        fill: #ff9200;
      }

      .cls-6 {
        letter-spacing: 0em;
      }

      .cls-7 {
        fill: gray;
      }

      .cls-7, .cls-5, .cls-8 {
        fill-rule: evenodd;
      }

      .cls-9 {
        letter-spacing: -.03em;
      }
    </style></defs><g
     id="layer1"
     transform="translate(-2469.7545,-125.05466)"><g
       id="g90"><path
         style="baseline-shift:baseline;display:inline;overflow:visible;opacity:1;vector-effect:none;fill:#ff9200;stroke-linecap:round;stroke-linejoin:round;paint-order:stroke fill markers;enable-background:accumulate;stop-color:#000000;stop-opacity:1"
         d="m 2499.0527,130.14844 c -2.829,0.93504 -5.5466,0.0901 -8.8984,0.85156 -3.3518,0.7615 -7.0279,3.24943 -11.5762,10.62695 a 0.80008001,0.80008001 0 0 0 -0.1191,0.41407 l -0.1172,22.87109 a 0.80008001,0.80008001 0 0 0 1.125,0.73437 c 3.0901,-1.37226 5.9453,-0.51423 9.373,-1.18164 3.4278,-0.6674 7.0886,-3.03409 11.3301,-10.6289 a 0.80008001,0.80008001 0 0 0 0.1016,-0.39649 l -0.168,-22.53711 a 0.80008001,0.80008001 0 0 0 -1.0508,-0.7539 z m -0.5429,1.65625 0.1601,21.41211 c -4.0704,7.22267 -7.1937,9.1051 -10.1347,9.67773 -2.6485,0.51568 -5.4447,-0.0498 -8.5879,0.94727 l 0.1093,-21.54688 c 4.3695,-7.02751 7.6003,-9.08623 10.4532,-9.73437 2.5598,-0.58158 5.12,-0.12346 8,-0.75586 z"
         id="path125-4" /><path
         style="font-size:96px;font-family:ZagBold, 'Zag Bold';baseline-shift:baseline;display:inline;overflow:visible;vector-effect:none;fill:#808080;fill-opacity:1;stroke-width:0.264584;stroke-linecap:round;paint-order:stroke fill markers;enable-background:accumulate;stop-color:#000000"
         d="m 2491.2592,136.39926 c -3.1334,0 -5.6805,2.54893 -5.6805,5.68001 v 0.0205 c -0.1307,2.09769 -0.9113,3.72764 -2.6153,5.00985 -1.0788,0.77662 -2.4082,1.23516 -3.704,1.23516 -0.5603,0 -1.0631,-0.0643 -1.613,-0.21657 -0.7153,-0.17032 -1.4343,-0.39522 -2.2081,-0.39522 -0.6132,0 -1.2242,0.10074 -1.8106,0.29769 -1.457,0.49014 -2.5897,1.47713 -3.2723,2.85355 -0.5777,1.16303 -0.7398,2.41047 -0.4821,3.64693 0.5126,2.60516 2.8138,4.57539 5.5672,4.57539 0.7778,0 1.1879,-0.26481 2.1636,-0.47844 0.5489,-0.12199 1.134,-0.17424 1.6889,-0.16124 1.3187,0.0309 2.5284,0.44641 3.6281,1.23035 1.6338,1.18618 2.6825,3.20023 2.6714,5.21897 0,0.62219 0.065,1.0683 0.2686,1.67482 0.7786,2.3134 2.9416,3.86839 5.3801,3.86943 v 0 c 0.6148,-2.1e-4 1.2226,-0.0987 1.8106,-0.29768 1.4324,-0.48343 2.5942,-1.49712 3.2701,-2.86011 0.6759,-1.363 0.7833,-2.90304 0.2999,-4.33541 -0.7788,-2.31417 -2.9432,-3.86943 -5.3828,-3.86943 -0.6077,0 -1.2087,0.099 -1.7904,0.29112 l -0.1119,0.038 c -0.6379,0.21038 -1.2982,0.31299 -1.9562,0.31299 -1.307,0 -2.6008,-0.40943 -3.6862,-1.19948 -1.6294,-1.18394 -2.5893,-3.08173 -2.5804,-5.096 2e-4,-0.053 -4e-4,-0.10606 0,-0.15911 0.029,-1.98177 0.9962,-3.8355 2.6114,-4.99547 1.0787,-0.77661 2.3589,-1.17718 3.6548,-1.17718 0.6848,0 1.374,0.11442 2.0387,0.34271 0.5886,0.20143 1.2065,0.30424 1.8399,0.30424 3.1333,0 5.6804,-2.54713 5.6804,-5.68044 0,-3.13331 -2.5471,-5.68 -5.6804,-5.68 z"
         id="path19-2-0-4" /><path
         style="baseline-shift:baseline;display:inline;overflow:visible;vector-effect:none;fill:#ff9200;fill-opacity:1;stroke-width:0.264584;paint-order:stroke fill markers;enable-background:accumulate;stop-color:#000000"
         d="m 2502.3881,153.44523 a 2.9160715,2.9160715 0 0 1 -2.9161,2.91607 2.9160715,2.9160715 0 0 1 -2.916,-2.91607 2.9160715,2.9160715 0 0 1 2.916,-2.91607 2.9160715,2.9160715 0 0 1 2.9161,2.91607 z"
         id="path17-3-1-2" /><path
         style="baseline-shift:baseline;display:inline;overflow:visible;vector-effect:none;fill:#ff9200;fill-opacity:1;stroke-width:0.264584;stroke-linecap:round;paint-order:stroke fill markers;enable-background:accumulate;stop-color:#000000"
         d="m 2503.0566,130.90837 a 3.7521584,3.7521584 0 0 1 -3.7521,3.75216 3.7521584,3.7521584 0 0 1 -3.7522,-3.75216 3.7521584,3.7521584 0 0 1 3.7522,-3.75215 3.7521584,3.7521584 0 0 1 3.7521,3.75215 z"
         id="path15-3-5-5" /><path
         style="baseline-shift:baseline;display:inline;overflow:visible;vector-effect:none;fill:#ff9200;fill-opacity:1;stroke-width:0.264584;paint-order:stroke fill markers;enable-background:accumulate;stop-color:#000000"
         d="m 2484.2431,164.91626 a 5.1015315,5.1015315 0 0 1 -5.1015,5.10153 5.1015315,5.1015315 0 0 1 -5.1015,-5.10153 5.1015315,5.1015315 0 0 1 5.1015,-5.10154 5.1015315,5.1015315 0 0 1 5.1015,5.10154 z"
         id="path13-2-5-4" /><path
         style="baseline-shift:baseline;display:inline;overflow:visible;vector-effect:none;fill:#ff9200;fill-opacity:1;stroke-width:0.264584;stroke-linecap:round;stroke-linejoin:round;paint-order:stroke fill markers;enable-background:accumulate;stop-color:#000000"
         d="m 2481.1714,142.04585 a 1.9121287,1.9121287 0 0 1 -1.9121,1.91213 1.9121287,1.9121287 0 0 1 -1.9121,-1.91213 1.9121287,1.9121287 0 0 1 1.9121,-1.91212 1.9121287,1.9121287 0 0 1 1.9121,1.91212 z"
         id="path11-3-4-7" /><path
         id="path7-7-6-5"
         class="cls-1"
         d="m 2487.4248,125.05466 c 3.1333,0 5.7455,2.56094 5.7455,5.69202 v 0.0206 c -0.024,2.15213 0.988,3.94811 2.5449,5.10118 1.0965,0.81135 2.3992,1.19064 3.6796,1.1752 0.5603,-0.007 1.0988,-0.0588 1.6486,-0.21105 0.6826,-0.17961 1.4285,-0.44412 2.2023,-0.44412 0.6132,0 1.2241,0.10073 1.8105,0.29769 1.457,0.49013 2.5897,1.47713 3.2723,2.85355 0.5778,1.16303 0.7399,2.41047 0.4822,3.64693 -0.5126,2.60516 -2.8139,4.57539 -5.5672,4.57539 -0.7778,0 -1.4412,-0.29441 -2.1707,-0.4632 -0.5451,-0.14901 -1.1258,-0.20123 -1.6808,-0.20123 -1.3071,0 -2.5849,0.45642 -3.6682,1.24422 -1.6106,1.20935 -2.5479,3.01925 -2.5985,5.05344 0,0.62218 -0.099,1.2447 -0.3025,1.85122 -0.7785,2.31341 -2.9416,3.8684 -5.3801,3.86943 v 0 c -0.6148,-2.1e-4 -1.2226,-0.0987 -1.8106,-0.29768 -1.4324,-0.48343 -2.5942,-1.49712 -3.2701,-2.86011 -0.6759,-1.36299 -0.7833,-2.90303 -0.2999,-4.33541 0.7788,-2.31417 2.9432,-3.86943 5.3828,-3.86943 0.6077,0 1.2087,0.099 1.7904,0.29113 l 0.1119,0.038 c 0.6379,0.21038 1.2982,0.31298 1.9562,0.31298 1.307,0 2.6008,-0.40943 3.6862,-1.19947 1.6294,-1.18394 2.5893,-3.08173 2.5804,-5.096 -2e-4,-0.053 4e-4,-0.10606 0,-0.15912 -0.029,-1.98176 -0.9962,-3.83549 -2.6114,-4.99546 -1.0788,-0.77662 -2.359,-1.17718 -3.6548,-1.17718 -0.6849,0 -1.3741,0.11442 -2.0388,0.34271 -0.5886,0.20142 -1.2065,0.30424 -1.8398,0.30424 -3.1333,0 -5.6805,-2.54713 -5.6805,-5.68044 0,-3.13332 2.5472,-5.68001 5.6805,-5.68001 z"
         style="font-size:96px;font-family:ZagBold, 'Zag Bold';display:inline;fill:#000000;fill-opacity:1;stroke-width:0px" /><path
         style="baseline-shift:baseline;display:inline;overflow:visible;opacity:1;vector-effect:none;fill:#ff9200;stroke-linecap:round;stroke-linejoin:round;paint-order:stroke fill markers;enable-background:accumulate;stop-color:#000000;stop-opacity:1"
         d="m 2479.0449,141.27539 a 0.80000001,0.80000001 0 0 0 -0.4824,0.37695 0.80000001,0.80000001 0 0 0 0.3047,1.08985 l 20.2109,11.40039 a 0.80000001,0.80000001 0 0 0 1.0899,-0.30469 0.80000001,0.80000001 0 0 0 -0.3028,-1.08984 l -20.2129,-11.39844 a 0.80000001,0.80000001 0 0 0 -0.6074,-0.0742 z"
         id="path132" /><path
         style="baseline-shift:baseline;display:inline;overflow:visible;opacity:1;vector-effect:none;fill:#ff9200;stroke-linecap:round;stroke-linejoin:round;paint-order:stroke fill markers;enable-background:accumulate;stop-color:#000000;stop-opacity:1"
         d="m 2499.7129,130.2207 a 0.80000001,0.80000001 0 0 0 -1.0957,0.2793 l -20.1641,34.00781 a 0.80000001,0.80000001 0 0 0 0.2813,1.09571 0.80000001,0.80000001 0 0 0 1.0957,-0.2793 l 20.1621,-34.00781 a 0.80000001,0.80000001 0 0 0 -0.2793,-1.09571 z"
         id="path133" /><path
         style="baseline-shift:baseline;display:inline;overflow:visible;opacity:1;vector-effect:none;fill:#ff9200;stroke-linecap:round;stroke-linejoin:round;paint-order:stroke fill markers;enable-background:accumulate;stop-color:#000000;stop-opacity:1"
         d="m 2499.6953,130.20898 a 0.80000001,0.80000001 0 0 0 -1.0898,0.3086 c -1.9473,3.48807 -3.9241,6.80043 -6.7715,8.89844 -2.8474,2.098 -6.5769,3.09254 -12.4082,1.84765 a 0.80000001,0.80000001 0 0 0 -0.9492,0.61524 0.80000001,0.80000001 0 0 0 0.6152,0.94921 c 6.1472,1.31233 10.4875,0.23761 13.6914,-2.12304 3.2039,-2.36066 5.2615,-5.8968 7.2207,-9.40625 a 0.80000001,0.80000001 0 0 0 -0.3086,-1.08985 z"
         id="path134" /><path
         style="baseline-shift:baseline;display:inline;overflow:visible;opacity:1;vector-effect:none;fill:#ff9200;stroke-linecap:round;stroke-linejoin:round;paint-order:stroke fill markers;enable-background:accumulate;stop-color:#000000;stop-opacity:1"
         d="m 2494.9277,152.25586 c -4.268,-4.4e-4 -7.3725,1.14649 -9.7363,2.97266 -3.1518,2.43488 -4.9512,5.95645 -6.7539,9.30859 a 0.80000001,0.80000001 0 0 0 0.3262,1.08398 0.80000001,0.80000001 0 0 0 1.082,-0.32617 c 1.8106,-3.36688 3.5337,-6.64647 6.3223,-8.80078 2.7886,-2.15431 6.6785,-3.30358 13.1777,-2.25977 a 0.80000001,0.80000001 0 0 0 0.916,-0.6621 0.80000001,0.80000001 0 0 0 -0.6621,-0.91602 c -1.6966,-0.27249 -3.2492,-0.40025 -4.6719,-0.40039 z"
         id="path135" /><path
         style="font-size:12.7px;line-height:0.8;font-family:'Zag Bold';-inkscape-font-specification:'Zag Bold, Normal';letter-spacing:-0.10958px;fill:#808080;stroke-width:0.177966;stroke-linecap:round;stroke-linejoin:round;paint-order:stroke fill markers"
         d="m 2515.3863,161.59483 c 0.5461,0 1.016,0.4953 1.016,1.0668 v 4.6736 c 0,0.5715 -0.4699,1.0414 -1.016,1.0414 h -1.7018 c 0,-2.2987 -0.013,-4.4958 -0.013,-6.7818 z m -1.9431,7.8359 h 1.9431 c 1.0795,0 2.0701,-0.889 2.0701,-2.0955 v -4.6863 c 0,-1.1303 -0.9906,-2.1082 -2.0701,-2.1082 h -1.9431 c -0.4699,0 -0.8128,0.3302 -0.8128,0.8128 v 7.2517 c 0,0.4318 0.3048,0.8255 0.8128,0.8255 z m 5.6308,-8.0899 c -0.3302,0 -0.6223,0.254 -0.6223,0.6477 0,0.3683 0.2921,0.635 0.6223,0.635 0.3429,0 0.6604,-0.2667 0.6604,-0.635 0,-0.3937 -0.3175,-0.6477 -0.6604,-0.6477 z m 0.5207,1.9812 h -1.016 v 6.1087 h 1.016 z m 4.7926,1.0668 c -0.5207,-0.7874 -1.2065,-1.143 -1.8542,-1.143 -1.016,0 -2.0193,0.6985 -2.0066,1.9431 0,1.1811 0.8509,1.6256 1.905,1.651 0.4953,0.0127 0.9525,0.2667 0.9525,0.8001 0,0.5588 -0.4826,0.8509 -0.9906,0.8509 -0.3937,0 -0.8382,-0.2286 -1.1303,-0.7112 l -0.8763,0.4699 c 0.4699,0.8255 1.3081,1.27 1.9939,1.27 1.016,0 2.0447,-0.5969 2.032,-1.8796 0,-1.2192 -0.9652,-1.8161 -1.9685,-1.8415 -0.4953,-0.0127 -0.9017,-0.1524 -0.889,-0.6096 0,-0.2667 0.1016,-0.4699 0.2286,-0.6096 0.1905,-0.2032 0.4699,-0.3302 0.762,-0.3302 0.2794,0 0.6477,0.254 0.9779,0.7112 z m 1.9097,-1.0922 v -2.4765 h -1.016 v 6.5532 c 0,1.2065 1.1176,2.0574 2.4003,2.0574 v -1.016 c -0.7493,0 -1.3843,-0.4572 -1.3843,-1.0414 v -3.048 h 1.27 v -1.0287 z m 6.2024,1.9558 c 0,-1.3716 -1.0287,-2.0066 -2.0701,-2.0066 -1.0287,0 -2.0574,0.635 -2.0574,2.0066 v 2.2225 c 0,1.3589 1.016,2.0193 2.0574,2.0193 1.0287,0 2.0701,-0.6604 2.0701,-2.0193 z m -1.0287,2.2225 c 0,0.6477 -0.5207,0.9779 -1.0414,0.9779 -0.508,0 -1.0414,-0.3302 -1.0414,-0.9779 v -2.2225 c 0,-0.6477 0.5334,-0.9906 1.0414,-0.9906 0.5207,0 1.0414,0.3429 1.0414,0.9906 z m 4.1449,-4.2672 c -0.381,0 -0.8255,0.1905 -1.0541,0.7112 l -0.2032,-0.635 h -0.7747 v 8.6614 h 1.0287 v -3.0226 c 0.2286,0.4191 0.635,0.4953 0.9779,0.5207 1.1303,0.0889 2.0447,-0.9271 2.0447,-1.9558 v -2.4257 c 0,-1.0541 -0.635,-1.8542 -2.0193,-1.8542 z m 0.9906,4.2799 c 0,0.5207 -0.4699,0.9271 -1.016,0.9271 -0.635,0 -0.9652,-0.3683 -0.9779,-0.8763 v -2.413 c 0,-0.4445 0.4318,-0.9017 0.9779,-0.9017 0.5588,0 1.016,0.3302 1.016,0.8382 z m 2.6971,-6.1468 c -0.3302,0 -0.6223,0.254 -0.6223,0.6477 0,0.3683 0.2921,0.635 0.6223,0.635 0.3429,0 0.6604,-0.2667 0.6604,-0.635 0,-0.3937 -0.3175,-0.6477 -0.6604,-0.6477 z m 0.5207,1.9812 h -1.016 v 6.1087 h 1.016 z m 2.532,6.1849 c 0.3175,0 0.9652,-0.1905 1.0922,-0.7239 l 0.1016,0.6477 h 0.8255 v -4.1529 c 0,-1.1176 -0.9398,-2.0193 -2.0193,-2.0193 -0.4953,0 -1.0922,0.2794 -1.524,0.6731 l 0.5588,0.8509 c 0.3429,-0.3302 0.7112,-0.4826 0.9652,-0.4826 0.5461,0 0.9906,0.4445 0.9906,0.9779 l 0.025,0.5334 c -0.1397,-0.4064 -0.635,-0.6731 -1.0414,-0.6731 -1.1684,0 -1.9812,0.9144 -1.9812,1.9812 v 0.3556 c 0,1.0922 0.9144,2.032 2.0066,2.032 z m -0.9779,-2.032 v -0.3556 c 0,-0.5461 0.4445,-0.9779 0.9779,-0.9779 0.5461,0 0.9906,0.3556 0.9906,0.8636 v 0.6223 c 0,0.4572 -0.508,0.8509 -0.9906,0.8509 -0.5334,0 -0.9779,-0.4572 -0.9779,-1.0033 z"
         id="text163"
         aria-label="Distopia" /><path
         style="font-size:20.9687px;font-family:'Zag Bold';-inkscape-font-specification:'Zag Bold, Normal';stroke-width:0.258219"
         d="m 2517.7731,133.74878 -0.1048,1.13231 h -0.1258 l -0.1049,-1.09038 c -0.5871,-2.18074 -1.0903,-4.31955 -1.8033,-6.58417 -0.1887,-0.58712 -0.7548,-0.94359 -1.3,-0.94359 -0.671,0 -1.4888,0.37744 -1.4678,1.25812 v 13.41997 h 1.7194 l -0.042,-10.19079 -0.2097,-2.8098 h 0.1467 l 0.3775,2.15977 1.6775,5.59864 c 0.2306,0.50325 0.671,0.79682 1.0484,0.79682 0.4823,0 0.9226,-0.31453 1.0904,-0.79682 0.5452,-1.67749 1.1533,-3.73242 1.7194,-5.49379 l 0.4823,-2.26462 h 0.2726 l -0.4823,2.91465 -0.063,9.79238 0.021,0.29356 h 1.7194 v -13.46191 c -0.042,-0.88068 -0.7549,-1.30006 -1.3839,-1.30006 -0.5033,0 -1.0485,0.31454 -1.2791,0.96457 -0.3775,1.15327 -0.7549,2.4114 -1.1114,3.64855 -0.2935,0.98553 -0.5242,1.99203 -0.7968,2.95659 z m 11.1763,-5.74543 c 0.9017,0 1.6775,0.81778 1.6775,1.76137 v 7.71648 c 0,0.9436 -0.7758,1.71944 -1.6775,1.71944 h -2.8098 c 0,-3.79534 -0.021,-7.42292 -0.021,-11.19729 z m -3.2082,12.93769 h 3.2082 c 1.7824,0 3.4179,-1.46781 3.4179,-3.45984 v -7.73745 c 0,-1.86621 -1.6355,-3.4808 -3.4179,-3.4808 h -3.2082 c -0.7758,0 -1.342,0.54519 -1.342,1.342 v 11.97312 c 0,0.71294 0.5033,1.36297 1.342,1.36297 z"
         id="text164"
         class="cls-1"
         aria-label="MD" /><path
         style="font-size:21.4856px;font-family:'Zag Bold';-inkscape-font-specification:'Zag Bold, Normal';letter-spacing:0px;fill:#ff9200;stroke-width:0.264584"
         d="m 2520.7522,158.12947 h 1.9122 l -3.6311,-14.05158 c -0.1934,-0.68754 -0.8594,-1.16022 -1.3966,-1.16022 -0.5586,0 -1.1817,0.42971 -1.4395,1.20319 l -3.5666,14.00861 h 1.8693 c 0.1933,-0.79497 0.4726,-1.86925 1.3106,-5.13506 h 3.6096 z m -4.512,-6.89688 c 0.4082,-1.71884 0.709,-3.63106 1.1387,-5.34991 l 0.1719,-1.46102 h 0.1719 l 0.1504,1.46102 1.0958,5.34991 z m 14.0515,-8.14304 0.086,10.42052 0.6231,2.8361 h -0.1289 l -4.4261,-12.50462 0.021,0.043 c -0.1074,-0.53714 -0.752,-0.85943 -1.2676,-0.85943 -0.6231,0 -1.2247,0.47269 -1.2032,1.26765 v 13.83673 h 1.8262 l -0.086,-10.35606 -0.5157,-2.64273 0.2579,-0.0645 c 0.1933,0.55862 0.6231,2.64273 1.0098,3.67403 1.1172,2.92205 2.1486,5.973 3.2228,8.61573 0.2149,0.47268 0.795,0.77348 1.2247,0.77348 0.5801,0 1.1388,-0.40823 1.1388,-1.22468 v -13.81524 z m 11.4304,15.03992 h 1.9122 l -3.631,-14.05158 c -0.1934,-0.68754 -0.8595,-1.16022 -1.3966,-1.16022 -0.5586,0 -1.1817,0.42971 -1.4395,1.20319 l -3.5667,14.00861 h 1.8693 c 0.1934,-0.79497 0.4727,-1.86925 1.3106,-5.13506 h 3.6096 z m -4.512,-6.89688 c 0.4083,-1.71884 0.709,-3.63106 1.1388,-5.34991 l 0.1718,-1.46102 h 0.1719 l 0.1504,1.46102 1.0958,5.34991 z m 14.7821,6.89688 v -1.7833 h -5.1995 l -0.021,-13.25662 h -1.8048 v 13.66484 c 0,0.83794 0.752,1.41805 1.4825,1.37508 z m 6.3597,-15.03992 h -1.9337 c -0.4726,1.11725 -1.9122,4.89872 -2.4064,6.10191 -0.043,0.19337 -0.1504,1.00982 -0.1718,1.18171 l -0.1934,-1.16022 c -0.5586,-1.39657 -1.8048,-4.70535 -2.4279,-6.1234 h -1.8907 c 0.6016,1.48251 1.5255,3.67404 2.213,5.221 0.4942,1.13874 0.9454,2.21302 1.3966,3.2873 v 6.53162 h 1.7833 v -6.48865 z m 0.3438,3.4377 v 1.24616 c 0.021,2.77164 1.9122,3.20136 3.7815,3.56661 1.1602,0.19337 2.3634,0.47268 2.3634,1.76182 v 1.54696 c 0,1.18171 -1.1173,1.82628 -2.213,1.82628 -1.1173,0 -2.1916,-0.81645 -2.1916,-2.42787 h -1.7403 c -0.022,2.79312 1.8907,4.23266 3.9319,4.23266 1.9552,0 3.9748,-1.22468 3.9748,-3.63107 v -1.54696 c 0,-2.62124 -2.0196,-3.15838 -3.76,-3.52364 -1.0528,-0.21485 -2.4064,-0.62308 -2.4064,-1.80479 v -1.24616 c 0,-1.18171 1.0958,-1.82628 2.2131,-1.82628 1.0957,0 2.1915,0.83794 2.1915,2.42787 h 1.7618 c 0,-2.77164 -1.9982,-4.21117 -3.9533,-4.21117 -2.0197,0 -3.9534,1.22468 -3.9534,3.60958 z m 11.6452,11.60222 v -15.03992 h -1.7833 v 15.03992 z m 1.9982,-11.60222 v 1.24616 c 0.021,2.77164 1.9122,3.20136 3.7814,3.56661 1.1603,0.19337 2.3634,0.47268 2.3634,1.76182 v 1.54696 c 0,1.18171 -1.1172,1.82628 -2.213,1.82628 -1.1172,0 -2.1915,-0.81645 -2.1915,-2.42787 h -1.7403 c -0.022,2.79312 1.8907,4.23266 3.9318,4.23266 1.9552,0 3.9749,-1.22468 3.9749,-3.63107 v -1.54696 c 0,-2.62124 -2.0197,-3.15838 -3.76,-3.52364 -1.0528,-0.21485 -2.4064,-0.62308 -2.4064,-1.80479 v -1.24616 c 0,-1.18171 1.0958,-1.82628 2.213,-1.82628 1.0958,0 2.1915,0.83794 2.1915,2.42787 h 1.7619 c 0,-2.77164 -1.9982,-4.21117 -3.9534,-4.21117 -2.0196,0 -3.9533,1.22468 -3.9533,3.60958 z"
         id="text165"
         class="cls-2"
         aria-label="ANALYSIS" /></g></g></svg>
