<?xml version="1.0" encoding="UTF-8" standalone="no"?>
<!-- Created with Inkscape (http://www.inkscape.org/) -->

<svg
   width="114.261mm"
   height="57.060291mm"
   viewBox="0 0 114.261 57.060291"
   version="1.1"
   id="svg1"
   xml:space="preserve"
   xmlns="http://www.w3.org/2000/svg"
   xmlns:svg="http://www.w3.org/2000/svg"><defs
     id="defs1"><style
       id="style1">
      .cls-1, .cls-2 {
        font-family: ZagBold, 'Zag Bold';
        font-size: 96px;
      }

      .cls-3 {
        letter-spacing: -.16em;
      }

      .cls-4 {
        letter-spacing: -.02em;
      }

      .cls-2, .cls-5 {
        fill: #ff9200;
      }

      .cls-6 {
        letter-spacing: 0em;
      }

      .cls-7 {
        fill: gray;
      }

      .cls-7, .cls-5, .cls-8 {
        fill-rule: evenodd;
      }

      .cls-9 {
        letter-spacing: -.03em;
      }
    </style></defs><g
     id="layer1"
     transform="translate(-1147.8695,-119.96985)"><g
       id="g84"><path
         style="font-size:96px;font-family:ZagBold, 'Zag Bold';baseline-shift:baseline;display:inline;overflow:visible;vector-effect:none;fill:#808080;fill-opacity:1;stroke-width:0.228116;stroke-linecap:round;paint-order:stroke fill markers;enable-background:accumulate;stop-color:#000000"
         d="m 1192.9457,154.68666 c -3.1936,0 -5.7897,-2.59799 -5.7897,-5.78933 v -0.0209 c -0.1333,-2.13807 -0.9289,-3.79939 -2.6657,-5.10629 -1.0995,-0.79157 -2.4545,-1.25895 -3.7753,-1.25895 -0.5711,0 -1.0836,0.0655 -1.644,0.22075 -0.7291,0.17359 -1.462,0.40282 -2.2506,0.40282 -0.6251,0 -1.2478,-0.10267 -1.8455,-0.30341 -1.485,-0.49958 -2.6395,-1.50557 -3.3353,-2.90848 -0.5888,-1.18542 -0.7541,-2.45687 -0.4914,-3.71713 0.5225,-2.6553 2.868,-4.66346 5.6744,-4.66346 0.7928,0 1.2108,0.26992 2.2053,0.48766 0.5595,0.12433 1.1558,0.17759 1.7214,0.16434 1.344,-0.0315 2.577,-0.455 3.6979,-1.25404 1.6653,-1.20901 2.7342,-3.26182 2.7228,-5.31943 -0.01,-0.63417 0.066,-1.08886 0.2738,-1.70705 0.7936,-2.35794 2.9982,-3.94286 5.4837,-3.94391 v 0 c 0.6266,2.1e-4 1.2461,0.1006 1.8454,0.30341 1.4599,0.49273 2.6442,1.52593 3.3331,2.91516 0.6889,1.38923 0.7983,2.95891 0.3056,4.41886 -0.7938,2.35872 -2.9999,3.94391 -5.4864,3.94391 -0.6194,0 -1.2319,-0.10093 -1.8249,-0.29673 l -0.114,-0.0388 c -0.6502,-0.21442 -1.3232,-0.319 -1.9938,-0.319 -1.3322,0 -2.6509,0.41731 -3.7573,1.22256 -1.6606,1.20673 -2.6391,3.14105 -2.63,5.19409 2e-4,0.0541 -4e-4,0.1081 0,0.16218 0.03,2.0199 1.0154,3.90931 2.6617,5.09161 1.0995,0.79158 2.4043,1.19985 3.7251,1.19985 0.6981,0 1.4005,-0.11662 2.078,-0.3493 0.6,-0.20531 1.2297,-0.31011 1.8753,-0.31011 3.1936,0 5.7898,2.59617 5.7898,5.78979 0,3.19362 -2.5962,5.78933 -5.7898,5.78933 z"
         id="path39-2-5" /><path
         style="font-size:96px;font-family:ZagBold, 'Zag Bold';baseline-shift:baseline;display:inline;overflow:visible;vector-effect:none;fill:#ff9200;fill-opacity:1;stroke-width:0.228116;stroke-linecap:round;paint-order:stroke fill markers;enable-background:accumulate;stop-color:#000000"
         d="m 1205.1086,154.68666 c -3.1937,0 -5.7898,-2.59799 -5.7898,-5.78933 v -0.0209 c -0.1333,-2.13807 -0.9288,-3.79939 -2.6657,-5.10629 -1.0995,-0.79157 -2.4545,-1.25895 -3.7753,-1.25895 -0.5711,0 -1.0836,0.0655 -1.644,0.22075 -0.729,0.17359 -1.4619,0.40282 -2.2506,0.40282 -0.6251,0 -1.2478,-0.10267 -1.8454,-0.30341 -1.4851,-0.49958 -2.6396,-1.50557 -3.3353,-2.90848 -0.5889,-1.18542 -0.7541,-2.45687 -0.4915,-3.71713 0.5225,-2.6553 2.868,-4.66346 5.6744,-4.66346 0.7928,0 1.2108,0.26992 2.2053,0.48766 0.5595,0.12433 1.1558,0.17759 1.7214,0.16434 1.344,-0.0315 2.577,-0.455 3.6979,-1.25404 1.6653,-1.20901 2.7342,-3.26182 2.7228,-5.31943 -0.01,-0.63417 0.066,-1.08886 0.2738,-1.70705 0.7936,-2.35794 2.9982,-3.94286 5.4837,-3.94391 v 0 c 0.6266,2.1e-4 1.2461,0.1006 1.8454,0.30341 1.46,0.49273 2.6442,1.52593 3.3331,2.91516 0.6889,1.38923 0.7984,2.95891 0.3056,4.41886 -0.7938,2.35872 -2.9999,3.94391 -5.4863,3.94391 -0.6195,0 -1.232,-0.10093 -1.825,-0.29673 l -0.114,-0.0388 c -0.6501,-0.21442 -1.3231,-0.319 -1.9938,-0.319 -1.3322,0 -2.6509,0.41731 -3.7572,1.22256 -1.6607,1.20673 -2.6392,3.14105 -2.63,5.19409 10e-5,0.0541 -5e-4,0.1081 0,0.16218 0.03,2.0199 1.0153,3.90931 2.6616,5.09161 1.0995,0.79158 2.4044,1.19985 3.7252,1.19985 0.698,0 1.4004,-0.11662 2.0779,-0.3493 0.6,-0.20531 1.2297,-0.31011 1.8753,-0.31011 3.1936,0 5.7898,2.59617 5.7898,5.78979 0,3.19362 -2.5962,5.78933 -5.7898,5.78933 z"
         id="path32" /><path
         style="font-size:96px;font-family:ZagBold, 'Zag Bold';baseline-shift:baseline;display:inline;overflow:visible;vector-effect:none;fill:#000000;fill-opacity:1;stroke-width:0.228116;stroke-linecap:round;paint-order:stroke fill markers;enable-background:accumulate;stop-color:#000000"
         d="m 1217.2323,154.68666 c 3.1936,0 5.7898,-2.59799 5.7898,-5.78933 v -0.0209 c 0.1333,-2.13807 0.9288,-3.79939 2.6657,-5.10629 1.0995,-0.79157 2.4546,-1.25895 3.7754,-1.25895 0.5711,0 1.0835,0.0655 1.644,0.22075 0.729,0.17359 1.4619,0.40282 2.2506,0.40282 0.625,0 1.2478,-0.10267 1.8454,-0.30341 1.4851,-0.49958 2.6396,-1.50557 3.3353,-2.90848 0.5889,-1.18542 0.7541,-2.45687 0.4915,-3.71713 -0.5225,-2.6553 -2.8681,-4.66346 -5.6744,-4.66346 -0.7928,0 -1.2108,0.26992 -2.2053,0.48766 -0.5595,0.12433 -1.1558,0.17759 -1.7214,0.16434 -1.344,-0.0315 -2.5771,-0.455 -3.6981,-1.25404 -1.6652,-1.20901 -2.7341,-3.26182 -2.7227,-5.31943 0,-0.63417 -0.066,-1.08886 -0.2738,-1.70705 -0.7936,-2.35794 -2.9983,-3.94286 -5.4837,-3.94391 v 0 c -0.6267,2.1e-4 -1.2461,0.1006 -1.8454,0.30341 -1.4599,0.49273 -2.6441,1.52593 -3.333,2.91516 -0.6889,1.38923 -0.7984,2.95891 -0.3057,4.41886 0.7939,2.35872 2.9999,3.94391 5.4863,3.94391 0.6195,0 1.232,-0.10093 1.8249,-0.29673 l 0.1141,-0.0388 c 0.6501,-0.21442 1.3231,-0.319 1.9938,-0.319 1.3322,0 2.6509,0.41731 3.7572,1.22256 1.6607,1.20673 2.6392,3.14105 2.63,5.19409 -2e-4,0.0541 5e-4,0.1081 0,0.16218 -0.03,2.0199 -1.0153,3.90931 -2.6616,5.09161 -1.0995,0.79158 -2.4044,1.19985 -3.7252,1.19985 -0.698,0 -1.4005,-0.11662 -2.078,-0.3493 -0.5999,-0.20531 -1.2297,-0.31011 -1.8753,-0.31011 -3.1935,0 -5.7896,2.59617 -5.7896,5.78979 0,3.19362 2.5961,5.78933 5.7896,5.78933 z"
         id="path34" /><path
         style="font-size:96px;font-family:ZagBold, 'Zag Bold';baseline-shift:baseline;display:inline;overflow:visible;vector-effect:none;fill:#ff9200;fill-opacity:1;stroke-width:0.228116;stroke-linecap:round;paint-order:stroke fill markers;enable-background:accumulate;stop-color:#000000"
         d="m 1205.0696,154.68666 c 3.1936,0 5.7898,-2.59799 5.7898,-5.78933 v -0.0209 c 0.1332,-2.13807 0.9288,-3.79939 2.6656,-5.10629 1.0996,-0.79157 2.4545,-1.25895 3.7752,-1.25895 0.5711,0 1.0836,0.0655 1.644,0.22075 0.7291,0.17359 1.462,0.40282 2.2507,0.40282 0.625,0 1.2477,-0.10267 1.8454,-0.30341 1.485,-0.49958 2.6396,-1.50557 3.3353,-2.90848 0.5889,-1.18542 0.7541,-2.45687 0.4914,-3.71713 -0.5224,-2.6553 -2.868,-4.66346 -5.6744,-4.66346 -0.7927,0 -1.2107,0.26992 -2.2053,0.48766 -0.5594,0.12433 -1.1558,0.17759 -1.7214,0.16434 -1.3439,-0.0315 -2.5769,-0.455 -3.6978,-1.25404 -1.6653,-1.20901 -2.7342,-3.26182 -2.7227,-5.31943 0,-0.63417 -0.066,-1.08886 -0.2739,-1.70705 -0.7935,-2.35794 -2.9982,-3.94286 -5.4837,-3.94391 v 0 c -0.6266,2.1e-4 -1.2461,0.1006 -1.8454,0.30341 -1.4599,0.49273 -2.6441,1.52593 -3.3331,2.91516 -0.6889,1.38923 -0.7983,2.95891 -0.3056,4.41886 0.7939,2.35872 2.9999,3.94391 5.4864,3.94391 0.6194,0 1.232,-0.10093 1.8249,-0.29673 l 0.1141,-0.0388 c 0.6501,-0.21442 1.3231,-0.319 1.9937,-0.319 1.3322,0 2.6509,0.41731 3.7573,1.22256 1.6607,1.20673 2.6391,3.14105 2.63,5.19409 -2e-4,0.0541 4e-4,0.1081 0,0.16218 -0.03,2.0199 -1.0154,3.90931 -2.6617,5.09161 -1.0995,0.79158 -2.4043,1.19985 -3.7251,1.19985 -0.698,0 -1.4005,-0.11662 -2.078,-0.3493 -0.5999,-0.20531 -1.2297,-0.31011 -1.8753,-0.31011 -3.1936,0 -5.7898,2.59617 -5.7898,5.78979 0,3.19362 2.5962,5.78933 5.7898,5.78933 z"
         id="path35" /><g
         id="text38"
         style="font-size:17.0847px;line-height:0.8;font-family:'Zag Bold';-inkscape-font-specification:'Zag Bold, Normal';text-align:end;letter-spacing:-0.177966px;text-anchor:end;fill:#ff9200;stroke:#ff00ff;stroke-width:0.177966;stroke-linecap:round;stroke-linejoin:round;paint-order:stroke fill markers"
         aria-label="OpenBabelConvertor"><path
           style="text-align:center;text-anchor:middle;fill:#000000;stroke:none"
           d="m 1147.8695,170.84548 c 0,1.93057 1.5889,2.9044 3.2119,2.9044 1.6231,0 3.229,-0.97383 3.229,-2.9044 v -6.37259 c 0,-1.91349 -1.6059,-2.88732 -3.229,-2.88732 -1.623,0 -3.2119,0.97383 -3.2119,2.88732 z m 1.3838,-6.37259 c 0,-0.95675 0.9055,-1.46929 1.8281,-1.46929 0.9226,0 1.811,0.51254 1.811,1.46929 v 6.37259 c 0,0.97383 -0.8884,1.48637 -1.811,1.48637 -0.9226,0 -1.8281,-0.51254 -1.8281,-1.48637 z m 9.1674,0.80298 c -0.5125,0 -1.1105,0.25627 -1.418,0.95674 l -0.2734,-0.85424 h -1.0421 v 11.65177 h 1.3838 v -4.06616 c 0.3076,0.5638 0.8543,0.6663 1.3156,0.70047 1.5205,0.1196 2.7506,-1.24718 2.7506,-2.63104 v -3.26318 c 0,-1.41803 -0.8542,-2.49436 -2.7165,-2.49436 z m 1.3326,5.75754 c 0,0.70047 -0.6321,1.24718 -1.3667,1.24718 -0.8543,0 -1.2985,-0.49545 -1.3156,-1.17884 v -3.24609 c 0,-0.59797 0.5809,-1.21302 1.3156,-1.21302 0.7517,0 1.3667,0.4442 1.3667,1.12759 z m 8.2448,-2.98982 c 0,-1.50346 -1.2301,-2.71647 -2.6994,-2.71647 -1.5376,0 -2.7164,1.29844 -2.7164,2.73355 v 2.95566 c 0,1.5547 1.2642,2.69938 2.7164,2.69938 0.7859,0 1.811,-0.32461 2.5456,-1.40095 l -1.1275,-0.82006 c -0.4272,0.59796 -1.008,0.83715 -1.4181,0.83715 -0.7346,0 -1.3326,-0.59797 -1.3326,-1.31552 v -0.54671 h 1.3326 c 1.4522,0 2.6994,-0.87132 2.6994,-2.42603 z m -4.032,1.34969 v -1.31552 c 0,-0.73464 0.598,-1.34969 1.3326,-1.34969 0.7176,0 1.3156,0.59796 1.3156,1.31552 0,0.73464 -0.598,1.34969 -1.3156,1.34969 z m 8.1765,-2.6823 c 0.7346,0 1.3497,0.61505 1.3497,1.33261 v 5.60378 h 1.3838 v -5.60378 c 0,-1.41803 -1.2301,-2.80189 -2.7164,-2.71647 -0.4613,0.0342 -1.1276,0.20502 -1.4351,0.92257 l -0.188,-0.83715 h -1.0934 v 8.23483 h 1.3839 v -5.60378 c 0,-0.71756 0.5979,-1.33261 1.3155,-1.33261 z m 7.6468,-3.60487 c 0.7859,0 1.418,0.64922 1.418,1.41803 v 0.59796 c 0,0.76882 -0.5125,1.41803 -1.2301,1.41803 h -2.2551 v -3.43402 z m 2.819,2.01599 v -0.59796 c 0,-1.62305 -1.3155,-2.81898 -2.819,-2.83606 h -2.3748 c -0.6833,0 -1.0934,0.4442 -1.0934,1.11051 v 9.73827 c 0,0.70048 0.4101,1.12759 1.0934,1.12759 h 2.5969 c 1.418,-0.0171 2.7848,-1.3326 2.7848,-2.81897 v -1.41803 c 0,-0.82007 -0.5467,-2.03308 -1.6743,-2.20393 1.0251,-0.23918 1.4864,-1.4522 1.4864,-2.10142 z m -2.5969,7.12432 h -2.2893 v -4.27117 h 2.2551 c 0.7689,0 1.401,0.64922 1.401,1.4522 v 1.41803 c 0,0.75173 -0.6663,1.36677 -1.3668,1.40094 z m 6.3484,1.50346 c 0.4271,0 1.2984,-0.25627 1.4693,-0.97383 l 0.1366,0.87132 h 1.1105 v -5.5867 c 0,-1.50345 -1.2642,-2.71646 -2.7164,-2.71646 -0.6663,0 -1.4693,0.37586 -2.0502,0.90548 l 0.7517,1.14468 c 0.4613,-0.4442 0.9568,-0.64922 1.2985,-0.64922 0.7346,0 1.3326,0.59797 1.3326,1.31552 l 0.034,0.71756 c -0.188,-0.54671 -0.8543,-0.90549 -1.401,-0.90549 -1.5718,0 -2.6652,1.2301 -2.6652,2.66521 v 0.47838 c 0,1.46928 1.2301,2.73355 2.6994,2.73355 z m -1.3155,-2.73355 v -0.47838 c 0,-0.73464 0.5979,-1.31552 1.3155,-1.31552 0.7346,0 1.3326,0.47837 1.3326,1.16176 v 0.83715 c 0,0.61505 -0.6834,1.14468 -1.3326,1.14468 -0.7176,0 -1.3155,-0.61505 -1.3155,-1.34969 z m 8.2277,2.73355 c 1.8622,0 2.7164,-1.07634 2.7164,-2.49437 v -3.26318 c 0,-1.38386 -1.2301,-2.75063 -2.7506,-2.63104 -0.4613,0.0342 -1.008,0.23919 -1.3155,0.80298 v -4.16867 h -1.3839 v 11.65177 h 1.0422 l 0.2733,-0.85424 c 0.3076,0.70048 0.9055,0.95675 1.4181,0.95675 z m 1.3326,-2.49437 c 0,0.68339 -0.6151,1.12759 -1.3668,1.12759 -0.7346,0 -1.3155,-0.61505 -1.3155,-1.21301 V 167.924 c 0.017,-0.68339 0.4613,-1.17885 1.3155,-1.17885 0.7346,0 1.3668,0.54671 1.3668,1.24718 z m 8.2789,-3.21192 c 0,-1.50346 -1.2301,-2.71647 -2.6993,-2.71647 -1.5377,0 -2.7165,1.29844 -2.7165,2.73355 v 2.95566 c 0,1.5547 1.2643,2.69938 2.7165,2.69938 0.7859,0 1.8109,-0.32461 2.5456,-1.40095 l -1.1276,-0.82006 c -0.4271,0.59796 -1.008,0.83715 -1.418,0.83715 -0.7347,0 -1.3326,-0.59797 -1.3326,-1.31552 v -0.54671 h 1.3326 c 1.4522,0 2.6993,-0.87132 2.6993,-2.42603 z m -4.0319,1.34969 v -1.31552 c 0,-0.73464 0.5979,-1.34969 1.3326,-1.34969 0.7175,0 1.3155,0.59796 1.3155,1.31552 0,0.73464 -0.598,1.34969 -1.3155,1.34969 z m 6.8438,1.48637 v -8.81571 h -1.3668 v 8.81571 c 0,1.62304 1.3497,2.76772 3.1094,2.76772 v -1.36678 c -0.9909,0 -1.7426,-0.61505 -1.7426,-1.40094 z"
           id="path49" /><path
           style="text-align:center;text-anchor:middle;stroke:none"
           d="m 1213.1202,170.36711 c 0,1.28135 -0.8713,1.96474 -1.7768,1.96474 -0.9055,0 -1.7939,-0.52963 -1.811,-1.50346 v -6.3555 c 0,-0.97383 0.8884,-1.50346 1.811,-1.50346 0.9055,0 1.7768,0.68339 1.7768,1.98183 h 1.4522 c -0.034,-2.25518 -1.6572,-3.39986 -3.2461,-3.39986 -1.6401,0 -3.1948,0.97383 -3.1948,2.92149 v 6.3555 c 0,1.94766 1.5718,2.92149 3.2119,2.92149 1.5718,0 3.2119,-1.14468 3.229,-3.38277 z m 8.3473,-2.34061 c 0,-1.84514 -1.3838,-2.69938 -2.7848,-2.69938 -1.3838,0 -2.7677,0.85424 -2.7677,2.69938 v 2.98983 c 0,1.82806 1.3668,2.71646 2.7677,2.71646 1.3839,0 2.7848,-0.8884 2.7848,-2.71646 z m -1.3838,2.98983 c 0,0.87132 -0.7005,1.31552 -1.401,1.31552 -0.6834,0 -1.4009,-0.4442 -1.4009,-1.31552 v -2.98983 c 0,-0.87132 0.7175,-1.3326 1.4009,-1.3326 0.7005,0 1.401,0.46128 1.401,1.3326 z m 5.5112,-4.30535 c 0.7347,0 1.3497,0.61505 1.3497,1.33261 v 5.60378 h 1.3839 v -5.60378 c 0,-1.41803 -1.2301,-2.80189 -2.7165,-2.71647 -0.4613,0.0342 -1.1276,0.20502 -1.4351,0.92257 l -0.188,-0.83715 h -1.0934 v 8.23483 h 1.3839 v -5.60378 c 0,-0.71756 0.598,-1.33261 1.3155,-1.33261 z m 3.1194,-1.28135 c 0.3929,1.43511 0.9055,3.16067 1.3326,4.62995 0.2733,0.95675 0.5638,1.8964 0.8201,2.81898 v -0.0171 c 0.1366,0.58088 0.615,0.88841 1.0763,0.88841 0.4954,0 0.9396,-0.29044 1.1105,-0.87132 l 2.1356,-7.44893 h -1.4693 c -0.5125,1.84515 -0.9738,3.53653 -1.4693,5.41585 l -0.205,1.74264 h -0.1538 l -0.2221,-1.74264 -1.4692,-5.41585 z m 12.3109,2.61396 c 0,-1.50346 -1.2301,-2.71647 -2.6994,-2.71647 -1.5376,0 -2.7164,1.29844 -2.7164,2.73355 v 2.95566 c 0,1.5547 1.2642,2.69938 2.7164,2.69938 0.7859,0 1.811,-0.32461 2.5457,-1.40095 l -1.1276,-0.82006 c -0.4271,0.59796 -1.008,0.83715 -1.4181,0.83715 -0.7346,0 -1.3326,-0.59797 -1.3326,-1.31552 v -0.54671 h 1.3326 c 1.4522,0 2.6994,-0.87132 2.6994,-2.42603 z m -4.032,1.34969 v -1.31552 c 0,-0.73464 0.598,-1.34969 1.3326,-1.34969 0.7176,0 1.3156,0.59796 1.3156,1.31552 0,0.73464 -0.598,1.34969 -1.3156,1.34969 z m 6.7414,4.25409 v -5.89422 c 0.1367,-1.12759 1.3668,-1.26427 2.1697,-0.70047 l 0.4784,-1.24719 c -0.9226,-0.73464 -2.2381,-0.71756 -2.7165,0.49546 l -0.1537,-0.83715 h -1.1447 v 8.18357 z m 4.6399,-8.25191 v -3.33152 h -1.3668 v 8.81571 c 0,1.62304 1.5035,2.76772 3.229,2.76772 v -1.36678 c -1.008,0 -1.8622,-0.61505 -1.8622,-1.40094 v -4.10033 h 1.7085 v -1.38386 z m 8.3131,2.63104 c 0,-1.84514 -1.3838,-2.69938 -2.7848,-2.69938 -1.3839,0 -2.7677,0.85424 -2.7677,2.69938 v 2.98983 c 0,1.82806 1.3668,2.71646 2.7677,2.71646 1.3839,0 2.7848,-0.8884 2.7848,-2.71646 z m -1.3838,2.98983 c 0,0.87132 -0.7005,1.31552 -1.401,1.31552 -0.6834,0 -1.4009,-0.4442 -1.4009,-1.31552 v -2.98983 c 0,-0.87132 0.7175,-1.3326 1.4009,-1.3326 0.7005,0 1.401,0.46128 1.401,1.3326 z m 4.1786,2.63104 v -5.89422 c 0.1367,-1.12759 1.3668,-1.26427 2.1697,-0.70047 l 0.4784,-1.24719 c -0.9226,-0.73464 -2.2381,-0.71756 -2.7164,0.49546 l -0.1538,-0.83715 h -1.1447 v 8.18357 z"
           id="path50" /></g></g></g></svg>
