<svg xmlns="http://www.w3.org/2000/svg" xml:space="preserve" width="431.853" height="215.661" viewBox="0 0 114.261 57.06">
    <path d="M1192.946 154.687a5.796 5.796 0 0 1-5.79-5.79v-.02c-.133-2.139-.929-3.8-2.666-5.107-1.1-.791-2.454-1.259-3.775-1.259-.571 0-1.084.066-1.644.22-.73.175-1.462.404-2.25.404a5.8 5.8 0 0 1-1.846-.304 5.67 5.67 0 0 1-3.335-2.908 5.65 5.65 0 0 1-.492-3.717 5.79 5.79 0 0 1 5.675-4.664c.792 0 1.21.27 2.205.488.56.124 1.156.178 1.721.164 1.344-.031 2.577-.455 3.698-1.254 1.665-1.209 2.734-3.262 2.723-5.32-.01-.633.066-1.088.274-1.706a5.79 5.79 0 0 1 5.483-3.944c.627 0 1.247.1 1.846.303a5.75 5.75 0 0 1 3.333 2.915 5.75 5.75 0 0 1 .306 4.42 5.786 5.786 0 0 1-7.312 3.646l-.114-.038a6.384 6.384 0 0 0-5.751.904 6.39 6.39 0 0 0-2.63 5.193v.162a6.386 6.386 0 0 0 8.465 5.943 5.795 5.795 0 0 1 7.665 5.48 5.795 5.795 0 0 1-5.79 5.789z" style="fill:gray;fill-opacity:1;stroke-width:.228116;stroke-linecap:round;paint-order:stroke fill markers;stop-color:#000" transform="translate(-1147.87 -119.97)"/>
    <path d="M1205.109 154.687a5.796 5.796 0 0 1-5.79-5.79v-.02c-.133-2.139-.929-3.8-2.666-5.107-1.1-.791-2.454-1.259-3.775-1.259-.571 0-1.084.066-1.644.22-.73.175-1.462.404-2.25.404a5.8 5.8 0 0 1-1.846-.304 5.67 5.67 0 0 1-3.335-2.908 5.65 5.65 0 0 1-.492-3.717 5.79 5.79 0 0 1 5.674-4.664c.793 0 1.211.27 2.206.488.56.124 1.156.178 1.721.164 1.344-.031 2.577-.455 3.698-1.254 1.665-1.209 2.734-3.262 2.723-5.32-.01-.633.066-1.088.274-1.706a5.79 5.79 0 0 1 5.483-3.944c.627 0 1.246.1 1.846.303a5.75 5.75 0 0 1 3.333 2.915 5.75 5.75 0 0 1 .305 4.42 5.786 5.786 0 0 1-7.31 3.646l-.115-.038a6.384 6.384 0 0 0-5.751.904 6.39 6.39 0 0 0-2.63 5.193v.162a6.385 6.385 0 0 0 8.465 5.943 5.795 5.795 0 0 1 7.665 5.48 5.795 5.795 0 0 1-5.79 5.789z" style="fill:#ff9200;fill-opacity:1;stroke-width:.228116;stroke-linecap:round;paint-order:stroke fill markers;stop-color:#000" transform="translate(-1147.87 -119.97)"/>
    <path d="M1217.232 154.687a5.796 5.796 0 0 0 5.79-5.79v-.02c.133-2.139.929-3.8 2.666-5.107 1.1-.791 2.454-1.259 3.775-1.259.571 0 1.084.066 1.644.22.73.175 1.462.404 2.25.404.626 0 1.249-.103 1.846-.304a5.67 5.67 0 0 0 3.335-2.908 5.65 5.65 0 0 0 .492-3.717 5.79 5.79 0 0 0-5.674-4.664c-.793 0-1.211.27-2.206.488a7.3 7.3 0 0 1-1.721.164c-1.344-.031-2.577-.455-3.698-1.254-1.665-1.209-2.734-3.262-2.723-5.32 0-.633-.066-1.088-.274-1.706a5.79 5.79 0 0 0-5.483-3.944c-.627 0-1.247.1-1.846.303a5.75 5.75 0 0 0-3.333 2.915 5.75 5.75 0 0 0-.306 4.42 5.786 5.786 0 0 0 7.312 3.646l.114-.038a6.384 6.384 0 0 1 5.751.904 6.39 6.39 0 0 1 2.63 5.193v.162a6.385 6.385 0 0 1-8.465 5.943 5.795 5.795 0 0 0-7.665 5.48 5.794 5.794 0 0 0 5.79 5.789z" style="fill:#000;fill-opacity:1;stroke-width:.228116;stroke-linecap:round;paint-order:stroke fill markers;stop-color:#000" transform="translate(-1147.87 -119.97)"/>
    <path d="M1205.07 154.687a5.796 5.796 0 0 0 5.79-5.79v-.02c.133-2.139.928-3.8 2.665-5.107 1.1-.791 2.455-1.259 3.775-1.259.571 0 1.084.066 1.644.22.73.175 1.462.404 2.25.404.626 0 1.249-.103 1.846-.304a5.67 5.67 0 0 0 3.336-2.908 5.65 5.65 0 0 0 .491-3.717 5.79 5.79 0 0 0-5.674-4.664c-.793 0-1.211.27-2.206.488a7.3 7.3 0 0 1-1.721.164c-1.344-.031-2.577-.455-3.698-1.254-1.665-1.209-2.734-3.262-2.723-5.32 0-.633-.066-1.088-.273-1.706a5.79 5.79 0 0 0-5.484-3.944c-.627 0-1.246.1-1.846.303a5.75 5.75 0 0 0-3.333 2.915 5.75 5.75 0 0 0-.305 4.42 5.786 5.786 0 0 0 7.311 3.646l.114-.038a6.384 6.384 0 0 1 5.751.904 6.39 6.39 0 0 1 2.63 5.193v.162a6.386 6.386 0 0 1-8.465 5.943 5.795 5.795 0 0 0-7.665 5.48 5.795 5.795 0 0 0 5.79 5.789z" style="fill:#ff9200;fill-opacity:1;stroke-width:.228116;stroke-linecap:round;paint-order:stroke fill markers;stop-color:#000" transform="translate(-1147.87 -119.97)"/>
    <g stroke="none" aria-label="OpenBabelConvertor" style="fill:#ff9200;stroke-width:.177966;stroke-linecap:round;stroke-linejoin:round;paint-order:stroke fill markers">
        <path d="M1147.87 170.845c0 1.931 1.588 2.905 3.211 2.905 1.624 0 3.23-.974 3.23-2.905v-6.372c0-1.914-1.606-2.887-3.23-2.887s-3.211.973-3.211 2.887zm1.383-6.372c0-.957.906-1.47 1.828-1.47.923 0 1.811.513 1.811 1.47v6.372c0 .974-.888 1.487-1.81 1.487-.923 0-1.829-.513-1.829-1.487zm9.168.803c-.513 0-1.11.256-1.418.957l-.274-.855h-1.042v11.652h1.384v-4.066c.308.564.854.666 1.316.7 1.52.12 2.75-1.247 2.75-2.63v-3.264c0-1.418-.854-2.494-2.716-2.494m1.332 5.757c0 .7-.632 1.248-1.366 1.248-.855 0-1.299-.496-1.316-1.18v-3.245c0-.598.58-1.213 1.316-1.213.751 0 1.366.444 1.366 1.127zm8.245-2.99c0-1.503-1.23-2.716-2.7-2.716-1.537 0-2.716 1.299-2.716 2.734v2.955c0 1.555 1.264 2.7 2.717 2.7.786 0 1.81-.325 2.545-1.401l-1.127-.82c-.427.598-1.008.837-1.418.837a1.33 1.33 0 0 1-1.333-1.316v-.546h1.333c1.452 0 2.7-.872 2.7-2.426m-4.032 1.35v-1.315c0-.735.598-1.35 1.333-1.35.717 0 1.315.598 1.315 1.316 0 .734-.598 1.35-1.315 1.35zm8.177-2.682c.734 0 1.35.615 1.35 1.333v5.603h1.383v-5.603c0-1.418-1.23-2.802-2.716-2.717-.462.034-1.128.205-1.435.923l-.188-.837h-1.094v8.234h1.384v-5.603c0-.718.598-1.333 1.316-1.333m7.646-3.605c.786 0 1.418.65 1.418 1.418v.598c0 .769-.512 1.418-1.23 1.418h-2.255v-3.434zm2.82 2.016v-.598c0-1.623-1.316-2.819-2.82-2.836h-2.374c-.684 0-1.094.444-1.094 1.11v9.739c0 .7.41 1.127 1.094 1.127h2.597c1.418-.017 2.784-1.332 2.784-2.819v-1.418c0-.82-.546-2.033-1.674-2.203 1.025-.24 1.486-1.453 1.486-2.102m-2.597 7.124h-2.29v-4.27h2.255c.77 0 1.401.648 1.401 1.451v1.418c0 .752-.666 1.367-1.366 1.401m6.348 1.504c.427 0 1.298-.256 1.47-.974l.136.871h1.11v-5.586c0-1.504-1.264-2.717-2.716-2.717-.666 0-1.47.376-2.05.906l.751 1.144c.462-.444.957-.649 1.299-.649a1.33 1.33 0 0 1 1.333 1.316l.034.717c-.188-.546-.855-.905-1.401-.905-1.572 0-2.666 1.23-2.666 2.665v.478c0 1.47 1.23 2.734 2.7 2.734zm-1.316-2.734v-.478c0-.735.598-1.316 1.316-1.316.735 0 1.333.479 1.333 1.162v.837c0 .615-.684 1.145-1.333 1.145-.718 0-1.316-.615-1.316-1.35m8.228 2.734c1.862 0 2.717-1.076 2.717-2.494v-3.264c0-1.384-1.23-2.75-2.751-2.63-.461.033-1.008.238-1.316.802v-4.168h-1.383v11.651h1.042l.273-.854c.308.7.906.957 1.418.957m1.333-2.494c0 .683-.615 1.127-1.367 1.127-.735 0-1.316-.615-1.316-1.213v-3.246c.017-.683.462-1.179 1.316-1.179.735 0 1.367.547 1.367 1.247zm8.279-3.212c0-1.504-1.23-2.717-2.7-2.717-1.537 0-2.716 1.299-2.716 2.734v2.955c0 1.555 1.264 2.7 2.716 2.7.786 0 1.811-.325 2.546-1.401l-1.128-.82c-.427.598-1.008.837-1.418.837a1.33 1.33 0 0 1-1.332-1.316v-.546h1.332c1.453 0 2.7-.872 2.7-2.426m-4.032 1.35v-1.316c0-.735.598-1.35 1.332-1.35.718 0 1.316.598 1.316 1.316 0 .734-.598 1.35-1.316 1.35zm6.844 1.486v-8.816h-1.367v8.816c0 1.623 1.35 2.767 3.11 2.767v-1.366c-.992 0-1.743-.615-1.743-1.401" style="text-align:center;text-anchor:middle;fill:#000;stroke:none" transform="translate(-1147.87 -119.97)"/>
        <path d="M1213.12 170.367c0 1.281-.871 1.965-1.777 1.965s-1.794-.53-1.81-1.504v-6.355c0-.974.888-1.504 1.81-1.504.906 0 1.777.684 1.777 1.982h1.452c-.034-2.255-1.657-3.4-3.246-3.4-1.64 0-3.195.974-3.195 2.922v6.355c0 1.948 1.572 2.922 3.212 2.922 1.572 0 3.212-1.145 3.23-3.383zm8.348-2.34c0-1.846-1.384-2.7-2.785-2.7-1.384 0-2.768.854-2.768 2.7v2.99c0 1.827 1.367 2.716 2.768 2.716 1.384 0 2.785-.889 2.785-2.717zm-1.384 2.99c0 .87-.7 1.315-1.401 1.315-.684 0-1.401-.444-1.401-1.316v-2.99c0-.87.717-1.332 1.4-1.332.701 0 1.402.461 1.402 1.332zm5.51-4.306c.736 0 1.35.615 1.35 1.333v5.603h1.384v-5.603c0-1.418-1.23-2.802-2.716-2.717-.461.034-1.128.205-1.435.923l-.188-.837h-1.094v8.234h1.384v-5.603c0-.718.598-1.333 1.316-1.333m3.12-1.281c.393 1.435.906 3.16 1.333 4.63.273.956.564 1.896.82 2.819v-.018c.137.581.615.889 1.076.889.496 0 .94-.29 1.11-.871l2.136-7.45h-1.469a414 414 0 0 0-1.47 5.416l-.204 1.743h-.154l-.222-1.743-1.47-5.415zm12.311 2.614c0-1.504-1.23-2.717-2.7-2.717-1.537 0-2.716 1.299-2.716 2.734v2.955c0 1.555 1.265 2.7 2.717 2.7.786 0 1.81-.325 2.545-1.401l-1.127-.82c-.427.598-1.008.837-1.418.837a1.33 1.33 0 0 1-1.333-1.316v-.546h1.333c1.452 0 2.7-.872 2.7-2.426m-4.032 1.35v-1.316c0-.735.598-1.35 1.333-1.35.717 0 1.315.598 1.315 1.316 0 .734-.598 1.35-1.315 1.35zm6.742 4.253v-5.894c.136-1.127 1.366-1.264 2.17-.7l.478-1.248c-.923-.734-2.238-.717-2.717.496l-.154-.837h-1.144v8.183zm4.64-8.252v-3.331h-1.367v8.816c0 1.623 1.503 2.767 3.229 2.767v-1.366c-1.008 0-1.863-.615-1.863-1.401v-4.1h1.709v-1.385zm8.313 2.631c0-1.845-1.384-2.699-2.785-2.699-1.384 0-2.768.854-2.768 2.7v2.99c0 1.827 1.367 2.716 2.768 2.716 1.384 0 2.785-.889 2.785-2.717zm-1.384 2.99c0 .872-.7 1.316-1.401 1.316-.684 0-1.401-.444-1.401-1.316v-2.99c0-.87.717-1.332 1.4-1.332.701 0 1.402.461 1.402 1.332zm4.178 2.631v-5.894c.137-1.127 1.367-1.264 2.17-.7l.478-1.248c-.922-.734-2.238-.717-2.716.496l-.154-.837h-1.144v8.183z" style="text-align:center;text-anchor:middle;stroke:none" transform="translate(-1147.87 -119.97)"/>
    </g>
</svg>
