<?xml version="1.0" encoding="UTF-8" standalone="no"?>
<!-- Created with Inkscape (http://www.inkscape.org/) -->

<svg
   width="78.295723mm"
   height="52.146839mm"
   viewBox="0 0 78.295723 52.146839"
   version="1.1"
   id="svg1"
   xml:space="preserve"
   xmlns="http://www.w3.org/2000/svg"
   xmlns:svg="http://www.w3.org/2000/svg"><defs
     id="defs1"><style
       id="style1">
      .cls-1, .cls-2 {
        font-family: ZagBold, 'Zag Bold';
        font-size: 96px;
      }

      .cls-3 {
        letter-spacing: -.16em;
      }

      .cls-4 {
        letter-spacing: -.02em;
      }

      .cls-2, .cls-5 {
        fill: #ff9200;
      }

      .cls-6 {
        letter-spacing: 0em;
      }

      .cls-7 {
        fill: gray;
      }

      .cls-7, .cls-5, .cls-8 {
        fill-rule: evenodd;
      }

      .cls-9 {
        letter-spacing: -.03em;
      }
    </style></defs><g
     id="layer1"
     transform="translate(-505.85247,-122.42658)"><g
       id="g81"><path
         style="font-size:96px;font-family:ZagBold, 'Zag Bold';baseline-shift:baseline;display:inline;overflow:visible;vector-effect:none;fill:#808080;fill-opacity:1;stroke-width:0.229247;stroke-linecap:round;paint-order:stroke fill markers;enable-background:accumulate;stop-color:#000000"
         d="m 511.67052,134.66253 c 3.20946,0 5.81849,2.61088 5.81849,5.81805 v 0.021 c 0.13393,2.14867 0.93344,3.81824 2.67891,5.13161 1.10497,0.79549 2.46666,1.26518 3.794,1.26518 0.57394,0 1.08897,-0.0659 1.65216,-0.22183 0.73268,-0.17446 1.4692,-0.40482 2.2618,-0.40482 0.62814,0 1.25395,0.10318 1.85457,0.30491 1.4924,0.50206 2.65265,1.51304 3.35185,2.92291 0.59178,1.19129 0.75783,2.46905 0.49387,3.73556 -0.52506,2.66847 -2.88224,4.68659 -5.70253,4.68659 -0.7967,0 -1.21677,-0.27125 -2.21623,-0.49007 -0.56225,-0.12496 -1.16155,-0.17848 -1.72995,-0.16516 -1.35067,0.0316 -2.58977,0.45726 -3.71628,1.26025 -1.6735,1.21501 -2.7477,3.278 -2.73624,5.34581 0.005,0.63731 -0.0666,1.09426 -0.27518,1.71552 -0.79751,2.36963 -3.01311,3.96241 -5.51089,3.96347 h -0.002 c -0.62973,-2.2e-4 -1.25231,-0.10111 -1.85458,-0.30492 -1.46718,-0.49517 -2.65728,-1.5335 -3.3496,-2.92962 -0.69233,-1.39611 -0.80233,-2.97358 -0.30716,-4.44077 0.79779,-2.37041 3.01478,-3.96347 5.51358,-3.96347 0.62253,0 1.2381,0.10143 1.83398,0.2982 l 0.11462,0.039 c 0.65336,0.21549 1.32969,0.32059 2.00368,0.32059 1.3388,0 2.66401,-0.41938 3.77586,-1.22863 1.66892,-1.21272 2.65223,-3.15662 2.64306,-5.21985 -2e-4,-0.0543 4.4e-4,-0.10864 0.002,-0.16298 -0.0301,-2.02993 -1.02039,-3.92871 -2.67485,-5.11687 -1.10497,-0.79549 -2.41629,-1.20579 -3.74363,-1.20579 -0.7015,0 -1.40743,0.1172 -2.0883,0.35104 -0.60292,0.20632 -1.2358,0.31163 -1.88457,0.31163 -3.20946,0 -5.81849,-2.60903 -5.81849,-5.81849 0,-3.20946 2.60903,-5.81805 5.81849,-5.81805 z"
         id="path45" /><path
         style="baseline-shift:baseline;display:inline;overflow:visible;vector-effect:none;fill:#ff9200;fill-opacity:1;stroke-width:0.134264;paint-order:stroke fill markers;enable-background:accumulate;stop-color:#000000"
         d="m 533.81308,139.95121 a 3.06044,3.06044 0 0 0 3.06044,3.06044 3.06044,3.06044 0 0 0 3.06044,-3.06044 3.06044,3.06044 0 0 0 -3.06044,-3.06044 3.06044,3.06044 0 0 0 -3.06044,3.06044 z"
         id="path46" /><path
         style="baseline-shift:baseline;display:inline;overflow:visible;vector-effect:none;fill:#ff9200;fill-opacity:1;stroke-width:0.358749;stroke-linecap:round;stroke-linejoin:round;paint-order:stroke fill markers;enable-background:accumulate;stop-color:#000000"
         d="m 512.5025,152.09242 a 3.0650196,3.0650196 0 0 0 3.06502,3.06502 3.0650196,3.0650196 0 0 0 3.06502,-3.06502 3.0650196,3.0650196 0 0 0 -3.06502,-3.06502 3.0650196,3.0650196 0 0 0 -3.06502,3.06502 z"
         id="path47" /><path
         style="font-size:96px;font-family:ZagBold, 'Zag Bold';baseline-shift:baseline;display:inline;overflow:visible;vector-effect:none;fill:#808080;fill-opacity:1;stroke-width:0.229247;stroke-linecap:round;paint-order:stroke fill markers;enable-background:accumulate;stop-color:#000000"
         d="m 540.64349,122.42658 c -3.20946,0 -5.81849,2.61087 -5.81849,5.81804 v 0.0211 c -0.13393,2.14867 -0.93344,3.81823 -2.67892,5.13161 -1.10497,0.79548 -2.46666,1.26518 -3.794,1.26518 -0.57393,0 -1.08896,-0.0659 -1.65215,-0.22184 -0.73268,-0.17445 -1.4692,-0.40482 -2.26181,-0.40482 -0.62813,0 -1.25394,0.10318 -1.85457,0.30492 -1.4924,0.50205 -2.65264,1.51303 -3.35185,2.9229 -0.59178,1.1913 -0.75783,2.46905 -0.49386,3.73557 0.52505,2.66847 2.88223,4.68659 5.70252,4.68659 0.7967,0 1.21678,-0.27126 2.21623,-0.49008 0.56225,-0.12495 1.16155,-0.17847 1.72995,-0.16516 1.35067,0.0316 2.58978,0.45726 3.71628,1.26026 1.6735,1.21501 2.74771,3.278 2.73624,5.34581 -0.005,0.63731 0.0666,1.09426 0.27518,1.71552 0.79752,2.36963 3.01312,3.96241 5.51089,3.96347 h 0.002 c 0.62973,-2.2e-4 1.2523,-0.10111 1.85457,-0.30492 1.46719,-0.49517 2.65728,-1.5335 3.34961,-2.92962 0.69233,-1.39611 0.80233,-2.97359 0.30715,-4.44077 -0.79778,-2.37042 -3.01478,-3.96347 -5.51357,-3.96347 -0.62253,0 -1.23811,0.10143 -1.83398,0.2982 l -0.11462,0.039 c -0.65336,0.21549 -1.32969,0.32058 -2.00368,0.32058 -1.3388,0 -2.66401,-0.41938 -3.77586,-1.22862 -1.66892,-1.21272 -2.65223,-3.15663 -2.64306,-5.21985 1.9e-4,-0.0543 -4.4e-4,-0.10864 -0.002,-0.16298 0.0301,-2.02993 1.02039,-3.92871 2.67485,-5.11687 1.10497,-0.79549 2.41628,-1.20579 3.74363,-1.20579 0.70149,0 1.40743,0.1172 2.0883,0.35103 0.60292,0.20632 1.2358,0.31164 1.88457,0.31164 3.20946,0 5.81849,-2.60904 5.81849,-5.8185 0,-3.20946 -2.60903,-5.81804 -5.81849,-5.81804 z"
         id="path48" /><g
         id="text49"
         style="font-size:18.8657px;line-height:0.8;font-family:'Zag Bold';-inkscape-font-specification:'Zag Bold, Normal';text-align:end;letter-spacing:-0.203389px;text-anchor:end;fill:#ff9200;stroke:#ff00ff;stroke-width:0.203389;stroke-linecap:round;stroke-linejoin:round;paint-order:stroke fill markers"
         aria-label="MDAHole2&#10;"><path
           style="text-align:start;text-anchor:start;fill:#000000;stroke:none"
           d="m 526.93734,168.00816 -0.0943,1.01875 h -0.11319 l -0.0943,-0.98102 c -0.52824,-1.96203 -0.98102,-3.88633 -1.62245,-5.92383 -0.16979,-0.52824 -0.67917,-0.84895 -1.16967,-0.84895 -0.60371,0 -1.33947,0.33958 -1.3206,1.13194 v 12.07405 h 1.54698 l -0.0377,-9.16873 -0.18865,-2.52801 h 0.13205 l 0.33959,1.94317 1.50925,5.03714 c 0.20753,0.45278 0.60371,0.7169 0.94329,0.7169 0.43391,0 0.83009,-0.28299 0.98101,-0.7169 0.49051,-1.50926 1.03762,-3.35809 1.54699,-4.94281 l 0.43391,-2.0375 h 0.24526 l -0.43391,2.62233 -0.0566,8.81029 0.0189,0.26412 h 1.54698 v -12.11178 c -0.0377,-0.79236 -0.67916,-1.16968 -1.24513,-1.16968 -0.45278,0 -0.94329,0.28299 -1.15081,0.86783 -0.33958,1.03761 -0.67917,2.16955 -0.99988,3.28263 -0.26412,0.88668 -0.47165,1.79224 -0.7169,2.66006 z m 9.85201,-5.1692 c 0.81123,0 1.50926,0.73576 1.50926,1.58472 v 6.94257 c 0,0.84896 -0.69803,1.54699 -1.50926,1.54699 h -2.528 c 0,-3.41469 -0.0189,-6.67846 -0.0189,-10.07428 z m -2.88645,11.64014 h 2.88645 c 1.60359,0 3.07511,-1.3206 3.07511,-3.11285 v -6.96144 c 0,-1.67905 -1.47152,-3.1317 -3.07511,-3.1317 h -2.88645 c -0.69803,0 -1.2074,0.4905 -1.2074,1.2074 v 10.77231 c 0,0.64144 0.45277,1.22628 1.2074,1.22628 z m 13.53084,0 h 1.67905 l -3.18831,-12.33817 c -0.16979,-0.6037 -0.75463,-1.01875 -1.22627,-1.01875 -0.49051,0 -1.03761,0.37731 -1.264,1.05648 l -3.13171,12.30044 h 1.64132 c 0.16979,-0.69804 0.41505,-1.64132 1.15081,-4.50891 h 3.16944 z m -3.9618,-6.05589 c 0.35845,-1.50926 0.62257,-3.18831 0.99988,-4.69756 l 0.15093,-1.28287 h 0.15093 l 0.13206,1.28287 0.96215,4.69756 z"
           id="path28" /><path
           style="text-align:start;text-anchor:start;stroke:none"
           d="m 556.75751,174.4791 v -13.20599 h -1.56585 v 5.90496 h -3.56562 v -5.90496 h -1.54699 v 13.20599 h 1.54699 v -5.75404 h 3.56562 v 5.75404 z m 7.607,-6.20682 c 0,-2.0375 -1.52812,-2.98078 -3.07511,-2.98078 -1.52812,0 -3.05624,0.94328 -3.05624,2.98078 v 3.3015 c 0,2.01863 1.50926,2.99964 3.05624,2.99964 1.52813,0 3.07511,-0.98101 3.07511,-2.99964 z m -1.52812,3.3015 c 0,0.96215 -0.77349,1.45266 -1.54699,1.45266 -0.75462,0 -1.54698,-0.49051 -1.54698,-1.45266 v -3.3015 c 0,-0.96215 0.79236,-1.47152 1.54698,-1.47152 0.7735,0 1.54699,0.50937 1.54699,1.47152 z m 4.60736,-0.15093 v -9.7347 h -1.50925 v 9.7347 c 0,1.79224 1.49039,3.05625 3.43356,3.05625 v -1.50926 c -1.09422,0 -1.92431,-0.67917 -1.92431,-1.54699 z m 8.43712,-3.1317 c 0,-1.66019 -1.35833,-2.99965 -2.98078,-2.99965 -1.69791,0 -2.99965,1.43379 -2.99965,3.01851 v 3.26377 c 0,1.71678 1.39607,2.98078 2.99965,2.98078 0.86782,0 1.99976,-0.35845 2.81099,-1.54699 l -1.24514,-0.90555 c -0.47164,0.6603 -1.11307,0.92442 -1.56585,0.92442 -0.81122,0 -1.47152,-0.6603 -1.47152,-1.45266 v -0.6037 h 1.47152 c 1.60358,0 2.98078,-0.96216 2.98078,-2.67893 z m -4.4523,1.49039 v -1.45266 c 0,-0.81123 0.6603,-1.49039 1.47152,-1.49039 0.79236,0 1.45266,0.6603 1.45266,1.45266 0,0.81122 -0.6603,1.49039 -1.45266,1.49039 z"
           id="path29" /><path
           style="text-align:start;text-anchor:start;fill:#000000;stroke:none"
           d="m 584.14819,164.76326 c 0,-2.05636 -1.69791,-3.05624 -3.32036,-3.05624 -1.69791,0 -3.33923,1.2074 -3.33923,3.56561 h 1.49039 c 0.0189,-1.37719 0.92442,-2.03749 1.84884,-2.03749 0.90555,0 1.79224,0.52824 1.79224,1.52812 v 1.73564 c 0,0.96216 -0.75463,1.49039 -1.71678,1.49039 -1.75451,0 -3.41469,0.94329 -3.41469,3.01852 v 2.62233 c 0,0.6603 0.0943,0.84896 0.81122,0.84896 h 5.58425 v -1.50926 h -4.90508 v -1.96203 c 0,-1.01875 0.96215,-1.50926 1.9243,-1.50926 1.90544,0 3.22604,-1.13194 3.2449,-2.99965 z"
           id="path31" /></g></g></g></svg>
