<svg xmlns="http://www.w3.org/2000/svg" xml:space="preserve" width="295.921" height="197.09" viewBox="0 0 78.296 52.147">
    <path d="M511.67 134.663c3.21 0 5.819 2.61 5.819 5.818v.02c.134 2.15.933 3.819 2.679 5.132 1.105.796 2.467 1.265 3.794 1.265.574 0 1.089-.066 1.652-.221.733-.175 1.47-.405 2.262-.405.628 0 1.254.103 1.854.305a5.7 5.7 0 0 1 3.352 2.923 5.68 5.68 0 0 1 .494 3.735 5.82 5.82 0 0 1-5.702 4.687c-.797 0-1.217-.272-2.217-.49a7.3 7.3 0 0 0-1.73-.166c-1.35.032-2.59.458-3.716 1.26-1.673 1.216-2.748 3.279-2.736 5.347a4.8 4.8 0 0 1-.275 1.715 5.815 5.815 0 0 1-5.511 3.964h-.002c-.63 0-1.252-.102-1.855-.305a5.78 5.78 0 0 1-3.35-2.93 5.78 5.78 0 0 1-.306-4.44 5.815 5.815 0 0 1 7.347-3.666l.115.039a6.416 6.416 0 0 0 5.78-.908 6.42 6.42 0 0 0 2.642-5.22q0-.082.002-.163a6.417 6.417 0 0 0-8.506-5.972 5.824 5.824 0 0 1-7.703-5.507 5.823 5.823 0 0 1 5.818-5.817z" style="fill:gray;fill-opacity:1;stroke-width:.229247;stroke-linecap:round;paint-order:stroke fill markers;stop-color:#000" transform="translate(-505.852 -122.427)"/>
    <path d="M533.813 139.951a3.06 3.06 0 0 0 3.06 3.06 3.06 3.06 0 0 0 3.061-3.06 3.06 3.06 0 0 0-3.06-3.06 3.06 3.06 0 0 0-3.06 3.06" style="baseline-shift:baseline;display:inline;overflow:visible;vector-effect:none;fill:#ff9200;fill-opacity:1;stroke-width:.134264;paint-order:stroke fill markers;stop-color:#000" transform="translate(-505.852 -122.427)"/>
    <path d="M512.503 152.092a3.065 3.065 0 0 0 3.065 3.065 3.065 3.065 0 0 0 3.065-3.065 3.065 3.065 0 0 0-3.065-3.065 3.065 3.065 0 0 0-3.065 3.065" style="baseline-shift:baseline;display:inline;overflow:visible;vector-effect:none;fill:#ff9200;fill-opacity:1;stroke-width:.358749;stroke-linecap:round;stroke-linejoin:round;paint-order:stroke fill markers;stop-color:#000" transform="translate(-505.852 -122.427)"/>
    <path d="M540.643 122.427a5.825 5.825 0 0 0-5.818 5.818v.02c-.134 2.15-.933 3.819-2.679 5.132-1.105.796-2.467 1.266-3.794 1.266a6 6 0 0 1-1.652-.222c-.733-.175-1.47-.405-2.262-.405-.628 0-1.254.103-1.854.305a5.7 5.7 0 0 0-3.352 2.923 5.68 5.68 0 0 0-.494 3.735 5.82 5.82 0 0 0 5.702 4.687c.797 0 1.217-.271 2.217-.49a7.3 7.3 0 0 1 1.73-.165c1.35.031 2.59.457 3.716 1.26 1.673 1.215 2.748 3.278 2.736 5.346a4.8 4.8 0 0 0 .275 1.715 5.815 5.815 0 0 0 5.511 3.964h.002c.63 0 1.252-.101 1.855-.305a5.78 5.78 0 0 0 3.35-2.93 5.78 5.78 0 0 0 .306-4.44 5.815 5.815 0 0 0-7.347-3.666l-.115.04a6.416 6.416 0 0 1-5.78-.908 6.42 6.42 0 0 1-2.642-5.22q0-.083-.002-.164a6.417 6.417 0 0 1 8.506-5.971 5.824 5.824 0 0 0 7.703-5.507 5.823 5.823 0 0 0-5.818-5.818z" style="fill:gray;fill-opacity:1;stroke-width:.229247;stroke-linecap:round;paint-order:stroke fill markers;stop-color:#000" transform="translate(-505.852 -122.427)"/>
    <g stroke="none" aria-label="MDAHole2" style="fill:#ff9200;stroke:#f0f;stroke-width:.203389;stroke-linecap:round;stroke-linejoin:round;paint-order:stroke fill markers">
        <path d="m526.937 168.008-.094 1.019h-.113l-.094-.981c-.529-1.962-.981-3.886-1.623-5.924a1.245 1.245 0 0 0-1.17-.849c-.603 0-1.339.34-1.32 1.132v12.074h1.547l-.038-9.169-.189-2.528h.133l.34 1.944 1.508 5.037c.208.452.604.717.944.717.434 0 .83-.283.98-.717.491-1.51 1.038-3.358 1.548-4.943l.434-2.038h.245l-.434 2.623-.057 8.81.02.264h1.546v-12.112c-.038-.792-.679-1.17-1.245-1.17-.453 0-.943.284-1.15.868-.34 1.038-.68 2.17-1 3.283-.265.887-.472 1.792-.718 2.66zm9.852-5.169c.812 0 1.51.736 1.51 1.585v6.942c0 .85-.698 1.547-1.51 1.547h-2.528c0-3.414-.019-6.678-.019-10.074zm-2.886 11.64h2.886a3.11 3.11 0 0 0 3.075-3.113v-6.961c0-1.68-1.471-3.132-3.075-3.132h-2.886c-.698 0-1.208.49-1.208 1.208v10.772c0 .641.453 1.226 1.208 1.226m13.53 0h1.68l-3.189-12.338c-.17-.604-.754-1.019-1.226-1.019-.49 0-1.037.377-1.264 1.057l-3.132 12.3h1.642c.17-.698.415-1.641 1.15-4.509h3.17zm-3.961-6.056c.358-1.509.623-3.188 1-4.697l.15-1.283h.152l.132 1.283.962 4.697z" style="text-align:start;text-anchor:start;fill:#000;stroke:none" transform="translate(-505.852 -122.427)"/>
        <path d="M556.758 174.48v-13.207h-1.566v5.905h-3.566v-5.905h-1.547v13.206h1.547v-5.754h3.566v5.754zm7.607-6.208c0-2.037-1.529-2.98-3.076-2.98-1.528 0-3.056.943-3.056 2.98v3.302c0 2.018 1.51 3 3.056 3 1.529 0 3.076-.982 3.076-3zm-1.529 3.302c0 .962-.773 1.452-1.547 1.452-.754 0-1.547-.49-1.547-1.452v-3.302c0-.962.793-1.471 1.547-1.471.774 0 1.547.51 1.547 1.471zm4.608-.151v-9.735h-1.51v9.735c0 1.792 1.49 3.056 3.434 3.056v-1.51c-1.094 0-1.924-.678-1.924-1.546m8.437-3.132c0-1.66-1.358-3-2.98-3-1.699 0-3 1.434-3 3.019v3.264c0 1.717 1.396 2.98 3 2.98.867 0 1.999-.358 2.81-1.546l-1.245-.906c-.472.66-1.113.924-1.566.924a1.47 1.47 0 0 1-1.471-1.452v-.604h1.471c1.604 0 2.98-.962 2.98-2.679m-4.452 1.49v-1.452c0-.811.66-1.49 1.471-1.49.792 0 1.453.66 1.453 1.452 0 .811-.66 1.49-1.453 1.49z" style="text-align:start;text-anchor:start;stroke:none" transform="translate(-505.852 -122.427)"/>
        <path d="M584.148 164.763c0-2.056-1.698-3.056-3.32-3.056-1.698 0-3.34 1.207-3.34 3.566h1.491c.019-1.378.924-2.038 1.849-2.038.905 0 1.792.528 1.792 1.528v1.736c0 .962-.755 1.49-1.717 1.49-1.754 0-3.414.944-3.414 3.019v2.622c0 .66.094.85.81.85h5.585v-1.51h-4.905v-1.962c0-1.019.962-1.51 1.924-1.51 1.906 0 3.226-1.131 3.245-3z" style="text-align:start;text-anchor:start;fill:#000;stroke:none" transform="translate(-505.852 -122.427)"/>
    </g>
</svg>
