<svg xmlns="http://www.w3.org/2000/svg" xml:space="preserve" width="498.45" height="203.128" viewBox="0 0 131.882 53.744">
    <g stroke="none" aria-label="Cookiecutter MDAKit" style="font-size:19.171px;line-height:.8;font-family:&quot;Zag Bold&quot;;-inkscape-font-specification:&quot;Zag Bold, Normal&quot;;text-align:end;letter-spacing:-.199699px;text-anchor:end;fill:#ff9200;stroke-linecap:round;stroke-linejoin:round;paint-order:stroke fill markers">
        <path d="M977.815 143.205c0 1.438-.978 2.205-1.994 2.205s-2.013-.594-2.032-1.687v-7.132c0-1.092.997-1.687 2.032-1.687 1.016 0 1.994.767 1.994 2.224h1.63c-.04-2.53-1.86-3.815-3.643-3.815-1.84 0-3.585 1.093-3.585 3.278v7.132c0 2.185 1.763 3.278 3.604 3.278 1.764 0 3.604-1.284 3.623-3.796zm9.366-2.626c0-2.07-1.553-3.03-3.125-3.03-1.552 0-3.105.96-3.105 3.03v3.355c0 2.051 1.533 3.048 3.105 3.048 1.553 0 3.125-.997 3.125-3.048zm-1.553 3.355c0 .978-.786 1.476-1.572 1.476-.766 0-1.572-.498-1.572-1.476v-3.355c0-.978.806-1.495 1.572-1.495.786 0 1.572.517 1.572 1.495zm9.405-3.355c0-2.07-1.552-3.03-3.124-3.03-1.553 0-3.106.96-3.106 3.03v3.355c0 2.051 1.534 3.048 3.106 3.048 1.552 0 3.124-.997 3.124-3.048zm-1.552 3.355c0 .978-.786 1.476-1.572 1.476-.767 0-1.572-.498-1.572-1.476v-3.355c0-.978.805-1.495 1.572-1.495.786 0 1.572.517 1.572 1.495zm4.823-.882c.709 0 1.322.25 1.59.843l1.381 2.991h1.63l-1.61-3.604c-.154-.326-.672-.94-1.515-.978.843-.076 1.361-.71 1.514-1.016.23-.537.575-1.342.863-1.955.173-.345.652-1.38.767-1.687h-1.63l-1.4 3.01c-.268.613-.881.862-1.59.862h-.115v-7.61h-1.553v12.978h1.553v-3.834zm6.702-8.378c-.499 0-.94.384-.94.978 0 .556.441.958.94.958.517 0 .996-.402.996-.958 0-.594-.479-.978-.996-.978m.786 2.99h-1.534v9.222h1.534zm7.622 2.934c0-1.687-1.38-3.048-3.03-3.048-1.725 0-3.048 1.457-3.048 3.067v3.317c0 1.744 1.42 3.029 3.049 3.029.881 0 2.032-.364 2.856-1.572l-1.265-.92c-.48.67-1.131.939-1.591.939a1.493 1.493 0 0 1-1.496-1.476v-.614h1.496c1.63 0 3.029-.977 3.029-2.722m-4.525 1.515v-1.477c0-.824.671-1.514 1.496-1.514a1.49 1.49 0 0 1 1.476 1.476c0 .824-.671 1.515-1.476 1.515zm10.555 1.284c0 1.112-.67 2.032-1.476 2.032-.824 0-1.514-.67-1.514-1.495v-3.336c0-.805.69-1.476 1.514-1.476.806 0 1.477.863 1.477 2.013h1.552c-.019-2.013-1.418-3.585-3.029-3.585-1.648 0-3.067 1.323-3.067 3.048v3.336c0 1.649 1.4 3.048 3.067 3.048 1.707 0 3.01-1.63 3.03-3.585zm6.166 3.585c1.744 0 2.99-1.4 2.99-3.029v-6.288h-1.533v6.288c0 .805-.652 1.476-1.457 1.476-.786 0-1.438-.67-1.438-1.476v-6.288h-1.553v6.288c0 1.63 1.304 3.029 2.99 3.029m6.126-9.355v-3.739h-1.533v9.892c0 1.822 1.687 3.106 3.623 3.106v-1.534c-1.131 0-2.09-.69-2.09-1.572v-4.6h1.917v-1.553zm4.612 0v-3.739h-1.533v9.892c0 1.822 1.687 3.106 3.623 3.106v-1.534c-1.13 0-2.09-.69-2.09-1.572v-4.6h1.918v-1.553zm8.581 2.971c0-1.687-1.38-3.048-3.029-3.048-1.725 0-3.048 1.457-3.048 3.067v3.317c0 1.744 1.419 3.029 3.048 3.029.882 0 2.032-.364 2.857-1.572l-1.266-.92c-.479.67-1.13.939-1.59.939a1.493 1.493 0 0 1-1.496-1.476v-.614h1.495c1.63 0 3.03-.977 3.03-2.722m-4.524 1.515v-1.477c0-.824.67-1.514 1.495-1.514a1.49 1.49 0 0 1 1.476 1.476c0 .824-.67 1.515-1.476 1.515zm7.564 4.773v-6.614c.154-1.265 1.534-1.419 2.435-.786l.537-1.4c-1.035-.824-2.512-.805-3.048.557l-.173-.94h-1.284v9.183z" style="text-align:start;text-anchor:start;stroke:none" transform="translate(-919.06 -121.628)"/>
        <path d="m976.703 155.647-.096 1.036h-.115l-.096-.997c-.537-1.994-.997-3.95-1.649-6.02a1.27 1.27 0 0 0-1.188-.863c-.614 0-1.362.345-1.342 1.15v12.27h1.572l-.039-9.317-.191-2.57h.134l.345 1.976 1.534 5.118c.21.46.613.729.958.729.441 0 .844-.288.997-.729.499-1.533 1.054-3.412 1.572-5.023l.441-2.07h.25l-.442 2.665-.057 8.953.019.268h1.572v-12.308c-.038-.805-.69-1.188-1.265-1.188-.46 0-.959.287-1.17.881a100 100 0 0 0-1.016 3.336c-.268.901-.479 1.821-.728 2.703m10.018-5.253c.825 0 1.534.748 1.534 1.61v7.056c0 .862-.71 1.572-1.534 1.572h-2.569c0-3.47-.019-6.787-.019-10.238zm-2.933 11.829h2.933a3.16 3.16 0 0 0 3.125-3.163v-7.074c0-1.707-1.495-3.183-3.125-3.183h-2.933c-.71 0-1.227.499-1.227 1.227v10.947c0 .652.46 1.246 1.227 1.246m13.757 0h1.706l-3.24-12.538c-.172-.613-.767-1.035-1.246-1.035-.498 0-1.054.383-1.284 1.073l-3.183 12.5h1.668c.173-.71.422-1.668 1.17-4.582h3.22zm-4.026-6.154c.364-1.534.633-3.24 1.016-4.774l.153-1.303h.154l.134 1.303.978 4.774z" style="text-align:start;text-anchor:start;fill:#000;stroke:none" transform="translate(-919.06 -121.628)"/>
        <path d="M1000.24 162.223h1.572v-6.039h.844c.939 0 1.82.614 2.127 1.649.038.096.058.249.096.383v-.019c.135.537.288 1.131.441 1.687.192.69.46 1.687.614 2.339h1.668c-.058-.211-.211-.729-.288-1.016a11 11 0 0 0-.115-.518c-.077-.383-.192-.786-.287-1.17-.192-.709-.365-1.456-.537-2.108-.211-.767-1.055-1.879-2.147-2.032 1.112-.058 1.936-1.323 2.147-1.994 0-.038 0-.077.038-.153q.23-.92.517-1.898c.115-.384.25-.863.365-1.342.096-.326.249-.901.325-1.189h-1.706c-.153.652-.402 1.457-.594 2.147-.173.671-.364 1.4-.537 2.013-.307 1.016-1.188 1.63-2.128 1.63h-.843v-5.79h-1.572zm9.098-12.212c-.498 0-.94.383-.94.978 0 .556.442.958.94.958.518 0 .997-.402.997-.958 0-.595-.48-.978-.997-.978m.786 2.99h-1.534v9.222h1.534zm3.079-.038v-3.738h-1.534v9.892c0 1.821 1.687 3.106 3.623 3.106v-1.534c-1.13 0-2.09-.69-2.09-1.572v-4.6h1.918v-1.554z" style="text-align:start;text-anchor:start;stroke:none" transform="translate(-919.06 -121.628)"/>
    </g>
    <path d="m943.017 121.628-.942 4.991a22.4 22.4 0 0 0-3.725 1.027l-3.33-3.876-2.425 1.4-.2.115-2.424 1.4 1.684 4.804a22.4 22.4 0 0 0-2.73 2.736l-4.808-1.685-1.4 2.424-.115.2-1.4 2.424 3.884 3.339a22.4 22.4 0 0 0-1.02 3.714l-5.007.944v5.83l4.964.936a22.4 22.4 0 0 0 1.01 3.768l-3.831 3.293 1.4 2.424.115.2 1.4 2.424 4.695-1.646a22.4 22.4 0 0 0 2.79 2.846l-1.631 4.655 2.424 1.4.2.115 2.424 1.4 3.208-3.733a22.4 22.4 0 0 0 3.886 1.08l.904 4.795h5.829l.895-4.743a22.4 22.4 0 0 0 3.95-1.068l3.152 3.668 2.424-1.4.2-.115 2.425-1.4-1.585-4.52a22.4 22.4 0 0 0 2.577-2.512l-4.615-4.033-12.16-10.626 12.119-10.736 4.602-4.077a22.4 22.4 0 0 0-2.564-2.487l1.626-4.638-2.424-1.4-.2-.115-2.425-1.4-3.238 3.768a22.4 22.4 0 0 0-3.832-.998l-.927-4.912h-3.03z" style="display:inline;fill:#ff9200;fill-opacity:1;stroke:none;stroke-width:3.35845;stroke-linecap:round;stroke-linejoin:round;stroke-dasharray:none;stroke-opacity:1;paint-order:stroke markers fill" transform="translate(-919.06 -121.628)"/>
    <path d="M961.594 165.938a5.796 5.796 0 0 1-5.79-5.789v-.02c-.133-2.139-.928-3.8-2.665-5.107-1.1-.792-2.454-1.26-3.775-1.26-.571 0-1.084.066-1.644.222-.73.173-1.462.402-2.25.402a5.8 5.8 0 0 1-1.846-.303 5.67 5.67 0 0 1-3.336-2.908 5.65 5.65 0 0 1-.491-3.718 5.79 5.79 0 0 1 5.674-4.663c.793 0 1.211.27 2.206.488.56.124 1.155.177 1.721.164 1.344-.031 2.577-.455 3.698-1.254 1.665-1.209 2.734-3.262 2.723-5.32a4.7 4.7 0 0 1 .273-1.707 5.79 5.79 0 0 1 5.484-3.943h.002c.627 0 1.246.1 1.846.303a5.75 5.75 0 0 1 3.333 2.915 5.75 5.75 0 0 1 .305 4.419 5.786 5.786 0 0 1-7.311 3.647l-.114-.039a6.384 6.384 0 0 0-5.751.904 6.39 6.39 0 0 0-2.63 5.194q0 .081-.002.162a6.385 6.385 0 0 0 8.465 5.942 5.795 5.795 0 0 1 7.665 5.48 5.795 5.795 0 0 1-5.79 5.79z" style="font-size:96px;font-family:ZagBold,&quot;Zag Bold&quot;;baseline-shift:baseline;display:inline;overflow:visible;vector-effect:none;fill:#000;fill-opacity:1;stroke-width:.228116;stroke-linecap:round;paint-order:stroke fill markers;stop-color:#000" transform="translate(-919.06 -121.628)"/>
</svg>
