<?xml version="1.0" encoding="UTF-8" standalone="no"?>
<!-- Created with Inkscape (http://www.inkscape.org/) -->

<svg
   width="131.88164mm"
   height="53.744289mm"
   viewBox="0 0 131.88164 53.744289"
   version="1.1"
   id="svg1"
   xml:space="preserve"
   xmlns="http://www.w3.org/2000/svg"
   xmlns:svg="http://www.w3.org/2000/svg"><defs
     id="defs1"><style
       id="style1">
      .cls-1, .cls-2 {
        font-family: ZagBold, 'Zag Bold';
        font-size: 96px;
      }

      .cls-3 {
        letter-spacing: -.16em;
      }

      .cls-4 {
        letter-spacing: -.02em;
      }

      .cls-2, .cls-5 {
        fill: #ff9200;
      }

      .cls-6 {
        letter-spacing: 0em;
      }

      .cls-7 {
        fill: gray;
      }

      .cls-7, .cls-5, .cls-8 {
        fill-rule: evenodd;
      }

      .cls-9 {
        letter-spacing: -.03em;
      }
    </style></defs><g
     id="layer1"
     transform="translate(-919.05917,-121.62785)"><g
       id="g83"><g
         id="text3"
         style="font-size:19.171px;line-height:0.8;font-family:'Zag Bold';-inkscape-font-specification:'Zag Bold, Normal';text-align:end;letter-spacing:-0.199699px;text-anchor:end;fill:#ff9200;stroke:#ff00ff;stroke-width:0.199699;stroke-linecap:round;stroke-linejoin:round;paint-order:stroke fill markers"
         aria-label="Cookiecutter&#10;MDAKit"><path
           style="text-align:start;text-anchor:start;stroke:none"
           d="m 977.81467,143.20531 c 0,1.43782 -0.97772,2.20466 -1.99379,2.20466 -1.01606,0 -2.01295,-0.5943 -2.03212,-1.68705 v -7.13161 c 0,-1.09274 0.99689,-1.68705 2.03212,-1.68705 1.01607,0 1.99379,0.76684 1.99379,2.22384 h 1.62953 c -0.0383,-2.53057 -1.85958,-3.81503 -3.64249,-3.81503 -1.84041,0 -3.58497,1.09275 -3.58497,3.27824 v 7.13161 c 0,2.1855 1.76373,3.27824 3.60414,3.27824 1.76374,0 3.60415,-1.28445 3.62332,-3.79585 z m 9.36663,-2.62643 c 0,-2.07047 -1.55285,-3.02902 -3.12487,-3.02902 -1.55285,0 -3.10571,0.95855 -3.10571,3.02902 v 3.35492 c 0,2.0513 1.53368,3.04819 3.10571,3.04819 1.55285,0 3.12487,-0.99689 3.12487,-3.04819 z m -1.55285,3.35492 c 0,0.97773 -0.78601,1.47617 -1.57202,1.47617 -0.76684,0 -1.57203,-0.49844 -1.57203,-1.47617 v -3.35492 c 0,-0.97772 0.80519,-1.49534 1.57203,-1.49534 0.78601,0 1.57202,0.51762 1.57202,1.49534 z m 9.40497,-3.35492 c 0,-2.07047 -1.55285,-3.02902 -3.12487,-3.02902 -1.55285,0 -3.1057,0.95855 -3.1057,3.02902 v 3.35492 c 0,2.0513 1.53368,3.04819 3.1057,3.04819 1.55285,0 3.12487,-0.99689 3.12487,-3.04819 z m -1.55285,3.35492 c 0,0.97773 -0.78601,1.47617 -1.57202,1.47617 -0.76684,0 -1.57202,-0.49844 -1.57202,-1.47617 v -3.35492 c 0,-0.97772 0.80518,-1.49534 1.57202,-1.49534 0.78601,0 1.57202,0.51762 1.57202,1.49534 z m 4.82311,-0.88186 c 0.70932,0 1.3228,0.24922 1.59119,0.84352 l 1.38033,2.99068 h 1.6295 l -1.6103,-3.60415 c -0.1534,-0.32591 -0.671,-0.93938 -1.51456,-0.97772 0.84356,-0.0767 1.36116,-0.70933 1.51456,-1.01606 0.23,-0.53679 0.5751,-1.34197 0.8626,-1.95544 0.1726,-0.34508 0.6519,-1.38032 0.7669,-1.68705 h -1.6295 l -1.39953,3.00984 c -0.26839,0.61348 -0.88187,0.8627 -1.59119,0.8627 h -0.11503 v -7.61089 h -1.55285 v 12.97877 h 1.55285 v -3.8342 z m 6.70182,-8.37773 c -0.4984,0 -0.9393,0.38342 -0.9393,0.97772 0,0.55596 0.4409,0.95855 0.9393,0.95855 0.5177,0 0.9969,-0.40259 0.9969,-0.95855 0,-0.5943 -0.4792,-0.97772 -0.9969,-0.97772 z m 0.7861,2.99068 h -1.5337 v 9.22125 h 1.5337 z m 7.622,2.93316 c 0,-1.68705 -1.3803,-3.04819 -3.029,-3.04819 -1.7254,0 -3.0482,1.457 -3.0482,3.06736 v 3.31658 c 0,1.74457 1.4187,3.02902 3.0482,3.02902 0.8819,0 2.0321,-0.36425 2.8565,-1.57202 l -1.2653,-0.92021 c -0.4793,0.67099 -1.1311,0.93938 -1.5912,0.93938 -0.8243,0 -1.4953,-0.67098 -1.4953,-1.47617 v -0.61347 h 1.4953 c 1.6295,0 3.029,-0.97772 3.029,-2.72228 z m -4.5243,1.51451 v -1.47617 c 0,-0.82435 0.671,-1.51451 1.4953,-1.51451 0.8052,0 1.4762,0.67099 1.4762,1.47617 0,0.82435 -0.671,1.51451 -1.4762,1.51451 z m 10.5552,1.28446 c 0,1.11191 -0.671,2.03212 -1.4762,2.03212 -0.8243,0 -1.5145,-0.67098 -1.5145,-1.49534 v -3.33575 c 0,-0.80518 0.6902,-1.47617 1.5145,-1.47617 0.8052,0 1.4762,0.8627 1.4762,2.01296 h 1.5529 c -0.019,-2.01296 -1.4187,-3.58498 -3.0291,-3.58498 -1.6487,0 -3.0673,1.3228 -3.0673,3.04819 v 3.33575 c 0,1.64871 1.3995,3.04819 3.0673,3.04819 1.7063,0 3.0099,-1.62953 3.0291,-3.58497 z m 6.1651,3.58497 c 1.7446,0 2.9907,-1.39948 2.9907,-3.02901 v -6.28809 h -1.5337 v 6.28809 c 0,0.80518 -0.6518,1.47616 -1.457,1.47616 -0.786,0 -1.4378,-0.67098 -1.4378,-1.47616 v -6.28809 h -1.5529 v 6.28809 c 0,1.62953 1.3036,3.02901 2.9907,3.02901 z m 6.1267,-9.35544 v -3.73835 h -1.5337 v 9.89224 c 0,1.82124 1.6871,3.1057 3.6234,3.1057 v -1.53368 c -1.1311,0 -2.0897,-0.69016 -2.0897,-1.57202 v -4.60104 h 1.9171 v -1.55285 z m 4.6122,0 v -3.73835 h -1.5336 v 9.89224 c 0,1.82124 1.687,3.1057 3.6233,3.1057 v -1.53368 c -1.1311,0 -2.0897,-0.69016 -2.0897,-1.57202 v -4.60104 h 1.9171 v -1.55285 z m 8.5806,2.9715 c 0,-1.68705 -1.3803,-3.04819 -3.029,-3.04819 -1.7254,0 -3.0482,1.457 -3.0482,3.06736 v 3.31658 c 0,1.74457 1.4187,3.02902 3.0482,3.02902 0.8819,0 2.0321,-0.36425 2.8565,-1.57202 l -1.2653,-0.92021 c -0.4793,0.67099 -1.1311,0.93938 -1.5912,0.93938 -0.8243,0 -1.4953,-0.67098 -1.4953,-1.47617 v -0.61347 h 1.4953 c 1.6295,0 3.029,-0.97772 3.029,-2.72228 z m -4.5243,1.51451 v -1.47617 c 0,-0.82435 0.671,-1.51451 1.4953,-1.51451 0.8052,0 1.4762,0.67099 1.4762,1.47617 0,0.82435 -0.671,1.51451 -1.4762,1.51451 z m 7.5645,4.77358 v -6.614 c 0.1534,-1.26528 1.5337,-1.41865 2.4348,-0.78601 l 0.5367,-1.39948 c -1.0352,-0.82435 -2.5114,-0.80518 -3.0482,0.55596 l -0.1725,-0.93938 h -1.2844 v 9.18291 z"
           id="path41" /><path
           style="text-align:start;text-anchor:start;fill:#000000;stroke:none"
           d="m 976.70275,155.64729 -0.0959,1.03523 h -0.11502 l -0.0959,-0.99689 c -0.53678,-1.99379 -0.99689,-3.94923 -1.6487,-6.0197 -0.17254,-0.53678 -0.69016,-0.86269 -1.1886,-0.86269 -0.61348,0 -1.36115,0.34508 -1.34197,1.15026 v 12.26944 h 1.57202 l -0.0383,-9.31711 -0.19171,-2.56891 h 0.13419 l 0.34508,1.97461 1.53368,5.11866 c 0.21088,0.4601 0.61347,0.7285 0.95855,0.7285 0.44093,0 0.84352,-0.28757 0.99689,-0.7285 0.49845,-1.53368 1.05441,-3.41244 1.57202,-5.0228 l 0.44094,-2.07047 h 0.24922 l -0.44093,2.66477 -0.0575,8.95285 0.0192,0.2684 h 1.57202 v -12.30778 c -0.0383,-0.80518 -0.69016,-1.1886 -1.26529,-1.1886 -0.4601,0 -0.95855,0.28756 -1.16943,0.88186 -0.34508,1.05441 -0.69016,2.20467 -1.01606,3.33575 -0.2684,0.90104 -0.47928,1.82125 -0.7285,2.70312 z m 10.01843,-5.25286 c 0.82435,0 1.53368,0.74767 1.53368,1.61037 v 7.05492 c 0,0.8627 -0.70933,1.57203 -1.53368,1.57203 h -2.56892 c 0,-3.46996 -0.0192,-6.78654 -0.0192,-10.23732 z m -2.93316,11.82851 h 2.93316 c 1.62953,0 3.12487,-1.34197 3.12487,-3.16322 v -7.07409 c 0,-1.70622 -1.49534,-3.18239 -3.12487,-3.18239 h -2.93316 c -0.70933,0 -1.22695,0.49845 -1.22695,1.22694 v 10.94664 c 0,0.65182 0.46011,1.24612 1.22695,1.24612 z m 13.75678,0 h 1.70622 l -3.2399,-12.53783 c -0.17254,-0.61348 -0.76684,-1.03524 -1.24612,-1.03524 -0.49844,0 -1.0544,0.38342 -1.28445,1.07358 l -3.18239,12.49949 h 1.66788 c 0.17254,-0.70933 0.42176,-1.66788 1.16943,-4.58187 h 3.22073 z m -4.02591,-6.15389 c 0.36425,-1.53368 0.63264,-3.2399 1.01606,-4.77358 l 0.15337,-1.30363 h 0.15337 l 0.1342,1.30363 0.97772,4.77358 z"
           id="path42" /><path
           style="text-align:start;text-anchor:start;stroke:none"
           d="m 1000.2399,162.22294 h 1.572 v -6.03887 h 0.8436 c 0.9393,0 1.8212,0.61348 2.1279,1.64871 0.038,0.0958 0.058,0.24922 0.096,0.38342 v -0.0192 c 0.1342,0.53679 0.2876,1.13109 0.4409,1.68705 0.1917,0.69015 0.4601,1.68704 0.6135,2.33886 h 1.6679 c -0.058,-0.21088 -0.2109,-0.7285 -0.2876,-1.01606 -0.038,-0.19171 -0.077,-0.36425 -0.115,-0.51762 -0.077,-0.38342 -0.1917,-0.78601 -0.2876,-1.16943 -0.1917,-0.70933 -0.3642,-1.457 -0.5368,-2.10881 -0.2109,-0.76684 -1.0544,-1.87876 -2.1471,-2.03213 1.1119,-0.0575 1.9362,-1.3228 2.1471,-1.99378 0,-0.0383 0,-0.0767 0.038,-0.15337 0.1533,-0.61347 0.3259,-1.24611 0.5176,-1.89793 0.115,-0.38342 0.2492,-0.86269 0.3642,-1.34197 0.096,-0.32591 0.2493,-0.90104 0.3259,-1.1886 h -1.7062 c -0.1533,0.65181 -0.4026,1.457 -0.5943,2.14715 -0.1725,0.67099 -0.3642,1.39948 -0.5368,2.01296 -0.3067,1.01606 -1.1886,1.62953 -2.1279,1.62953 h -0.8436 v -5.78964 h -1.572 z m 9.0983,-12.21193 c -0.4985,0 -0.9394,0.38342 -0.9394,0.97772 0,0.55596 0.4409,0.95855 0.9394,0.95855 0.5176,0 0.9968,-0.40259 0.9968,-0.95855 0,-0.5943 -0.4792,-0.97772 -0.9968,-0.97772 z m 0.786,2.99068 h -1.5337 v 9.22125 h 1.5337 z m 3.0785,-0.0383 V 149.225 h -1.5337 v 9.89224 c 0,1.82124 1.6871,3.1057 3.6233,3.1057 v -1.53368 c -1.131,0 -2.0896,-0.69016 -2.0896,-1.57202 v -4.60104 h 1.9171 v -1.55285 z"
           id="path43" /></g><path
         id="path23-9"
         style="display:inline;fill:#ff9200;fill-opacity:1;stroke:none;stroke-width:3.35845;stroke-linecap:round;stroke-linejoin:round;stroke-dasharray:none;stroke-opacity:1;paint-order:stroke markers fill"
         d="m 943.01669,121.62785 -0.94122,4.99153 a 22.37349,22.37349 0 0 0 -3.72551,1.02621 l -3.33071,-3.87524 -2.42384,1.40002 -0.20034,0.11499 -2.42424,1.40001 1.68452,4.80383 a 22.37349,22.37349 0 0 0 -2.73088,2.73562 l -4.80778,-1.68531 -1.39962,2.42424 -0.11538,0.20034 -1.40002,2.42385 3.88432,3.33862 a 22.37349,22.37349 0 0 0 -1.01988,3.7144 l -5.00694,0.94441 v 2.79924 0.23077 2.79924 l 4.96387,0.93611 a 22.37349,22.37349 0 0 0 1.0096,3.76814 l -3.83097,3.29318 1.40002,2.42384 0.11538,0.19995 1.39962,2.42464 4.69556,-1.64659 a 22.37349,22.37349 0 0 0 2.79054,2.84626 l -1.63196,4.65447 2.42424,1.39962 0.20034,0.11538 2.42384,1.39962 3.20821,-3.73218 a 22.37349,22.37349 0 0 0 3.88509,1.08033 l 0.90414,4.79475 h 2.79927 0.23077 2.7992 l 0.89465,-4.74338 a 22.37349,22.37349 0 0 0 3.94947,-1.06808 l 3.15331,3.66856 2.42382,-1.39962 0.20035,-0.11538 2.42428,-1.39962 -1.58499,-4.52051 a 22.37349,22.37349 0 0 0 2.57721,-2.51197 l -4.61496,-4.03289 -12.15918,-10.62597 12.11766,-10.73582 4.60273,-4.07754 a 22.37349,22.37349 0 0 0 -2.56452,-2.48668 l 1.62605,-4.63787 -2.42428,-1.40001 -0.20035,-0.11499 -2.42382,-1.40002 -3.23826,3.76736 a 22.37349,22.37349 0 0 0 -3.83256,-0.99736 l -0.92661,-4.9125 h -2.7992 -0.23077 z" /><path
         style="font-size:96px;font-family:ZagBold, 'Zag Bold';baseline-shift:baseline;display:inline;overflow:visible;vector-effect:none;fill:#000000;fill-opacity:1;stroke-width:0.228116;stroke-linecap:round;paint-order:stroke fill markers;enable-background:accumulate;stop-color:#000000"
         d="m 961.59445,165.93837 c -3.19362,0 -5.78978,-2.59799 -5.78978,-5.78933 v -0.0209 c -0.13326,-2.13806 -0.92883,-3.79939 -2.66569,-5.10628 -1.09952,-0.79156 -2.45448,-1.25894 -3.77528,-1.25894 -0.5711,0 -1.08358,0.0655 -1.644,0.22074 -0.72906,0.1736 -1.46195,0.40282 -2.25064,0.40282 -0.62503,0 -1.24775,-0.10267 -1.84542,-0.30341 -1.48503,-0.49957 -2.63955,-1.50556 -3.3353,-2.90848 -0.58886,-1.18541 -0.75409,-2.45686 -0.49143,-3.71713 0.52246,-2.6553 2.86801,-4.66345 5.67438,-4.66345 0.79277,0 1.21077,0.26991 2.2053,0.48765 0.55947,0.12434 1.15581,0.17759 1.72141,0.16435 1.344,-0.0315 2.57699,-0.45501 3.69793,-1.25404 1.66525,-1.20901 2.73415,-3.26182 2.72274,-5.31943 -0.005,-0.63416 0.0662,-1.08885 0.27382,-1.70705 0.79358,-2.35793 2.99824,-3.94285 5.48369,-3.94391 h 0.002 c 0.62662,2.2e-4 1.24612,0.10061 1.84542,0.30341 1.45994,0.49273 2.64417,1.52594 3.33308,2.91516 0.68891,1.38923 0.79837,2.95892 0.30563,4.41886 -0.79384,2.35872 -2.9999,3.94391 -5.48636,3.94391 -0.61946,0 -1.23199,-0.10093 -1.82493,-0.29673 l -0.11405,-0.0388 c -0.65013,-0.21443 -1.32313,-0.31901 -1.99379,-0.31901 -1.3322,0 -2.65087,0.41731 -3.75723,1.22256 -1.66068,1.20674 -2.63914,3.14105 -2.63001,5.19409 1.9e-4,0.0541 -4.4e-4,0.1081 -0.002,0.16218 0.0299,2.01991 1.01535,3.90932 2.66164,5.09162 1.09952,0.79156 2.40436,1.19984 3.72516,1.19984 0.69803,0 1.40048,-0.11663 2.07799,-0.34931 0.59994,-0.2053 1.2297,-0.31009 1.87527,-0.31009 3.19362,0 5.78978,2.59615 5.78978,5.78977 0,3.19363 -2.59616,5.78934 -5.78978,5.78934 z"
         id="path39-2" /></g></g></svg>
