<svg xmlns="http://www.w3.org/2000/svg" xml:space="preserve" width="352.174" height="132.777" viewBox="0 0 93.179 35.131">
    <path d="M316.47 149.142a4.815 4.815 0 0 1 4.81-4.81h.017c1.776-.11 3.156-.771 4.242-2.214.657-.913 1.046-2.039 1.046-3.136 0-.474-.055-.9-.184-1.365-.144-.606-.334-1.215-.334-1.87 0-.52.085-1.037.252-1.533a4.7 4.7 0 0 1 2.416-2.77 4.7 4.7 0 0 1 3.087-.409 4.81 4.81 0 0 1 3.874 4.714c0 .658-.224 1.006-.405 1.832-.103.464-.147.96-.136 1.43.026 1.116.378 2.14 1.041 3.071 1.005 1.384 2.71 2.272 4.419 2.262.527-.004.904.055 1.418.228a4.81 4.81 0 0 1 3.276 4.555v.002c0 .52-.083 1.035-.252 1.533a4.78 4.78 0 0 1-2.421 2.768 4.806 4.806 0 0 1-6.7-5.82l.031-.094a5.303 5.303 0 0 0-.75-4.777 5.3 5.3 0 0 0-4.315-2.185h-.134a5.304 5.304 0 0 0-4.936 7.03q.256.752.257 1.559a4.814 4.814 0 0 1-4.81 4.809 4.813 4.813 0 0 1-4.808-4.81z" style="fill:gray;fill-opacity:1;stroke-width:.18949;stroke-linecap:round;paint-order:stroke fill markers;stop-color:#000" transform="translate(-278.417 -130.935)"/>
    <path d="M340.615 143.202a4.32 4.32 0 0 0 4.32-4.32 4.32 4.32 0 0 0-4.32-4.319 4.32 4.32 0 0 0-4.32 4.32 4.32 4.32 0 0 0 4.32 4.319" style="baseline-shift:baseline;display:inline;overflow:visible;vector-effect:none;fill:#ff9200;fill-opacity:1;stroke-width:.18949;paint-order:stroke fill markers;stop-color:#000" transform="translate(-278.417 -130.935)"/>
    <path d="M321.251 140.601a1.62 1.62 0 0 0 1.62-1.619 1.62 1.62 0 0 0-1.62-1.619 1.62 1.62 0 0 0-1.618 1.62 1.62 1.62 0 0 0 1.618 1.618" style="baseline-shift:baseline;display:inline;overflow:visible;vector-effect:none;fill:#000;fill-opacity:1;stroke-width:.18949;stroke-linecap:round;stroke-linejoin:round;paint-order:stroke fill markers;stop-color:#000" transform="translate(-278.417 -130.935)"/>
    <path d="M297.253 149.142a4.815 4.815 0 0 1 4.809-4.81h.017c1.776-.11 3.156-.771 4.242-2.214.657-.913 1.045-2.039 1.045-3.136 0-.474-.054-.9-.183-1.365-.144-.606-.334-1.215-.334-1.87 0-.52.085-1.037.252-1.533a4.7 4.7 0 0 1 2.416-2.77 4.7 4.7 0 0 1 3.087-.409 4.81 4.81 0 0 1 3.874 4.714c0 .658-.224 1.006-.405 1.832a6 6 0 0 0-.136 1.43c.026 1.116.377 2.14 1.041 3.071 1.004 1.384 2.71 2.272 4.419 2.262.527-.004.904.055 1.418.228a4.81 4.81 0 0 1 3.276 4.555v.002c0 .52-.084 1.035-.252 1.533a4.78 4.78 0 0 1-2.422 2.768 4.806 4.806 0 0 1-6.7-5.82l.032-.094a5.303 5.303 0 0 0-.75-4.777 5.3 5.3 0 0 0-4.315-2.185h-.135a5.304 5.304 0 0 0-4.936 7.03q.257.752.258 1.559a4.814 4.814 0 0 1-4.81 4.809 4.813 4.813 0 0 1-4.808-4.81z" style="fill:gray;fill-opacity:1;stroke-width:.18949;stroke-linecap:round;paint-order:stroke fill markers;stop-color:#000" transform="translate(-278.417 -130.935)"/>
    <g stroke="none" aria-label="MembraneCurvature" style="fill:#ff9200;stroke-width:.148337;stroke-linecap:round;stroke-linejoin:round;paint-order:stroke fill markers">
        <path d="m281.75 161.095-.071.77h-.086l-.07-.741c-.4-1.481-.741-2.934-1.226-4.472a.94.94 0 0 0-.883-.64c-.455 0-1.01.256-.996.854v9.114h1.167l-.028-6.92-.143-1.91h.1l.256 1.468 1.14 3.802c.156.342.455.54.712.54a.79.79 0 0 0 .74-.54c.37-1.14.783-2.535 1.168-3.731l.327-1.538h.186l-.328 1.98-.043 6.65.015.199h1.167v-9.142c-.028-.599-.512-.883-.94-.883-.341 0-.712.213-.868.655a74 74 0 0 0-.755 2.478c-.2.669-.356 1.352-.541 2.007m8.866.214a2.267 2.267 0 0 0-2.25-2.264c-1.282 0-2.265 1.082-2.265 2.278v2.464c0 1.296 1.054 2.25 2.265 2.25.655 0 1.51-.27 2.121-1.168l-.94-.683c-.355.498-.84.697-1.181.697a1.11 1.11 0 0 1-1.111-1.096v-.456h1.11c1.211 0 2.25-.726 2.25-2.022m-3.361 1.125v-1.096c0-.613.498-1.125 1.11-1.125.599 0 1.097.498 1.097 1.096 0 .612-.498 1.125-1.096 1.125zm5.704-1.125c0-.598.485-1.11 1.097-1.11.626 0 1.125.512 1.125 1.11v4.67h1.14v-4.67c0-1.481 2.235-1.552 2.22 0v4.67h1.14v-4.67c0-1.267-.997-2.264-2.222-2.264-.655 0-1.353.256-1.694 1.139-.356-.883-1.111-1.153-1.68-1.14-.414.015-.94.2-1.225.756l-.143-.67h-.897v6.85h1.14zm10.632 4.756c1.552 0 2.264-.897 2.264-2.079v-2.72c0-1.153-1.025-2.292-2.293-2.193-.384.029-.84.2-1.096.67v-3.475h-1.154v9.712h.87l.227-.712c.256.584.755.797 1.182.797m1.11-2.079c0 .57-.512.94-1.139.94-.612 0-1.096-.513-1.096-1.011v-2.706c.014-.57.384-.982 1.096-.982.613 0 1.14.455 1.14 1.04zm3.526 1.994v-4.913c.114-.94 1.14-1.054 1.809-.584l.399-1.04c-.77-.612-1.866-.598-2.265.414l-.128-.698h-.954v6.82zm4.31.085c.355 0 1.081-.213 1.224-.811l.114.726h.925v-4.657c0-1.253-1.053-2.264-2.264-2.264-.555 0-1.224.313-1.709.755l.627.954c.384-.37.797-.541 1.082-.541.613 0 1.11.498 1.11 1.096l.03.598c-.157-.455-.713-.754-1.168-.754-1.31 0-2.222 1.025-2.222 2.221v.399c0 1.224 1.026 2.278 2.25 2.278m-1.097-2.278v-.399c0-.612.498-1.096 1.096-1.096.613 0 1.11.398 1.11.968v.698c0 .512-.569.954-1.11.954-.598 0-1.096-.513-1.096-1.125m6.83-3.589c.611 0 1.124.513 1.124 1.111v4.67h1.154v-4.67c0-1.182-1.026-2.335-2.265-2.264-.384.028-.94.17-1.196.769l-.156-.698h-.912v6.864h1.154v-4.671c0-.598.498-1.11 1.096-1.11m7.996 1.111a2.267 2.267 0 0 0-2.25-2.264c-1.281 0-2.264 1.082-2.264 2.278v2.464c0 1.296 1.054 2.25 2.264 2.25.655 0 1.51-.27 2.122-1.168l-.94-.683c-.356.498-.84.697-1.182.697a1.11 1.11 0 0 1-1.11-1.096v-.456h1.11c1.21 0 2.25-.726 2.25-2.022m-3.36 1.125v-1.097c0-.612.498-1.125 1.11-1.125.598 0 1.097.499 1.097 1.097 0 .612-.499 1.125-1.097 1.125z" style="text-align:start;text-anchor:start;stroke:none" transform="translate(-278.417 -130.935)"/>
        <path d="M331.629 163.246c0 1.068-.726 1.637-1.481 1.637s-1.495-.441-1.51-1.253v-5.297c0-.812.74-1.253 1.51-1.253.755 0 1.48.57 1.48 1.652h1.211c-.028-1.88-1.381-2.834-2.705-2.834-1.367 0-2.663.811-2.663 2.435v5.297c0 1.624 1.31 2.435 2.677 2.435 1.31 0 2.677-.954 2.691-2.82zm4.537 2.805c1.295 0 2.221-1.04 2.221-2.25v-4.67h-1.14v4.67c0 .598-.483 1.097-1.081 1.097-.584 0-1.068-.499-1.068-1.097v-4.67h-1.154v4.67c0 1.21.968 2.25 2.222 2.25m4.55-.071v-4.913c.114-.94 1.14-1.054 1.81-.584l.398-1.04c-.77-.612-1.866-.598-2.264.414l-.129-.698h-.954v6.82zm2.5-6.85c.328 1.196.756 2.635 1.112 3.86.228.797.47 1.58.683 2.349v-.014c.114.484.513.74.897.74.413 0 .784-.242.926-.726l1.78-6.209h-1.225a344 344 0 0 0-1.224 4.514l-.171 1.453h-.128l-.185-1.453-1.225-4.514zm7.713 6.935c.356 0 1.082-.213 1.225-.811l.114.726h.925v-4.657c0-1.253-1.053-2.264-2.264-2.264-.555 0-1.224.313-1.709.755l.627.954c.384-.37.797-.541 1.082-.541.613 0 1.111.498 1.111 1.096l.028.598c-.156-.455-.712-.754-1.167-.754-1.31 0-2.222 1.025-2.222 2.221v.399c0 1.224 1.026 2.278 2.25 2.278m-1.096-2.278v-.399c0-.612.498-1.096 1.096-1.096.613 0 1.111.398 1.111.968v.698c0 .512-.57.954-1.11.954-.599 0-1.097-.513-1.097-1.125m5.718-4.685v-2.777h-1.139v7.348c0 1.353 1.253 2.307 2.692 2.307v-1.14c-.84 0-1.553-.512-1.553-1.167v-3.418h1.424v-1.153zm4.509 6.949c1.295 0 2.221-1.04 2.221-2.25v-4.67h-1.14v4.67c0 .598-.483 1.097-1.081 1.097-.584 0-1.068-.499-1.068-1.097v-4.67h-1.154v4.67c0 1.21.968 2.25 2.222 2.25m4.55-.071v-4.913c.115-.94 1.14-1.054 1.81-.584l.398-1.04c-.77-.612-1.866-.598-2.264.414l-.129-.698h-.954v6.82zm6.987-4.671a2.267 2.267 0 0 0-2.25-2.264c-1.282 0-2.265 1.082-2.265 2.278v2.464c0 1.296 1.054 2.25 2.265 2.25.655 0 1.51-.27 2.121-1.168l-.94-.683c-.355.498-.84.697-1.181.697a1.11 1.11 0 0 1-1.111-1.096v-.456h1.11c1.211 0 2.25-.726 2.25-2.022m-3.361 1.125v-1.096c0-.613.498-1.125 1.11-1.125.599 0 1.097.498 1.097 1.096 0 .612-.498 1.125-1.096 1.125z" style="text-align:start;text-anchor:start;fill:#000;stroke:none" transform="translate(-278.417 -130.935)"/>
    </g>
</svg>
