<?xml version="1.0" encoding="UTF-8" standalone="no"?>
<!-- Created with Inkscape (http://www.inkscape.org/) -->

<svg
   width="93.179245mm"
   height="35.13063mm"
   viewBox="0 0 93.179245 35.13063"
   version="1.1"
   id="svg1"
   xml:space="preserve"
   xmlns="http://www.w3.org/2000/svg"
   xmlns:svg="http://www.w3.org/2000/svg"><defs
     id="defs1"><style
       id="style1">
      .cls-1, .cls-2 {
        font-family: ZagBold, 'Zag Bold';
        font-size: 96px;
      }

      .cls-3 {
        letter-spacing: -.16em;
      }

      .cls-4 {
        letter-spacing: -.02em;
      }

      .cls-2, .cls-5 {
        fill: #ff9200;
      }

      .cls-6 {
        letter-spacing: 0em;
      }

      .cls-7 {
        fill: gray;
      }

      .cls-7, .cls-5, .cls-8 {
        fill-rule: evenodd;
      }

      .cls-9 {
        letter-spacing: -.03em;
      }
    </style></defs><g
     id="layer1"
     transform="translate(-278.4174,-130.93469)"><g
       id="g80"><path
         style="font-size:96px;font-family:ZagBold, 'Zag Bold';baseline-shift:baseline;display:inline;overflow:visible;vector-effect:none;fill:#808080;fill-opacity:1;stroke-width:0.18949;stroke-linecap:round;paint-order:stroke fill markers;enable-background:accumulate;stop-color:#000000"
         d="m 316.47067,149.14194 c 0,-2.65287 2.15809,-4.80943 4.80906,-4.80943 h 0.0174 c 1.77603,-0.1107 3.15606,-0.77156 4.24166,-2.21432 0.65753,-0.91335 1.04577,-2.03889 1.04577,-3.13604 0,-0.4744 -0.0544,-0.90011 -0.18336,-1.36563 -0.1442,-0.60562 -0.33462,-1.21441 -0.33462,-1.86955 0,-0.51921 0.0853,-1.03649 0.25204,-1.53295 0.41499,-1.23358 1.25064,-2.19261 2.416,-2.77056 0.9847,-0.48915 2.04086,-0.6264 3.08773,-0.40822 2.2057,0.434 3.87382,2.38239 3.87382,4.71358 0,0.65853 -0.22421,1.00575 -0.40508,1.83188 -0.10328,0.46474 -0.14752,0.96011 -0.13652,1.42994 0.0262,1.11643 0.37797,2.14064 1.0417,3.07178 1.0043,1.38328 2.70952,2.27119 4.41872,2.26172 0.52679,-0.004 0.90449,0.055 1.41801,0.22745 1.95868,0.65921 3.27523,2.49057 3.27611,4.55517 v 0.002 c -1.8e-4,0.52052 -0.0836,1.03513 -0.25204,1.53295 -0.4093,1.21274 -1.26756,2.19644 -2.42155,2.76871 -1.154,0.57225 -2.4579,0.66318 -3.67064,0.25388 -1.95933,-0.65943 -3.27611,-2.49194 -3.27611,-4.55739 0,-0.51457 0.0838,-1.02339 0.24649,-1.51592 l 0.0322,-0.0948 c 0.17812,-0.54005 0.26499,-1.09909 0.26499,-1.65619 0,-1.10662 -0.34665,-2.20201 -1.01555,-3.12104 -1.00241,-1.37949 -2.6092,-2.19227 -4.31461,-2.18469 -0.0449,1.6e-4 -0.0898,-3.6e-4 -0.13472,-0.001 -1.67789,0.0249 -3.24737,0.84343 -4.22948,2.21097 -0.65753,0.91335 -0.99668,1.99724 -0.99668,3.09439 0,0.57984 0.0969,1.16336 0.29016,1.72614 0.17054,0.49836 0.25759,1.02149 0.25759,1.55775 0,2.65286 -2.15656,4.80942 -4.80943,4.80942 -2.65286,0 -4.80906,-2.15656 -4.80906,-4.80942 z"
         id="path19-2" /><path
         style="baseline-shift:baseline;display:inline;overflow:visible;vector-effect:none;fill:#ff9200;fill-opacity:1;stroke-width:0.18949;paint-order:stroke fill markers;enable-background:accumulate;stop-color:#000000"
         d="m 340.615,143.20172 a 4.3192867,4.3192867 0 0 0 4.31929,-4.31929 4.3192867,4.3192867 0 0 0 -4.31929,-4.31928 4.3192867,4.3192867 0 0 0 -4.31928,4.31928 4.3192867,4.3192867 0 0 0 4.31928,4.31929 z"
         id="path13-2-6" /><path
         style="baseline-shift:baseline;display:inline;overflow:visible;vector-effect:none;fill:#000000;fill-opacity:1;stroke-width:0.18949;stroke-linecap:round;stroke-linejoin:round;paint-order:stroke fill markers;enable-background:accumulate;stop-color:#000000"
         d="m 321.25144,140.60102 a 1.6189319,1.6189319 0 0 0 1.61893,-1.61894 1.6189319,1.6189319 0 0 0 -1.61893,-1.61893 1.6189319,1.6189319 0 0 0 -1.61893,1.61893 1.6189319,1.6189319 0 0 0 1.61893,1.61894 z"
         id="path11-3-2" /><path
         style="font-size:96px;font-family:ZagBold, 'Zag Bold';baseline-shift:baseline;display:inline;overflow:visible;vector-effect:none;fill:#808080;fill-opacity:1;stroke-width:0.18949;stroke-linecap:round;paint-order:stroke fill markers;enable-background:accumulate;stop-color:#000000"
         d="m 297.2526,149.14194 c 0,-2.65287 2.15808,-4.80943 4.80905,-4.80943 h 0.0174 c 1.77604,-0.1107 3.15606,-0.77156 4.24167,-2.21432 0.65753,-0.91335 1.04577,-2.03889 1.04577,-3.13604 0,-0.4744 -0.0544,-0.90011 -0.18337,-1.36563 -0.1442,-0.60562 -0.33461,-1.21441 -0.33461,-1.86955 0,-0.51921 0.0853,-1.03649 0.25203,-1.53295 0.41499,-1.23358 1.25064,-2.19261 2.41601,-2.77056 0.98469,-0.48915 2.04086,-0.6264 3.08773,-0.40822 2.20569,0.434 3.87382,2.38239 3.87382,4.71358 0,0.65853 -0.22421,1.00575 -0.40508,1.83188 -0.10329,0.46474 -0.14753,0.96011 -0.13652,1.42994 0.0261,1.11643 0.37796,2.14064 1.0417,3.07178 1.0043,1.38328 2.70951,2.27119 4.41872,2.26172 0.52678,-0.004 0.90448,0.055 1.418,0.22745 1.95868,0.65921 3.27524,2.49057 3.27611,4.55517 v 0.002 c -1.8e-4,0.52052 -0.0836,1.03513 -0.25203,1.53295 -0.4093,1.21274 -1.26756,2.19644 -2.42156,2.76871 -1.154,0.57225 -2.4579,0.66318 -3.67063,0.25388 -1.95933,-0.65943 -3.27611,-2.49194 -3.27611,-4.55739 0,-0.51457 0.0838,-1.02339 0.24648,-1.51592 l 0.0322,-0.0948 c 0.17812,-0.54005 0.26499,-1.09909 0.26499,-1.65619 0,-1.10662 -0.34665,-2.20201 -1.01555,-3.12104 -1.0024,-1.37949 -2.60919,-2.19227 -4.31461,-2.18469 -0.0449,1.6e-4 -0.0898,-3.6e-4 -0.13471,-0.001 -1.67789,0.0249 -3.24738,0.84343 -4.22949,2.21097 -0.65753,0.91335 -0.99667,1.99724 -0.99667,3.09439 0,0.57984 0.0969,1.16336 0.29015,1.72614 0.17055,0.49836 0.25759,1.02149 0.25759,1.55775 0,2.65286 -2.15656,4.80942 -4.80943,4.80942 -2.65286,0 -4.80905,-2.15656 -4.80905,-4.80942 z"
         id="path14" /><g
         id="text11-8"
         style="font-size:14.2403px;line-height:0.8;font-family:'Zag Bold';-inkscape-font-specification:'Zag Bold, Normal';text-align:end;letter-spacing:-0.148337px;text-anchor:end;fill:#ff9200;stroke:#ff00ff;stroke-width:0.148337;stroke-linecap:round;stroke-linejoin:round;paint-order:stroke fill markers"
         aria-label="MembraneCurvature"><path
           style="text-align:start;text-anchor:start;stroke:none"
           d="m 281.74986,161.09542 -0.0712,0.76898 h -0.0854 l -0.0712,-0.7405 c -0.39873,-1.48099 -0.7405,-2.9335 -1.22467,-4.47145 -0.12816,-0.39873 -0.51265,-0.64082 -0.8829,-0.64082 -0.45569,0 -1.01106,0.25633 -0.99682,0.85442 v 9.11379 h 1.16771 l -0.0285,-6.92078 -0.14241,-1.9082 h 0.0997 l 0.25632,1.46675 1.13923,3.80216 c 0.15664,0.34177 0.45569,0.54113 0.71201,0.54113 0.32753,0 0.62657,-0.21361 0.7405,-0.54113 0.37024,-1.13923 0.78321,-2.53478 1.1677,-3.73096 l 0.32753,-1.53795 h 0.18512 l -0.32753,1.9794 -0.0427,6.65022 0.0142,0.19936 h 1.16771 v -9.14227 c -0.0285,-0.59809 -0.51265,-0.8829 -0.93986,-0.8829 -0.34177,0 -0.71202,0.21361 -0.86866,0.65506 -0.25632,0.78321 -0.51265,1.63763 -0.75474,2.47781 -0.19936,0.66929 -0.356,1.35283 -0.54113,2.00788 z m 8.86577,0.2136 c 0,-1.25314 -1.02531,-2.2642 -2.24997,-2.2642 -1.28163,0 -2.26421,1.08226 -2.26421,2.27844 v 2.46358 c 0,1.29586 1.05378,2.24996 2.26421,2.24996 0.65505,0 1.50947,-0.27056 2.1218,-1.1677 l -0.93986,-0.68353 c -0.356,0.49841 -0.84017,0.69777 -1.18194,0.69777 -0.61233,0 -1.11075,-0.49841 -1.11075,-1.0965 v -0.45569 h 1.11075 c 1.21042,0 2.24997,-0.72626 2.24997,-2.02213 z m -3.36072,1.12499 v -1.0965 c 0,-0.61234 0.49842,-1.12499 1.11075,-1.12499 0.59809,0 1.0965,0.49841 1.0965,1.0965 0,0.61234 -0.49841,1.12499 -1.0965,1.12499 z m 5.70444,-1.12499 c 0,-0.59809 0.48417,-1.11074 1.0965,-1.11074 0.62658,0 1.12499,0.51265 1.12499,1.11074 v 4.67082 h 1.13922 v -4.67082 c 0,-1.48099 2.23573,-1.55219 2.22149,0 v 4.67082 h 1.13922 v -4.67082 c 0,-1.26738 -0.99682,-2.2642 -2.22148,-2.2642 -0.65506,0 -1.35283,0.25632 -1.6946,1.13922 -0.35601,-0.8829 -1.11074,-1.15346 -1.68036,-1.13922 -0.41296,0.0142 -0.93986,0.19936 -1.22466,0.75473 l -0.1424,-0.66929 h -0.89714 v 6.84958 h 1.13922 z m 10.63157,4.75626 c 1.55219,0 2.26421,-0.89713 2.26421,-2.07908 v -2.7199 c 0,-1.15346 -1.0253,-2.29268 -2.29269,-2.193 -0.38449,0.0285 -0.84018,0.19936 -1.0965,0.66929 v -3.47463 h -1.15347 v 9.71188 h 0.86866 l 0.22785,-0.71201 c 0.25632,0.58385 0.75473,0.79745 1.18194,0.79745 z m 1.11074,-2.07908 c 0,0.56961 -0.51265,0.93986 -1.13922,0.93986 -0.61233,0 -1.0965,-0.51265 -1.0965,-1.01106 v -2.70566 c 0.0142,-0.56961 0.38449,-0.98258 1.0965,-0.98258 0.61233,0 1.13922,0.45569 1.13922,1.03954 z m 3.52567,1.99364 v -4.9129 c 0.11392,-0.93986 1.13922,-1.05378 1.80852,-0.58385 l 0.39873,-1.03954 c -0.76898,-0.61234 -1.86548,-0.5981 -2.26421,0.41296 l -0.12816,-0.69777 h -0.9541 v 6.8211 z m 4.30886,0.0854 c 0.35601,0 1.08226,-0.2136 1.22467,-0.81169 l 0.11392,0.72625 h 0.92562 v -4.65658 c 0,-1.25314 -1.05378,-2.2642 -2.26421,-2.2642 -0.55537,0 -1.22467,0.31328 -1.70884,0.75473 l 0.62658,0.9541 c 0.38449,-0.37024 0.79745,-0.54113 1.08226,-0.54113 0.61233,0 1.11074,0.49841 1.11074,1.0965 l 0.0285,0.5981 c -0.15664,-0.45569 -0.71201,-0.75474 -1.1677,-0.75474 -1.31011,0 -2.22149,1.0253 -2.22149,2.22149 v 0.39873 c 0,1.22466 1.0253,2.27844 2.24997,2.27844 z m -1.0965,-2.27844 v -0.39873 c 0,-0.61233 0.49841,-1.0965 1.0965,-1.0965 0.61233,0 1.11074,0.39872 1.11074,0.96834 v 0.69777 c 0,0.51265 -0.56961,0.9541 -1.11074,0.9541 -0.59809,0 -1.0965,-0.51265 -1.0965,-1.12498 z m 6.82941,-3.58856 c 0.61233,0 1.12498,0.51265 1.12498,1.11074 v 4.67082 h 1.15347 v -4.67082 c 0,-1.18194 -1.02531,-2.3354 -2.26421,-2.2642 -0.38449,0.0285 -0.93986,0.17088 -1.19619,0.76897 l -0.15664,-0.69777 h -0.91138 v 6.86382 h 1.15347 v -4.67082 c 0,-0.59809 0.49841,-1.11074 1.0965,-1.11074 z m 7.99711,1.11074 c 0,-1.25314 -1.0253,-2.2642 -2.24997,-2.2642 -1.28162,0 -2.2642,1.08226 -2.2642,2.27844 v 2.46358 c 0,1.29586 1.05378,2.24996 2.2642,2.24996 0.65506,0 1.50948,-0.27056 2.12181,-1.1677 l -0.93986,-0.68353 c -0.35601,0.49841 -0.84018,0.69777 -1.18195,0.69777 -0.61233,0 -1.11074,-0.49841 -1.11074,-1.0965 v -0.45569 h 1.11074 c 1.21043,0 2.24997,-0.72626 2.24997,-2.02213 z m -3.36071,1.12499 v -1.0965 c 0,-0.61234 0.49841,-1.12499 1.11074,-1.12499 0.5981,0 1.09651,0.49841 1.09651,1.0965 0,0.61234 -0.49841,1.12499 -1.09651,1.12499 z"
           id="path26" /><path
           style="text-align:start;text-anchor:start;fill:#000000;stroke:none"
           d="m 331.62888,163.24571 c 0,1.06802 -0.72625,1.63763 -1.48099,1.63763 -0.75473,0 -1.49523,-0.44145 -1.50947,-1.25315 v -5.29739 c 0,-0.8117 0.74049,-1.25314 1.50947,-1.25314 0.75474,0 1.48099,0.56961 1.48099,1.65187 h 1.21043 c -0.0285,-1.87972 -1.38131,-2.83382 -2.70566,-2.83382 -1.36707,0 -2.66294,0.8117 -2.66294,2.43509 v 5.29739 c 0,1.6234 1.31011,2.43509 2.67718,2.43509 1.31011,0 2.67718,-0.9541 2.69142,-2.81957 z m 4.53673,2.80533 c 1.29586,0 2.22148,-1.03954 2.22148,-2.24996 v -4.67082 h -1.13922 v 4.67082 c 0,0.59809 -0.48417,1.0965 -1.08226,1.0965 -0.58386,0 -1.06803,-0.49841 -1.06803,-1.0965 v -4.67082 h -1.15346 v 4.67082 c 0,1.21042 0.96834,2.24996 2.22149,2.24996 z m 4.55096,-0.0712 v -4.9129 c 0.11392,-0.93986 1.13922,-1.05378 1.80852,-0.58385 l 0.39873,-1.03954 c -0.76898,-0.61234 -1.86548,-0.5981 -2.26421,0.41296 l -0.12816,-0.69777 h -0.9541 v 6.8211 z m 2.50036,-6.84958 c 0.32753,1.19618 0.75474,2.63445 1.11075,3.85912 0.22784,0.79746 0.46993,1.58067 0.68353,2.34965 v -0.0142 c 0.11392,0.48417 0.51265,0.74049 0.89714,0.74049 0.41297,0 0.78322,-0.24208 0.92562,-0.72625 l 1.78004,-6.20877 h -1.22467 c -0.42721,1.53795 -0.8117,2.94774 -1.22466,4.51417 l -0.17089,1.45251 h -0.12816 l -0.18512,-1.45251 -1.22467,-4.51417 z m 7.71231,6.93502 c 0.356,0 1.08226,-0.2136 1.22466,-0.81169 l 0.11392,0.72625 h 0.92562 v -4.65658 c 0,-1.25314 -1.05378,-2.2642 -2.2642,-2.2642 -0.55538,0 -1.22467,0.31328 -1.70884,0.75473 l 0.62657,0.9541 c 0.38449,-0.37024 0.79746,-0.54113 1.08227,-0.54113 0.61233,0 1.11074,0.49841 1.11074,1.0965 l 0.0285,0.5981 c -0.15664,-0.45569 -0.71202,-0.75474 -1.16771,-0.75474 -1.3101,0 -2.22148,1.0253 -2.22148,2.22149 v 0.39873 c 0,1.22466 1.0253,2.27844 2.24997,2.27844 z m -1.09651,-2.27844 v -0.39873 c 0,-0.61233 0.49841,-1.0965 1.09651,-1.0965 0.61233,0 1.11074,0.39872 1.11074,0.96834 v 0.69777 c 0,0.51265 -0.56961,0.9541 -1.11074,0.9541 -0.5981,0 -1.09651,-0.51265 -1.09651,-1.12498 z m 5.71867,-4.68506 v -2.77686 h -1.13922 v 7.34799 c 0,1.35283 1.25314,2.30693 2.69141,2.30693 v -1.13922 c -0.84017,0 -1.55219,-0.51265 -1.55219,-1.16771 v -3.41767 h 1.42403 v -1.15346 z m 4.50824,6.94926 c 1.29586,0 2.22148,-1.03954 2.22148,-2.24996 v -4.67082 h -1.13922 v 4.67082 c 0,0.59809 -0.48417,1.0965 -1.08226,1.0965 -0.58386,0 -1.06803,-0.49841 -1.06803,-1.0965 v -4.67082 h -1.15346 v 4.67082 c 0,1.21042 0.96834,2.24996 2.22149,2.24996 z m 4.55096,-0.0712 v -4.9129 c 0.11392,-0.93986 1.13922,-1.05378 1.80852,-0.58385 l 0.39873,-1.03954 c -0.76898,-0.61234 -1.86548,-0.5981 -2.26421,0.41296 l -0.12817,-0.69777 h -0.9541 v 6.8211 z m 6.98605,-4.67082 c 0,-1.25314 -1.0253,-2.2642 -2.24997,-2.2642 -1.28163,0 -2.26421,1.08226 -2.26421,2.27844 v 2.46358 c 0,1.29586 1.05379,2.24996 2.26421,2.24996 0.65506,0 1.50947,-0.27056 2.12181,-1.1677 l -0.93986,-0.68353 c -0.35601,0.49841 -0.84018,0.69777 -1.18195,0.69777 -0.61233,0 -1.11074,-0.49841 -1.11074,-1.0965 v -0.45569 h 1.11074 c 1.21043,0 2.24997,-0.72626 2.24997,-2.02213 z m -3.36071,1.12499 v -1.0965 c 0,-0.61234 0.49841,-1.12499 1.11074,-1.12499 0.59809,0 1.0965,0.49841 1.0965,1.0965 0,0.61234 -0.49841,1.12499 -1.0965,1.12499 z"
           id="path27" /></g></g></g></svg>
