<svg xmlns="http://www.w3.org/2000/svg" xml:space="preserve" id="svg1" width="299.294" height="128.735" viewBox="0 0 79.188 34.061">
    <defs id="defs1">
        <style id="style1">
            .cls-1{font-family:ZagBold,&quot;Zag Bold&quot;;font-size:96px}
        </style>
    </defs>
    <g id="layer1" transform="translate(-2925.406 -131.47)">
        <g id="g92">
            <path id="path7-7-6-5-6" d="M2931.086 131.47c3.133 0 5.746 2.56 5.746 5.691v.021c-.024 2.152.988 3.948 2.545 5.101a6.05 6.05 0 0 0 3.68 1.175 6.4 6.4 0 0 0 1.648-.21c.682-.18 1.428-.445 2.202-.445.613 0 1.224.1 1.81.298a5.56 5.56 0 0 1 3.273 2.853 5.54 5.54 0 0 1 .482 3.647 5.68 5.68 0 0 1-5.567 4.576c-.778 0-1.441-.295-2.17-.463a6.4 6.4 0 0 0-1.682-.202c-1.307 0-2.585.457-3.668 1.245a6.43 6.43 0 0 0-2.598 5.053c0 .622-.1 1.245-.303 1.851a5.68 5.68 0 0 1-5.38 3.87 5.6 5.6 0 0 1-1.81-.298 5.64 5.64 0 0 1-3.27-2.86 5.64 5.64 0 0 1-.3-4.336 5.677 5.677 0 0 1 7.173-3.578l.111.038a6.263 6.263 0 0 0 5.642-.886 6.27 6.27 0 0 0 2.581-5.096v-.16a6.26 6.26 0 0 0-2.611-4.995 6.25 6.25 0 0 0-5.694-.834 5.686 5.686 0 0 1-7.52-5.376 5.685 5.685 0 0 1 5.68-5.68z" class="cls-1" style="font-size:96px;font-family:ZagBold,&quot;Zag Bold&quot;;display:inline;fill:#000;fill-opacity:1;stroke-width:0"/>
            <path id="path13-2-5-43-6" d="M2950.796 148.439a3.81 3.81 0 0 1-3.81 3.81 3.81 3.81 0 0 1-3.81-3.81 3.81 3.81 0 0 1 3.81-3.81 3.81 3.81 0 0 1 3.81 3.81" style="baseline-shift:baseline;display:inline;overflow:visible;vector-effect:none;fill:#ff9200;fill-opacity:1;stroke-width:.264584;paint-order:stroke fill markers;stop-color:#000"/>
            <g id="text168" aria-label="MDACli" class="cls-1" style="font-size:20.9687px;font-family:ZagBold,&quot;Zag Bold&quot;;fill:#fe9100;stroke-width:.258219">
                <path id="path67" d="m2961.525 148.309-.105 1.132h-.126l-.105-1.09c-.587-2.181-1.09-4.32-1.803-6.584a1.38 1.38 0 0 0-1.3-.944c-.671 0-1.489.377-1.468 1.258v13.42h1.72l-.043-10.19-.21-2.81h.148l.377 2.16 1.677 5.598c.231.503.671.797 1.049.797.482 0 .923-.315 1.09-.797.545-1.678 1.153-3.733 1.72-5.494l.482-2.265h.273l-.483 2.915-.063 9.792.021.294h1.72v-13.462c-.042-.88-.755-1.3-1.384-1.3-.503 0-1.049.315-1.28.965a109 109 0 0 0-1.11 3.648c-.294.986-.525 1.992-.797 2.957m11.176-5.746c.902 0 1.677.818 1.677 1.762v7.716c0 .944-.775 1.72-1.677 1.72h-2.81c0-3.796-.02-7.423-.02-11.198zm-3.208 12.938h3.208a3.454 3.454 0 0 0 3.418-3.46v-7.737c0-1.866-1.636-3.481-3.418-3.481h-3.208c-.776 0-1.342.545-1.342 1.342v11.973c0 .713.503 1.363 1.342 1.363m15.265 0h1.866l-3.544-13.714c-.188-.67-.838-1.132-1.363-1.132-.545 0-1.153.42-1.405 1.174l-3.48 13.672h1.824c.189-.776.461-1.824 1.28-5.012h3.522zm-4.403-6.73c.398-1.678.691-3.545 1.11-5.222l.169-1.426h.167l.147 1.426 1.07 5.221z" style="font-family:&quot;Zag Bold&quot;;-inkscape-font-specification:&quot;Zag Bold, Normal&quot;;fill:#000"/>
                <path id="path68" d="M2994.047 151.475c0 1.573-1.07 2.411-2.18 2.411-1.112 0-2.202-.65-2.223-1.845v-7.8c0-1.195 1.09-1.845 2.222-1.845 1.112 0 2.181.838 2.181 2.432h1.782c-.042-2.768-2.034-4.173-3.984-4.173-2.013 0-3.92 1.195-3.92 3.586v7.8c0 2.39 1.928 3.586 3.941 3.586 1.93 0 3.942-1.405 3.963-4.152zm5.305.63v-10.82h-1.677v10.82c0 1.991 1.656 3.396 3.816 3.396v-1.677c-1.216 0-2.139-.755-2.139-1.72m4.152-9.961c-.545 0-1.028.42-1.028 1.07 0 .607.483 1.048 1.028 1.048.566 0 1.09-.44 1.09-1.049 0-.65-.524-1.07-1.09-1.07m.86 3.271h-1.678v10.086h1.678z" style="font-family:&quot;Zag Bold&quot;;-inkscape-font-specification:&quot;Zag Bold, Normal&quot;"/>
            </g>
        </g>
    </g>
</svg>
