<?xml version="1.0" encoding="UTF-8" standalone="no"?>
<!-- Created with Inkscape (http://www.inkscape.org/) -->

<svg
   width="79.188301mm"
   height="34.061249mm"
   viewBox="0 0 79.188301 34.061249"
   version="1.1"
   id="svg1"
   xml:space="preserve"
   xmlns="http://www.w3.org/2000/svg"
   xmlns:svg="http://www.w3.org/2000/svg"><defs
     id="defs1"><style
       id="style1">
      .cls-1, .cls-2 {
        font-family: ZagBold, 'Zag Bold';
        font-size: 96px;
      }

      .cls-3 {
        letter-spacing: -.16em;
      }

      .cls-4 {
        letter-spacing: -.02em;
      }

      .cls-2, .cls-5 {
        fill: #ff9200;
      }

      .cls-6 {
        letter-spacing: 0em;
      }

      .cls-7 {
        fill: gray;
      }

      .cls-7, .cls-5, .cls-8 {
        fill-rule: evenodd;
      }

      .cls-9 {
        letter-spacing: -.03em;
      }
    </style></defs><g
     id="layer1"
     transform="translate(-2925.406,-131.46937)"><g
       id="g92"><path
         id="path7-7-6-5-6"
         class="cls-1"
         d="m 2931.0861,131.46945 c 3.1333,0 5.7455,2.56094 5.7455,5.69202 v 0.0205 c -0.024,2.15213 0.988,3.94811 2.5449,5.10118 1.0965,0.81135 2.3992,1.19064 3.6796,1.1752 0.5603,-0.007 1.0988,-0.0588 1.6486,-0.21105 0.6826,-0.17961 1.4285,-0.44412 2.2023,-0.44412 0.6132,0 1.2241,0.10073 1.8105,0.29768 1.457,0.49014 2.5897,1.47714 3.2723,2.85356 0.5778,1.16303 0.7399,2.41047 0.4822,3.64693 -0.5126,2.60516 -2.8139,4.57539 -5.5672,4.57539 -0.7778,0 -1.4412,-0.29441 -2.1707,-0.4632 -0.5451,-0.14901 -1.1258,-0.20123 -1.6808,-0.20123 -1.3071,0 -2.5849,0.45642 -3.6682,1.24422 -1.6106,1.20935 -2.5479,3.01925 -2.5985,5.05344 0,0.62218 -0.099,1.2447 -0.3025,1.85122 -0.7785,2.31341 -2.9416,3.8684 -5.3801,3.86943 v 0 c -0.6148,-2.1e-4 -1.2226,-0.0987 -1.8106,-0.29768 -1.4324,-0.48343 -2.5942,-1.49712 -3.2701,-2.86011 -0.6759,-1.36299 -0.7833,-2.90303 -0.2999,-4.33541 0.7788,-2.31417 2.9432,-3.86943 5.3828,-3.86943 0.6077,0 1.2087,0.099 1.7904,0.29113 l 0.1119,0.038 c 0.6379,0.21038 1.2982,0.31298 1.9562,0.31298 1.307,0 2.6008,-0.40943 3.6862,-1.19947 1.6294,-1.18394 2.5893,-3.08173 2.5804,-5.096 -2e-4,-0.053 4e-4,-0.10606 0,-0.15912 -0.029,-1.98176 -0.9962,-3.83549 -2.6114,-4.99546 -1.0788,-0.77662 -2.359,-1.17718 -3.6548,-1.17718 -0.6849,0 -1.3741,0.11442 -2.0388,0.34271 -0.5886,0.20142 -1.2065,0.30424 -1.8398,0.30424 -3.1333,0 -5.6805,-2.54713 -5.6805,-5.68044 0,-3.13332 2.5472,-5.68001 5.6805,-5.68001 z"
         style="font-size:96px;font-family:ZagBold, 'Zag Bold';display:inline;fill:#000000;fill-opacity:1;stroke-width:0px" /><path
         style="baseline-shift:baseline;display:inline;overflow:visible;vector-effect:none;fill:#ff9200;fill-opacity:1;stroke-width:0.264584;paint-order:stroke fill markers;enable-background:accumulate;stop-color:#000000"
         d="m 2950.796,148.43869 a 3.8097206,3.8097206 0 0 1 -3.8097,3.80972 3.8097206,3.8097206 0 0 1 -3.8097,-3.80972 3.8097206,3.8097206 0 0 1 3.8097,-3.80973 3.8097206,3.8097206 0 0 1 3.8097,3.80973 z"
         id="path13-2-5-43-6" /><g
         id="text168"
         style="font-size:20.9687px;font-family:ZagBold, 'Zag Bold';fill:#fe9100;stroke-width:0.258219"
         class="cls-1"
         aria-label="MDACli"><path
           style="font-family:'Zag Bold';-inkscape-font-specification:'Zag Bold, Normal';fill:#000000"
           d="m 2961.5246,148.30874 -0.1048,1.13231 h -0.1259 l -0.1048,-1.09037 c -0.5871,-2.18074 -1.0904,-4.31955 -1.8033,-6.58417 -0.1887,-0.58713 -0.7549,-0.94359 -1.3001,-0.94359 -0.671,0 -1.4887,0.37743 -1.4678,1.25812 v 13.41997 h 1.7195 l -0.042,-10.19079 -0.2097,-2.80981 h 0.1468 l 0.3774,2.15978 1.6775,5.59864 c 0.2307,0.50325 0.671,0.79681 1.0485,0.79681 0.4823,0 0.9226,-0.31453 1.0903,-0.79681 0.5452,-1.67749 1.1533,-3.73243 1.7195,-5.4938 l 0.4823,-2.26462 h 0.2726 l -0.4823,2.91465 -0.063,9.79239 0.021,0.29356 h 1.7195 V 142.0391 c -0.042,-0.88068 -0.7549,-1.30006 -1.384,-1.30006 -0.5032,0 -1.0484,0.31453 -1.2791,0.96456 -0.3774,1.15328 -0.7548,2.4114 -1.1113,3.64856 -0.2936,0.98553 -0.5242,1.99202 -0.7968,2.95658 z m 11.1763,-5.74542 c 0.9017,0 1.6775,0.81778 1.6775,1.76137 v 7.71648 c 0,0.94359 -0.7758,1.71943 -1.6775,1.71943 h -2.8098 c 0,-3.79533 -0.021,-7.42291 -0.021,-11.19728 z m -3.2082,12.93769 h 3.2082 c 1.7823,0 3.4179,-1.46781 3.4179,-3.45984 v -7.73745 c 0,-1.86621 -1.6356,-3.4808 -3.4179,-3.4808 h -3.2082 c -0.7759,0 -1.342,0.54518 -1.342,1.34199 v 11.97313 c 0,0.71294 0.5032,1.36297 1.342,1.36297 z m 15.2652,0 h 1.8662 l -3.5437,-13.71353 c -0.1887,-0.671 -0.8387,-1.13231 -1.363,-1.13231 -0.5452,0 -1.1532,0.41937 -1.4049,1.17424 l -3.4808,13.6716 h 1.8243 c 0.1887,-0.77584 0.4613,-1.82428 1.2791,-5.01152 h 3.5227 z m -4.4034,-6.73096 c 0.3984,-1.67749 0.6919,-3.54371 1.1113,-5.2212 l 0.1678,-1.42587 h 0.1677 l 0.1468,1.42587 1.0694,5.2212 z"
           id="path67" /><path
           style="font-family:'Zag Bold';-inkscape-font-specification:'Zag Bold, Normal'"
           d="m 2994.047,151.47502 c 0,1.57265 -1.0694,2.4114 -2.1807,2.4114 -1.1114,0 -2.2017,-0.65003 -2.2227,-1.84525 v -7.80036 c 0,-1.19521 1.0904,-1.84524 2.2227,-1.84524 1.1113,0 2.1807,0.83875 2.1807,2.43237 h 1.7823 c -0.042,-2.76787 -2.0339,-4.17277 -3.984,-4.17277 -2.013,0 -3.9212,1.19521 -3.9212,3.58564 v 7.80036 c 0,2.39043 1.9292,3.58565 3.9422,3.58565 1.9291,0 3.9421,-1.4049 3.963,-4.1518 z m 5.3051,0.62906 v -10.81985 h -1.6775 v 10.81985 c 0,1.99202 1.6565,3.39693 3.8163,3.39693 v -1.6775 c -1.2162,0 -2.1388,-0.75487 -2.1388,-1.71943 z m 4.1518,-9.96014 c -0.5452,0 -1.0275,0.41938 -1.0275,1.06941 0,0.60809 0.4823,1.04843 1.0275,1.04843 0.5661,0 1.0904,-0.44034 1.0904,-1.04843 0,-0.65003 -0.5243,-1.06941 -1.0904,-1.06941 z m 0.8597,3.27112 h -1.6775 v 10.08595 h 1.6775 z"
           id="path68" /></g></g></g></svg>
