<svg xmlns="http://www.w3.org/2000/svg" xml:space="preserve" width="490.181" height="218.645" viewBox="0 0 129.694 57.85">
    <path d="M1602.047 177.425a5.796 5.796 0 0 0 5.79-5.79v-.02c.133-2.138.929-3.8 2.666-5.107 1.1-.791 2.454-1.259 3.775-1.259.571 0 1.084.066 1.644.221.73.174 1.462.403 2.25.403.626 0 1.249-.103 1.846-.303a5.67 5.67 0 0 0 3.335-2.909 5.65 5.65 0 0 0 .492-3.717 5.79 5.79 0 0 0-5.674-4.663c-.793 0-1.211.27-2.206.487a7.3 7.3 0 0 1-1.721.165c-1.344-.032-2.577-.455-3.698-1.254-1.665-1.21-2.734-3.262-2.723-5.32.01-.634-.066-1.089-.274-1.707a5.79 5.79 0 0 0-5.483-3.944c-.627 0-1.246.1-1.846.304a5.75 5.75 0 0 0-3.333 2.915 5.75 5.75 0 0 0-.305 4.419 5.786 5.786 0 0 0 7.31 3.647l.115-.039a6.384 6.384 0 0 1 5.751.904 6.39 6.39 0 0 1 2.63 5.194v.162a6.386 6.386 0 0 1-8.465 5.942 5.795 5.795 0 0 0-7.665 5.48 5.795 5.795 0 0 0 5.79 5.789z" style="fill:gray;fill-opacity:1;stroke-width:.228116;stroke-linecap:round;paint-order:stroke fill markers;stop-color:#000" transform="translate(-1580.145 -119.575)"/>
    <path d="M1602.063 154.292a5.796 5.796 0 0 1-5.79-5.79v-.02c-.133-2.138-.928-3.8-2.665-5.107-1.1-.791-2.455-1.259-3.775-1.259-.572 0-1.084.066-1.645.221-.729.174-1.461.403-2.25.403a5.8 5.8 0 0 1-1.846-.303 5.67 5.67 0 0 1-3.335-2.909 5.65 5.65 0 0 1-.491-3.717 5.79 5.79 0 0 1 5.674-4.664c.793 0 1.21.27 2.205.488.56.124 1.156.178 1.722.164 1.344-.031 2.577-.455 3.698-1.254 1.665-1.209 2.734-3.261 2.723-5.319 0-.634.066-1.089.273-1.707a5.79 5.79 0 0 1 5.484-3.944c.627 0 1.246.1 1.845.303a5.75 5.75 0 0 1 3.333 2.916 5.75 5.75 0 0 1 .306 4.418 5.786 5.786 0 0 1-7.311 3.648l-.114-.04a6.384 6.384 0 0 0-5.751.904 6.39 6.39 0 0 0-2.63 5.194v.163a6.385 6.385 0 0 0 8.465 5.942 5.795 5.795 0 0 1 7.665 5.48 5.794 5.794 0 0 1-5.79 5.789z" style="fill:#ff9200;fill-opacity:1;stroke-width:.228116;stroke-linecap:round;paint-order:stroke fill markers;stop-color:#000" transform="translate(-1580.145 -119.575)"/>
    <g stroke="none" aria-label="SolvationAnalysis" style="fill:#ff9200;stroke-width:.177966;stroke-linecap:round;stroke-linejoin:round;paint-order:stroke fill markers">
        <path d="M1612.365 141.777v.99c.016 2.205 1.52 2.546 3.006 2.837.923.154 1.88.376 1.88 1.4v1.23c0 .94-.889 1.453-1.76 1.453-.888 0-1.743-.65-1.743-1.93h-1.384c-.017 2.22 1.504 3.365 3.127 3.365 1.555 0 3.16-.974 3.16-2.887v-1.23c0-2.085-1.605-2.512-2.99-2.802-.836-.171-1.913-.496-1.913-1.435v-.991c0-.94.872-1.452 1.76-1.452.871 0 1.743.666 1.743 1.93h1.4c0-2.204-1.588-3.348-3.143-3.348-1.606 0-3.144.973-3.144 2.87m13.062 3.605c0-1.845-1.384-2.7-2.785-2.7-1.384 0-2.767.855-2.767 2.7v2.99c0 1.828 1.366 2.716 2.767 2.716 1.384 0 2.785-.888 2.785-2.716zm-1.384 2.99c0 .87-.7 1.315-1.4 1.315-.684 0-1.402-.444-1.402-1.315v-2.99c0-.872.718-1.333 1.401-1.333.7 0 1.401.461 1.401 1.333zm4.179-.137v-8.816h-1.367v8.816c0 1.623 1.35 2.768 3.11 2.768v-1.367c-.991 0-1.743-.615-1.743-1.401m.488-5.45c.393 1.435.906 3.16 1.333 4.63.273.957.564 1.896.82 2.819v-.017c.137.58.615.888 1.076.888.496 0 .94-.29 1.11-.871l2.136-7.45h-1.469a412 412 0 0 0-1.47 5.417l-.204 1.742h-.154l-.222-1.742-1.47-5.416zm9.253 8.32c.427 0 1.298-.256 1.47-.974l.136.872h1.11v-5.587c0-1.504-1.264-2.717-2.716-2.717-.666 0-1.47.376-2.05.906l.752 1.145c.46-.445.956-.65 1.298-.65a1.33 1.33 0 0 1 1.333 1.316l.034.717c-.188-.546-.855-.905-1.401-.905-1.572 0-2.666 1.23-2.666 2.665v.479c0 1.469 1.23 2.733 2.7 2.733zm-1.316-2.733v-.479c0-.734.598-1.315 1.316-1.315.735 0 1.333.478 1.333 1.161v.838c0 .615-.684 1.144-1.333 1.144-.718 0-1.316-.615-1.316-1.35m6.861-5.621v-3.332h-1.366v8.816c0 1.623 1.503 2.768 3.229 2.768v-1.367c-1.008 0-1.863-.615-1.863-1.401v-4.1h1.709v-1.384zm3.513-2.631c-.444 0-.837.341-.837.871 0 .495.393.854.837.854.461 0 .888-.359.888-.854 0-.53-.427-.871-.888-.871m.7 2.665h-1.367v8.218h1.367zm6.947 2.597c0-1.845-1.384-2.7-2.785-2.7-1.384 0-2.768.855-2.768 2.7v2.99c0 1.828 1.367 2.716 2.768 2.716 1.384 0 2.785-.888 2.785-2.716zm-1.384 2.99c0 .87-.7 1.315-1.401 1.315-.684 0-1.401-.444-1.401-1.315v-2.99c0-.872.717-1.333 1.4-1.333.701 0 1.402.461 1.402 1.333zm5.511-4.306c.735 0 1.35.615 1.35 1.333v5.604h1.383v-5.604c0-1.418-1.23-2.802-2.716-2.717-.461.035-1.128.205-1.435.923l-.188-.837h-1.093v8.235h1.384v-5.604c0-.718.597-1.333 1.315-1.333" style="text-align:start;text-anchor:start;stroke:none" transform="translate(-1580.145 -119.575)"/>
        <path d="M1669.26 151.003h1.521l-2.887-11.174c-.154-.546-.683-.922-1.11-.922-.445 0-.94.341-1.145.956l-2.836 11.14h1.486c.154-.633.376-1.487 1.042-4.084h2.87zm-3.587-5.485c.325-1.366.564-2.887.906-4.254l.136-1.161h.137l.12 1.161.87 4.254zm8.689-1.452c.735 0 1.35.615 1.35 1.333v5.604h1.384v-5.604c0-1.418-1.23-2.802-2.717-2.717-.461.035-1.127.205-1.435.923l-.188-.837h-1.093v8.235h1.384v-5.604c0-.718.597-1.333 1.315-1.333m6.588 7.04c.427 0 1.298-.257 1.469-.975l.137.872h1.11v-5.587c0-1.504-1.264-2.717-2.716-2.717-.667 0-1.47.376-2.05.906l.751 1.145c.461-.445.957-.65 1.299-.65a1.33 1.33 0 0 1 1.332 1.316l.034.717c-.188-.546-.854-.905-1.4-.905-1.572 0-2.666 1.23-2.666 2.665v.479c0 1.469 1.23 2.733 2.7 2.733m-1.316-2.734v-.479c0-.734.598-1.315 1.316-1.315.734 0 1.332.478 1.332 1.161v.838c0 .615-.683 1.144-1.332 1.144-.718 0-1.316-.615-1.316-1.35m6.861-.137v-8.816h-1.367v8.816c0 1.623 1.35 2.768 3.11 2.768v-1.367c-.991 0-1.743-.615-1.743-1.401m7.75 3.434v-8.884h-1.385v5.877c0 .666-.597 1.025-1.28 1.025-.718.017-1.368-.564-1.368-1.264v-5.638h-1.384v5.638c0 1.486 1.299 2.716 2.751 2.63.342-.016 1.06-.255 1.281-.888v1.504c0 .717-.597 1.298-1.298 1.298-.359 0-.905-.239-1.384-.632l-.905 1.042c.683.564 1.623.991 2.289.991 1.435 0 2.665-1.161 2.682-2.7m6.501-7.449c-.7-1.06-1.623-1.538-2.494-1.538-1.367 0-2.716.94-2.7 2.614 0 1.59 1.145 2.187 2.563 2.221.667.017 1.282.36 1.282 1.077 0 .751-.65 1.144-1.333 1.144-.53 0-1.127-.307-1.52-.956l-1.18.632c.633 1.11 1.76 1.708 2.683 1.708 1.367 0 2.75-.803 2.734-2.528 0-1.64-1.299-2.443-2.648-2.478-.667-.017-1.214-.205-1.197-.82 0-.358.137-.632.308-.82a1.42 1.42 0 0 1 1.025-.444c.376 0 .872.342 1.316.957zm1.941-4.1c-.444 0-.837.341-.837.871 0 .495.393.854.837.854.461 0 .888-.359.888-.854 0-.53-.427-.871-.888-.871m.7 2.665h-1.366v8.218h1.367zm6.417 1.435c-.7-1.06-1.623-1.538-2.494-1.538-1.367 0-2.717.94-2.7 2.614 0 1.59 1.145 2.187 2.563 2.221.666.017 1.281.36 1.281 1.077 0 .751-.649 1.144-1.332 1.144-.53 0-1.128-.307-1.52-.956l-1.18.632c.633 1.11 1.76 1.708 2.683 1.708 1.367 0 2.75-.803 2.733-2.528 0-1.64-1.298-2.443-2.648-2.478-.666-.017-1.213-.205-1.196-.82 0-.358.137-.632.308-.82a1.42 1.42 0 0 1 1.025-.444c.376 0 .871.342 1.315.957z" style="text-align:start;text-anchor:start;fill:#000;stroke:none" transform="translate(-1580.145 -119.575)"/>
    </g>
    <path d="M1598.137 141.163a4.32 4.32 0 0 0 4.319-4.319 4.32 4.32 0 0 0-4.32-4.32 4.32 4.32 0 0 0-4.319 4.32 4.32 4.32 0 0 0 4.32 4.32M1605.898 164.386a4.32 4.32 0 0 0 4.32-4.32 4.32 4.32 0 0 0-4.32-4.319 4.32 4.32 0 0 0-4.319 4.32 4.32 4.32 0 0 0 4.32 4.319" style="baseline-shift:baseline;display:inline;overflow:visible;vector-effect:none;fill:#000;fill-opacity:1;stroke-width:.18949;paint-order:stroke fill markers;stop-color:#000" transform="translate(-1580.145 -119.575)"/>
</svg>
