<?xml version="1.0" encoding="UTF-8" standalone="no"?>
<!-- Created with Inkscape (http://www.inkscape.org/) -->

<svg
   width="129.69377mm"
   height="57.849911mm"
   viewBox="0 0 129.69377 57.849911"
   version="1.1"
   id="svg1"
   xml:space="preserve"
   xmlns="http://www.w3.org/2000/svg"
   xmlns:svg="http://www.w3.org/2000/svg"><defs
     id="defs1"><style
       id="style1">
      .cls-1, .cls-2 {
        font-family: ZagBold, 'Zag Bold';
        font-size: 96px;
      }

      .cls-3 {
        letter-spacing: -.16em;
      }

      .cls-4 {
        letter-spacing: -.02em;
      }

      .cls-2, .cls-5 {
        fill: #ff9200;
      }

      .cls-6 {
        letter-spacing: 0em;
      }

      .cls-7 {
        fill: gray;
      }

      .cls-7, .cls-5, .cls-8 {
        fill-rule: evenodd;
      }

      .cls-9 {
        letter-spacing: -.03em;
      }
    </style></defs><g
     id="layer1"
     transform="translate(-1580.1447,-119.57504)"><g
       id="g86"><path
         style="font-size:96px;font-family:ZagBold, 'Zag Bold';baseline-shift:baseline;display:inline;overflow:visible;vector-effect:none;fill:#808080;fill-opacity:1;stroke-width:0.228116;stroke-linecap:round;paint-order:stroke fill markers;enable-background:accumulate;stop-color:#000000"
         d="m 1602.0474,177.42494 c 3.1936,0 5.7897,-2.59797 5.7897,-5.78932 v -0.0209 c 0.1333,-2.13807 0.9289,-3.79939 2.6657,-5.10629 1.0995,-0.79157 2.4545,-1.25895 3.7753,-1.25895 0.5711,0 1.0836,0.0655 1.644,0.22075 0.7291,0.17359 1.462,0.40282 2.2506,0.40282 0.6251,0 1.2478,-0.10267 1.8455,-0.30341 1.485,-0.49958 2.6395,-1.50557 3.3353,-2.90849 0.5888,-1.18541 0.7541,-2.45686 0.4914,-3.71713 -0.5225,-2.65529 -2.868,-4.66346 -5.6744,-4.66346 -0.7928,0 -1.2108,0.26992 -2.2053,0.48767 -0.5595,0.12433 -1.1558,0.17758 -1.7214,0.16434 -1.344,-0.0315 -2.577,-0.455 -3.6979,-1.25405 -1.6653,-1.209 -2.7342,-3.26181 -2.7228,-5.31942 0.01,-0.63417 -0.066,-1.08886 -0.2738,-1.70705 -0.7936,-2.35794 -2.9982,-3.94286 -5.4837,-3.94391 v 0 c -0.6266,2.1e-4 -1.2461,0.1006 -1.8454,0.30341 -1.4599,0.49273 -2.6442,1.52593 -3.3331,2.91516 -0.6889,1.38923 -0.7983,2.95891 -0.3056,4.41886 0.7938,2.35872 2.9999,3.9439 5.4864,3.9439 0.6194,0 1.2319,-0.10093 1.8249,-0.29672 l 0.114,-0.0388 c 0.6502,-0.21442 1.3232,-0.319 1.9938,-0.319 1.3322,0 2.6509,0.41731 3.7573,1.22256 1.6606,1.20673 2.6391,3.14104 2.63,5.19409 -2e-4,0.0541 4e-4,0.1081 0,0.16218 -0.03,2.0199 -1.0154,3.90932 -2.6617,5.09162 -1.0995,0.79158 -2.4043,1.19985 -3.7251,1.19985 -0.6981,0 -1.4005,-0.11662 -2.078,-0.3493 -0.6,-0.20531 -1.2297,-0.31011 -1.8753,-0.31011 -3.1936,0 -5.7898,2.59617 -5.7898,5.78979 0,3.19362 2.5962,5.78932 5.7898,5.78932 z"
         id="path19" /><path
         style="font-size:96px;font-family:ZagBold, 'Zag Bold';baseline-shift:baseline;display:inline;overflow:visible;vector-effect:none;fill:#ff9200;fill-opacity:1;stroke-width:0.228116;stroke-linecap:round;paint-order:stroke fill markers;enable-background:accumulate;stop-color:#000000"
         d="m 1602.0634,154.29185 c -3.1936,0 -5.7898,-2.59799 -5.7898,-5.78933 v -0.0209 c -0.1333,-2.13807 -0.9288,-3.79939 -2.6657,-5.10629 -1.0995,-0.79157 -2.4546,-1.25895 -3.7754,-1.25895 -0.5711,0 -1.0835,0.0655 -1.644,0.22075 -0.729,0.17359 -1.4619,0.40282 -2.2506,0.40282 -0.625,0 -1.2478,-0.10267 -1.8454,-0.30341 -1.4851,-0.49958 -2.6396,-1.50557 -3.3353,-2.90848 -0.5889,-1.18542 -0.7541,-2.45687 -0.4915,-3.71713 0.5225,-2.6553 2.8681,-4.66346 5.6744,-4.66346 0.7928,0 1.2108,0.26992 2.2053,0.48766 0.5595,0.12433 1.1558,0.17759 1.7214,0.16434 1.344,-0.0315 2.5771,-0.455 3.6981,-1.25404 1.6652,-1.20901 2.7341,-3.26182 2.7227,-5.31943 0,-0.63417 0.066,-1.08886 0.2738,-1.70705 0.7936,-2.35794 2.9983,-3.94286 5.4837,-3.94391 v 0 c 0.6267,2.1e-4 1.2461,0.1006 1.8454,0.30341 1.4599,0.49273 2.6441,1.52593 3.333,2.91516 0.6889,1.38923 0.7984,2.95891 0.3057,4.41886 -0.7939,2.35872 -2.9999,3.94391 -5.4863,3.94391 -0.6195,0 -1.232,-0.10093 -1.8249,-0.29673 l -0.1141,-0.0388 c -0.6501,-0.21442 -1.3231,-0.319 -1.9938,-0.319 -1.3322,0 -2.6509,0.41731 -3.7572,1.22256 -1.6607,1.20673 -2.6392,3.14105 -2.63,5.19409 2e-4,0.0541 -5e-4,0.1081 0,0.16218 0.03,2.0199 1.0153,3.90931 2.6616,5.09161 1.0995,0.79158 2.4044,1.19985 3.7252,1.19985 0.698,0 1.4005,-0.11662 2.078,-0.3493 0.5999,-0.20531 1.2297,-0.31011 1.8753,-0.31011 3.1935,0 5.7896,2.59617 5.7896,5.78979 0,3.19362 -2.5961,5.78933 -5.7896,5.78933 z"
         id="path20" /><g
         id="text21"
         style="font-size:17.0847px;line-height:0.8;font-family:'Zag Bold';-inkscape-font-specification:'Zag Bold, Normal';text-align:end;letter-spacing:-0.177966px;text-anchor:end;fill:#ff9200;stroke:#ff00ff;stroke-width:0.177966;stroke-linecap:round;stroke-linejoin:round;paint-order:stroke fill markers"
         aria-label="SolvationAnalysis"><path
           style="text-align:start;text-anchor:start;stroke:none"
           d="m 1612.3645,141.77687 v 0.99091 c 0.017,2.20393 1.5205,2.54562 3.0069,2.83606 0.9226,0.15377 1.8793,0.37587 1.8793,1.40095 v 1.2301 c 0,0.93966 -0.8884,1.4522 -1.7597,1.4522 -0.8884,0 -1.7426,-0.64922 -1.7426,-1.93057 h -1.3839 c -0.017,2.22101 1.5035,3.36568 3.1265,3.36568 1.5547,0 3.1607,-0.97383 3.1607,-2.88731 v -1.2301 c 0,-2.08433 -1.606,-2.51145 -2.9899,-2.80189 -0.8371,-0.17085 -1.9134,-0.49546 -1.9134,-1.43512 v -0.99091 c 0,-0.93966 0.8713,-1.4522 1.7597,-1.4522 0.8713,0 1.7426,0.66631 1.7426,1.93057 h 1.401 c 0,-2.20392 -1.5889,-3.3486 -3.1436,-3.3486 -1.606,0 -3.1436,0.97383 -3.1436,2.87023 z m 13.0627,3.60487 c 0,-1.84514 -1.3839,-2.69938 -2.7848,-2.69938 -1.3839,0 -2.7678,0.85424 -2.7678,2.69938 v 2.98983 c 0,1.82806 1.3668,2.71646 2.7678,2.71646 1.3838,0 2.7848,-0.8884 2.7848,-2.71646 z m -1.3839,2.98983 c 0,0.87132 -0.7005,1.31552 -1.4009,1.31552 -0.6834,0 -1.401,-0.4442 -1.401,-1.31552 v -2.98983 c 0,-0.87132 0.7176,-1.3326 1.401,-1.3326 0.7004,0 1.4009,0.46128 1.4009,1.3326 z m 4.1786,-0.13668 v -8.81571 h -1.3667 v 8.81571 c 0,1.62304 1.3497,2.76772 3.1094,2.76772 v -1.36678 c -0.9909,0 -1.7427,-0.61505 -1.7427,-1.40094 z m 0.4884,-5.45002 c 0.3929,1.43511 0.9055,3.16067 1.3326,4.62995 0.2733,0.95675 0.5638,1.8964 0.82,2.81898 v -0.0171 c 0.1367,0.58088 0.6151,0.88841 1.0764,0.88841 0.4954,0 0.9396,-0.29044 1.1105,-0.87132 l 2.1356,-7.44893 h -1.4693 c -0.5126,1.84515 -0.9738,3.53653 -1.4693,5.41585 l -0.205,1.74264 h -0.1538 l -0.2221,-1.74264 -1.4693,-5.41585 z m 9.2527,8.32025 c 0.4272,0 1.2985,-0.25627 1.4693,-0.97383 l 0.1367,0.87132 h 1.1105 v -5.5867 c 0,-1.50345 -1.2643,-2.71646 -2.7165,-2.71646 -0.6663,0 -1.4692,0.37586 -2.0501,0.90548 l 0.7517,1.14468 c 0.4613,-0.4442 0.9567,-0.64922 1.2984,-0.64922 0.7347,0 1.3326,0.59797 1.3326,1.31552 l 0.034,0.71756 c -0.1879,-0.54671 -0.8542,-0.90549 -1.4009,-0.90549 -1.5718,0 -2.6652,1.2301 -2.6652,2.66521 v 0.47838 c 0,1.46928 1.2301,2.73355 2.6993,2.73355 z m -1.3155,-2.73355 v -0.47838 c 0,-0.73464 0.598,-1.31552 1.3155,-1.31552 0.7347,0 1.3326,0.47837 1.3326,1.16176 v 0.83715 c 0,0.61505 -0.6833,1.14468 -1.3326,1.14468 -0.7175,0 -1.3155,-0.61505 -1.3155,-1.34969 z m 6.861,-5.62087 v -3.33152 h -1.3668 v 8.81571 c 0,1.62304 1.5034,2.76772 3.229,2.76772 v -1.36678 c -1.008,0 -1.8622,-0.61505 -1.8622,-1.40094 v -4.10033 h 1.7084 v -1.38386 z m 3.5123,-2.63104 c -0.4442,0 -0.8372,0.34169 -0.8372,0.87132 0,0.49545 0.393,0.85423 0.8372,0.85423 0.4613,0 0.8884,-0.35878 0.8884,-0.85423 0,-0.52963 -0.4271,-0.87132 -0.8884,-0.87132 z m 0.7004,2.66521 h -1.3667 v 8.21774 h 1.3667 z m 6.9464,2.59687 c 0,-1.84514 -1.3839,-2.69938 -2.7848,-2.69938 -1.3839,0 -2.7677,0.85424 -2.7677,2.69938 v 2.98983 c 0,1.82806 1.3667,2.71646 2.7677,2.71646 1.3839,0 2.7848,-0.8884 2.7848,-2.71646 z m -1.3839,2.98983 c 0,0.87132 -0.7004,1.31552 -1.4009,1.31552 -0.6834,0 -1.401,-0.4442 -1.401,-1.31552 v -2.98983 c 0,-0.87132 0.7176,-1.3326 1.401,-1.3326 0.7005,0 1.4009,0.46128 1.4009,1.3326 z m 5.5113,-4.30535 c 0.7346,0 1.3497,0.61505 1.3497,1.33261 v 5.60378 h 1.3838 v -5.60378 c 0,-1.41803 -1.2301,-2.80189 -2.7164,-2.71647 -0.4613,0.0342 -1.1276,0.20502 -1.4352,0.92257 l -0.1879,-0.83715 h -1.0934 v 8.23483 h 1.3839 v -5.60378 c 0,-0.71756 0.5979,-1.33261 1.3155,-1.33261 z"
           id="path53" /><path
           style="text-align:start;text-anchor:start;fill:#000000;stroke:none"
           d="m 1669.2608,151.00261 h 1.5205 l -2.8873,-11.17339 c -0.1538,-0.54671 -0.6834,-0.92258 -1.1105,-0.92258 -0.4442,0 -0.9397,0.3417 -1.1447,0.95675 l -2.836,11.13922 h 1.4863 c 0.1538,-0.63213 0.3759,-1.48637 1.0422,-4.08324 h 2.8702 z m -3.5878,-5.48419 c 0.3246,-1.36678 0.5638,-2.88731 0.9055,-4.25409 l 0.1367,-1.16176 h 0.1366 l 0.1196,1.16176 0.8714,4.25409 z m 8.689,-1.4522 c 0.7346,0 1.3497,0.61505 1.3497,1.33261 v 5.60378 h 1.3838 v -5.60378 c 0,-1.41803 -1.2301,-2.80189 -2.7164,-2.71647 -0.4613,0.0342 -1.1276,0.20502 -1.4352,0.92257 l -0.1879,-0.83715 h -1.0934 v 8.23483 h 1.3839 v -5.60378 c 0,-0.71756 0.5979,-1.33261 1.3155,-1.33261 z m 6.5876,7.0389 c 0.4271,0 1.2984,-0.25627 1.4692,-0.97383 l 0.1367,0.87132 h 1.1105 v -5.5867 c 0,-1.50345 -1.2643,-2.71646 -2.7164,-2.71646 -0.6664,0 -1.4693,0.37586 -2.0502,0.90548 l 0.7517,1.14468 c 0.4613,-0.4442 0.9568,-0.64922 1.2985,-0.64922 0.7346,0 1.3326,0.59797 1.3326,1.31552 l 0.034,0.71756 c -0.1879,-0.54671 -0.8542,-0.90549 -1.4009,-0.90549 -1.5718,0 -2.6652,1.2301 -2.6652,2.66521 v 0.47838 c 0,1.46928 1.2301,2.73355 2.6994,2.73355 z m -1.3156,-2.73355 v -0.47838 c 0,-0.73464 0.598,-1.31552 1.3156,-1.31552 0.7346,0 1.3326,0.47837 1.3326,1.16176 v 0.83715 c 0,0.61505 -0.6834,1.14468 -1.3326,1.14468 -0.7176,0 -1.3156,-0.61505 -1.3156,-1.34969 z m 6.861,-0.13668 v -8.81571 h -1.3668 v 8.81571 c 0,1.62304 1.3497,2.76772 3.1094,2.76772 v -1.36678 c -0.9909,0 -1.7426,-0.61505 -1.7426,-1.40094 z m 7.7493,3.43402 v -8.88404 h -1.3839 v 5.87714 c 0,0.6663 -0.5979,1.02508 -1.2813,1.02508 -0.7176,0.0171 -1.3668,-0.5638 -1.3668,-1.26427 v -5.63795 h -1.3839 v 5.63795 c 0,1.48637 1.2985,2.71647 2.7507,2.63104 0.3417,-0.0171 1.0592,-0.25627 1.2813,-0.8884 v 1.50345 c 0,0.71756 -0.5979,1.29844 -1.2984,1.29844 -0.3588,0 -0.9055,-0.23919 -1.3839,-0.63213 l -0.9055,1.04216 c 0.6834,0.5638 1.6231,0.99092 2.2894,0.99092 1.4351,0 2.6652,-1.16176 2.6823,-2.69939 z m 6.5021,-7.44893 c -0.7004,-1.05925 -1.623,-1.53762 -2.4943,-1.53762 -1.3668,0 -2.7165,0.93966 -2.6994,2.61396 0,1.58888 1.1447,2.18684 2.5627,2.22101 0.6663,0.0171 1.2813,0.35878 1.2813,1.07634 0,0.75172 -0.6492,1.14467 -1.3326,1.14467 -0.5296,0 -1.1276,-0.30752 -1.5205,-0.95674 l -1.1789,0.63213 c 0.6322,1.11051 1.7598,1.70847 2.6823,1.70847 1.3668,0 2.7507,-0.80298 2.7336,-2.52853 0,-1.64013 -1.2984,-2.44312 -2.6481,-2.47728 -0.6663,-0.0171 -1.213,-0.20502 -1.196,-0.82007 0,-0.35878 0.1367,-0.63213 0.3076,-0.82007 0.2562,-0.27335 0.6321,-0.4442 1.025,-0.4442 0.3759,0 0.8714,0.3417 1.3156,0.95674 z m 1.9406,-4.10032 c -0.4442,0 -0.8372,0.34169 -0.8372,0.87132 0,0.49545 0.393,0.85423 0.8372,0.85423 0.4613,0 0.8884,-0.35878 0.8884,-0.85423 0,-0.52963 -0.4271,-0.87132 -0.8884,-0.87132 z m 0.7005,2.66521 h -1.3668 v 8.21774 h 1.3668 z m 6.4167,1.43511 c -0.7005,-1.05925 -1.6231,-1.53762 -2.4944,-1.53762 -1.3668,0 -2.7165,0.93966 -2.6994,2.61396 0,1.58888 1.1447,2.18684 2.5627,2.22101 0.6663,0.0171 1.2814,0.35878 1.2814,1.07634 0,0.75172 -0.6492,1.14467 -1.3326,1.14467 -0.5296,0 -1.1276,-0.30752 -1.5206,-0.95674 l -1.1788,0.63213 c 0.6321,1.11051 1.7597,1.70847 2.6823,1.70847 1.3668,0 2.7506,-0.80298 2.7335,-2.52853 0,-1.64013 -1.2984,-2.44312 -2.6481,-2.47728 -0.6663,-0.0171 -1.213,-0.20502 -1.1959,-0.82007 0,-0.35878 0.1367,-0.63213 0.3075,-0.82007 0.2563,-0.27335 0.6321,-0.4442 1.0251,-0.4442 0.3759,0 0.8713,0.3417 1.3155,0.95674 z"
           id="path56" /></g><path
         style="baseline-shift:baseline;display:inline;overflow:visible;vector-effect:none;fill:#000000;fill-opacity:1;stroke-width:0.18949;paint-order:stroke fill markers;enable-background:accumulate;stop-color:#000000"
         d="m 1598.1366,141.16349 a 4.3192867,4.3192867 0 0 0 4.3193,-4.31929 4.3192867,4.3192867 0 0 0 -4.3193,-4.31928 4.3192867,4.3192867 0 0 0 -4.3193,4.31928 4.3192867,4.3192867 0 0 0 4.3193,4.31929 z"
         id="path21" /><path
         style="baseline-shift:baseline;display:inline;overflow:visible;vector-effect:none;fill:#000000;fill-opacity:1;stroke-width:0.18949;paint-order:stroke fill markers;enable-background:accumulate;stop-color:#000000"
         d="m 1605.8984,164.38583 a 4.3192867,4.3192867 0 0 0 4.3193,-4.31929 4.3192867,4.3192867 0 0 0 -4.3193,-4.31928 4.3192867,4.3192867 0 0 0 -4.3193,4.31928 4.3192867,4.3192867 0 0 0 4.3193,4.31929 z"
         id="path30" /></g></g></svg>
