<svg xmlns="http://www.w3.org/2000/svg" xml:space="preserve" width="491.634" height="151.645" viewBox="0 0 130.078 40.123">
    <path d="M1394.774 135.295a5.796 5.796 0 0 0-7.307 3.694l-.01.02c-.794 1.99-2.068 3.32-4.125 4.02-1.292.41-2.725.43-3.98.019a6 6 0 0 1-1.493-.723c-.639-.392-1.264-.839-2.013-1.085a5.8 5.8 0 0 0-1.848-.287 5.67 5.67 0 0 0-4.076 1.723 5.65 5.65 0 0 0-1.626 3.379 5.79 5.79 0 0 0 3.936 6.2c.754.248 1.235.121 2.248.225a7.3 7.3 0 0 1 1.686.38c1.268.45 2.307 1.237 3.123 2.346 1.205 1.668 1.58 3.951.928 5.903a4.8 4.8 0 0 0-.273 1.707 5.79 5.79 0 0 0 3.98 5.458 5.7 5.7 0 0 0 1.848.287 5.75 5.75 0 0 0 4.076-1.73 5.787 5.787 0 0 0-4.14-9.849l-.12.001a6.384 6.384 0 0 1-5.182-2.652 6.39 6.39 0 0 1-.88-5.755l.052-.154a6.386 6.386 0 0 1 9.896-3.006 5.795 5.795 0 0 0 8.992-2.816 5.795 5.795 0 0 0-3.696-7.306z" style="fill:#ff9200;fill-opacity:1;stroke-width:.228116;stroke-linecap:round;paint-order:stroke fill markers;stop-color:#000" transform="translate(-1359.95 -128.439)"/>
    <path d="M1374.743 128.728a5.796 5.796 0 0 1 3.695 7.306l-.01.02c-.54 2.073-.303 3.9.94 5.683.798 1.095 1.94 1.962 3.194 2.374.543.178 1.05.275 1.631.303.747.062 1.515.073 2.264.32a5.8 5.8 0 0 1 1.659.863 5.67 5.67 0 0 1 2.261 3.804c.19 1.31-.05 2.57-.692 3.685a5.79 5.79 0 0 1-6.846 2.66c-.753-.247-1.066-.633-1.943-1.15a7.3 7.3 0 0 0-1.584-.694c-1.287-.39-2.59-.371-3.905.038-1.96.63-3.615 2.247-4.246 4.205a4.8 4.8 0 0 1-.793 1.537 5.79 5.79 0 0 1-6.44 2.036 5.7 5.7 0 0 1-1.659-.864 5.75 5.75 0 0 1-2.257-3.809 5.786 5.786 0 0 1 9.172-5.479l.096.073a6.384 6.384 0 0 0 5.746.935 6.39 6.39 0 0 0 4.118-4.114l.051-.154a6.385 6.385 0 0 0-6.189-8.286 5.795 5.795 0 0 1-5.573-7.597 5.795 5.795 0 0 1 7.307-3.695z" style="fill:#000;fill-opacity:1;stroke-width:.228116;stroke-linecap:round;paint-order:stroke fill markers;stop-color:#000" transform="translate(-1359.95 -128.439)"/>
    <g stroke="none" aria-label="PathSimAnalysis" style="fill:#ff9200;stroke-width:.177966;stroke-linecap:round;stroke-linejoin:round;paint-order:stroke fill markers">
        <path d="M1398.264 151.809c-.564 0-1.093.461-1.093 1.11v10.85h1.383v-4.58h2.102c1.503 0 2.768-1.35 2.768-2.836v-1.708c0-1.486-1.265-2.836-2.768-2.836zm.29 1.452 2.102-.034c.752 0 1.367.65 1.367 1.418v1.708c0 .786-.615 1.418-1.367 1.418h-2.101zm7.699 10.61c.427 0 1.298-.257 1.469-.974l.137.871h1.11v-5.587c0-1.503-1.264-2.716-2.716-2.716-.667 0-1.47.376-2.05.905l.751 1.145c.461-.444.957-.65 1.299-.65a1.33 1.33 0 0 1 1.332 1.316l.034.718c-.188-.547-.854-.905-1.4-.905-1.572 0-2.666 1.23-2.666 2.665v.478c0 1.47 1.23 2.734 2.7 2.734m-1.316-2.734v-.478c0-.735.598-1.316 1.316-1.316.734 0 1.332.479 1.332 1.162v.837c0 .615-.683 1.145-1.332 1.145-.718 0-1.316-.615-1.316-1.35m6.861-5.62v-3.332h-1.367V161c0 1.623 1.504 2.768 3.23 2.768v-1.367c-1.009 0-1.863-.615-1.863-1.4v-4.1h1.708v-1.385zm5.477 1.349c.752-.034 1.316.615 1.316 1.35v5.552h1.383l-.017-5.552c0-1.453-1.008-2.87-2.682-2.734-.512.034-1.127.376-1.332.923l-.017-4.22h-1.384v11.583h1.384v-5.552c0-.735.615-1.316 1.35-1.35zm4.162-2.324v.991c.017 2.204 1.52 2.546 3.007 2.836.922.154 1.879.376 1.879 1.401V161c0 .94-.889 1.453-1.76 1.453-.888 0-1.743-.65-1.743-1.93h-1.383c-.017 2.22 1.503 3.365 3.126 3.365 1.555 0 3.16-.974 3.16-2.888v-1.23c0-2.084-1.605-2.511-2.99-2.802-.836-.17-1.913-.495-1.913-1.435v-.99c0-.94.872-1.453 1.76-1.453.872 0 1.743.667 1.743 1.93h1.4c0-2.203-1.588-3.348-3.143-3.348-1.606 0-3.143.974-3.143 2.87m8.261-1.657c-.444 0-.837.342-.837.872 0 .495.393.854.837.854.462 0 .889-.359.889-.854 0-.53-.427-.872-.889-.872m.7 2.665h-1.366v8.218h1.367zm2.744 2.614c0-.717.581-1.332 1.316-1.332.752 0 1.35.615 1.35 1.332v5.604h1.366v-5.604c0-1.776 2.683-1.862 2.666 0v5.604h1.366v-5.604c0-1.52-1.195-2.716-2.665-2.716-.786 0-1.623.307-2.033 1.367-.427-1.06-1.333-1.384-2.016-1.367-.495.017-1.128.24-1.47.905l-.17-.803h-1.076v8.218h1.366z" style="text-align:center;text-anchor:middle;stroke:none" transform="translate(-1359.95 -128.439)"/>
        <path d="M1449.451 163.768h1.52l-2.887-11.173c-.153-.547-.683-.923-1.11-.923-.444 0-.94.342-1.145.957l-2.836 11.14h1.486c.154-.633.376-1.487 1.043-4.084h2.87zm-3.588-5.484c.325-1.367.564-2.887.906-4.254l.137-1.162h.136l.12 1.162.871 4.254zm8.69-1.452c.734 0 1.35.615 1.35 1.332v5.604h1.383v-5.604c0-1.418-1.23-2.802-2.716-2.716-.462.034-1.128.205-1.436.922l-.188-.837h-1.093v8.235h1.384v-5.604c0-.717.598-1.332 1.315-1.332m6.587 7.039c.427 0 1.298-.257 1.47-.974l.136.871h1.11v-5.587c0-1.503-1.264-2.716-2.716-2.716-.666 0-1.47.376-2.05.905l.752 1.145c.46-.444.956-.65 1.298-.65a1.33 1.33 0 0 1 1.333 1.316l.034.718c-.188-.547-.855-.905-1.401-.905-1.572 0-2.665 1.23-2.665 2.665v.478c0 1.47 1.23 2.734 2.699 2.734m-1.316-2.734v-.478c0-.735.598-1.316 1.316-1.316.735 0 1.333.479 1.333 1.162v.837c0 .615-.684 1.145-1.333 1.145-.718 0-1.316-.615-1.316-1.35m6.861-.137v-8.815h-1.366V161c0 1.623 1.35 2.768 3.109 2.768v-1.367c-.99 0-1.743-.615-1.743-1.4m7.75 3.434v-8.884h-1.384v5.878c0 .666-.598 1.025-1.281 1.025-.718.017-1.367-.564-1.367-1.265v-5.638h-1.384v5.638c0 1.487 1.298 2.717 2.75 2.631.342-.017 1.06-.256 1.282-.888v1.503c0 .718-.598 1.299-1.299 1.299-.358 0-.905-.24-1.383-.632l-.906 1.042c.683.564 1.623.99 2.29.99 1.435 0 2.665-1.16 2.682-2.699m6.502-7.448c-.7-1.06-1.623-1.538-2.494-1.538-1.367 0-2.717.94-2.7 2.614 0 1.589 1.145 2.187 2.563 2.22.666.018 1.281.36 1.281 1.077 0 .752-.65 1.145-1.332 1.145-.53 0-1.128-.308-1.521-.957l-1.179.632c.632 1.11 1.76 1.709 2.683 1.709 1.366 0 2.75-.803 2.733-2.529 0-1.64-1.298-2.443-2.648-2.477-.666-.017-1.213-.205-1.196-.82 0-.359.137-.632.308-.82a1.42 1.42 0 0 1 1.025-.444c.375 0 .87.341 1.315.956zm1.94-4.1c-.444 0-.837.34-.837.87 0 .496.393.855.837.855.462 0 .889-.359.889-.854 0-.53-.427-.872-.889-.872m.7 2.664h-1.366v8.218h1.367zm6.418 1.436c-.7-1.06-1.623-1.538-2.495-1.538-1.367 0-2.716.94-2.7 2.614 0 1.589 1.146 2.187 2.564 2.22.666.018 1.28.36 1.28 1.077 0 .752-.648 1.145-1.332 1.145-.53 0-1.127-.308-1.52-.957l-1.18.632c.633 1.11 1.76 1.709 2.683 1.709 1.367 0 2.75-.803 2.734-2.529 0-1.64-1.299-2.443-2.648-2.477-.667-.017-1.213-.205-1.196-.82 0-.359.136-.632.307-.82a1.42 1.42 0 0 1 1.025-.444c.376 0 .872.341 1.316.956z" style="text-align:center;text-anchor:middle;fill:#1a1a1a;stroke:none" transform="translate(-1359.95 -128.439)"/>
    </g>
</svg>
