<?xml version="1.0" encoding="UTF-8" standalone="no"?>
<!-- Created with Inkscape (http://www.inkscape.org/) -->

<svg
   width="130.07812mm"
   height="40.122734mm"
   viewBox="0 0 130.07812 40.122734"
   version="1.1"
   id="svg1"
   xml:space="preserve"
   xmlns="http://www.w3.org/2000/svg"
   xmlns:svg="http://www.w3.org/2000/svg"><defs
     id="defs1"><style
       id="style1">
      .cls-1, .cls-2 {
        font-family: ZagBold, 'Zag Bold';
        font-size: 96px;
      }

      .cls-3 {
        letter-spacing: -.16em;
      }

      .cls-4 {
        letter-spacing: -.02em;
      }

      .cls-2, .cls-5 {
        fill: #ff9200;
      }

      .cls-6 {
        letter-spacing: 0em;
      }

      .cls-7 {
        fill: gray;
      }

      .cls-7, .cls-5, .cls-8 {
        fill-rule: evenodd;
      }

      .cls-9 {
        letter-spacing: -.03em;
      }
    </style></defs><g
     id="layer1"
     transform="translate(-1359.9508,-128.43855)"><g
       id="g85"><path
         style="font-size:96px;font-family:ZagBold, 'Zag Bold';baseline-shift:baseline;display:inline;overflow:visible;vector-effect:none;fill:#ff9200;fill-opacity:1;stroke-width:0.228116;stroke-linecap:round;paint-order:stroke fill markers;enable-background:accumulate;stop-color:#000000"
         d="m 1394.7738,135.29466 c -3.0342,-0.99613 -6.3113,0.66246 -7.3067,3.69455 l -0.01,0.0199 c -0.7936,1.98985 -2.0676,3.32014 -4.1255,4.02008 -1.2915,0.40906 -2.7248,0.43046 -3.9797,0.0185 -0.5426,-0.17814 -1.0091,-0.39972 -1.4931,-0.72248 -0.6385,-0.39233 -1.2633,-0.83879 -2.0127,-1.0848 -0.5938,-0.19494 -1.2175,-0.29163 -1.848,-0.28724 -1.5668,0.0113 -2.9775,0.60706 -4.076,1.72297 -0.9293,0.94267 -1.4829,2.09911 -1.6265,3.37844 -0.3318,2.6858 1.2705,5.32535 3.9368,6.20067 0.7532,0.24729 1.2345,0.12123 2.2473,0.22459 0.5704,0.0563 1.1536,0.19178 1.6868,0.38074 1.2673,0.44866 2.3066,1.23613 3.1225,2.34502 1.205,1.66808 1.5802,3.95188 0.9276,5.90327 -0.1978,0.60256 -0.2769,1.05506 -0.2723,1.70724 0.019,2.48789 1.6189,4.6814 3.98,5.45758 v 0 c 0.5955,0.19529 1.2153,0.2931 1.8479,0.28735 1.5408,-0.0128 2.9882,-0.62504 4.076,-1.73006 1.0879,-1.10511 1.6815,-2.56224 1.6688,-4.10309 -0.019,-2.48865 -1.6201,-4.68285 -3.9824,-5.45839 -0.5886,-0.19323 -1.202,-0.28842 -1.8264,-0.28732 l -0.1206,0.001 c -0.6846,0.001 -1.3566,-0.10961 -1.9938,-0.31881 -1.2658,-0.41554 -2.3885,-1.22334 -3.1885,-2.33344 -1.2014,-1.66449 -1.5278,-3.8076 -0.8787,-5.7553 0.017,-0.0513 0.033,-0.10287 0.051,-0.15411 0.6586,-1.90977 2.1841,-3.39758 4.117,-4.00739 1.2916,-0.40916 2.6587,-0.38997 3.9136,0.022 0.6632,0.21772 1.2942,0.54762 1.8654,0.98004 0.5059,0.38217 1.0716,0.67819 1.685,0.87956 3.0342,0.9961 6.3105,-0.66081 7.3067,-3.69509 0.9961,-3.03427 -0.6609,-6.31023 -3.695,-7.30633 z"
         id="path55" /><path
         style="font-size:96px;font-family:ZagBold, 'Zag Bold';baseline-shift:baseline;display:inline;overflow:visible;vector-effect:none;fill:#000000;fill-opacity:1;stroke-width:0.228116;stroke-linecap:round;paint-order:stroke fill markers;enable-background:accumulate;stop-color:#000000"
         d="m 1374.7426,128.7279 c 3.0343,0.99613 4.6906,4.27422 3.6952,7.3064 l -0.01,0.0199 c -0.5402,2.07301 -0.3026,3.89955 0.94,5.68302 0.7978,1.09496 1.9395,1.96172 3.1944,2.37369 0.5426,0.17814 1.05,0.27526 1.6308,0.3031 0.7468,0.0624 1.5146,0.0732 2.264,0.3192 0.5938,0.19494 1.1535,0.48678 1.6586,0.86396 1.2553,0.93781 2.0384,2.25372 2.2618,3.80363 0.1897,1.31005 -0.05,2.56954 -0.6925,3.68506 -1.3247,2.35985 -4.1796,3.53614 -6.8459,2.66081 -0.7532,-0.24728 -1.0662,-0.6341 -1.9432,-1.15114 -0.4928,-0.29271 -1.0427,-0.52925 -1.5842,-0.69312 -1.2866,-0.38976 -2.5905,-0.37154 -3.9048,0.038 -1.9592,0.62928 -3.6151,2.24626 -4.246,4.20476 -0.1979,0.60256 -0.4024,1.0139 -0.7926,1.53644 -1.4895,1.99282 -4.0786,2.81097 -6.4403,2.03669 v 0 c -0.5954,-0.19567 -1.1526,-0.48426 -1.6587,-0.86387 -1.2334,-0.92348 -2.0362,-2.27451 -2.2575,-3.80928 -0.2211,-1.53486 0.1644,-3.06031 1.0879,-4.29379 1.49,-1.9934 4.0804,-2.81143 6.4428,-2.03588 0.5886,0.19323 1.139,0.48014 1.6413,0.85111 l 0.096,0.0726 c 0.5508,0.40658 1.1576,0.71578 1.7948,0.92498 1.2658,0.41553 2.6489,0.43038 3.9511,0.0104 1.9542,-0.6285 3.4873,-2.16119 4.1189,-4.11463 0.017,-0.0514 0.034,-0.10255 0.051,-0.15411 0.6015,-1.92849 0.2547,-4.03095 -0.9407,-5.66777 -0.7977,-1.09506 -1.9102,-1.88991 -3.1651,-2.30189 -0.6631,-0.21772 -1.367,-0.32605 -2.0833,-0.31629 -0.634,0.008 -1.265,-0.0889 -1.8784,-0.2903 -3.0342,-0.9961 -4.691,-4.27254 -3.6949,-7.30681 0.9962,-3.03427 4.2724,-4.69071 7.3066,-3.69461 z"
         id="path54" /><g
         id="text56"
         style="font-size:17.0847px;line-height:0.8;font-family:'Zag Bold';-inkscape-font-specification:'Zag Bold, Normal';text-align:end;letter-spacing:-0.177966px;text-anchor:end;fill:#ff9200;stroke:#ff00ff;stroke-width:0.177966;stroke-linecap:round;stroke-linejoin:round;paint-order:stroke fill markers"
         aria-label="PathSimAnalysis"><path
           style="text-align:center;text-anchor:middle;stroke:none"
           d="m 1398.264,151.80887 c -0.5638,0 -1.0934,0.46129 -1.0934,1.1105 v 10.84879 h 1.3839 v -4.5787 h 2.1014 c 1.5034,0 2.7677,-1.34969 2.7677,-2.83606 v -1.70847 c 0,-1.48637 -1.2643,-2.83606 -2.7677,-2.83606 z m 0.2905,1.4522 2.1014,-0.0342 c 0.7517,0 1.3668,0.64922 1.3668,1.41803 v 1.70847 c 0,0.78589 -0.6151,1.41803 -1.3668,1.41803 h -2.1014 z m 7.6981,10.6096 c 0.4271,0 1.2984,-0.25627 1.4692,-0.97383 l 0.1367,0.87132 h 1.1105 v -5.5867 c 0,-1.50345 -1.2642,-2.71647 -2.7164,-2.71647 -0.6663,0 -1.4693,0.37587 -2.0502,0.90549 l 0.7517,1.14468 c 0.4613,-0.4442 0.9568,-0.64922 1.2985,-0.64922 0.7346,0 1.3326,0.59796 1.3326,1.31552 l 0.034,0.71756 c -0.1879,-0.54671 -0.8542,-0.90549 -1.4009,-0.90549 -1.5718,0 -2.6652,1.2301 -2.6652,2.66521 v 0.47837 c 0,1.46929 1.2301,2.73356 2.6994,2.73356 z m -1.3156,-2.73356 v -0.47837 c 0,-0.73464 0.598,-1.31552 1.3156,-1.31552 0.7346,0 1.3326,0.47837 1.3326,1.16176 v 0.83715 c 0,0.61505 -0.6834,1.14468 -1.3326,1.14468 -0.7176,0 -1.3156,-0.61505 -1.3156,-1.3497 z m 6.861,-5.62086 v -3.33152 h -1.3668 v 8.81571 c 0,1.62304 1.5034,2.76772 3.229,2.76772 v -1.36678 c -1.008,0 -1.8622,-0.61505 -1.8622,-1.40094 v -4.10033 h 1.7084 v -1.38386 z m 5.477,1.34969 c 0.7518,-0.0342 1.3155,0.61505 1.3155,1.34969 v 5.55253 h 1.3839 l -0.017,-5.55253 c 0,-1.4522 -1.008,-2.87023 -2.6823,-2.73355 -0.5125,0.0342 -1.1276,0.37586 -1.3326,0.92257 l -0.017,-4.21992 h -1.3838 v 11.58343 h 1.3838 v -5.55253 c 0,-0.73464 0.6151,-1.31552 1.3497,-1.34969 z m 4.1616,-2.32352 v 0.99091 c 0.017,2.20393 1.5205,2.54562 3.0069,2.83606 0.9225,0.15377 1.8793,0.37587 1.8793,1.40095 v 1.2301 c 0,0.93966 -0.8884,1.4522 -1.7597,1.4522 -0.8884,0 -1.7427,-0.64922 -1.7427,-1.93057 h -1.3838 c -0.017,2.22101 1.5034,3.36568 3.1265,3.36568 1.5547,0 3.1606,-0.97383 3.1606,-2.88731 v -1.2301 c 0,-2.08434 -1.6059,-2.51145 -2.9898,-2.80189 -0.8371,-0.17085 -1.9135,-0.49546 -1.9135,-1.43512 v -0.99091 c 0,-0.93966 0.8713,-1.4522 1.7598,-1.4522 0.8713,0 1.7426,0.6663 1.7426,1.93057 h 1.4009 c 0,-2.20392 -1.5888,-3.3486 -3.1435,-3.3486 -1.606,0 -3.1436,0.97383 -3.1436,2.87023 z m 8.2618,-1.65722 c -0.4442,0 -0.8371,0.3417 -0.8371,0.87132 0,0.49546 0.3929,0.85424 0.8371,0.85424 0.4613,0 0.8884,-0.35878 0.8884,-0.85424 0,-0.52962 -0.4271,-0.87132 -0.8884,-0.87132 z m 0.7005,2.66522 h -1.3668 v 8.21774 h 1.3668 z m 2.7435,2.61396 c 0,-0.71756 0.5809,-1.33261 1.3155,-1.33261 0.7518,0 1.3497,0.61505 1.3497,1.33261 v 5.60378 h 1.3668 v -5.60378 c 0,-1.77681 2.6823,-1.86224 2.6652,0 v 5.60378 h 1.3668 v -5.60378 c 0,-1.52054 -1.1959,-2.71647 -2.6652,-2.71647 -0.7859,0 -1.6231,0.30752 -2.0331,1.36678 -0.4271,-1.05926 -1.3326,-1.38387 -2.016,-1.36678 -0.4954,0.0171 -1.1276,0.23919 -1.4693,0.90549 l -0.1708,-0.80298 h -1.0764 v 8.21774 h 1.3668 z"
           id="path51" /><path
           style="text-align:center;text-anchor:middle;fill:#1a1a1a;stroke:none"
           d="m 1449.4512,163.76816 h 1.5205 l -2.8873,-11.1734 c -0.1537,-0.54671 -0.6834,-0.92257 -1.1105,-0.92257 -0.4442,0 -0.9396,0.34169 -1.1447,0.95674 l -2.836,11.13923 h 1.4863 c 0.1538,-0.63214 0.3759,-1.48637 1.0422,-4.08325 h 2.8702 z m -3.5878,-5.48419 c 0.3246,-1.36678 0.5638,-2.88731 0.9055,-4.25409 l 0.1367,-1.16176 h 0.1367 l 0.1195,1.16176 0.8714,4.25409 z m 8.689,-1.4522 c 0.7346,0 1.3497,0.61505 1.3497,1.33261 v 5.60378 h 1.3838 v -5.60378 c 0,-1.41803 -1.2301,-2.80189 -2.7164,-2.71647 -0.4613,0.0342 -1.1276,0.20502 -1.4351,0.92257 l -0.188,-0.83715 h -1.0934 v 8.23483 h 1.3839 v -5.60378 c 0,-0.71756 0.5979,-1.33261 1.3155,-1.33261 z m 6.5876,7.0389 c 0.4271,0 1.2984,-0.25627 1.4692,-0.97383 l 0.1367,0.87132 h 1.1105 v -5.5867 c 0,-1.50345 -1.2642,-2.71647 -2.7164,-2.71647 -0.6663,0 -1.4693,0.37587 -2.0502,0.90549 l 0.7517,1.14468 c 0.4613,-0.4442 0.9568,-0.64922 1.2985,-0.64922 0.7346,0 1.3326,0.59796 1.3326,1.31552 l 0.034,0.71756 c -0.1879,-0.54671 -0.8542,-0.90549 -1.4009,-0.90549 -1.5718,0 -2.6652,1.2301 -2.6652,2.66521 v 0.47837 c 0,1.46929 1.2301,2.73356 2.6994,2.73356 z m -1.3156,-2.73356 v -0.47837 c 0,-0.73464 0.598,-1.31552 1.3156,-1.31552 0.7346,0 1.3326,0.47837 1.3326,1.16176 v 0.83715 c 0,0.61505 -0.6834,1.14468 -1.3326,1.14468 -0.7176,0 -1.3156,-0.61505 -1.3156,-1.3497 z m 6.861,-0.13667 v -8.81571 h -1.3668 v 8.81571 c 0,1.62304 1.3497,2.76772 3.1094,2.76772 v -1.36678 c -0.9909,0 -1.7426,-0.61505 -1.7426,-1.40094 z m 7.7493,3.43402 v -8.88404 h -1.3839 v 5.87713 c 0,0.66631 -0.5979,1.02509 -1.2813,1.02509 -0.7176,0.0171 -1.3668,-0.5638 -1.3668,-1.26427 v -5.63795 h -1.3839 v 5.63795 c 0,1.48637 1.2985,2.71647 2.7507,2.63104 0.3417,-0.0171 1.0592,-0.25627 1.2813,-0.8884 v 1.50345 c 0,0.71756 -0.5979,1.29844 -1.2984,1.29844 -0.3588,0 -0.9055,-0.23919 -1.3839,-0.63214 l -0.9055,1.04217 c 0.6834,0.5638 1.6231,0.99091 2.2894,0.99091 1.4351,0 2.6652,-1.16176 2.6823,-2.69938 z m 6.5021,-7.44893 c -0.7004,-1.05925 -1.623,-1.53762 -2.4943,-1.53762 -1.3668,0 -2.7165,0.93966 -2.6994,2.61396 0,1.58888 1.1447,2.18684 2.5627,2.22101 0.6663,0.0171 1.2814,0.35878 1.2814,1.07634 0,0.75172 -0.6493,1.14467 -1.3327,1.14467 -0.5296,0 -1.1275,-0.30752 -1.5205,-0.95674 l -1.1788,0.63213 c 0.6321,1.11051 1.7597,1.70847 2.6823,1.70847 1.3667,0 2.7506,-0.80298 2.7335,-2.52853 0,-1.64014 -1.2984,-2.44312 -2.6481,-2.47729 -0.6663,-0.0171 -1.213,-0.20501 -1.1959,-0.82006 0,-0.35878 0.1366,-0.63214 0.3075,-0.82007 0.2563,-0.27335 0.6321,-0.4442 1.0251,-0.4442 0.3758,0 0.8713,0.34169 1.3155,0.95674 z m 1.9406,-4.10033 c -0.4442,0 -0.8372,0.3417 -0.8372,0.87132 0,0.49546 0.393,0.85424 0.8372,0.85424 0.4613,0 0.8884,-0.35878 0.8884,-0.85424 0,-0.52962 -0.4271,-0.87132 -0.8884,-0.87132 z m 0.7005,2.66522 h -1.3668 v 8.21774 h 1.3668 z m 6.4167,1.43511 c -0.7005,-1.05925 -1.6231,-1.53762 -2.4944,-1.53762 -1.3668,0 -2.7164,0.93966 -2.6994,2.61396 0,1.58888 1.1447,2.18684 2.5627,2.22101 0.6664,0.0171 1.2814,0.35878 1.2814,1.07634 0,0.75172 -0.6492,1.14467 -1.3326,1.14467 -0.5296,0 -1.1276,-0.30752 -1.5205,-0.95674 l -1.1789,0.63213 c 0.6321,1.11051 1.7597,1.70847 2.6823,1.70847 1.3668,0 2.7506,-0.80298 2.7336,-2.52853 0,-1.64014 -1.2985,-2.44312 -2.6482,-2.47729 -0.6663,-0.0171 -1.213,-0.20501 -1.1959,-0.82006 0,-0.35878 0.1367,-0.63214 0.3075,-0.82007 0.2563,-0.27335 0.6322,-0.4442 1.0251,-0.4442 0.3759,0 0.8713,0.34169 1.3155,0.95674 z"
           id="path52" /></g></g></g></svg>
