<?xml version="1.0" encoding="UTF-8" standalone="no"?>
<!-- Created with Inkscape (http://www.inkscape.org/) -->

<svg
   width="100.88629mm"
   height="38.586319mm"
   viewBox="0 0 100.88629 38.586319"
   version="1.1"
   id="svg1"
   xml:space="preserve"
   xmlns="http://www.w3.org/2000/svg"
   xmlns:svg="http://www.w3.org/2000/svg"><defs
     id="defs1"><style
       id="style1">
      .cls-1, .cls-2 {
        font-family: ZagBold, 'Zag Bold';
        font-size: 96px;
      }

      .cls-3 {
        letter-spacing: -.16em;
      }

      .cls-4 {
        letter-spacing: -.02em;
      }

      .cls-2, .cls-5 {
        fill: #ff9200;
      }

      .cls-6 {
        letter-spacing: 0em;
      }

      .cls-7 {
        fill: gray;
      }

      .cls-7, .cls-5, .cls-8 {
        fill-rule: evenodd;
      }

      .cls-9 {
        letter-spacing: -.03em;
      }
    </style></defs><g
     id="layer1"
     transform="translate(-54.556877,-129.20685)"><g
       id="g79"><path
         id="path2"
         class="cls-1"
         d="m 58.431099,129.20685 c 2.12871,0 3.903417,1.73985 3.903417,3.86704 v 0.014 c -0.01623,1.46211 0.67123,2.68227 1.728901,3.46564 0.74498,0.55122 1.630008,0.8089 2.499892,0.79841 0.380639,-0.005 0.746474,-0.04 1.120017,-0.14339 0.463705,-0.12202 0.970455,-0.30172 1.496155,-0.30172 0.41662,0 0.831694,0.0684 1.230068,0.20224 0.989851,0.33299 1.759394,1.00353 2.223149,1.93864 0.3925,0.79015 0.502638,1.63763 0.327562,2.47766 -0.348251,1.76989 -1.911679,3.10843 -3.782262,3.10843 -0.528423,0 -0.97911,-0.20002 -1.474735,-0.31469 -0.370293,-0.10123 -0.764803,-0.13671 -1.141905,-0.13671 -0.887976,0 -1.756114,0.31008 -2.49204,0.8453 -1.094234,0.8216 -1.731021,2.05121 -1.76538,3.4332 0.003,0.4227 -0.06714,0.84562 -0.205506,1.25769 -0.52896,1.57168 -1.998481,2.6281 -3.655157,2.62881 h -0.0015 c -0.417677,-1.5e-4 -0.830606,-0.0671 -1.230067,-0.20224 -0.973125,-0.32843 -1.76247,-1.01711 -2.221664,-1.9431 -0.459191,-0.92599 -0.532153,-1.97226 -0.203721,-2.94539 0.529136,-1.5722 1.999583,-2.62881 3.656936,-2.62881 0.4129,0 0.821188,0.0673 1.216406,0.19778 l 0.07602,0.0259 c 0.433344,0.14293 0.881931,0.21264 1.32896,0.21264 0.887977,0 1.766937,-0.27816 2.504383,-0.8149 1.106929,-0.80435 1.75912,-2.09367 1.753038,-3.46213 -1.31e-4,-0.036 3.04e-4,-0.072 0.0012,-0.10809 -0.01996,-1.34638 -0.676783,-2.60576 -1.774122,-3.39382 -0.732885,-0.52762 -1.602627,-0.79976 -2.483002,-0.79976 -0.465276,0 -0.933496,0.0777 -1.385086,0.23284 -0.399893,0.13684 -0.819661,0.20669 -1.249965,0.20669 -2.128708,0 -3.859176,-1.73047 -3.859176,-3.85918 0,-2.12871 1.730468,-3.85888 3.859176,-3.85888 z"
         style="font-size:96px;font-family:ZagBold, 'Zag Bold';display:inline;fill:#000000;fill-opacity:1;stroke-width:0px" /><path
         style="baseline-shift:baseline;display:inline;overflow:visible;vector-effect:none;fill:#ff9200;fill-opacity:1;stroke-width:0.152051;paint-order:stroke fill markers;enable-background:accumulate;stop-color:#000000"
         d="m 68.596871,148.49484 a 1.9811206,1.9811206 0 0 1 -1.981118,1.98111 1.9811206,1.9811206 0 0 1 -1.981122,-1.98111 1.9811206,1.9811206 0 0 1 1.981122,-1.98112 1.9811206,1.9811206 0 0 1 1.981118,1.98112 z"
         id="path3" /><path
         style="baseline-shift:baseline;display:inline;overflow:visible;vector-effect:none;fill:#ff9200;fill-opacity:1;stroke-width:0.152051;stroke-linecap:round;paint-order:stroke fill markers;enable-background:accumulate;stop-color:#000000"
         d="m 69.051069,133.18375 a 2.5491413,2.5491413 0 0 1 -2.549138,2.54914 2.5491413,2.5491413 0 0 1 -2.549143,-2.54914 2.5491413,2.5491413 0 0 1 2.549143,-2.54915 2.5491413,2.5491413 0 0 1 2.549138,2.54915 z"
         id="path4" /><path
         style="baseline-shift:baseline;display:inline;overflow:visible;vector-effect:none;fill:#ff9200;fill-opacity:1;stroke-width:0.152051;stroke-linecap:round;stroke-linejoin:round;paint-order:stroke fill markers;enable-background:accumulate;stop-color:#000000"
         d="m 62.315714,140.75033 a 1.299062,1.299062 0 0 1 -1.299062,1.29906 1.299062,1.299062 0 0 1 -1.299062,-1.29906 1.299062,1.299062 0 0 1 1.299062,-1.29907 1.299062,1.299062 0 0 1 1.299062,1.29907 z"
         id="path5" /><path
         style="font-size:96px;font-family:ZagBold, 'Zag Bold';baseline-shift:baseline;display:inline;overflow:visible;vector-effect:none;fill:#808080;fill-opacity:1;stroke-width:0.152051;stroke-linecap:round;paint-order:stroke fill markers;enable-background:accumulate;stop-color:#000000"
         d="m 69.179205,136.90677 c -2.128711,0 -3.859176,1.73169 -3.859176,3.85888 v 0.014 c -0.08883,1.42512 -0.619114,2.53248 -1.776818,3.40359 -0.732884,0.52762 -1.636039,0.83915 -2.516414,0.83915 -0.380668,0 -0.722263,-0.0437 -1.095805,-0.14714 -0.485961,-0.11571 -0.974468,-0.2685 -1.500167,-0.2685 -0.41662,0 -0.831694,0.0684 -1.230068,0.20224 -0.98985,0.33299 -1.759393,1.00354 -2.223147,1.93865 -0.392505,0.79014 -0.502641,1.63762 -0.327563,2.47765 0.34825,1.7699 1.911672,3.10843 3.78226,3.10843 0.528424,0 0.80704,-0.17991 1.469939,-0.32505 0.372916,-0.0829 0.77041,-0.11837 1.147412,-0.10954 0.89584,0.021 1.717689,0.30329 2.464859,0.83588 1.109971,0.80587 1.822442,2.17417 1.814839,3.54567 -0.0029,0.4227 0.04414,0.72577 0.182518,1.13783 0.528959,1.57168 1.998478,2.62811 3.655154,2.62881 h 0.0017 c 0.417677,-1.4e-4 0.830608,-0.0671 1.230068,-0.20224 0.973122,-0.32843 1.762468,-1.01711 2.22166,-1.9431 0.459192,-0.92599 0.532154,-1.97226 0.203724,-2.94538 -0.529136,-1.57221 -1.999581,-2.62882 -3.656935,-2.62882 -0.412901,0 -0.821189,0.0673 -1.216407,0.19778 l -0.07603,0.0259 c -0.433343,0.14293 -0.881926,0.21264 -1.328958,0.21264 -0.887978,0 -1.766934,-0.27816 -2.50438,-0.8149 -1.106931,-0.80435 -1.759124,-2.09367 -1.753038,-3.46212 1.26e-4,-0.036 -2.88e-4,-0.0721 -0.0011,-0.1081 0.01994,-1.34637 0.676784,-2.60576 1.774123,-3.39382 0.732884,-0.52762 1.602627,-0.79975 2.482996,-0.79975 0.465278,0 0.933499,0.0777 1.385088,0.23282 0.399897,0.13685 0.81966,0.2067 1.249963,0.2067 2.128712,0 3.859176,-1.73047 3.859176,-3.85918 0,-2.12871 -1.730464,-3.85888 -3.859176,-3.85888 z"
         id="path6" /><path
         style="font-size:96px;font-family:ZagBold, 'Zag Bold';baseline-shift:baseline;display:inline;overflow:visible;vector-effect:none;fill:#000000;fill-opacity:1;stroke-width:0.152051;stroke-linecap:round;paint-order:stroke fill markers;enable-background:accumulate;stop-color:#000000"
         d="m 58.416359,144.65262 c 2.128712,0 3.859176,1.73169 3.859176,3.85888 v 0.014 c 0.08883,1.42512 0.619114,2.53248 1.776818,3.40359 0.732884,0.52762 1.636039,0.83915 2.516414,0.83915 0.380668,0 0.722263,-0.0437 1.095805,-0.14714 0.485961,-0.11571 0.974468,-0.2685 1.500167,-0.2685 0.41662,0 0.831694,0.0684 1.230068,0.20224 0.98985,0.333 1.759393,1.00354 2.223147,1.93865 0.392505,0.79014 0.502641,1.63762 0.327563,2.47765 -0.34825,1.7699 -1.911672,3.10843 -3.78226,3.10843 -0.528424,0 -0.80704,-0.17991 -1.469939,-0.32505 -0.372916,-0.0829 -0.77041,-0.11837 -1.147412,-0.10954 -0.895839,0.021 -1.717689,0.30329 -2.464859,0.83588 -1.109971,0.80587 -1.822442,2.17417 -1.814839,3.54567 0.0029,0.4227 -0.04413,0.72577 -0.182518,1.13783 -0.528959,1.57168 -1.998478,2.62811 -3.655154,2.62881 h -0.0017 c -0.417677,-1.4e-4 -0.830608,-0.067 -1.230068,-0.20224 -0.973122,-0.32843 -1.762467,-1.01711 -2.221659,-1.9431 -0.459192,-0.92599 -0.532153,-1.97226 -0.203724,-2.94538 0.529137,-1.57221 1.99958,-2.62882 3.656934,-2.62882 0.412902,0 0.821189,0.0673 1.216407,0.19778 l 0.07602,0.0259 c 0.433343,0.14293 0.881927,0.21264 1.328958,0.21264 0.887979,0 1.766934,-0.27816 2.50438,-0.8149 1.106932,-0.80434 1.759124,-2.09367 1.753038,-3.46212 -1.26e-4,-0.036 2.88e-4,-0.0721 0.0011,-0.1081 -0.01994,-1.34637 -0.676783,-2.60576 -1.774123,-3.39382 -0.732884,-0.52762 -1.602627,-0.79975 -2.482996,-0.79975 -0.465278,0 -0.933499,0.0777 -1.385088,0.23282 -0.399897,0.13685 -0.81966,0.2067 -1.249963,0.2067 -2.128712,0 -3.859175,-1.73047 -3.859175,-3.85918 0,-2.12871 1.730463,-3.85888 3.859175,-3.85888 z"
         id="path8" /><path
         style="font-size:23.0371px;font-family:'Zag Bold';-inkscape-font-specification:'Zag Bold, Normal';letter-spacing:1.19985px;stroke-width:0.143561;stroke-linecap:round;stroke-linejoin:round;paint-order:stroke fill markers"
         d="m 85.928754,156.13863 v -16.12597 h -1.912079 v 7.21061 h -4.354012 v -7.21061 h -1.889042 v 16.12597 h 1.889042 v -7.02632 h 4.354012 v 7.02632 z m 10.5529,-16.12597 h -5.782312 c -0.783262,0 -1.543486,0.622 -1.543486,1.49741 v 10.78136 c 0,2.0503 1.75082,3.8472 3.824159,3.8472 h 3.501639 v -1.91208 h -3.501639 c -1.059707,0 -1.91208,-0.89845 -1.91208,-1.93512 v -3.45556 h 5.183348 v -1.91208 h -5.183348 v -4.95298 l 5.413719,-0.0461 z m 11.059746,16.12597 v -1.91208 h -5.57498 l -0.023,-14.21389 h -1.93512 v 14.65159 c 0,0.89845 0.8063,1.52045 1.58956,1.47438 z m 10.80631,0 h 2.0503 l -3.89327,-15.06627 c -0.20734,-0.73718 -0.92149,-1.244 -1.49741,-1.244 -0.59897,0 -1.26704,0.46074 -1.54349,1.29008 l -3.82416,15.02019 h 2.00423 c 0.20733,-0.85238 0.50682,-2.00423 1.40526,-5.50587 h 3.87023 z m -4.8378,-7.39491 c 0.43771,-1.84297 0.76023,-3.89327 1.22097,-5.73624 l 0.1843,-1.56652 h 0.18429 l 0.16126,1.56652 1.1749,5.73624 z m 16.26609,-8.73106 0.0922,11.17299 0.66808,3.0409 h -0.13822 l -4.74565,-13.4076 0.023,0.0461 c -0.11518,-0.57593 -0.8063,-0.92149 -1.35919,-0.92149 -0.66807,0 -1.31311,0.50682 -1.29008,1.35919 v 14.8359 h 1.95816 l -0.0922,-11.10389 -0.55289,-2.83356 0.27644,-0.0691 c 0.20734,0.59896 0.66808,2.83356 1.08275,3.93934 1.19793,3.13305 2.30371,6.40432 3.45556,9.23788 0.23037,0.50682 0.85238,0.82934 1.31312,0.82934 0.622,0 1.22096,-0.43771 1.22096,-1.31312 v -14.81285 z m 13.45561,16.12597 h 2.0503 l -3.89327,-15.06627 c -0.20733,-0.73718 -0.92148,-1.244 -1.49741,-1.244 -0.59897,0 -1.26704,0.46074 -1.54349,1.29008 l -3.82416,15.02019 h 2.00423 c 0.20734,-0.85238 0.50682,-2.00423 1.40527,-5.50587 h 3.87023 z m -4.83779,-7.39491 c 0.4377,-1.84297 0.76022,-3.89327 1.22096,-5.73624 l 0.1843,-1.56652 h 0.1843 l 0.16126,1.56652 1.17489,5.73624 z m 17.04935,7.39491 v -1.91208 h -5.57497 l -0.023,-14.21389 h -1.93512 v 14.65159 c 0,0.89845 0.8063,1.52045 1.58956,1.47438 z"
         id="text12"
         aria-label="HELANAL" /></g></g></svg>
