<svg xmlns="http://www.w3.org/2000/svg" xml:space="preserve" width="381.303" height="145.838" viewBox="0 0 100.886 38.586">
    <path d="M58.431 129.207c2.129 0 3.904 1.74 3.904 3.867v.014c-.017 1.462.67 2.682 1.728 3.466.745.55 1.63.808 2.5.798.38-.005.747-.04 1.12-.143.464-.122.97-.302 1.496-.302.417 0 .832.068 1.23.202a3.78 3.78 0 0 1 2.224 1.939c.392.79.502 1.637.327 2.477a3.86 3.86 0 0 1-3.782 3.109c-.528 0-.98-.2-1.475-.315a4.4 4.4 0 0 0-1.142-.137c-.888 0-1.756.31-2.492.846a4.37 4.37 0 0 0-1.765 3.433 3.9 3.9 0 0 1-.206 1.258 3.86 3.86 0 0 1-3.655 2.628h-.001a3.8 3.8 0 0 1-1.23-.202 3.83 3.83 0 0 1-2.222-1.943 3.857 3.857 0 0 1 4.67-5.376l.076.026a4.255 4.255 0 0 0 5.586-4.064l.001-.109a4.256 4.256 0 0 0-5.642-3.96 3.863 3.863 0 0 1-5.11-3.652 3.86 3.86 0 0 1 3.86-3.86z" style="font-size:96px;font-family:ZagBold,&quot;Zag Bold&quot;;display:inline;fill:#000;fill-opacity:1;stroke-width:0" transform="translate(-54.557 -129.207)"/>
    <path d="M68.597 148.495a1.98 1.98 0 0 1-1.981 1.981 1.98 1.98 0 0 1-1.981-1.981 1.98 1.98 0 0 1 1.98-1.981 1.98 1.98 0 0 1 1.982 1.98" style="baseline-shift:baseline;display:inline;overflow:visible;vector-effect:none;fill:#ff9200;fill-opacity:1;stroke-width:.152051;paint-order:stroke fill markers;stop-color:#000" transform="translate(-54.557 -129.207)"/>
    <path d="M69.051 133.184a2.55 2.55 0 0 1-2.55 2.549 2.55 2.55 0 0 1-2.548-2.55 2.55 2.55 0 0 1 2.549-2.548 2.55 2.55 0 0 1 2.55 2.549" style="baseline-shift:baseline;display:inline;overflow:visible;vector-effect:none;fill:#ff9200;fill-opacity:1;stroke-width:.152051;stroke-linecap:round;paint-order:stroke fill markers;stop-color:#000" transform="translate(-54.557 -129.207)"/>
    <path d="M62.316 140.75a1.3 1.3 0 0 1-1.3 1.3 1.3 1.3 0 0 1-1.298-1.3 1.3 1.3 0 0 1 1.299-1.299 1.3 1.3 0 0 1 1.299 1.3" style="baseline-shift:baseline;display:inline;overflow:visible;vector-effect:none;fill:#ff9200;fill-opacity:1;stroke-width:.152051;stroke-linecap:round;stroke-linejoin:round;paint-order:stroke fill markers;stop-color:#000" transform="translate(-54.557 -129.207)"/>
    <path d="M69.18 136.907a3.863 3.863 0 0 0-3.86 3.859v.014c-.089 1.425-.62 2.532-1.777 3.403-.733.528-1.636.84-2.516.84-.38 0-.722-.044-1.096-.148-.486-.115-.974-.268-1.5-.268-.417 0-.832.068-1.23.202a3.78 3.78 0 0 0-2.223 1.939 3.76 3.76 0 0 0-.328 2.477 3.86 3.86 0 0 0 3.782 3.109c.529 0 .807-.18 1.47-.325.373-.083.77-.119 1.148-.11a4.34 4.34 0 0 1 2.465.836c1.11.806 1.822 2.174 1.814 3.546-.003.422.044.725.183 1.138a3.86 3.86 0 0 0 3.655 2.628h.002c.417 0 .83-.067 1.23-.202a3.83 3.83 0 0 0 2.221-1.943 3.857 3.857 0 0 0-4.67-5.376l-.075.025a4.255 4.255 0 0 1-5.586-4.064q0-.054-.002-.108a4.256 4.256 0 0 1 5.643-3.96 3.863 3.863 0 0 0 5.11-3.652 3.86 3.86 0 0 0-3.86-3.86z" style="font-size:96px;font-family:ZagBold,&quot;Zag Bold&quot;;baseline-shift:baseline;display:inline;overflow:visible;vector-effect:none;fill:gray;fill-opacity:1;stroke-width:.152051;stroke-linecap:round;paint-order:stroke fill markers;stop-color:#000" transform="translate(-54.557 -129.207)"/>
    <path d="M58.416 144.653a3.863 3.863 0 0 1 3.86 3.859v.014c.088 1.425.619 2.532 1.776 3.403.733.528 1.636.84 2.517.84.38 0 .722-.044 1.096-.148.486-.116.974-.268 1.5-.268.416 0 .831.068 1.23.202a3.78 3.78 0 0 1 2.223 1.938c.392.79.503 1.638.328 2.478a3.86 3.86 0 0 1-3.783 3.109c-.528 0-.807-.18-1.47-.325a4.9 4.9 0 0 0-1.147-.11 4.34 4.34 0 0 0-2.465.836c-1.11.806-1.822 2.174-1.815 3.546.003.422-.044.725-.182 1.137a3.86 3.86 0 0 1-3.655 2.63h-.002q-.629-.001-1.23-.203a3.83 3.83 0 0 1-2.222-1.943 3.857 3.857 0 0 1 4.67-5.376l.076.025a4.255 4.255 0 0 0 5.586-4.064l.001-.108a4.256 4.256 0 0 0-5.642-3.96 3.863 3.863 0 0 1-5.11-3.652 3.86 3.86 0 0 1 3.86-3.86z" style="font-size:96px;font-family:ZagBold,&quot;Zag Bold&quot;;baseline-shift:baseline;display:inline;overflow:visible;vector-effect:none;fill:#000;fill-opacity:1;stroke-width:.152051;stroke-linecap:round;paint-order:stroke fill markers;stop-color:#000" transform="translate(-54.557 -129.207)"/>
    <path d="M85.929 156.139v-16.126h-1.912v7.21h-4.354v-7.21h-1.89v16.126h1.89v-7.027h4.354v7.027zm10.553-16.126h-5.783c-.783 0-1.543.622-1.543 1.497v10.781c0 2.05 1.75 3.848 3.824 3.848h3.502v-1.912H92.98c-1.06 0-1.912-.899-1.912-1.936v-3.455h5.183v-1.912h-5.183v-4.953l5.414-.046zm11.06 16.126v-1.912h-5.576l-.023-14.214h-1.935v14.651c0 .899.807 1.52 1.59 1.475zm10.806 0h2.05l-3.893-15.067c-.208-.737-.922-1.244-1.498-1.244-.599 0-1.267.461-1.543 1.29l-3.824 15.02h2.004c.207-.852.507-2.004 1.405-5.505h3.87zm-4.838-7.395c.438-1.843.76-3.894 1.22-5.737l.185-1.566h.184l.162 1.566 1.175 5.737zm16.266-8.731.092 11.173.668 3.04h-.138l-4.746-13.407.023.046c-.115-.576-.806-.921-1.359-.921-.668 0-1.313.506-1.29 1.359v14.836h1.958l-.092-11.104-.553-2.834.277-.069c.207.6.668 2.834 1.082 3.94 1.198 3.132 2.304 6.404 3.456 9.237.23.507.852.83 1.313.83.622 0 1.221-.438 1.221-1.313v-14.813zm13.456 16.126h2.05l-3.893-15.067c-.208-.737-.922-1.244-1.498-1.244-.599 0-1.267.461-1.543 1.29l-3.824 15.02h2.004c.207-.852.507-2.004 1.405-5.505h3.87zm-4.838-7.395c.438-1.843.76-3.894 1.22-5.737l.185-1.566h.184l.162 1.566 1.175 5.737zm17.05 7.395v-1.912h-5.576l-.023-14.214h-1.935v14.651c0 .899.806 1.52 1.59 1.475z" aria-label="HELANAL" style="font-size:23.0371px;font-family:&quot;Zag Bold&quot;;-inkscape-font-specification:&quot;Zag Bold, Normal&quot;;letter-spacing:1.19985px;stroke-width:.143561;stroke-linecap:round;stroke-linejoin:round;paint-order:stroke fill markers" transform="translate(-54.557 -129.207)"/>
</svg>
