<svg xmlns="http://www.w3.org/2000/svg" xml:space="preserve" width="421.372" height="178.902" viewBox="0 0 111.488 47.335">
    <path d="M3795.471 134.786c-3.422 0-6.215 2.793-6.215 6.215v7.104c0 2.31 1.33 4.255 3.211 5.326-1.882 1.07-3.21 3.016-3.21 5.328v7.103c0 3.422 2.792 6.215 6.214 6.215h24.861a6.224 6.224 0 0 0 6.008-4.62l.09-.339-.166-.31a5 5 0 0 1-.324-.744c-.18-.534-.222-.831-.223-1.387.013-2.33-1.162-4.583-3.037-5.944v-.004c-1.23-.876-2.63-1.36-4.123-1.394a8 8 0 0 0-1.902.182c-1.07.234-1.395.457-1.97.457a4.79 4.79 0 0 1-4.696-3.86v-.01c-.218-1.046-.086-2.074.408-3.07.584-1.178 1.513-1.987 2.76-2.406a4.8 4.8 0 0 1 1.527-.252c.602 0 1.246.19 2.002.37l-.03-.007a6.8 6.8 0 0 0 1.849.248c1.505 0 2.997-.52 4.222-1.403l.01-.006.01-.004c1.89-1.42 2.827-3.377 2.97-5.666v-.074c0-.757.174-1.468.486-2.103l.158-.324-.113-.344a6.22 6.22 0 0 0-5.905-4.278zm0 1.776h24.861c1.873 0 3.497 1.192 4.135 2.941-.285.736-.538 1.496-.539 2.328v-.031c-.118 1.903-.742 3.206-2.254 4.348-.931.668-2.095 1.064-3.18 1.064-.492 0-.897-.051-1.374-.184l-.016-.006-.016-.002c-.675-.16-1.469-.42-2.415-.42-.71 0-1.417.117-2.093.344a6.5 6.5 0 0 0-3.785 3.301 6.47 6.47 0 0 0-.555 4.217c.595 3.013 3.26 5.287 6.436 5.287.979 0 1.476-.306 2.353-.498a6.3 6.3 0 0 1 1.477-.14c1.143.026 2.16.372 3.128 1.062 1.392 1.012 2.313 2.787 2.303 4.494v.004c0 .684.087 1.28.315 1.957v.002c.065.194.16.371.242.557-.589 1.828-2.23 3.115-4.168 3.115h-24.861a4.426 4.426 0 0 1-4.44-4.44v-7.103a4.426 4.426 0 0 1 4.44-4.44v-1.775a4.426 4.426 0 0 1-4.44-4.44v-7.103a4.426 4.426 0 0 1 4.44-4.44zm3.553 5.328c-.814 0-1.537.335-1.996.851a2.7 2.7 0 0 0-.668 1.81c0 .642.21 1.295.668 1.811s1.18.854 1.994.854 1.537-.336 1.996-.852.668-1.169.668-1.81a2.7 2.7 0 0 0-.668-1.81c-.458-.517-1.18-.854-1.994-.854m5.326 0c-.814 0-1.535.335-1.994.851a2.7 2.7 0 0 0-.668 1.81c0 .642.21 1.295.668 1.811s1.18.854 1.994.854 1.538-.336 1.996-.852a2.7 2.7 0 0 0 .668-1.81 2.7 2.7 0 0 0-.668-1.81c-.458-.517-1.182-.854-1.996-.854m-5.328 1.775c.37 0 .535.106.668.256s.22.386.22.633a.97.97 0 0 1-.22.63c-.133.15-.296.257-.666.256-.37 0-.535-.107-.668-.257a.97.97 0 0 1-.22-.631c0-.247.087-.481.22-.631s.296-.256.666-.256m5.328 0c.37 0 .535.106.668.256s.219.386.219.633a.97.97 0 0 1-.219.63c-.133.15-.298.257-.668.256-.37 0-.535-.107-.668-.257a.97.97 0 0 1-.219-.631c0-.247.086-.481.22-.631.132-.15.297-.256.667-.256m-5.34 15.982c-.804.012-1.515.352-1.967.866a2.7 2.7 0 0 0-.658 1.797c0 .636.207 1.285.658 1.798s1.163.854 1.967.866c.824.012 1.558-.322 2.024-.84a2.7 2.7 0 0 0 .677-1.824c0-.647-.211-1.306-.677-1.825s-1.2-.85-2.024-.838m2.701 2.663c0 .636.209 1.285.66 1.798s1.163.854 1.967.866c.824.012 1.558-.322 2.024-.84a2.7 2.7 0 0 0 .678-1.824c0-.647-.212-1.306-.678-1.825s-1.2-.85-2.024-.838c-.804.012-1.515.352-1.966.866a2.7 2.7 0 0 0-.66 1.797m-2.675-.887c.377-.005.543.1.677.25.135.15.223.387.223.637s-.088.487-.223.636c-.134.15-.3.258-.677.252-.363-.005-.527-.113-.659-.263a.97.97 0 0 1-.216-.625c0-.244.085-.475.216-.625.132-.15.296-.257.659-.262m5.328 0c.377-.005.543.1.678.25.134.15.222.387.222.637s-.088.487-.222.636c-.135.15-.3.258-.678.252-.363-.005-.527-.113-.658-.263a.97.97 0 0 1-.217-.625c0-.244.085-.475.217-.625.131-.15.295-.257.658-.262" style="baseline-shift:baseline;display:inline;overflow:visible;vector-effect:none;fill:gray;stop-color:#000" transform="translate(-3789.256 -124.833)"/>
    <path d="M3830.497 136.154a5.687 5.687 0 0 0-5.68 5.68v.02c-.131 2.099-.912 3.729-2.616 5.01-1.079.777-2.408 1.236-3.704 1.236-.56 0-1.063-.064-1.613-.217-.715-.17-1.434-.395-2.208-.395-.613 0-1.224.1-1.81.298a5.56 5.56 0 0 0-3.273 2.853 5.54 5.54 0 0 0-.482 3.647 5.68 5.68 0 0 0 5.567 4.576c.778 0 1.188-.265 2.164-.479a7 7 0 0 1 1.689-.161c1.319.03 2.528.446 3.628 1.23 1.634 1.187 2.682 3.2 2.671 5.22 0 .622.065 1.068.269 1.674a5.68 5.68 0 0 0 5.38 3.87c.615 0 1.223-.1 1.81-.298a5.64 5.64 0 0 0 3.27-2.86 5.64 5.64 0 0 0 .3-4.336 5.677 5.677 0 0 0-7.173-3.578l-.112.038a6.263 6.263 0 0 1-5.642-.886 6.27 6.27 0 0 1-2.58-5.096v-.16a6.26 6.26 0 0 1 2.611-4.995 6.25 6.25 0 0 1 5.694-.834 5.685 5.685 0 0 0 7.52-5.376 5.685 5.685 0 0 0-5.68-5.68z" style="fill:gray;fill-opacity:1;stroke-width:.264584;stroke-linecap:round;paint-order:stroke fill markers;stop-color:#000" transform="translate(-3789.256 -124.833)"/>
    <path d="M3826.711 124.833c3.133 0 5.746 2.56 5.746 5.692v.02c-.024 2.152.988 3.948 2.545 5.101a6.05 6.05 0 0 0 3.68 1.176 6.4 6.4 0 0 0 1.648-.211c.682-.18 1.428-.444 2.202-.444.613 0 1.224.1 1.81.297a5.56 5.56 0 0 1 3.273 2.854 5.54 5.54 0 0 1 .482 3.647 5.68 5.68 0 0 1-5.567 4.575c-.778 0-1.441-.294-2.17-.463a6.4 6.4 0 0 0-1.682-.201c-1.307 0-2.585.456-3.668 1.244a6.43 6.43 0 0 0-2.598 5.053c0 .622-.1 1.245-.303 1.852a5.68 5.68 0 0 1-5.38 3.869 5.6 5.6 0 0 1-1.81-.298 5.64 5.64 0 0 1-3.27-2.86 5.64 5.64 0 0 1-.3-4.335 5.677 5.677 0 0 1 7.173-3.579l.111.038a6.263 6.263 0 0 0 5.642-.886 6.27 6.27 0 0 0 2.581-5.096v-.16a6.26 6.26 0 0 0-2.611-4.995 6.25 6.25 0 0 0-5.694-.834 5.686 5.686 0 0 1-7.52-5.376 5.685 5.685 0 0 1 5.68-5.68z" style="font-size:96px;font-family:ZagBold,&quot;Zag Bold&quot;;display:inline;fill:#000;fill-opacity:1;stroke-width:0" transform="translate(-3789.256 -124.833)"/>
    <path d="M3841.674 153.223a2.916 2.916 0 0 1-2.916 2.916 2.916 2.916 0 0 1-2.916-2.916 2.916 2.916 0 0 1 2.916-2.916 2.916 2.916 0 0 1 2.916 2.916" style="baseline-shift:baseline;display:inline;overflow:visible;vector-effect:none;fill:#ff9200;fill-opacity:1;stroke-width:.264584;paint-order:stroke fill markers;stop-color:#000" transform="translate(-3789.256 -124.833)"/>
    <path d="M3842.343 130.686a3.75 3.75 0 0 1-3.752 3.753 3.75 3.75 0 0 1-3.752-3.753 3.75 3.75 0 0 1 3.752-3.752 3.75 3.75 0 0 1 3.752 3.752" style="baseline-shift:baseline;display:inline;overflow:visible;vector-effect:none;fill:#ff9200;fill-opacity:1;stroke-width:.264584;stroke-linecap:round;paint-order:stroke fill markers;stop-color:#000" transform="translate(-3789.256 -124.833)"/>
    <path d="M3820.266 141.801a1.91 1.91 0 0 1-1.912 1.912 1.91 1.91 0 0 1-1.913-1.912 1.91 1.91 0 0 1 1.913-1.912 1.91 1.91 0 0 1 1.912 1.912" style="baseline-shift:baseline;display:inline;overflow:visible;vector-effect:none;fill:#ff9200;fill-opacity:1;stroke-width:.264584;stroke-linecap:round;stroke-linejoin:round;paint-order:stroke fill markers;stop-color:#000" transform="translate(-3789.256 -124.833)"/>
    <path d="M3823.48 164.564a5.1 5.1 0 0 1-5.1 5.101 5.1 5.1 0 0 1-5.102-5.101 5.1 5.1 0 0 1 5.101-5.102 5.1 5.1 0 0 1 5.102 5.102" style="baseline-shift:baseline;display:inline;overflow:visible;vector-effect:none;fill:#ff9200;fill-opacity:1;stroke-width:.264584;paint-order:stroke fill markers;stop-color:#000" transform="translate(-3789.256 -124.833)"/>
    <g aria-label="PyTNG" style="font-size:25.4584px;font-family:ZagBold,&quot;Zag Bold&quot;;letter-spacing:0;fill:#ff9200;stroke-width:.264584">
        <path d="M3849.647 149.331c-.84 0-1.629.687-1.629 1.655v16.166h2.062v-6.823h3.132c2.24 0 4.124-2.011 4.124-4.226v-2.546c0-2.215-1.884-4.226-4.124-4.226zm.433 2.164 3.132-.05c1.12 0 2.036.967 2.036 2.112v2.546c0 1.171-.916 2.113-2.036 2.113h-3.132z" style="font-family:&quot;Zag Bold&quot;;-inkscape-font-specification:&quot;Zag Bold, Normal&quot;" transform="translate(-3789.256 -124.833)"/>
        <path d="M3867.214 168.145v-13.239h-2.062v8.758c0 .993-.892 1.528-1.91 1.528-1.07.025-2.037-.84-2.037-1.884v-8.402h-2.062v8.402c0 2.215 1.935 4.048 4.1 3.92.508-.025 1.578-.382 1.909-1.324v2.24a1.95 1.95 0 0 1-1.935 1.936c-.535 0-1.35-.357-2.062-.942l-1.35 1.553c1.019.84 2.419 1.476 3.412 1.476 2.138 0 3.971-1.73 3.997-4.022" style="font-family:&quot;Zag Bold&quot;;-inkscape-font-specification:&quot;Zag Bold, Normal&quot;;letter-spacing:-2.64583px" transform="translate(-3789.256 -124.833)"/>
        <path d="M3867.012 149.331v2.113h4.073v15.708h2.088v-15.708h4.175v-2.113zm19.45 0 .102 12.347.738 3.36h-.152l-5.245-14.816.025.051c-.127-.636-.89-1.018-1.502-1.018-.738 0-1.451.56-1.426 1.502v16.395h2.164l-.101-12.271-.611-3.131.305-.077c.23.662.738 3.132 1.197 4.354 1.323 3.462 2.545 7.077 3.818 10.208.255.56.942.917 1.452.917.687 0 1.349-.484 1.349-1.451v-16.37zm9.267 9.852h2.902v3.845c-.025 1.4-1.324 2.164-2.698 2.164-1.375 0-2.75-.79-2.75-2.266v-9.496c0-1.451 1.324-2.215 2.699-2.215 1.349 0 2.673.993 2.673 2.928h2.138c-.026-3.335-2.418-5.041-4.811-5.041-2.444 0-4.786 1.451-4.786 4.328v9.496c0 2.902 2.393 4.379 4.837 4.379 2.418 0 4.811-1.451 4.811-4.277V158.7c0-.942-.687-1.604-1.654-1.604h-3.361z" style="font-family:&quot;Zag Bold&quot;;-inkscape-font-specification:&quot;Zag Bold, Normal&quot;;fill:#000" transform="translate(-3789.256 -124.833)"/>
    </g>
</svg>
