<?xml version="1.0" encoding="UTF-8" standalone="no"?>
<!-- Created with Inkscape (http://www.inkscape.org/) -->

<svg
   width="111.488mm"
   height="47.33456mm"
   viewBox="0 0 111.488 47.33456"
   version="1.1"
   id="svg1"
   xml:space="preserve"
   xmlns="http://www.w3.org/2000/svg"
   xmlns:svg="http://www.w3.org/2000/svg"><defs
     id="defs1"><style
       id="style1">
      .cls-1, .cls-2 {
        font-family: ZagBold, 'Zag Bold';
        font-size: 96px;
      }

      .cls-3 {
        letter-spacing: -.16em;
      }

      .cls-4 {
        letter-spacing: -.02em;
      }

      .cls-2, .cls-5 {
        fill: #ff9200;
      }

      .cls-6 {
        letter-spacing: 0em;
      }

      .cls-7 {
        fill: gray;
      }

      .cls-7, .cls-5, .cls-8 {
        fill-rule: evenodd;
      }

      .cls-9 {
        letter-spacing: -.03em;
      }
    </style></defs><g
     id="layer1"
     transform="translate(-3789.2563,-124.83271)"><g
       id="g96"><path
         style="baseline-shift:baseline;display:inline;overflow:visible;vector-effect:none;fill:#808080;enable-background:accumulate;stop-color:#000000"
         d="m 3795.4712,134.78617 c -3.4221,4e-5 -6.2149,2.79281 -6.2149,6.21484 v 7.10352 c 0,2.31115 1.3296,4.25543 3.211,5.32617 -1.8819,1.07059 -3.211,3.01658 -3.211,5.32812 v 7.10352 c 0,3.42203 2.7928,6.2148 6.2149,6.21484 h 24.8613 c 2.8141,4e-5 5.2858,-1.90117 6.0078,-4.62109 l 0.09,-0.33789 -0.1661,-0.31055 c -0.1268,-0.23563 -0.2365,-0.48346 -0.3242,-0.74414 -0.1792,-0.53401 -0.2223,-0.83101 -0.2226,-1.38672 0.013,-2.32932 -1.1627,-4.58248 -3.0371,-5.94336 v -0.002 -0.002 c -1.2297,-0.87662 -2.6309,-1.35957 -4.1231,-1.39453 -0.6251,-0.0147 -1.2754,0.0423 -1.9023,0.18164 -1.0696,0.23476 -1.3952,0.45703 -1.9707,0.45703 -2.3298,0 -4.2635,-1.66489 -4.6953,-3.85937 v -0.004 -0.006 c -0.2181,-1.04662 -0.086,-2.07421 0.4082,-3.07031 0.584,-1.17759 1.5124,-1.98664 2.7598,-2.40625 0.4965,-0.16676 1.0114,-0.25196 1.5273,-0.25196 0.6017,0 1.2457,0.19102 2.002,0.3711 l -0.031,-0.008 c 0.622,0.17225 1.2214,0.24804 1.8496,0.24804 1.5052,0 2.9975,-0.52043 4.2226,-1.40234 l 0.01,-0.006 0.01,-0.004 c 1.8888,-1.42127 2.8262,-3.37783 2.9688,-5.66602 v -0.0273 -0.0469 c 0,-0.75697 0.1747,-1.4685 0.4864,-2.10351 l 0.1582,-0.32422 -0.1133,-0.34375 c -0.8365,-2.54852 -3.222,-4.27736 -5.9043,-4.27734 z m 0,1.77539 h 24.8613 c 1.8724,-2e-5 3.4963,1.19281 4.1348,2.9414 -0.2854,0.73572 -0.5386,1.49627 -0.5391,2.32813 v -0.0312 c -0.1186,1.90301 -0.742,3.2063 -2.254,4.34765 -0.9315,0.66884 -2.0955,1.06446 -3.1796,1.06446 -0.4925,0 -0.8973,-0.0513 -1.375,-0.1836 l -0.016,-0.006 -0.016,-0.002 c -0.6743,-0.16056 -1.4681,-0.41992 -2.4141,-0.41992 -0.7104,0 -1.4174,0.11661 -2.0937,0.34375 -1.6666,0.56067 -3.004,1.72553 -3.7852,3.30078 -0.6591,1.32815 -0.8502,2.79233 -0.5546,4.2168 0.5951,3.01366 3.2601,5.28711 6.4355,5.28711 0.979,0 1.4765,-0.30603 2.3535,-0.49805 v 0 c 0.4708,-0.10465 0.9919,-0.15198 1.4765,-0.14062 1.1438,0.0268 2.1604,0.37302 3.1289,1.0625 1.392,1.01176 2.3121,2.78689 2.3028,4.49414 v 0.002 0.002 c 0,0.68422 0.087,1.2802 0.3144,1.95703 v 0.002 0 c 0.065,0.19451 0.1601,0.37152 0.2422,0.55664 -0.5888,1.82811 -2.229,3.11526 -4.168,3.11523 h -24.8613 c -2.4624,-2e-5 -4.4395,-1.97712 -4.4395,-4.43945 v -7.10351 c 0,-2.46234 1.9771,-4.43943 4.4395,-4.43946 v -1.77539 c -2.4624,-3e-5 -4.4395,-1.97712 -4.4395,-4.43945 v -7.10352 c 0,-2.46233 1.9771,-4.43942 4.4395,-4.43945 z m 3.5527,5.32812 c -0.8138,-2.7e-4 -1.5374,0.33557 -1.9961,0.85156 -0.4586,0.516 -0.668,1.16934 -0.668,1.81055 0,0.64121 0.2095,1.29442 0.668,1.81055 0.4585,0.51612 1.1803,0.85324 1.9942,0.85351 0.8138,2.8e-4 1.5374,-0.33556 1.996,-0.85156 0.4587,-0.516 0.668,-1.16934 0.668,-1.81055 0,-0.6412 -0.2095,-1.29442 -0.668,-1.81054 -0.4584,-0.51613 -1.1803,-0.85324 -1.9941,-0.85352 z m 5.3262,0 c -0.8138,-2.7e-4 -1.5355,0.33557 -1.9942,0.85156 -0.4586,0.516 -0.6679,1.16934 -0.6679,1.81055 0,0.64121 0.2094,1.29442 0.6679,1.81055 0.4585,0.51612 1.1804,0.85324 1.9942,0.85351 0.8138,2.8e-4 1.5374,-0.33556 1.9961,-0.85156 0.4586,-0.516 0.6679,-1.16934 0.6679,-1.81055 0,-0.6412 -0.2094,-1.29442 -0.6679,-1.81054 -0.4585,-0.51613 -1.1823,-0.85324 -1.9961,-0.85352 z m -5.3281,1.77539 c 0.3697,1.3e-4 0.5347,0.10584 0.6679,0.25586 0.1333,0.15002 0.2207,0.38609 0.2207,0.63281 0,0.24673 -0.088,0.48111 -0.2207,0.63086 -0.1331,0.14975 -0.2963,0.25599 -0.666,0.25586 -0.3697,-1.2e-4 -0.5347,-0.10779 -0.668,-0.25781 -0.1332,-0.15002 -0.2207,-0.38414 -0.2207,-0.63086 0,-0.24672 0.088,-0.48111 0.2207,-0.63086 0.1331,-0.14975 0.2963,-0.25598 0.6661,-0.25586 z m 5.3281,0 c 0.3697,1.3e-4 0.5347,0.10584 0.6679,0.25586 0.1333,0.15002 0.2188,0.38609 0.2188,0.63281 0,0.24673 -0.086,0.48111 -0.2188,0.63086 -0.1331,0.14975 -0.2982,0.25599 -0.6679,0.25586 -0.3697,-1.2e-4 -0.5347,-0.10779 -0.668,-0.25781 -0.1333,-0.15002 -0.2187,-0.38414 -0.2187,-0.63086 0,-0.24672 0.086,-0.48111 0.2187,-0.63086 0.1331,-0.14975 0.2983,-0.25598 0.668,-0.25586 z m -5.3399,15.98242 c -0.8042,0.0116 -1.5152,0.35151 -1.9668,0.86524 -0.4515,0.51373 -0.6582,1.16084 -0.6582,1.79687 0,0.63604 0.2067,1.2851 0.6582,1.79883 0.4516,0.51373 1.1626,0.85363 1.9668,0.86524 0.8235,0.0119 1.5576,-0.32156 2.0235,-0.83985 0.4659,-0.51829 0.6777,-1.17774 0.6777,-1.82422 0,-0.64647 -0.2118,-1.30592 -0.6777,-1.82422 -0.4659,-0.51828 -1.2,-0.84977 -2.0235,-0.83789 z m 2.7012,2.66211 c 0,0.63604 0.2086,1.2851 0.6602,1.79883 0.4515,0.51373 1.1625,0.85363 1.9668,0.86524 0.8234,0.0119 1.5575,-0.32156 2.0234,-0.83985 0.4659,-0.51829 0.6777,-1.17774 0.6777,-1.82422 0,-0.64647 -0.2118,-1.30592 -0.6777,-1.82422 -0.4659,-0.51828 -1.2,-0.84977 -2.0234,-0.83789 -0.8043,0.0116 -1.5153,0.35151 -1.9668,0.86524 -0.4516,0.51373 -0.6602,1.16084 -0.6602,1.79687 z m -2.6758,-0.88672 c 0.3775,-0.005 0.5432,0.10028 0.6778,0.25 0.1345,0.14973 0.2226,0.38673 0.2226,0.63672 0,0.25 -0.088,0.487 -0.2226,0.63672 -0.1346,0.14973 -0.3003,0.25741 -0.6778,0.25196 -0.3625,-0.005 -0.5263,-0.11366 -0.6582,-0.26368 -0.1318,-0.15001 -0.2168,-0.38165 -0.2168,-0.625 0,-0.24334 0.085,-0.47498 0.2168,-0.625 0.1319,-0.15001 0.2957,-0.25648 0.6582,-0.26172 z m 5.3281,0 c 0.3775,-0.005 0.5432,0.10028 0.6778,0.25 0.1346,0.14973 0.2226,0.38673 0.2226,0.63672 0,0.25 -0.088,0.487 -0.2226,0.63672 -0.1346,0.14973 -0.3003,0.25741 -0.6778,0.25196 -0.3625,-0.005 -0.5263,-0.11366 -0.6582,-0.26368 -0.1318,-0.15001 -0.2168,-0.38165 -0.2168,-0.625 0,-0.24334 0.085,-0.47498 0.2168,-0.625 0.1319,-0.15001 0.2957,-0.25648 0.6582,-0.26172 z"
         id="path1" /><path
         style="font-size:96px;font-family:ZagBold, 'Zag Bold';baseline-shift:baseline;display:inline;overflow:visible;vector-effect:none;fill:#808080;fill-opacity:1;stroke-width:0.264584;stroke-linecap:round;paint-order:stroke fill markers;enable-background:accumulate;stop-color:#000000"
         d="m 3830.497,136.15439 c -3.1334,0 -5.6805,2.54893 -5.6805,5.68001 v 0.0205 c -0.1307,2.09769 -0.9113,3.72765 -2.6153,5.00986 -1.0788,0.77661 -2.4082,1.23516 -3.704,1.23516 -0.5603,0 -1.0631,-0.0643 -1.613,-0.21657 -0.7153,-0.17032 -1.4343,-0.39522 -2.2081,-0.39522 -0.6132,0 -1.2242,0.10074 -1.8106,0.29769 -1.457,0.49014 -2.5897,1.47713 -3.2723,2.85355 -0.5777,1.16303 -0.7398,2.41047 -0.4821,3.64693 0.5126,2.60516 2.8138,4.57539 5.5672,4.57539 0.7778,0 1.1879,-0.26481 2.1636,-0.47844 0.5489,-0.12199 1.134,-0.17424 1.6889,-0.16124 1.3187,0.0309 2.5284,0.44641 3.6281,1.23035 1.6338,1.18618 2.6825,3.20023 2.6714,5.21897 0,0.62219 0.065,1.0683 0.2686,1.67482 0.7786,2.3134 2.9416,3.86839 5.3801,3.86943 v 0 c 0.6148,-2.1e-4 1.2226,-0.0987 1.8106,-0.29768 1.4324,-0.48343 2.5942,-1.49712 3.2701,-2.86011 0.6759,-1.363 0.7833,-2.90304 0.2999,-4.33541 -0.7788,-2.31417 -2.9432,-3.86943 -5.3828,-3.86943 -0.6077,0 -1.2087,0.099 -1.7904,0.29112 l -0.1119,0.038 c -0.6379,0.21038 -1.2982,0.31299 -1.9562,0.31299 -1.307,0 -2.6008,-0.40943 -3.6862,-1.19948 -1.6294,-1.18394 -2.5893,-3.08173 -2.5804,-5.096 2e-4,-0.053 -4e-4,-0.10606 0,-0.15911 0.029,-1.98177 0.9962,-3.8355 2.6114,-4.99547 1.0787,-0.77661 2.3589,-1.17718 3.6548,-1.17718 0.6848,0 1.374,0.11442 2.0387,0.34271 0.5886,0.20143 1.2065,0.30424 1.8399,0.30424 3.1333,0 5.6804,-2.54713 5.6804,-5.68044 0,-3.13332 -2.5471,-5.68001 -5.6804,-5.68001 z"
         id="path275" /><path
         id="path276"
         class="cls-1"
         d="m 3826.7111,124.83278 c 3.1333,0 5.7455,2.56094 5.7455,5.69202 v 0.0205 c -0.024,2.15214 0.988,3.94812 2.5449,5.10118 1.0965,0.81136 2.3992,1.19065 3.6796,1.17521 0.5603,-0.007 1.0988,-0.0588 1.6486,-0.21105 0.6826,-0.17961 1.4285,-0.44412 2.2023,-0.44412 0.6132,0 1.2241,0.10073 1.8105,0.29768 1.457,0.49014 2.5897,1.47713 3.2723,2.85355 0.5778,1.16303 0.7399,2.41047 0.4822,3.64694 -0.5126,2.60515 -2.8139,4.57539 -5.5672,4.57539 -0.7778,0 -1.4412,-0.29441 -2.1707,-0.4632 -0.5451,-0.14901 -1.1258,-0.20123 -1.6808,-0.20123 -1.3071,0 -2.5849,0.45642 -3.6682,1.24422 -1.6106,1.20935 -2.5479,3.01925 -2.5985,5.05344 0,0.62218 -0.099,1.2447 -0.3025,1.85122 -0.7785,2.31341 -2.9416,3.8684 -5.3801,3.86943 v 0 c -0.6148,-2.1e-4 -1.2226,-0.0987 -1.8106,-0.29768 -1.4324,-0.48343 -2.5942,-1.49712 -3.2701,-2.86011 -0.6759,-1.36299 -0.7833,-2.90303 -0.2999,-4.33541 0.7788,-2.31417 2.9432,-3.86943 5.3828,-3.86943 0.6077,0 1.2087,0.099 1.7904,0.29113 l 0.1119,0.038 c 0.6379,0.21038 1.2982,0.31298 1.9562,0.31298 1.307,0 2.6008,-0.40943 3.6862,-1.19947 1.6294,-1.18395 2.5893,-3.08173 2.5804,-5.09601 -2e-4,-0.053 4e-4,-0.10605 0,-0.15911 -0.029,-1.98176 -0.9962,-3.83549 -2.6114,-4.99546 -1.0788,-0.77662 -2.359,-1.17718 -3.6548,-1.17718 -0.6849,0 -1.3741,0.11442 -2.0388,0.3427 -0.5886,0.20143 -1.2065,0.30424 -1.8398,0.30424 -3.1333,0 -5.6805,-2.54713 -5.6805,-5.68044 0,-3.13331 2.5472,-5.68 5.6805,-5.68 z"
         style="font-size:96px;font-family:ZagBold, 'Zag Bold';display:inline;fill:#000000;fill-opacity:1;stroke-width:0px" /><path
         style="baseline-shift:baseline;display:inline;overflow:visible;vector-effect:none;fill:#ff9200;fill-opacity:1;stroke-width:0.264584;paint-order:stroke fill markers;enable-background:accumulate;stop-color:#000000"
         d="m 3841.6744,153.22335 a 2.9160715,2.9160715 0 0 1 -2.9161,2.91607 2.9160715,2.9160715 0 0 1 -2.916,-2.91607 2.9160715,2.9160715 0 0 1 2.916,-2.91607 2.9160715,2.9160715 0 0 1 2.9161,2.91607 z"
         id="path277" /><path
         style="baseline-shift:baseline;display:inline;overflow:visible;vector-effect:none;fill:#ff9200;fill-opacity:1;stroke-width:0.264584;stroke-linecap:round;paint-order:stroke fill markers;enable-background:accumulate;stop-color:#000000"
         d="m 3842.3429,130.68649 a 3.7521584,3.7521584 0 0 1 -3.7521,3.75216 3.7521584,3.7521584 0 0 1 -3.7522,-3.75216 3.7521584,3.7521584 0 0 1 3.7522,-3.75215 3.7521584,3.7521584 0 0 1 3.7521,3.75215 z"
         id="path278" /><path
         style="baseline-shift:baseline;display:inline;overflow:visible;vector-effect:none;fill:#ff9200;fill-opacity:1;stroke-width:0.264584;stroke-linecap:round;stroke-linejoin:round;paint-order:stroke fill markers;enable-background:accumulate;stop-color:#000000"
         d="m 3820.2656,141.80098 a 1.9121287,1.9121287 0 0 1 -1.9121,1.91213 1.9121287,1.9121287 0 0 1 -1.9121,-1.91213 1.9121287,1.9121287 0 0 1 1.9121,-1.91213 1.9121287,1.9121287 0 0 1 1.9121,1.91213 z"
         id="path280" /><path
         style="baseline-shift:baseline;display:inline;overflow:visible;vector-effect:none;fill:#ff9200;fill-opacity:1;stroke-width:0.264584;paint-order:stroke fill markers;enable-background:accumulate;stop-color:#000000"
         d="m 3823.4808,164.56374 a 5.1015315,5.1015315 0 0 1 -5.1015,5.10153 5.1015315,5.1015315 0 0 1 -5.1015,-5.10153 5.1015315,5.1015315 0 0 1 5.1015,-5.10154 5.1015315,5.1015315 0 0 1 5.1015,5.10154 z"
         id="path281" /><g
         id="text284"
         style="font-size:25.4584px;font-family:ZagBold, 'Zag Bold';letter-spacing:0px;fill:#ff9200;stroke-width:0.264584"
         class="cls-2"
         aria-label="PyTNG"><path
           style="font-family:'Zag Bold';-inkscape-font-specification:'Zag Bold, Normal'"
           d="m 3849.6474,149.33108 c -0.8401,0 -1.6293,0.68738 -1.6293,1.6548 v 16.16608 h 2.0621 v -6.82285 h 3.1314 c 2.2403,0 4.1242,-2.01121 4.1242,-4.22609 v -2.54584 c 0,-2.21488 -1.8839,-4.2261 -4.1242,-4.2261 z m 0.4328,2.16397 3.1314,-0.0509 c 1.1201,0 2.0367,0.96742 2.0367,2.11305 v 2.54584 c 0,1.17108 -0.9166,2.11304 -2.0367,2.11304 h -3.1314 z"
           id="path77" /><path
           style="font-family:'Zag Bold';-inkscape-font-specification:'Zag Bold, Normal';letter-spacing:-2.64583px"
           d="m 3867.2137,168.14484 v -13.23837 h -2.0621 v 8.75769 c 0,0.99288 -0.8911,1.52751 -1.9094,1.52751 -1.0693,0.0255 -2.0367,-0.84013 -2.0367,-1.88393 v -8.40127 h -2.0621 v 8.40127 c 0,2.21488 1.9348,4.04789 4.0988,3.9206 0.5092,-0.0255 1.5784,-0.38188 1.9094,-1.32384 v 2.24034 c 0,1.06925 -0.8911,1.93484 -1.9349,1.93484 -0.5346,0 -1.3493,-0.35642 -2.0621,-0.94196 l -1.3493,1.55296 c 1.0183,0.84013 2.4186,1.47659 3.4114,1.47659 2.1385,0 3.9715,-1.73117 3.997,-4.02243 z"
           id="path78" /><path
           style="font-family:'Zag Bold';-inkscape-font-specification:'Zag Bold, Normal';fill:#000000"
           d="m 3867.0119,149.33108 v 2.11305 h 4.0733 v 15.70783 h 2.0876 v -15.70783 h 4.1752 v -2.11305 z m 19.4502,0 0.1019,12.34733 0.7383,3.36051 h -0.1528 l -5.2444,-14.81679 0.025,0.0509 c -0.1273,-0.63646 -0.891,-1.01833 -1.502,-1.01833 -0.7383,0 -1.4511,0.56008 -1.4257,1.50204 v 16.39521 h 2.164 l -0.1019,-12.27095 -0.611,-3.13138 0.3055,-0.0764 c 0.2292,0.66192 0.7383,3.13139 1.1966,4.35339 1.3238,3.46234 2.5458,7.07744 3.8187,10.20882 0.2546,0.56008 0.942,0.9165 1.4512,0.9165 0.6874,0 1.3493,-0.48371 1.3493,-1.45113 v -16.36975 z m 9.2669,9.8524 h 2.9022 v 3.84422 c -0.025,1.40021 -1.3238,2.16397 -2.6985,2.16397 -1.3748,0 -2.7495,-0.78921 -2.7495,-2.2658 v -9.49599 c 0,-1.45112 1.3238,-2.21488 2.6985,-2.21488 1.3493,0 2.6732,0.99288 2.6732,2.92772 h 2.1385 c -0.026,-3.33505 -2.4186,-5.04076 -4.8117,-5.04076 -2.444,0 -4.7861,1.45113 -4.7861,4.32792 v 9.49599 c 0,2.90226 2.3931,4.37884 4.8371,4.37884 2.4185,0 4.8116,-1.45113 4.8116,-4.27701 v -4.32793 c 0,-0.94196 -0.6874,-1.60388 -1.6548,-1.60388 h -3.3605 z"
           id="path79" /></g></g></g></svg>
