<svg xmlns="http://www.w3.org/2000/svg" xml:space="preserve" width="423.159" height="131.934" viewBox="0 0 111.961 34.907">
    <g stroke="none" aria-label="Water Dynamics" style="font-size:20.4504px;line-height:.8;font-family:&quot;Zag Bold&quot;;-inkscape-font-specification:&quot;Zag Bold, Normal&quot;;text-align:end;letter-spacing:-.213025px;text-anchor:end;fill:#ff9200;stroke-width:.177966;stroke-linecap:round;stroke-linejoin:round;paint-order:stroke fill markers">
        <path d="m2081.74 140.288.205-3.128h.184l.266 3.251.839 3.988c.122.777.613 1.207 1.165 1.207.532 0 1.125-.43 1.288-1.166l2.536-13.19h-1.86l-1.596 9.304-.163 3.252h-.184l-.164-2.802-.757-4.499c-.613-1.677-2.658-1.268-2.842.062l-.737 4.294-.183 3.047h-.164l-.205-3.313c-.593-3.599-1.227-7.3-1.697-9.346h-1.8l2.516 13.211c.163.737.838 1.125 1.329 1.125.532 0 1.104-.409 1.207-1.145zm9.155 5.4c.511 0 1.554-.307 1.758-1.166l.164 1.043h1.33v-6.688c0-1.8-1.514-3.251-3.252-3.251-.798 0-1.759.45-2.454 1.084l.9 1.37c.552-.532 1.145-.777 1.554-.777.88 0 1.595.715 1.595 1.574l.04.86c-.224-.655-1.022-1.085-1.676-1.085-1.881 0-3.19 1.473-3.19 3.19v.573c0 1.759 1.472 3.272 3.23 3.272m-1.575-3.273v-.572c0-.88.716-1.575 1.575-1.575.88 0 1.595.573 1.595 1.39v1.003c0 .736-.818 1.37-1.595 1.37-.86 0-1.575-.736-1.575-1.616m8.213-6.728V131.7h-1.636v10.553c0 1.942 1.8 3.313 3.866 3.313v-1.636c-1.207 0-2.23-.737-2.23-1.677v-4.908h2.045v-1.657zm9.155 3.17c0-1.8-1.473-3.252-3.232-3.252-1.84 0-3.251 1.555-3.251 3.272v3.538c0 1.861 1.513 3.231 3.251 3.231.941 0 2.168-.388 3.047-1.676l-1.35-.982c-.51.716-1.206 1.002-1.697 1.002-.88 0-1.595-.716-1.595-1.575v-.654h1.595c1.739 0 3.231-1.043 3.231-2.904m-4.827 1.615v-1.574c0-.88.716-1.616 1.595-1.616.86 0 1.575.716 1.575 1.575 0 .88-.716 1.615-1.575 1.615zm8.07 5.093v-7.056c.164-1.35 1.636-1.513 2.598-.838l.572-1.493c-1.104-.88-2.679-.859-3.251.593l-.184-1.002h-1.37v9.796z" style="text-align:start;letter-spacing:-.212193px;text-anchor:start;stroke:none" transform="translate(-2029.01 -131.046)"/>
        <path d="M2080.575 149.307c.88 0 1.636.798 1.636 1.718v7.526c0 .92-.757 1.677-1.636 1.677h-2.74c0-3.702-.021-7.24-.021-10.92zm-3.129 12.618h3.129a3.37 3.37 0 0 0 3.333-3.374v-7.547c0-1.82-1.595-3.394-3.333-3.394h-3.129c-.757 0-1.309.531-1.309 1.308v11.678c0 .695.491 1.329 1.309 1.329" style="text-align:start;letter-spacing:0;text-anchor:start;fill:#000;stroke:none" transform="translate(-2029.01 -131.046)"/>
        <path d="M2092.252 162.723v-10.635h-1.656v7.035c0 .798-.716 1.227-1.534 1.227-.859.02-1.636-.675-1.636-1.513v-6.749h-1.657v6.749c0 1.78 1.555 3.252 3.293 3.15.409-.021 1.268-.307 1.534-1.064v1.8c0 .858-.716 1.554-1.555 1.554-.429 0-1.083-.287-1.656-.757l-1.084 1.248c.818.674 1.943 1.186 2.74 1.186 1.718 0 3.19-1.39 3.211-3.231m5.005-9.1c.879 0 1.615.735 1.615 1.594v6.708h1.657v-6.708c0-1.697-1.473-3.354-3.252-3.251-.552.04-1.35.245-1.718 1.104l-.225-1.002h-1.309v9.857h1.657v-6.708c0-.859.716-1.595 1.575-1.595m7.908 8.425c.511 0 1.554-.307 1.759-1.166l.163 1.043h1.33v-6.687c0-1.8-1.514-3.252-3.252-3.252-.798 0-1.759.45-2.454 1.084l.9 1.37c.552-.532 1.145-.777 1.554-.777.88 0 1.595.716 1.595 1.575l.041.859c-.225-.655-1.022-1.084-1.677-1.084-1.881 0-3.19 1.472-3.19 3.19v.573c0 1.758 1.472 3.272 3.23 3.272zm-1.575-3.272v-.573c0-.88.716-1.575 1.575-1.575.88 0 1.595.573 1.595 1.39v1.003c0 .736-.818 1.37-1.595 1.37-.86 0-1.575-.736-1.575-1.615m8.236-3.559c0-.859.695-1.595 1.574-1.595.9 0 1.616.736 1.616 1.595v6.708h1.636v-6.708c0-2.127 3.21-2.229 3.19 0v6.708h1.636v-6.708c0-1.82-1.431-3.251-3.19-3.251-.94 0-1.943.368-2.434 1.636-.51-1.268-1.595-1.657-2.413-1.636-.593.02-1.35.286-1.758 1.083l-.205-.96h-1.288v9.836h1.636zm12.939-6.319c-.532 0-1.002.41-1.002 1.043 0 .593.47 1.023 1.002 1.023.552 0 1.063-.43 1.063-1.023 0-.634-.511-1.043-1.063-1.043m.838 3.19h-1.636v9.837h1.636zm6.375 6.115c0 1.186-.716 2.168-1.575 2.168-.88 0-1.615-.716-1.615-1.595v-3.559c0-.859.736-1.574 1.615-1.574.86 0 1.575.92 1.575 2.147h1.656c-.02-2.147-1.513-3.824-3.23-3.824-1.76 0-3.273 1.41-3.273 3.251v3.559c0 1.758 1.493 3.251 3.272 3.251 1.82 0 3.21-1.738 3.231-3.824zm8.951-4.397c-.838-1.268-1.943-1.84-2.986-1.84-1.636 0-3.251 1.124-3.23 3.129 0 1.901 1.37 2.617 3.067 2.658.797.02 1.534.43 1.534 1.288 0 .9-.777 1.37-1.595 1.37-.635 0-1.35-.367-1.82-1.145l-1.412.757c.757 1.33 2.107 2.045 3.211 2.045 1.636 0 3.293-.961 3.272-3.027 0-1.963-1.554-2.924-3.17-2.965-.797-.02-1.452-.245-1.431-.981 0-.43.163-.757.368-.982a1.7 1.7 0 0 1 1.227-.532c.45 0 1.043.41 1.575 1.145z" style="text-align:start;letter-spacing:-.190024px;text-anchor:start;fill:#000;stroke:none" transform="translate(-2029.01 -131.046)"/>
    </g>
    <path d="M2065.71 131.05a5.796 5.796 0 0 0-5.845 5.733v.021c-.155 2.137-.966 3.79-2.716 5.08-1.107.781-2.466 1.235-3.787 1.222a6 6 0 0 1-1.642-.236c-.727-.18-1.458-.417-2.246-.43a5.8 5.8 0 0 0-1.848.286 5.67 5.67 0 0 0-3.364 2.876 5.65 5.65 0 0 0-.527 3.712 5.79 5.79 0 0 0 5.628 4.719c.793.008 1.214-.258 2.21-.466a7.3 7.3 0 0 1 1.723-.148c1.344.044 2.573.48 3.686 1.29 1.653 1.225 2.702 3.288 2.67 5.346-.015.634.056 1.089.258 1.71a5.79 5.79 0 0 0 5.445 3.996 5.7 5.7 0 0 0 1.848-.285 5.75 5.75 0 0 0 3.361-2.883 5.75 5.75 0 0 0 .35-4.415 5.786 5.786 0 0 0-7.276-3.719l-.115.038a6.384 6.384 0 0 1-5.742-.96 6.39 6.39 0 0 1-2.58-5.22q.002-.08 0-.161a6.387 6.387 0 0 1 8.523-5.86 5.795 5.795 0 0 0 7.718-5.405 5.795 5.795 0 0 0-5.733-5.845z" style="fill:gray;fill-opacity:1;stroke-width:.228116;stroke-linecap:round;paint-order:stroke fill markers;stop-color:#000" transform="translate(-2029.01 -131.046)"/>
    <path d="M2057.258 134.762a4.32 4.32 0 0 0-5.68-2.248 4.32 4.32 0 0 0-2.248 5.68 4.32 4.32 0 0 0 5.68 2.248 4.32 4.32 0 0 0 2.248-5.68M2046.755 134.419a5.183 5.183 0 0 0-6.816-2.698 5.183 5.183 0 0 0-2.697 6.816 5.183 5.183 0 0 0 6.816 2.697 5.183 5.183 0 0 0 2.697-6.815M2056.914 158.614a4.32 4.32 0 0 0-5.68-2.248 4.32 4.32 0 0 0-2.247 5.68 4.32 4.32 0 0 0 5.68 2.248 4.32 4.32 0 0 0 2.248-5.68M2046.755 158.27a5.183 5.183 0 0 0-6.816-2.697 5.183 5.183 0 0 0-2.697 6.816 5.183 5.183 0 0 0 6.816 2.698 5.183 5.183 0 0 0 2.697-6.816" style="baseline-shift:baseline;display:inline;overflow:visible;vector-effect:none;fill:#ff9200;fill-opacity:1;stroke-width:.18949;paint-order:stroke fill markers;stop-color:#000" transform="translate(-2029.01 -131.046)"/>
    <path d="M2064.948 147.031a3.455 3.455 0 0 0-4.543-1.798 3.455 3.455 0 0 0-1.799 4.544 3.455 3.455 0 0 0 4.544 1.798 3.455 3.455 0 0 0 1.798-4.544" style="baseline-shift:baseline;display:inline;overflow:visible;vector-effect:none;fill:#000;fill-opacity:1;stroke-width:.18949;paint-order:stroke fill markers;stop-color:#000" transform="translate(-2029.01 -131.046)"/>
    <path d="M2040.681 145.986a6.086 6.086 0 0 0-8.003-3.167 6.086 6.086 0 0 0-3.168 8.003 6.086 6.086 0 0 0 8.004 3.167 6.086 6.086 0 0 0 3.167-8.003" style="baseline-shift:baseline;display:inline;overflow:visible;vector-effect:none;fill:#ff9200;fill-opacity:1;stroke-width:.189489;paint-order:stroke fill markers;stop-color:#000" transform="translate(-2029.01 -131.046)"/>
</svg>
