<?xml version="1.0" encoding="UTF-8" standalone="no"?>
<!-- Created with Inkscape (http://www.inkscape.org/) -->

<svg
   width="111.96071mm"
   height="34.90741mm"
   viewBox="0 0 111.96071 34.90741"
   version="1.1"
   id="svg1"
   xml:space="preserve"
   xmlns="http://www.w3.org/2000/svg"
   xmlns:svg="http://www.w3.org/2000/svg"><defs
     id="defs1"><style
       id="style1">
      .cls-1, .cls-2 {
        font-family: ZagBold, 'Zag Bold';
        font-size: 96px;
      }

      .cls-3 {
        letter-spacing: -.16em;
      }

      .cls-4 {
        letter-spacing: -.02em;
      }

      .cls-2, .cls-5 {
        fill: #ff9200;
      }

      .cls-6 {
        letter-spacing: 0em;
      }

      .cls-7 {
        fill: gray;
      }

      .cls-7, .cls-5, .cls-8 {
        fill-rule: evenodd;
      }

      .cls-9 {
        letter-spacing: -.03em;
      }
    </style></defs><g
     id="layer1"
     transform="translate(-2029.0096,-131.04627)"><g
       id="g88"><g
         id="text80"
         style="font-size:20.4504px;line-height:0.8;font-family:'Zag Bold';-inkscape-font-specification:'Zag Bold, Normal';text-align:end;letter-spacing:-0.213025px;text-anchor:end;fill:#ff9200;stroke:#ff00ff;stroke-width:0.177966;stroke-linecap:round;stroke-linejoin:round;paint-order:stroke fill markers"
         aria-label="Water&#10;Dynamics"><path
           style="text-align:start;letter-spacing:-0.212193px;text-anchor:start;stroke:none"
           d="m 2081.7406,140.28843 0.2045,-3.12891 h 0.1841 l 0.2658,3.25162 0.8385,3.98782 c 0.1227,0.77712 0.6135,1.20658 1.1657,1.20658 0.5317,0 1.1247,-0.42946 1.2883,-1.16568 l 2.5359,-13.1905 h -1.861 l -1.5951,9.30493 -0.1636,3.25161 h -0.1841 l -0.1636,-2.8017 -0.7566,-4.49909 c -0.6136,-1.67693 -2.6586,-1.26793 -2.8427,0.0614 l -0.7362,4.29458 -0.184,3.04711 h -0.1636 l -0.2045,-3.31296 c -0.5931,-3.59927 -1.2271,-7.30079 -1.6974,-9.34583 h -1.7996 c 2.1881,11.49312 2.3517,12.35204 2.5154,13.21095 0.1636,0.73622 0.8384,1.12478 1.3292,1.12478 0.5317,0 1.1043,-0.40901 1.2066,-1.14523 z m 9.1541,5.39891 c 0.5113,0 1.5542,-0.30676 1.7587,-1.16567 l 0.1636,1.04297 h 1.3293 v -6.68728 c 0,-1.79964 -1.5133,-3.25162 -3.2516,-3.25162 -0.7976,0 -1.7587,0.44991 -2.4541,1.08387 l 0.8999,1.37018 c 0.5521,-0.53171 1.1452,-0.77712 1.5542,-0.77712 0.8794,0 1.5951,0.71577 1.5951,1.57469 l 0.041,0.85891 c -0.2249,-0.65441 -1.0225,-1.08387 -1.6769,-1.08387 -1.8814,0 -3.1903,1.47243 -3.1903,3.19026 v 0.57261 c 0,1.75874 1.4725,3.27207 3.2312,3.27207 z m -1.5747,-3.27207 v -0.57261 c 0,-0.87936 0.7158,-1.57468 1.5747,-1.57468 0.8794,0 1.5951,0.57261 1.5951,1.39063 v 1.00207 c 0,0.73621 -0.818,1.37018 -1.5951,1.37018 -0.8589,0 -1.5747,-0.73622 -1.5747,-1.61559 z m 8.2134,-6.72818 v -3.98782 h -1.636 v 10.5524 c 0,1.94279 1.7996,3.31297 3.8651,3.31297 v -1.63604 c -1.2066,0 -2.2291,-0.73621 -2.2291,-1.67693 v -4.90809 h 2.045 v -1.65649 z m 9.1541,3.16982 c 0,-1.79964 -1.4725,-3.25162 -3.2312,-3.25162 -1.8405,0 -3.2516,1.55423 -3.2516,3.27207 v 3.53791 c 0,1.86099 1.5133,3.23117 3.2516,3.23117 0.9407,0 2.1677,-0.38856 3.0471,-1.67693 l -1.3497,-0.98162 c -0.5113,0.71576 -1.2066,1.00207 -1.6974,1.00207 -0.8794,0 -1.5951,-0.71577 -1.5951,-1.57469 v -0.65441 h 1.5951 c 1.7383,0 3.2312,-1.04297 3.2312,-2.90395 z m -4.8263,1.61558 v -1.57468 c 0,-0.87937 0.7157,-1.61559 1.5951,-1.61559 0.8589,0 1.5747,0.71577 1.5747,1.57469 0,0.87936 -0.7158,1.61558 -1.5747,1.61558 z m 8.0702,5.09215 v -7.05539 c 0.1636,-1.34973 1.636,-1.51333 2.5972,-0.83847 l 0.5726,-1.49288 c -1.1043,-0.87936 -2.679,-0.85891 -3.2516,0.59306 l -0.1841,-1.00207 h -1.3702 v 9.79575 z"
           id="path59" /><path
           style="text-align:start;letter-spacing:0px;text-anchor:start;fill:#000000;stroke:none"
           d="m 2080.5749,149.30706 c 0.8794,0 1.6361,0.79757 1.6361,1.71783 v 7.52575 c 0,0.92027 -0.7567,1.67693 -1.6361,1.67693 h -2.7403 c 0,-3.70152 -0.021,-7.23944 -0.021,-10.92051 z m -3.1289,12.6179 h 3.1289 c 1.7383,0 3.3335,-1.43153 3.3335,-3.37432 v -7.5462 c 0,-1.82008 -1.5952,-3.39476 -3.3335,-3.39476 h -3.1289 c -0.7566,0 -1.3088,0.53171 -1.3088,1.30882 v 11.67718 c 0,0.69531 0.4908,1.32928 1.3088,1.32928 z"
           id="path60" /><path
           style="text-align:start;letter-spacing:-0.190024px;text-anchor:start;fill:#000000;stroke:none"
           d="m 2092.2521,162.72252 v -10.63421 h -1.6564 v 7.03494 c 0,0.79757 -0.7158,1.22703 -1.5338,1.22703 -0.8589,0.0205 -1.6361,-0.67487 -1.6361,-1.51333 v -6.74864 h -1.6564 v 6.74864 c 0,1.77918 1.5542,3.25161 3.2925,3.14936 0.409,-0.0205 1.2679,-0.30676 1.5338,-1.06342 v 1.79963 c 0,0.85892 -0.7158,1.55423 -1.5543,1.55423 -0.4294,0 -1.0838,-0.2863 -1.6565,-0.75666 l -1.0838,1.24747 c 0.818,0.67486 1.9428,1.18612 2.7403,1.18612 1.7179,0 3.1903,-1.39062 3.2107,-3.23116 z m 5.0044,-9.10043 c 0.8794,0 1.6156,0.73622 1.6156,1.59513 v 6.70774 h 1.6565 v -6.70774 c 0,-1.69738 -1.4724,-3.35386 -3.2516,-3.25161 -0.5522,0.0409 -1.3498,0.24541 -1.7179,1.10432 l -0.2249,-1.00207 h -1.3088 v 9.8571 h 1.6564 v -6.70774 c 0,-0.85891 0.7158,-1.59513 1.5747,-1.59513 z m 7.9083,8.42557 c 0.5113,0 1.5543,-0.30676 1.7588,-1.16567 l 0.1636,1.04297 h 1.3293 v -6.68728 c 0,-1.79964 -1.5134,-3.25162 -3.2517,-3.25162 -0.7975,0 -1.7587,0.44991 -2.454,1.08387 l 0.8998,1.37018 c 0.5522,-0.53171 1.1452,-0.77712 1.5542,-0.77712 0.8794,0 1.5952,0.71577 1.5952,1.57469 l 0.041,0.85891 c -0.225,-0.65441 -1.0225,-1.08387 -1.677,-1.08387 -1.8814,0 -3.1902,1.47243 -3.1902,3.19026 v 0.57261 c 0,1.75874 1.4724,3.27207 3.2311,3.27207 z m -1.5746,-3.27207 v -0.57261 c 0,-0.87936 0.7157,-1.57468 1.5746,-1.57468 0.8794,0 1.5952,0.57261 1.5952,1.39063 v 1.00207 c 0,0.73621 -0.818,1.37018 -1.5952,1.37018 -0.8589,0 -1.5746,-0.73622 -1.5746,-1.61559 z m 8.2355,-3.55837 c 0,-0.85891 0.6953,-1.59513 1.5747,-1.59513 0.8998,0 1.6156,0.73622 1.6156,1.59513 v 6.70774 h 1.636 v -6.70774 c 0,-2.12684 3.2107,-2.22909 3.1903,0 v 6.70774 h 1.636 v -6.70774 c 0,-1.82008 -1.4315,-3.25161 -3.1903,-3.25161 -0.9407,0 -1.9428,0.36811 -2.4336,1.63603 -0.5112,-1.26792 -1.5951,-1.65648 -2.4131,-1.63603 -0.5931,0.0205 -1.3497,0.28631 -1.7587,1.08387 l -0.2045,-0.96117 h -1.2884 v 9.83665 h 1.636 z m 12.9391,-6.31917 c -0.5317,0 -1.002,0.40901 -1.002,1.04297 0,0.59306 0.4703,1.02252 1.002,1.02252 0.5522,0 1.0635,-0.42946 1.0635,-1.02252 0,-0.63396 -0.5113,-1.04297 -1.0635,-1.04297 z m 0.8385,3.19026 h -1.636 v 9.83665 h 1.636 z m 6.3746,6.11467 c 0,1.18613 -0.7158,2.16775 -1.5747,2.16775 -0.8794,0 -1.6156,-0.71577 -1.6156,-1.59514 v -3.55837 c 0,-0.85891 0.7362,-1.57468 1.6156,-1.57468 0.8589,0 1.5747,0.92027 1.5747,2.1473 h 1.6564 c -0.02,-2.1473 -1.5133,-3.82423 -3.2311,-3.82423 -1.7588,0 -3.2721,1.41108 -3.2721,3.25161 v 3.55837 c 0,1.75874 1.4929,3.25162 3.2721,3.25162 1.8201,0 3.2107,-1.73829 3.2311,-3.82423 z m 8.9513,-4.39683 c -0.8385,-1.26793 -1.9428,-1.84054 -2.9858,-1.84054 -1.636,0 -3.2516,1.12477 -3.2312,3.12891 0,1.90189 1.3702,2.61765 3.0676,2.65855 0.7976,0.0204 1.5338,0.42946 1.5338,1.28838 0,0.89982 -0.7771,1.37018 -1.5951,1.37018 -0.634,0 -1.3498,-0.36811 -1.8201,-1.14523 l -1.4111,0.75667 c 0.7567,1.32927 2.1064,2.04504 3.2107,2.04504 1.636,0 3.2925,-0.96117 3.2721,-3.02666 0,-1.96324 -1.5543,-2.92441 -3.1698,-2.96531 -0.7976,-0.0205 -1.452,-0.2454 -1.4316,-0.98162 0,-0.42946 0.1636,-0.75666 0.3681,-0.98162 0.3068,-0.3272 0.7567,-0.53171 1.2271,-0.53171 0.4499,0 1.0429,0.40901 1.5746,1.14523 z"
           id="path61" /></g><path
         style="font-size:96px;font-family:ZagBold, 'Zag Bold';baseline-shift:baseline;display:inline;overflow:visible;vector-effect:none;fill:#808080;fill-opacity:1;stroke-width:0.228116;stroke-linecap:round;paint-order:stroke fill markers;enable-background:accumulate;stop-color:#000000"
         d="m 2065.7107,131.05047 c -3.1934,-0.0312 -5.8148,2.54126 -5.8458,5.73272 l -5e-4,0.0209 c -0.1541,2.13669 -0.9659,3.79026 -2.7153,5.08013 -1.1072,0.78082 -2.4666,1.23499 -3.7874,1.22212 -0.571,-0.006 -1.0829,-0.076 -1.6419,-0.23637 -0.7273,-0.18048 -1.4579,-0.41699 -2.2456,-0.42937 -0.6251,-0.006 -1.2488,0.0906 -1.8484,0.28541 -1.4898,0.48519 -2.654,1.47987 -3.3635,2.87592 -0.6003,1.17958 -0.778,2.44937 -0.5276,3.71212 0.4966,2.66035 2.8225,4.6913 5.6287,4.71858 0.7928,0.008 1.2134,-0.25809 2.21,-0.46613 0.5607,-0.11894 1.1575,-0.16632 1.7229,-0.14763 1.3436,0.0446 2.5725,0.48014 3.6855,1.29 1.6535,1.22515 2.7023,3.28826 2.6709,5.34569 -0.016,0.63401 0.055,1.08947 0.2571,1.70964 0.7707,2.36565 2.9597,3.97189 5.4451,3.99708 v 0 c 0.6266,0.006 1.247,-0.0884 1.8482,-0.28536 1.4647,-0.47855 2.659,-1.5001 3.3614,-2.88263 0.7024,-1.38243 0.8271,-2.95085 0.3486,-4.41561 -0.7708,-2.36633 -2.9614,-3.97301 -5.4477,-3.99712 -0.6194,-0.006 -1.2329,0.0889 -1.8277,0.27887 l -0.1145,0.0375 c -0.6522,0.20825 -1.3262,0.30609 -1.9968,0.29955 -1.3321,-0.0129 -2.6467,-0.44321 -3.7452,-1.25913 -1.6488,-1.22282 -2.6084,-3.16655 -2.5793,-5.21948 7e-4,-0.0537 6e-4,-0.10815 0,-0.16217 0.05,-2.01945 1.0534,-3.89912 2.7111,-5.06538 1.1072,-0.78082 2.4159,-1.1764 3.7367,-1.16354 0.698,0.007 1.3992,0.13032 2.0744,0.36993 0.5979,0.21135 1.2267,0.32162 1.8722,0.32821 3.1935,0.0311 5.8146,-2.54007 5.8459,-5.7332 0.031,-3.19338 -2.5397,-5.81426 -5.7331,-5.84545 z"
         id="path80" /><path
         style="baseline-shift:baseline;display:inline;overflow:visible;vector-effect:none;fill:#ff9200;fill-opacity:1;stroke-width:0.18949;paint-order:stroke fill markers;enable-background:accumulate;stop-color:#000000"
         d="m 2057.2579,134.76193 a 4.3192867,4.3192867 0 0 0 -5.6798,-2.24786 4.3192867,4.3192867 0 0 0 -2.2478,5.67977 4.3192867,4.3192867 0 0 0 5.6798,2.24786 4.3192867,4.3192867 0 0 0 2.2478,-5.67977 z"
         id="path85" /><path
         style="baseline-shift:baseline;display:inline;overflow:visible;vector-effect:none;fill:#ff9200;fill-opacity:1;stroke-width:0.18949;paint-order:stroke fill markers;enable-background:accumulate;stop-color:#000000"
         d="m 2046.7551,134.41874 a 5.183144,5.183144 0 0 0 -6.8158,-2.69743 5.183144,5.183144 0 0 0 -2.6974,6.81572 5.183144,5.183144 0 0 0 6.8158,2.69743 5.183144,5.183144 0 0 0 2.6974,-6.81572 z"
         id="path89" /><path
         style="baseline-shift:baseline;display:inline;overflow:visible;vector-effect:none;fill:#ff9200;fill-opacity:1;stroke-width:0.18949;paint-order:stroke fill markers;enable-background:accumulate;stop-color:#000000"
         d="m 2056.9145,158.61405 a 4.3192867,4.3192867 0 0 0 -5.6798,-2.24786 4.3192867,4.3192867 0 0 0 -2.2478,5.67977 4.3192867,4.3192867 0 0 0 5.6797,2.24786 4.3192867,4.3192867 0 0 0 2.2479,-5.67977 z"
         id="path84" /><path
         style="baseline-shift:baseline;display:inline;overflow:visible;vector-effect:none;fill:#ff9200;fill-opacity:1;stroke-width:0.18949;paint-order:stroke fill markers;enable-background:accumulate;stop-color:#000000"
         d="m 2046.7551,158.27084 a 5.183144,5.183144 0 0 0 -6.8158,-2.69743 5.183144,5.183144 0 0 0 -2.6974,6.81572 5.183144,5.183144 0 0 0 6.8158,2.69743 5.183144,5.183144 0 0 0 2.6974,-6.81572 z"
         id="path90" /><path
         style="baseline-shift:baseline;display:inline;overflow:visible;vector-effect:none;fill:#000000;fill-opacity:1;stroke-width:0.18949;paint-order:stroke fill markers;enable-background:accumulate;stop-color:#000000"
         d="m 2064.9484,147.03116 a 3.4554294,3.4554294 0 0 0 -4.5437,-1.79829 3.4554294,3.4554294 0 0 0 -1.7983,4.54382 3.4554294,3.4554294 0 0 0 4.5438,1.79829 3.4554294,3.4554294 0 0 0 1.7982,-4.54382 z"
         id="path86" /><path
         style="baseline-shift:baseline;display:inline;overflow:visible;vector-effect:none;fill:#ff9200;fill-opacity:1;stroke-width:0.189489;paint-order:stroke fill markers;enable-background:accumulate;stop-color:#000000"
         d="m 2040.6811,145.98603 a 6.0861937,6.0861937 0 0 0 -8.0033,-3.1674 6.0861937,6.0861937 0 0 0 -3.1673,8.00322 6.0861937,6.0861937 0 0 0 8.0033,3.1674 6.0861937,6.0861937 0 0 0 3.1673,-8.00322 z"
         id="path91" /></g></g></svg>
