<?xml version="1.0" encoding="UTF-8" standalone="no"?>
<!-- Created with Inkscape (http://www.inkscape.org/) -->

<svg
   width="104.39576mm"
   height="45.38287mm"
   viewBox="0 0 104.39576 45.38287"
   version="1.1"
   id="svg1"
   xml:space="preserve"
   xmlns="http://www.w3.org/2000/svg"
   xmlns:svg="http://www.w3.org/2000/svg"><defs
     id="defs1"><style
       id="style1">
      .cls-1, .cls-2 {
        font-family: ZagBold, 'Zag Bold';
        font-size: 96px;
      }

      .cls-3 {
        letter-spacing: -.16em;
      }

      .cls-4 {
        letter-spacing: -.02em;
      }

      .cls-2, .cls-5 {
        fill: #ff9200;
      }

      .cls-6 {
        letter-spacing: 0em;
      }

      .cls-7 {
        fill: gray;
      }

      .cls-7, .cls-5, .cls-8 {
        fill-rule: evenodd;
      }

      .cls-9 {
        letter-spacing: -.03em;
      }
    </style></defs><g
     id="layer1"
     transform="translate(-3361.1843,-125.80859)"><g
       id="g94"><path
         style="font-size:17.143px;line-height:0.8;font-family:'Zag Bold';-inkscape-font-specification:'Zag Bold, ';letter-spacing:0px;fill:#808080;stroke-width:0.177966;stroke-linecap:round;stroke-linejoin:round;paint-order:stroke fill markers"
         d="m 3409.0939,158.35577 v 9.22293 c 0,0.97715 -0.8742,1.49144 -1.8,1.49144 -0.8571,0 -1.7828,-0.58286 -1.8514,-1.49144 0,-0.96001 0,-7.23435 0,-9.22293 h -1.3886 v 9.22293 c 0,1.93716 1.5943,2.91431 3.2229,2.91431 1.6286,0 3.24,-0.97715 3.24,-2.91431 v -9.22293 z m 8.0401,5.19432 c -0.7028,-1.06286 -1.6286,-1.54287 -2.5029,-1.54287 -1.3714,0 -2.7257,0.94287 -2.7085,2.62288 0,1.5943 1.1485,2.19431 2.5714,2.22859 0.6686,0.0172 1.2857,0.36001 1.2857,1.08001 0,0.75429 -0.6514,1.14858 -1.3371,1.14858 -0.5315,0 -1.1315,-0.30857 -1.5258,-0.96 l -1.1828,0.63429 c 0.6343,1.11429 1.7657,1.7143 2.6914,1.7143 1.3715,0 2.7601,-0.80572 2.7429,-2.53717 0,-1.64573 -1.3029,-2.45145 -2.6572,-2.48573 -0.6685,-0.0171 -1.2171,-0.20572 -1.2,-0.82287 0,-0.36 0.1372,-0.63429 0.3086,-0.82286 0.2572,-0.27429 0.6343,-0.44572 1.0286,-0.44572 0.3771,0 0.8743,0.34286 1.32,0.96001 z m 6.7887,1.18287 c 0,-1.50858 -1.2343,-2.72574 -2.7086,-2.72574 -1.5429,0 -2.7258,1.30287 -2.7258,2.74288 v 2.96574 c 0,1.56002 1.2686,2.7086 2.7258,2.7086 0.7885,0 1.8171,-0.32572 2.5543,-1.40573 l -1.1315,-0.82286 c -0.4285,0.6 -1.0114,0.84 -1.4228,0.84 -0.7372,0 -1.3372,-0.6 -1.3372,-1.32001 v -0.54857 h 1.3372 c 1.4571,0 2.7086,-0.8743 2.7086,-2.43431 z m -4.0458,1.3543 v -1.32001 c 0,-0.73715 0.6,-1.3543 1.3372,-1.3543 0.72,0 1.32,0.60001 1.32,1.32001 0,0.73715 -0.6,1.3543 -1.32,1.3543 z m 6.9429,4.26861 v -5.91434 c 0.1372,-1.13144 1.3715,-1.26858 2.1772,-0.70286 l 0.48,-1.25144 c -0.9257,-0.73715 -2.2457,-0.72001 -2.7257,0.49715 l -0.1543,-0.84001 h -1.1486 v 8.2115 z m 11.2973,-5.36576 h 1.9543 v 2.58859 c -0.017,0.94286 -0.8915,1.45715 -1.8172,1.45715 -0.9257,0 -1.8514,-0.53143 -1.8514,-1.52572 v -6.39434 c 0,-0.97715 0.8914,-1.49144 1.8171,-1.49144 0.9086,0 1.8,0.66857 1.8,1.97144 h 1.44 c -0.017,-2.24573 -1.6285,-3.39431 -3.24,-3.39431 -1.6457,0 -3.2229,0.97715 -3.2229,2.91431 v 6.39434 c 0,1.9543 1.6115,2.94859 3.2572,2.94859 1.6286,0 3.24,-0.97715 3.24,-2.88002 v -2.91431 c 0,-0.63429 -0.4628,-1.08001 -1.1143,-1.08001 h -2.2628 z m 7.6114,5.45147 c 1.5601,0 2.6743,-1.25144 2.6743,-2.70859 v -5.62291 h -1.3714 v 5.62291 c 0,0.72 -0.5829,1.32001 -1.3029,1.32001 -0.7028,0 -1.2857,-0.60001 -1.2857,-1.32001 v -5.62291 h -1.3886 v 5.62291 c 0,1.45715 1.1658,2.70859 2.6743,2.70859 z m 5.0572,-11.00581 c -0.4457,0 -0.84,0.34286 -0.84,0.8743 0,0.49714 0.3943,0.85715 0.84,0.85715 0.4629,0 0.8915,-0.36001 0.8915,-0.85715 0,-0.53144 -0.4286,-0.8743 -0.8915,-0.8743 z m 0.7029,2.67431 h -1.3715 v 8.24579 h 1.3715 z m 4.2857,8.34864 c 0.5143,0 1.1143,-0.25714 1.4229,-0.96 l 0.2743,0.85715 h 1.0457 v -11.69153 h -1.3886 v 4.18289 c -0.3085,-0.56572 -0.8571,-0.77143 -1.32,-0.80572 -1.5257,-0.12 -2.76,1.25144 -2.76,2.64002 v 3.27432 c 0,1.42286 0.8571,2.50287 2.7257,2.50287 z m -1.3371,-5.77719 c 0,-0.70286 0.6343,-1.25144 1.3714,-1.25144 0.8572,0 1.3029,0.49715 1.32,1.18287 v 3.25717 c 0,0.60001 -0.5828,1.21715 -1.32,1.21715 -0.7543,0 -1.3714,-0.44571 -1.3714,-1.13143 z m 11.1429,0.0514 c 0,-1.50858 -1.2343,-2.72574 -2.7086,-2.72574 -1.5428,0 -2.7257,1.30287 -2.7257,2.74288 v 2.96574 c 0,1.56002 1.2686,2.7086 2.7257,2.7086 0.7886,0 1.8172,-0.32572 2.5543,-1.40573 l -1.1314,-0.82286 c -0.4286,0.6 -1.0114,0.84 -1.4229,0.84 -0.7371,0 -1.3371,-0.6 -1.3371,-1.32001 v -0.54857 h 1.3371 c 1.4572,0 2.7086,-0.8743 2.7086,-2.43431 z m -4.0457,1.3543 v -1.32001 c 0,-0.73715 0.6,-1.3543 1.3371,-1.3543 0.72,0 1.32,0.60001 1.32,1.32001 0,0.73715 -0.6,1.3543 -1.32,1.3543 z"
         id="text229"
         aria-label="User Guide" /><path
         style="font-size:18.6395px;font-family:'Zag Bold';-inkscape-font-specification:'Zag Bold, Normal';stroke-width:0.258219"
         d="m 3408.6426,134.75515 -0.093,1.00653 h -0.1119 l -0.093,-0.96925 c -0.5219,-1.93851 -0.9692,-3.83974 -1.603,-5.8528 -0.1677,-0.52191 -0.671,-0.83878 -1.1556,-0.83878 -0.5965,0 -1.3234,0.33551 -1.3048,1.11837 v 11.92928 h 1.5284 l -0.037,-9.0588 -0.1864,-2.49769 h 0.1304 l 0.3356,1.91987 1.4911,4.97674 c 0.2051,0.44735 0.5965,0.7083 0.932,0.7083 0.4287,0 0.8201,-0.27959 0.9692,-0.7083 0.4847,-1.49116 1.0252,-3.31783 1.5285,-4.88355 l 0.4287,-2.01306 h 0.2423 l -0.4287,2.59089 -0.056,8.70465 0.019,0.26095 h 1.5285 v -11.96656 c -0.037,-0.78286 -0.6711,-1.15565 -1.2302,-1.15565 -0.4474,0 -0.932,0.27959 -1.1371,0.85742 -0.3355,1.02517 -0.671,2.14354 -0.9879,3.24327 -0.2609,0.87606 -0.4659,1.77075 -0.7083,2.62817 z m 9.9349,-5.10722 c 0.8015,0 1.4911,0.72694 1.4911,1.56572 v 6.85933 c 0,0.83878 -0.6896,1.52844 -1.4911,1.52844 h -2.4977 c 0,-3.37375 -0.019,-6.59838 -0.019,-9.95349 z m -2.8519,11.50057 h 2.8519 c 1.5843,0 3.0382,-1.30477 3.0382,-3.07552 v -6.87797 c 0,-1.65892 -1.4539,-3.09416 -3.0382,-3.09416 h -2.8519 c -0.6896,0 -1.1929,0.48463 -1.1929,1.19293 v 10.64315 c 0,0.63374 0.4474,1.21157 1.1929,1.21157 z"
         id="text232"
         class="cls-1"
         aria-label="MD" /><path
         style="font-size:19.099px;font-family:'Zag Bold';-inkscape-font-specification:'Zag Bold, Normal';letter-spacing:0px;fill:#ff9200;stroke-width:0.264584"
         d="m 3411.2906,156.28343 h 1.6999 l -3.2278,-12.49074 c -0.1719,-0.61117 -0.7639,-1.03135 -1.2414,-1.03135 -0.4966,0 -1.0505,0.38198 -1.2796,1.06954 l -3.1705,12.45255 h 1.6616 c 0.1719,-0.70666 0.4202,-1.66161 1.1651,-4.56466 h 3.2086 z m -4.0108,-6.13078 c 0.3629,-1.52792 0.6303,-3.22773 1.0123,-4.75565 l 0.1528,-1.29873 h 0.1528 l 0.1337,1.29873 0.974,4.75565 z m 12.4908,-7.23852 0.076,9.26302 0.5538,2.52106 h -0.1145 l -3.9344,-11.11561 0.019,0.0382 c -0.095,-0.47747 -0.6685,-0.76396 -1.1269,-0.76396 -0.5539,0 -1.0886,0.42018 -1.0695,1.12685 v 12.29975 h 1.6234 l -0.076,-9.20572 -0.4584,-2.34917 0.2292,-0.0573 c 0.1719,0.49657 0.5539,2.34918 0.8977,3.26593 0.9931,2.59746 1.9099,5.30952 2.8648,7.6587 0.191,0.42018 0.7067,0.68756 1.0886,0.68756 0.5157,0 1.0123,-0.36288 1.0123,-1.08864 v -12.28066 z m 10.1607,13.3693 h 1.6998 l -3.2278,-12.49074 c -0.1719,-0.61117 -0.7639,-1.03135 -1.2414,-1.03135 -0.4966,0 -1.0504,0.38198 -1.2796,1.06954 l -3.1705,12.45255 h 1.6617 c 0.1718,-0.70666 0.4201,-1.66161 1.165,-4.56466 h 3.2086 z m -4.0108,-6.13078 c 0.3629,-1.52792 0.6302,-3.22773 1.0122,-4.75565 l 0.1528,-1.29873 h 0.1528 l 0.1337,1.29873 0.974,4.75565 z m 13.1401,6.13078 v -1.58522 h -4.622 l -0.019,-11.78408 h -1.6043 v 12.14697 c 0,0.74486 0.6685,1.26053 1.3178,1.22233 z m 5.6533,-13.3693 h -1.7189 c -0.4202,0.99315 -1.6998,4.35457 -2.1391,5.42412 -0.038,0.17189 -0.1337,0.89765 -0.1528,1.05044 l -0.1719,-1.03134 c -0.4966,-1.24144 -1.6043,-4.18268 -2.1582,-5.44322 h -1.6807 c 0.5348,1.31783 1.356,3.26593 1.9672,4.64106 0.4393,1.01225 0.8403,1.9672 1.2414,2.92215 v 5.80609 h 1.5852 v -5.7679 z m 0.3056,3.05584 v 1.10774 c 0.019,2.46377 1.6998,2.84575 3.3614,3.17044 1.0313,0.17189 2.1009,0.42018 2.1009,1.56612 v 1.37512 c 0,1.05045 -0.9932,1.62342 -1.9672,1.62342 -0.9932,0 -1.9481,-0.72576 -1.9481,-2.15819 h -1.547 c -0.019,2.48287 1.6807,3.76251 3.4951,3.76251 1.738,0 3.5333,-1.08865 3.5333,-3.22774 v -1.37512 c 0,-2.33008 -1.7953,-2.80756 -3.3423,-3.13224 -0.9359,-0.19099 -2.1391,-0.55387 -2.1391,-1.60432 v -1.10774 c 0,-1.05044 0.974,-1.62341 1.9672,-1.62341 0.974,0 1.9481,0.74486 1.9481,2.15818 h 1.5661 c 0,-2.46377 -1.7762,-3.7434 -3.5142,-3.7434 -1.7953,0 -3.5142,1.08864 -3.5142,3.20863 z m 10.3516,10.31346 v -13.3693 h -1.5852 v 13.3693 z m 1.7762,-10.31346 v 1.10774 c 0.019,2.46377 1.6998,2.84575 3.3614,3.17044 1.0314,0.17189 2.1009,0.42018 2.1009,1.56612 v 1.37512 c 0,1.05045 -0.9931,1.62342 -1.9672,1.62342 -0.9931,0 -1.9481,-0.72576 -1.9481,-2.15819 h -1.547 c -0.019,2.48287 1.6807,3.76251 3.4951,3.76251 1.738,0 3.5334,-1.08865 3.5334,-3.22774 v -1.37512 c 0,-2.33008 -1.7954,-2.80756 -3.3424,-3.13224 -0.9358,-0.19099 -2.1391,-0.55387 -2.1391,-1.60432 v -1.10774 c 0,-1.05044 0.9741,-1.62341 1.9672,-1.62341 0.9741,0 1.9481,0.74486 1.9481,2.15818 h 1.5662 c 0,-2.46377 -1.7763,-3.7434 -3.5143,-3.7434 -1.7953,0 -3.5142,1.08864 -3.5142,3.20863 z"
         id="text233"
         class="cls-2"
         aria-label="ANALYSIS" /><path
         style="font-size:96px;font-family:ZagBold, 'Zag Bold';baseline-shift:baseline;display:inline;overflow:visible;vector-effect:none;fill:#808080;fill-opacity:1;stroke-width:0.264584;stroke-linecap:round;paint-order:stroke fill markers;enable-background:accumulate;stop-color:#000000"
         d="m 3378.9031,159.86978 c 3.1334,0 5.6805,-2.54893 5.6805,-5.68001 v -0.0205 c 0.1307,-2.09769 0.9113,-3.72765 2.6153,-5.00986 1.0788,-0.77661 2.4082,-1.23516 3.704,-1.23516 0.5603,0 1.0631,0.0643 1.613,0.21657 0.7153,0.17032 1.4343,0.39522 2.2081,0.39522 0.6132,0 1.2242,-0.10074 1.8106,-0.29769 1.457,-0.49014 2.5897,-1.47713 3.2723,-2.85355 0.5777,-1.16303 0.7398,-2.41047 0.4821,-3.64693 -0.5126,-2.60516 -2.8138,-4.57539 -5.5672,-4.57539 -0.7778,0 -1.1879,0.26481 -2.1636,0.47844 -0.5489,0.12199 -1.134,0.17424 -1.6889,0.16124 -1.3187,-0.0309 -2.5284,-0.44641 -3.6281,-1.23035 -1.6338,-1.18618 -2.6825,-3.20023 -2.6714,-5.21897 0,-0.62219 -0.065,-1.0683 -0.2686,-1.67482 -0.7786,-2.3134 -2.9416,-3.86839 -5.3801,-3.86943 v 0 c -0.6148,2.1e-4 -1.2226,0.0987 -1.8106,0.29768 -1.4324,0.48343 -2.5942,1.49712 -3.2701,2.86011 -0.6759,1.363 -0.7833,2.90304 -0.2999,4.33541 0.7788,2.31417 2.9432,3.86943 5.3828,3.86943 0.6077,0 1.2087,-0.099 1.7904,-0.29112 l 0.1119,-0.038 c 0.6379,-0.21038 1.2982,-0.31299 1.9562,-0.31299 1.307,0 2.6008,0.40943 3.6862,1.19948 1.6294,1.18394 2.5893,3.08173 2.5804,5.096 -2e-4,0.053 4e-4,0.10606 0,0.15911 -0.029,1.98177 -0.9962,3.8355 -2.6114,4.99547 -1.0787,0.77661 -2.3589,1.17718 -3.6548,1.17718 -0.6848,0 -1.374,-0.11442 -2.0387,-0.34271 -0.5886,-0.20143 -1.2065,-0.30424 -1.8399,-0.30424 -3.1333,0 -5.6804,2.54713 -5.6804,5.68044 0,3.13332 2.5471,5.68001 5.6804,5.68001 z"
         id="path229" /><path
         style="baseline-shift:baseline;display:inline;overflow:visible;vector-effect:none;fill:#ff9200;fill-opacity:1;stroke-width:0.264584;paint-order:stroke fill markers;enable-background:accumulate;stop-color:#000000"
         d="m 3385.9192,131.35278 a 5.1015315,5.1015315 0 0 1 5.1015,-5.10153 5.1015315,5.1015315 0 0 1 5.1015,5.10153 5.1015315,5.1015315 0 0 1 -5.1015,5.10154 5.1015315,5.1015315 0 0 1 -5.1015,-5.10154 z"
         id="path231" /><path
         style="baseline-shift:baseline;display:inline;overflow:visible;vector-effect:none;fill:#ff9200;fill-opacity:1;stroke-width:0.264584;stroke-linecap:round;stroke-linejoin:round;paint-order:stroke fill markers;enable-background:accumulate;stop-color:#000000"
         d="m 3388.9909,154.22319 a 1.9121287,1.9121287 0 0 1 1.9121,-1.91213 1.9121287,1.9121287 0 0 1 1.9121,1.91213 1.9121287,1.9121287 0 0 1 -1.9121,1.91213 1.9121287,1.9121287 0 0 1 -1.9121,-1.91213 z"
         id="path232" /><path
         id="path236"
         class="cls-1"
         d="m 3382.689,171.19139 c -3.1333,0 -5.7455,-2.56094 -5.7455,-5.69202 v -0.0205 c 0.024,-2.15214 -0.988,-3.94812 -2.5449,-5.10118 -1.0965,-0.81136 -2.3992,-1.19065 -3.6796,-1.17521 -0.5603,0.007 -1.0988,0.0588 -1.6486,0.21105 -0.6826,0.17961 -1.4285,0.44412 -2.2023,0.44412 -0.6132,0 -1.2241,-0.10073 -1.8105,-0.29768 -1.457,-0.49014 -2.5897,-1.47713 -3.2723,-2.85355 -0.5778,-1.16303 -0.7399,-2.41047 -0.4822,-3.64694 0.5126,-2.60515 2.8139,-4.57539 5.5672,-4.57539 0.7778,0 1.4412,0.29441 2.1707,0.4632 0.5451,0.14901 1.1258,0.20123 1.6808,0.20123 1.3071,0 2.5849,-0.45642 3.6682,-1.24422 1.6106,-1.20935 2.5479,-3.01925 2.5985,-5.05344 0,-0.62218 0.099,-1.2447 0.3025,-1.85122 0.7785,-2.31341 2.9416,-3.8684 5.3801,-3.86943 v 0 c 0.6148,2.1e-4 1.2226,0.0987 1.8106,0.29768 1.4324,0.48343 2.5942,1.49712 3.2701,2.86011 0.6759,1.36299 0.7833,2.90303 0.2999,4.33541 -0.7788,2.31417 -2.9432,3.86943 -5.3828,3.86943 -0.6077,0 -1.2087,-0.099 -1.7904,-0.29113 l -0.1119,-0.038 c -0.6379,-0.21038 -1.2982,-0.31298 -1.9562,-0.31298 -1.307,0 -2.6008,0.40943 -3.6862,1.19947 -1.6294,1.18395 -2.5893,3.08173 -2.5804,5.09601 2e-4,0.053 -4e-4,0.10605 0,0.15911 0.029,1.98176 0.9962,3.83549 2.6114,4.99546 1.0788,0.77662 2.359,1.17718 3.6548,1.17718 0.6849,0 1.3741,-0.11442 2.0388,-0.3427 0.5886,-0.20143 1.2065,-0.30424 1.8398,-0.30424 3.1333,0 5.6805,2.54713 5.6805,5.68044 0,3.13331 -2.5472,5.68 -5.6805,5.68 z"
         style="font-size:96px;font-family:ZagBold, 'Zag Bold';display:inline;fill:#000000;fill-opacity:1;stroke-width:0px" /><path
         style="baseline-shift:baseline;display:inline;overflow:visible;vector-effect:none;fill:#ff9200;fill-opacity:1;stroke-width:0.264584;paint-order:stroke fill markers;enable-background:accumulate;stop-color:#000000"
         d="m 3367.7257,142.80082 a 2.9160715,2.9160715 0 0 1 2.9161,-2.91607 2.9160715,2.9160715 0 0 1 2.916,2.91607 2.9160715,2.9160715 0 0 1 -2.916,2.91607 2.9160715,2.9160715 0 0 1 -2.9161,-2.91607 z"
         id="path237" /><path
         style="baseline-shift:baseline;display:inline;overflow:visible;vector-effect:none;fill:#ff9200;fill-opacity:1;stroke-width:0.264584;stroke-linecap:round;paint-order:stroke fill markers;enable-background:accumulate;stop-color:#000000"
         d="m 3367.0572,165.33768 a 3.7521584,3.7521584 0 0 1 3.7521,-3.75216 3.7521584,3.7521584 0 0 1 3.7522,3.75216 3.7521584,3.7521584 0 0 1 -3.7522,3.75215 3.7521584,3.7521584 0 0 1 -3.7521,-3.75215 z"
         id="path238" /><path
         style="baseline-shift:baseline;display:inline;overflow:visible;vector-effect:none;fill:#ff9200;fill-opacity:1;stroke-width:0.264584;stroke-linecap:round;stroke-linejoin:round;paint-order:stroke fill markers;enable-background:accumulate;stop-color:#000000"
         d="m 3388.9424,154.2002 a 1.9121287,1.9121287 0 0 1 1.9121,-1.91213 1.9121287,1.9121287 0 0 1 1.9121,1.91213 1.9121287,1.9121287 0 0 1 -1.9121,1.91213 1.9121287,1.9121287 0 0 1 -1.9121,-1.91213 z"
         id="path239" /></g></g></svg>
