<svg xmlns="http://www.w3.org/2000/svg" xml:space="preserve" id="svg1" width="394.567" height="171.526" viewBox="0 0 104.396 45.383">
    <g id="layer1" transform="translate(-3361.184 -125.809)">
        <g id="g94">
            <path id="text229" d="M3409.094 158.356v9.223c0 .977-.874 1.491-1.8 1.491-.857 0-1.783-.583-1.852-1.491v-9.223h-1.388v9.223c0 1.937 1.594 2.914 3.223 2.914s3.24-.977 3.24-2.914v-9.223zm8.04 5.194c-.703-1.063-1.629-1.543-2.503-1.543-1.371 0-2.726.943-2.708 2.623 0 1.594 1.148 2.194 2.571 2.229.669.017 1.286.36 1.286 1.08 0 .754-.652 1.148-1.337 1.148-.532 0-1.132-.308-1.526-.96l-1.183.635c.634 1.114 1.766 1.714 2.691 1.714 1.372 0 2.76-.806 2.743-2.537 0-1.646-1.303-2.452-2.657-2.486-.668-.017-1.217-.206-1.2-.823 0-.36.137-.634.309-.823a1.43 1.43 0 0 1 1.028-.445c.377 0 .875.342 1.32.96zm6.789 1.183c0-1.509-1.235-2.726-2.709-2.726-1.543 0-2.726 1.303-2.726 2.743v2.966c0 1.56 1.269 2.708 2.726 2.708.789 0 1.817-.325 2.554-1.405l-1.131-.823c-.429.6-1.012.84-1.423.84-.737 0-1.337-.6-1.337-1.32v-.549h1.337c1.457 0 2.709-.874 2.709-2.434m-4.046 1.354v-1.32c0-.737.6-1.354 1.337-1.354.72 0 1.32.6 1.32 1.32 0 .737-.6 1.354-1.32 1.354zm6.943 4.269v-5.914c.137-1.132 1.371-1.27 2.177-.703l.48-1.252c-.926-.737-2.246-.72-2.726.497l-.154-.84h-1.149v8.212zm11.297-5.366h1.954v2.589c-.017.943-.891 1.457-1.817 1.457s-1.851-.532-1.851-1.526v-6.394c0-.977.891-1.492 1.817-1.492.909 0 1.8.669 1.8 1.972h1.44c-.017-2.246-1.629-3.395-3.24-3.395-1.646 0-3.223.978-3.223 2.915v6.394c0 1.954 1.612 2.949 3.257 2.949 1.629 0 3.24-.977 3.24-2.88v-2.915c0-.634-.463-1.08-1.114-1.08h-2.263zm7.612 5.452c1.56 0 2.674-1.252 2.674-2.709v-5.623h-1.372v5.623c0 .72-.582 1.32-1.302 1.32-.703 0-1.286-.6-1.286-1.32v-5.623h-1.389v5.623c0 1.457 1.166 2.709 2.674 2.709m5.057-11.006c-.446 0-.84.343-.84.874 0 .497.394.857.84.857.463 0 .891-.36.891-.857 0-.531-.428-.874-.891-.874m.703 2.674h-1.372v8.246h1.372zm4.285 8.349c.515 0 1.115-.257 1.423-.96l.275.857h1.045v-11.692h-1.388v4.183c-.309-.565-.857-.771-1.32-.805-1.526-.12-2.76 1.25-2.76 2.64v3.274c0 1.423.857 2.503 2.725 2.503m-1.337-5.777c0-.703.635-1.252 1.372-1.252.857 0 1.303.497 1.32 1.183v3.257c0 .6-.583 1.217-1.32 1.217-.755 0-1.372-.445-1.372-1.131zm11.143.05c0-1.508-1.234-2.725-2.708-2.725-1.543 0-2.726 1.303-2.726 2.743v2.966c0 1.56 1.268 2.708 2.726 2.708.788 0 1.817-.325 2.554-1.405l-1.132-.823c-.428.6-1.011.84-1.423.84-.737 0-1.337-.6-1.337-1.32v-.549h1.337c1.458 0 2.71-.874 2.71-2.434m-4.046 1.355v-1.32c0-.737.6-1.354 1.337-1.354.72 0 1.32.6 1.32 1.32 0 .737-.6 1.354-1.32 1.354z" aria-label="User Guide" style="fill:gray;stroke-width:.177966;stroke-linecap:round;stroke-linejoin:round;paint-order:stroke fill markers"/>
            <path id="text232" d="m3408.643 134.755-.093 1.007h-.112l-.093-.97c-.522-1.938-.97-3.84-1.603-5.852a1.23 1.23 0 0 0-1.156-.84c-.596 0-1.323.336-1.305 1.12v11.928h1.529l-.037-9.058-.187-2.498h.13l.336 1.92 1.491 4.977c.206.447.597.708.932.708.43 0 .82-.28.97-.708.484-1.492 1.025-3.318 1.528-4.884l.429-2.013h.242l-.429 2.59-.056 8.706.02.26h1.528v-11.966c-.037-.783-.671-1.156-1.23-1.156-.448 0-.932.28-1.137.858a97 97 0 0 0-.988 3.243c-.261.876-.466 1.77-.709 2.628zm9.935-5.107c.801 0 1.49.727 1.49 1.566v6.859c0 .839-.689 1.528-1.49 1.528h-2.498c0-3.373-.02-6.598-.02-9.953zm-2.852 11.5h2.852a3.07 3.07 0 0 0 3.038-3.075v-6.878c0-1.659-1.454-3.094-3.038-3.094h-2.852c-.69 0-1.193.484-1.193 1.193v10.643c0 .634.447 1.211 1.193 1.211" aria-label="MD" class="cls-1" style="stroke-width:.258219"/>
            <path id="text233" d="M3411.29 156.283h1.7l-3.227-12.49c-.172-.611-.764-1.032-1.242-1.032-.496 0-1.05.382-1.28 1.07l-3.17 12.452h1.662c.172-.706.42-1.661 1.165-4.564h3.208zm-4.01-6.13c.363-1.528.63-3.228 1.012-4.756l.153-1.299h.153l.133 1.299.974 4.756zm12.49-7.239.077 9.263.553 2.521h-.114l-3.935-11.115.02.038c-.096-.478-.669-.764-1.127-.764-.554 0-1.089.42-1.07 1.127v12.3h1.623l-.076-9.206-.458-2.35.23-.057c.171.497.553 2.35.897 3.266.993 2.598 1.91 5.31 2.865 7.659.19.42.706.687 1.088.687.516 0 1.013-.362 1.013-1.088v-12.28zm10.161 13.37h1.7l-3.228-12.491c-.172-.611-.764-1.032-1.241-1.032-.497 0-1.05.382-1.28 1.07l-3.17 12.452h1.661c.172-.706.42-1.661 1.165-4.564h3.21zm-4.01-6.131c.362-1.528.63-3.228 1.012-4.756l.152-1.299h.153l.134 1.299.974 4.756zm13.14 6.13v-1.585h-4.622l-.02-11.784h-1.604v12.147c0 .745.669 1.26 1.318 1.222zm5.653-13.369h-1.719c-.42.993-1.7 4.355-2.14 5.424a24 24 0 0 0-.152 1.05l-.172-1.03c-.496-1.242-1.604-4.183-2.158-5.444h-1.68a177 177 0 0 0 1.967 4.641c.439 1.012.84 1.967 1.24 2.922v5.806h1.586v-5.767zm.305 3.056v1.108c.02 2.463 1.7 2.845 3.362 3.17 1.031.172 2.1.42 2.1 1.566v1.375c0 1.05-.992 1.624-1.966 1.624-.994 0-1.949-.726-1.949-2.158h-1.547c-.019 2.482 1.681 3.762 3.496 3.762 1.738 0 3.533-1.089 3.533-3.228v-1.375c0-2.33-1.795-2.807-3.342-3.132-.936-.191-2.14-.554-2.14-1.604v-1.108c0-1.05.975-1.623 1.968-1.623.974 0 1.948.744 1.948 2.158h1.566c0-2.464-1.776-3.744-3.514-3.744-1.796 0-3.515 1.089-3.515 3.209m10.352 10.313v-13.369h-1.585v13.37zm1.776-10.313v1.108c.02 2.463 1.7 2.845 3.362 3.17 1.031.172 2.1.42 2.1 1.566v1.375c0 1.05-.993 1.624-1.967 1.624-.993 0-1.948-.726-1.948-2.158h-1.547c-.019 2.482 1.681 3.762 3.495 3.762 1.738 0 3.534-1.089 3.534-3.228v-1.375c0-2.33-1.796-2.807-3.343-3.132-.935-.191-2.139-.554-2.139-1.604v-1.108c0-1.05.974-1.623 1.967-1.623.975 0 1.949.744 1.949 2.158h1.566c0-2.464-1.777-3.744-3.515-3.744-1.795 0-3.514 1.089-3.514 3.209" aria-label="ANALYSIS" style="fill:#ff9200;stroke-width:.264584"/>
            <path id="path229" d="M3378.903 159.87a5.687 5.687 0 0 0 5.68-5.68v-.02c.131-2.098.912-3.728 2.616-5.01 1.079-.777 2.408-1.236 3.704-1.236.56 0 1.063.065 1.613.217.715.17 1.434.395 2.208.395.613 0 1.224-.1 1.81-.298a5.56 5.56 0 0 0 3.273-2.853 5.54 5.54 0 0 0 .482-3.647 5.68 5.68 0 0 0-5.567-4.576c-.778 0-1.188.265-2.164.479a7 7 0 0 1-1.689.161c-1.318-.03-2.528-.446-3.628-1.23-1.634-1.186-2.682-3.2-2.671-5.22a4.8 4.8 0 0 0-.269-1.674 5.68 5.68 0 0 0-5.38-3.87c-.615 0-1.222.1-1.81.298a5.64 5.64 0 0 0-3.27 2.86 5.64 5.64 0 0 0-.3 4.336 5.677 5.677 0 0 0 7.173 3.578l.112-.038a6.263 6.263 0 0 1 5.642.886 6.27 6.27 0 0 1 2.58 5.097v.159a6.26 6.26 0 0 1-2.611 4.995 6.25 6.25 0 0 1-5.693.835 5.685 5.685 0 0 0-7.52 5.376 5.685 5.685 0 0 0 5.68 5.68z" style="fill:gray;fill-opacity:1;stroke-width:.264584;stroke-linecap:round;paint-order:stroke fill markers;stop-color:#000"/>
            <path id="path231" d="M3385.92 131.353a5.1 5.1 0 0 1 5.1-5.102 5.1 5.1 0 0 1 5.102 5.102 5.1 5.1 0 0 1-5.101 5.101 5.1 5.1 0 0 1-5.102-5.101" style="baseline-shift:baseline;display:inline;overflow:visible;vector-effect:none;fill:#ff9200;fill-opacity:1;stroke-width:.264584;paint-order:stroke fill markers;stop-color:#000"/>
            <path id="path232" d="M3388.99 154.223a1.91 1.91 0 0 1 1.913-1.912 1.91 1.91 0 0 1 1.912 1.912 1.91 1.91 0 0 1-1.912 1.912 1.91 1.91 0 0 1-1.912-1.912" style="baseline-shift:baseline;display:inline;overflow:visible;vector-effect:none;fill:#ff9200;fill-opacity:1;stroke-width:.264584;stroke-linecap:round;stroke-linejoin:round;paint-order:stroke fill markers;stop-color:#000"/>
            <path id="path236" d="M3382.689 171.191c-3.133 0-5.745-2.56-5.745-5.692v-.02c.023-2.152-.989-3.948-2.545-5.101a6.05 6.05 0 0 0-3.68-1.176 6.4 6.4 0 0 0-1.649.212c-.682.18-1.428.444-2.202.444-.613 0-1.224-.101-1.81-.298a5.56 5.56 0 0 1-3.273-2.854 5.54 5.54 0 0 1-.482-3.647 5.68 5.68 0 0 1 5.567-4.575c.778 0 1.442.294 2.171.463a6.4 6.4 0 0 0 1.68.202c1.308 0 2.586-.457 3.669-1.245a6.43 6.43 0 0 0 2.599-5.053c0-.622.099-1.245.302-1.851a5.68 5.68 0 0 1 5.38-3.87c.615 0 1.223.099 1.81.298a5.64 5.64 0 0 1 3.27 2.86 5.64 5.64 0 0 1 .3 4.335 5.677 5.677 0 0 1-7.172 3.579l-.112-.038a6.263 6.263 0 0 0-5.642.886 6.27 6.27 0 0 0-2.581 5.096v.16a6.26 6.26 0 0 0 2.611 4.995 6.25 6.25 0 0 0 5.694.834 5.686 5.686 0 0 1 7.52 5.376 5.685 5.685 0 0 1-5.68 5.68z" class="cls-1" style="font-size:96px;font-family:ZagBold,&quot;Zag Bold&quot;;display:inline;fill:#000;fill-opacity:1;stroke-width:0"/>
            <path id="path237" d="M3367.726 142.8a2.916 2.916 0 0 1 2.916-2.915 2.916 2.916 0 0 1 2.916 2.916 2.916 2.916 0 0 1-2.916 2.916 2.916 2.916 0 0 1-2.916-2.916" style="baseline-shift:baseline;display:inline;overflow:visible;vector-effect:none;fill:#ff9200;fill-opacity:1;stroke-width:.264584;paint-order:stroke fill markers;stop-color:#000"/>
            <path id="path238" d="M3367.057 165.338a3.75 3.75 0 0 1 3.752-3.752 3.75 3.75 0 0 1 3.753 3.752 3.75 3.75 0 0 1-3.753 3.752 3.75 3.75 0 0 1-3.752-3.752" style="baseline-shift:baseline;display:inline;overflow:visible;vector-effect:none;fill:#ff9200;fill-opacity:1;stroke-width:.264584;stroke-linecap:round;paint-order:stroke fill markers;stop-color:#000"/>
            <path id="path239" d="M3388.942 154.2a1.91 1.91 0 0 1 1.912-1.912 1.91 1.91 0 0 1 1.913 1.912 1.91 1.91 0 0 1-1.912 1.912 1.91 1.91 0 0 1-1.913-1.912" style="baseline-shift:baseline;display:inline;overflow:visible;vector-effect:none;fill:#ff9200;fill-opacity:1;stroke-width:.264584;stroke-linecap:round;stroke-linejoin:round;paint-order:stroke fill markers;stop-color:#000"/>
        </g>
    </g>
</svg>
