<?xml version="1.0" encoding="UTF-8" standalone="no"?>
<!-- Created with Inkscape (http://www.inkscape.org/) -->

<svg
   width="105.9338mm"
   height="45.38287mm"
   viewBox="0 0 105.9338 45.38287"
   version="1.1"
   id="svg1"
   xml:space="preserve"
   xmlns="http://www.w3.org/2000/svg"
   xmlns:svg="http://www.w3.org/2000/svg"><defs
     id="defs1"><style
       id="style1">
      .cls-1, .cls-2 {
        font-family: ZagBold, 'Zag Bold';
        font-size: 96px;
      }

      .cls-3 {
        letter-spacing: -.16em;
      }

      .cls-4 {
        letter-spacing: -.02em;
      }

      .cls-2, .cls-5 {
        fill: #ff9200;
      }

      .cls-6 {
        letter-spacing: 0em;
      }

      .cls-7 {
        fill: gray;
      }

      .cls-7, .cls-5, .cls-8 {
        fill-rule: evenodd;
      }

      .cls-9 {
        letter-spacing: -.03em;
      }
    </style></defs><g
     id="layer1"
     transform="translate(-3132.0327,-125.80853)"><g
       id="g93"><path
         style="font-size:17.143px;line-height:0.8;font-family:'Zag Bold';-inkscape-font-specification:'Zag Bold, ';letter-spacing:0px;fill:#808080;stroke-width:0.177966;stroke-linecap:round;stroke-linejoin:round;paint-order:stroke fill markers"
         d="m 3181.5818,159.77863 c 0.7372,0 1.3715,0.66858 1.3715,1.44002 v 6.30862 c 0,0.77144 -0.6343,1.40573 -1.3715,1.40573 h -2.2971 c 0,-3.10289 -0.017,-6.06863 -0.017,-9.15437 z m -2.6228,10.57724 h 2.6228 c 1.4572,0 2.7944,-1.20001 2.7944,-2.8286 v -6.32577 c 0,-1.52572 -1.3372,-2.84573 -2.7944,-2.84573 h -2.6228 c -0.6343,0 -1.0972,0.44571 -1.0972,1.09715 v 9.78865 c 0,0.58286 0.4114,1.1143 1.0972,1.1143 z m 12.4801,0 h 1.5257 l -2.8972,-11.21153 c -0.1543,-0.54857 -0.6857,-0.92572 -1.1143,-0.92572 -0.4457,0 -0.9428,0.34286 -1.1485,0.96001 l -2.8458,11.17724 h 1.4915 c 0.1542,-0.6343 0.3771,-1.49145 1.0457,-4.09718 h 2.88 z m -3.6001,-5.50291 c 0.3258,-1.37144 0.5658,-2.89716 0.9086,-4.2686 l 0.1372,-1.16573 h 0.1371 l 0.12,1.16573 0.8743,4.2686 z m 4.1829,-6.49719 v 1.42286 h 2.7429 v 10.57724 h 1.4057 v -10.57724 h 2.8115 v -1.42286 z m 12.5658,12.0001 h 1.5257 l -2.8971,-11.21153 c -0.1543,-0.54857 -0.6857,-0.92572 -1.1143,-0.92572 -0.4457,0 -0.9429,0.34286 -1.1486,0.96001 l -2.8457,11.17724 h 1.4914 c 0.1543,-0.6343 0.3772,-1.49145 1.0457,-4.09718 h 2.8801 z m -3.6,-5.50291 c 0.3257,-1.37144 0.5657,-2.89716 0.9086,-4.2686 l 0.1371,-1.16573 h 0.1372 l 0.12,1.16573 0.8743,4.2686 z"
         id="text195"
         aria-label="DATA" /><path
         style="font-size:96px;font-family:ZagBold, 'Zag Bold';baseline-shift:baseline;display:inline;overflow:visible;vector-effect:none;fill:#808080;fill-opacity:1;stroke-width:0.264584;stroke-linecap:round;paint-order:stroke fill markers;enable-background:accumulate;stop-color:#000000"
         d="m 3156.48,137.13021 c -3.1334,0 -5.6805,2.54893 -5.6805,5.68001 v 0.0205 c -0.1307,2.09769 -0.9113,3.72765 -2.6153,5.00986 -1.0788,0.77661 -2.4082,1.23516 -3.704,1.23516 -0.5603,0 -1.0631,-0.0643 -1.613,-0.21657 -0.7153,-0.17032 -1.4343,-0.39522 -2.2081,-0.39522 -0.6132,0 -1.2242,0.10074 -1.8106,0.29769 -1.457,0.49014 -2.5897,1.47713 -3.2723,2.85355 -0.5777,1.16303 -0.7398,2.41047 -0.4821,3.64693 0.5126,2.60516 2.8138,4.57539 5.5672,4.57539 0.7778,0 1.1879,-0.26481 2.1636,-0.47844 0.5489,-0.12199 1.134,-0.17424 1.6889,-0.16124 1.3187,0.0309 2.5284,0.44641 3.6281,1.23035 1.6338,1.18618 2.6825,3.20023 2.6714,5.21897 0,0.62219 0.065,1.0683 0.2686,1.67482 0.7786,2.3134 2.9416,3.86839 5.3801,3.86943 v 0 c 0.6148,-2.1e-4 1.2226,-0.0987 1.8106,-0.29768 1.4324,-0.48343 2.5942,-1.49712 3.2701,-2.86011 0.6759,-1.363 0.7833,-2.90304 0.2999,-4.33541 -0.7788,-2.31417 -2.9432,-3.86943 -5.3828,-3.86943 -0.6077,0 -1.2087,0.099 -1.7904,0.29112 l -0.1119,0.038 c -0.6379,0.21038 -1.2982,0.31299 -1.9562,0.31299 -1.307,0 -2.6008,-0.40943 -3.6862,-1.19948 -1.6294,-1.18394 -2.5893,-3.08173 -2.5804,-5.096 2e-4,-0.053 -4e-4,-0.10606 0,-0.15911 0.029,-1.98177 0.9962,-3.8355 2.6114,-4.99547 1.0787,-0.77661 2.3589,-1.17718 3.6548,-1.17718 0.6848,0 1.374,0.11442 2.0387,0.34271 0.5886,0.20143 1.2065,0.30424 1.8399,0.30424 3.1333,0 5.6804,-2.54713 5.6804,-5.68044 0,-3.13332 -2.5471,-5.68001 -5.6804,-5.68001 z"
         id="path195" /><path
         style="baseline-shift:baseline;display:inline;overflow:visible;vector-effect:none;fill:#ff9200;fill-opacity:1;stroke-width:0.264584;paint-order:stroke fill markers;enable-background:accumulate;stop-color:#000000"
         d="m 3155.4297,154.17618 a 2.9160715,2.9160715 0 0 1 -2.9161,2.91607 2.9160715,2.9160715 0 0 1 -2.916,-2.91607 2.9160715,2.9160715 0 0 1 2.916,-2.91607 2.9160715,2.9160715 0 0 1 2.9161,2.91607 z"
         id="path196" /><path
         style="baseline-shift:baseline;display:inline;overflow:visible;vector-effect:none;fill:#ff9200;fill-opacity:1;stroke-width:0.264584;paint-order:stroke fill markers;enable-background:accumulate;stop-color:#000000"
         d="m 3149.4639,165.64721 a 5.1015315,5.1015315 0 0 1 -5.1015,5.10153 5.1015315,5.1015315 0 0 1 -5.1015,-5.10153 5.1015315,5.1015315 0 0 1 5.1015,-5.10154 5.1015315,5.1015315 0 0 1 5.1015,5.10154 z"
         id="path198" /><path
         style="baseline-shift:baseline;display:inline;overflow:visible;vector-effect:none;fill:#ff9200;fill-opacity:1;stroke-width:0.264584;stroke-linecap:round;stroke-linejoin:round;paint-order:stroke fill markers;enable-background:accumulate;stop-color:#000000"
         d="m 3146.3922,142.7768 a 1.9121287,1.9121287 0 0 1 -1.9121,1.91213 1.9121287,1.9121287 0 0 1 -1.9121,-1.91213 1.9121287,1.9121287 0 0 1 1.9121,-1.91213 1.9121287,1.9121287 0 0 1 1.9121,1.91213 z"
         id="path199" /><path
         style="font-size:18.6395px;font-family:'Zag Bold';-inkscape-font-specification:'Zag Bold, Normal';stroke-width:0.258219"
         d="m 3182.4334,134.75515 -0.093,1.00653 h -0.1118 l -0.093,-0.96925 c -0.5219,-1.93851 -0.9693,-3.83974 -1.603,-5.8528 -0.1678,-0.52191 -0.671,-0.83878 -1.1557,-0.83878 -0.5964,0 -1.3234,0.33551 -1.3047,1.11837 v 11.92928 h 1.5284 l -0.037,-9.0588 -0.1864,-2.49769 h 0.1305 l 0.3355,1.91987 1.4912,4.97674 c 0.205,0.44735 0.5965,0.7083 0.932,0.7083 0.4287,0 0.8201,-0.27959 0.9692,-0.7083 0.4846,-1.49116 1.0252,-3.31783 1.5285,-4.88355 l 0.4287,-2.01306 h 0.2423 l -0.4287,2.59089 -0.056,8.70465 0.019,0.26095 h 1.5284 v -11.96656 c -0.037,-0.78286 -0.671,-1.15565 -1.2302,-1.15565 -0.4473,0 -0.932,0.27959 -1.137,0.85742 -0.3355,1.02517 -0.671,2.14354 -0.9879,3.24327 -0.2609,0.87606 -0.466,1.77075 -0.7083,2.62817 z m 9.9349,-5.10722 c 0.8015,0 1.4911,0.72694 1.4911,1.56572 v 6.85933 c 0,0.83878 -0.6896,1.52844 -1.4911,1.52844 h -2.4977 c 0,-3.37375 -0.019,-6.59838 -0.019,-9.95349 z m -2.8519,11.50057 h 2.8519 c 1.5843,0 3.0382,-1.30477 3.0382,-3.07552 v -6.87797 c 0,-1.65892 -1.4539,-3.09416 -3.0382,-3.09416 h -2.8519 c -0.6896,0 -1.1929,0.48463 -1.1929,1.19293 v 10.64315 c 0,0.63374 0.4473,1.21157 1.1929,1.21157 z"
         id="text200"
         class="cls-1"
         aria-label="MD" /><path
         style="font-size:19.099px;font-family:'Zag Bold';-inkscape-font-specification:'Zag Bold, Normal';letter-spacing:0px;fill:#ff9200;stroke-width:0.264584"
         d="m 3185.0814,156.28343 h 1.6998 l -3.2277,-12.49074 c -0.1719,-0.61117 -0.764,-1.03135 -1.2414,-1.03135 -0.4966,0 -1.0505,0.38198 -1.2797,1.06954 l -3.1704,12.45255 h 1.6616 c 0.1719,-0.70666 0.4202,-1.66161 1.165,-4.56466 h 3.2087 z m -4.0108,-6.13078 c 0.3629,-1.52792 0.6303,-3.22773 1.0123,-4.75565 l 0.1528,-1.29873 h 0.1528 l 0.1336,1.29873 0.9741,4.75565 z m 12.4907,-7.23852 0.076,9.26302 0.5539,2.52106 h -0.1146 l -3.9344,-11.11561 0.019,0.0382 c -0.095,-0.47747 -0.6684,-0.76396 -1.1268,-0.76396 -0.5539,0 -1.0887,0.42018 -1.0696,1.12685 v 12.29975 h 1.6235 l -0.076,-9.20572 -0.4584,-2.34917 0.2292,-0.0573 c 0.1719,0.49657 0.5538,2.34918 0.8976,3.26593 0.9932,2.59746 1.9099,5.30952 2.8649,7.6587 0.191,0.42018 0.7066,0.68756 1.0886,0.68756 0.5157,0 1.0123,-0.36288 1.0123,-1.08864 v -12.28066 z m 10.1607,13.3693 h 1.6998 l -3.2277,-12.49074 c -0.1719,-0.61117 -0.7639,-1.03135 -1.2414,-1.03135 -0.4966,0 -1.0505,0.38198 -1.2797,1.06954 l -3.1704,12.45255 h 1.6616 c 0.1719,-0.70666 0.4202,-1.66161 1.1651,-4.56466 h 3.2086 z m -4.0108,-6.13078 c 0.3629,-1.52792 0.6303,-3.22773 1.0123,-4.75565 l 0.1528,-1.29873 h 0.1528 l 0.1337,1.29873 0.974,4.75565 z m 13.1401,6.13078 v -1.58522 h -4.6219 l -0.019,-11.78408 h -1.6043 v 12.14697 c 0,0.74486 0.6684,1.26053 1.3178,1.22233 z m 5.6533,-13.3693 h -1.7189 c -0.4201,0.99315 -1.6998,4.35457 -2.1391,5.42412 -0.038,0.17189 -0.1336,0.89765 -0.1527,1.05044 l -0.1719,-1.03134 c -0.4966,-1.24144 -1.6044,-4.18268 -2.1582,-5.44322 h -1.6807 c 0.5347,1.31783 1.356,3.26593 1.9672,4.64106 0.4392,1.01225 0.8403,1.9672 1.2414,2.92215 v 5.80609 h 1.5852 v -5.7679 z m 0.3056,3.05584 v 1.10774 c 0.019,2.46377 1.6998,2.84575 3.3614,3.17044 1.0314,0.17189 2.1009,0.42018 2.1009,1.56612 v 1.37512 c 0,1.05045 -0.9931,1.62342 -1.9672,1.62342 -0.9931,0 -1.9481,-0.72576 -1.9481,-2.15819 h -1.547 c -0.019,2.48287 1.6807,3.76251 3.4951,3.76251 1.738,0 3.5334,-1.08865 3.5334,-3.22774 v -1.37512 c 0,-2.33008 -1.7954,-2.80756 -3.3424,-3.13224 -0.9358,-0.19099 -2.1391,-0.55387 -2.1391,-1.60432 v -1.10774 c 0,-1.05044 0.9741,-1.62341 1.9672,-1.62341 0.9741,0 1.9481,0.74486 1.9481,2.15818 h 1.5662 c 0,-2.46377 -1.7763,-3.7434 -3.5143,-3.7434 -1.7953,0 -3.5142,1.08864 -3.5142,3.20863 z m 10.3517,10.31346 v -13.3693 h -1.5852 v 13.3693 z m 1.7762,-10.31346 v 1.10774 c 0.019,2.46377 1.6998,2.84575 3.3614,3.17044 1.0314,0.17189 2.1009,0.42018 2.1009,1.56612 v 1.37512 c 0,1.05045 -0.9931,1.62342 -1.9672,1.62342 -0.9931,0 -1.9481,-0.72576 -1.9481,-2.15819 h -1.547 c -0.019,2.48287 1.6807,3.76251 3.4951,3.76251 1.738,0 3.5333,-1.08865 3.5333,-3.22774 v -1.37512 c 0,-2.33008 -1.7953,-2.80756 -3.3423,-3.13224 -0.9358,-0.19099 -2.1391,-0.55387 -2.1391,-1.60432 v -1.10774 c 0,-1.05044 0.9741,-1.62341 1.9672,-1.62341 0.9741,0 1.9481,0.74486 1.9481,2.15818 h 1.5661 c 0,-2.46377 -1.7762,-3.7434 -3.5142,-3.7434 -1.7953,0 -3.5142,1.08864 -3.5142,3.20863 z"
         id="text201"
         class="cls-2"
         aria-label="ANALYSIS" /><path
         style="baseline-shift:baseline;display:inline;overflow:visible;vector-effect:none;fill:#ff9200;stroke-linecap:round;stroke-linejoin:round;stroke-dasharray:2, 0.999999, 0.999999, 2.5, 0.5;paint-order:stroke fill markers;enable-background:accumulate;stop-color:#000000"
         d="m 3133.9898,142.28925 a 0.49999949,0.49999949 0 0 0 -0.5,0.5 0.49999949,0.49999949 0 0 0 0.5,0.5 h 1 a 0.49999949,0.49999949 0 0 0 0.5,-0.5 0.49999949,0.49999949 0 0 0 -0.5,-0.5 z m 1.5,0.5 a 0.49999949,0.49999949 0 0 0 0.5,0.5 h 2 a 0.49999949,0.49999949 0 0 0 0.25,-0.25 0.49999949,0.49999949 0 0 0 0.25,0.25 h 2.5 a 0.49999949,0.49999949 0 0 0 0.5,-0.5 0.49999949,0.49999949 0 0 0 -0.5,-0.5 h -2.5 a 0.49999949,0.49999949 0 0 0 -0.25,0.25 0.49999949,0.49999949 0 0 0 -0.25,-0.25 h -2 a 0.49999949,0.49999949 0 0 0 -0.5,0.5 z m 6,0 a 0.49999949,0.49999949 0 0 0 0.5,0.5 h 1 a 0.49999949,0.49999949 0 0 0 0.5,-0.5 0.49999949,0.49999949 0 0 0 -0.5,-0.5 h -1 a 0.49999949,0.49999949 0 0 0 -0.5,0.5 z m 3.5,-0.5 a 0.49999949,0.49999949 0 0 0 -0.5,0.5 0.49999949,0.49999949 0 0 0 0.5,0.5 h 0.5 a 0.49999949,0.49999949 0 0 0 0.5,-0.5 0.49999949,0.49999949 0 0 0 -0.5,-0.5 z m 3,0 a 0.49999949,0.49999949 0 0 0 -0.5,0.5 0.49999949,0.49999949 0 0 0 0.5,0.5 h 1 a 0.49999949,0.49999949 0 0 0 0.5,-0.5 0.49999949,0.49999949 0 0 0 -0.5,-0.5 z m 1.5,0.5 a 0.49999949,0.49999949 0 0 0 0.5,0.5 h 2 a 0.49999949,0.49999949 0 0 0 0.25,-0.25 0.49999949,0.49999949 0 0 0 0.25,0.25 h 2.5 a 0.49999949,0.49999949 0 0 0 0.5,-0.5 0.49999949,0.49999949 0 0 0 -0.5,-0.5 h -2.5 a 0.49999949,0.49999949 0 0 0 -0.25,0.25 0.49999949,0.49999949 0 0 0 -0.25,-0.25 h -2 a 0.49999949,0.49999949 0 0 0 -0.5,0.5 z m 6,0 a 0.49999949,0.49999949 0 0 0 0.5,0.5 h 1 a 0.49999949,0.49999949 0 0 0 0.5,-0.5 0.49999949,0.49999949 0 0 0 -0.5,-0.5 h -1 a 0.49999949,0.49999949 0 0 0 -0.5,0.5 z m 3.5,-0.5 a 0.49999949,0.49999949 0 0 0 -0.5,0.5 0.49999949,0.49999949 0 0 0 0.5,0.5 h 0.5 a 0.49999949,0.49999949 0 0 0 0.5,-0.5 0.49999949,0.49999949 0 0 0 -0.5,-0.5 z m 3,0 a 0.49999949,0.49999949 0 0 0 -0.5,0.5 0.49999949,0.49999949 0 0 0 0.5,0.5 h 1 a 0.49999949,0.49999949 0 0 0 0.5,-0.5 0.49999949,0.49999949 0 0 0 -0.5,-0.5 z m 1.5,0.5 a 0.49999949,0.49999949 0 0 0 0.5,0.5 h 2 a 0.49999949,0.49999949 0 0 0 0.5,-0.5 0.49999949,0.49999949 0 0 0 -0.5,-0.5 h -2 a 0.49999949,0.49999949 0 0 0 -0.5,0.5 z"
         id="path13" /><path
         style="baseline-shift:baseline;display:inline;overflow:visible;vector-effect:none;stroke-linecap:round;stroke-linejoin:round;stroke-dasharray:2, 0.999999, 0.999999, 2.5, 0.5;paint-order:stroke fill markers;enable-background:accumulate;stop-color:#000000"
         d="M 3165.9889,142.79 H 3132.69"
         id="path18" /><path
         style="baseline-shift:baseline;display:inline;overflow:visible;vector-effect:none;fill:#ff9200;stroke-linecap:round;stroke-linejoin:round;stroke-dasharray:0.999999, 0.999999, 3, 2.5, 0.5;paint-order:stroke fill markers;enable-background:accumulate;stop-color:#000000"
         d="m 3132.5327,153.85956 a 0.49999949,0.49999949 0 0 0 -0.5,0.5 0.49999949,0.49999949 0 0 0 0.5,0.5 h 2.4532 a 0.49999949,0.49999949 0 0 0 0.5,-0.5 0.49999949,0.49999949 0 0 0 -0.5,-0.5 z m 5.4532,0 a 0.49999949,0.49999949 0 0 0 -0.5,0.5 0.49999949,0.49999949 0 0 0 0.5,0.5 h 1 a 0.49999949,0.49999949 0 0 0 0.5,-0.5 0.49999949,0.49999949 0 0 0 -0.5,-0.5 z m 1.5,0.5 a 0.49999949,0.49999949 0 0 0 0.5,0.5 h 0.5 a 0.49999949,0.49999949 0 0 0 0.5,-0.5 0.49999949,0.49999949 0 0 0 -0.5,-0.5 h -0.5 a 0.49999949,0.49999949 0 0 0 -0.5,0.5 z m 3.5,-0.5 a 0.49999949,0.49999949 0 0 0 -0.5,0.5 0.49999949,0.49999949 0 0 0 0.5,0.5 h 3 a 0.49999949,0.49999949 0 0 0 0.5,-0.5 0.49999949,0.49999949 0 0 0 -0.5,-0.5 z m 3.5,0.5 a 0.49999949,0.49999949 0 0 0 0.5,0.5 h 1 a 0.49999949,0.49999949 0 0 0 0.25,-0.25 0.49999949,0.49999949 0 0 0 0.25,0.25 h 2.5 a 0.49999949,0.49999949 0 0 0 0.5,-0.5 0.49999949,0.49999949 0 0 0 -0.5,-0.5 h -2.5 a 0.49999949,0.49999949 0 0 0 -0.25,0.25 0.49999949,0.49999949 0 0 0 -0.25,-0.25 h -1 a 0.49999949,0.49999949 0 0 0 -0.5,0.5 z m 7.5,-0.5 a 0.49999949,0.49999949 0 0 0 -0.5,0.5 0.49999949,0.49999949 0 0 0 0.5,0.5 h 1 a 0.49999949,0.49999949 0 0 0 0.5,-0.5 0.49999949,0.49999949 0 0 0 -0.5,-0.5 z m 1.5,0.5 a 0.49999949,0.49999949 0 0 0 0.5,0.5 h 0.5 a 0.49999949,0.49999949 0 0 0 0.5,-0.5 0.49999949,0.49999949 0 0 0 -0.5,-0.5 h -0.5 a 0.49999949,0.49999949 0 0 0 -0.5,0.5 z m 3.5,-0.5 a 0.49999949,0.49999949 0 0 0 -0.5,0.5 0.49999949,0.49999949 0 0 0 0.5,0.5 h 3 a 0.49999949,0.49999949 0 0 0 0.5,-0.5 0.49999949,0.49999949 0 0 0 -0.5,-0.5 z m 3.5,0.5 a 0.49999949,0.49999949 0 0 0 0.5,0.5 h 1 a 0.49999949,0.49999949 0 0 0 0.5,-0.5 0.49999949,0.49999949 0 0 0 -0.5,-0.5 h -1 a 0.49999949,0.49999949 0 0 0 -0.5,0.5 z"
         id="path22" /><path
         style="baseline-shift:baseline;display:inline;overflow:visible;vector-effect:none;stroke-linecap:round;stroke-linejoin:round;stroke-dasharray:0.999999, 0.999999, 3, 2.5, 0.5;paint-order:stroke fill markers;enable-background:accumulate;stop-color:#000000"
         d="m 3163.9864,154.36027 h -31.4529"
         id="path23" /><path
         style="baseline-shift:baseline;display:inline;overflow:visible;vector-effect:none;fill:#ff9200;stroke-linecap:round;stroke-linejoin:round;stroke-dasharray:0.5, 3, 2, 2.5, 0.5;paint-order:stroke fill markers;enable-background:accumulate;stop-color:#000000"
         d="m 3132.5406,164.76777 a 0.49999601,0.49999601 0 0 0 -0.5,0.5 0.49999601,0.49999601 0 0 0 0.5,0.5 h 0.9414 a 0.49999601,0.49999601 0 0 0 0.5,-0.5 0.49999601,0.49999601 0 0 0 -0.5,-0.5 z m 2.9414,0 a 0.49999601,0.49999601 0 0 0 -0.5,0.5 0.49999601,0.49999601 0 0 0 0.5,0.5 h 3 a 0.49999601,0.49999601 0 0 0 0.25,-0.25 0.49999601,0.49999601 0 0 0 0.25,0.25 h 0.5 a 0.49999601,0.49999601 0 0 0 0.5,-0.5 0.49999601,0.49999601 0 0 0 -0.5,-0.5 h -0.5 a 0.49999601,0.49999601 0 0 0 -0.25,0.25 0.49999601,0.49999601 0 0 0 -0.25,-0.25 z m 6.5,0 a 0.49999601,0.49999601 0 0 0 -0.5,0.5 0.49999601,0.49999601 0 0 0 0.5,0.5 h 2 a 0.49999601,0.49999601 0 0 0 0.5,-0.5 0.49999601,0.49999601 0 0 0 -0.5,-0.5 z m 5,0 a 0.49999601,0.49999601 0 0 0 -0.5,0.5 0.49999601,0.49999601 0 0 0 0.5,0.5 h 0.5 a 0.49999601,0.49999601 0 0 0 0.25,-0.25 0.49999601,0.49999601 0 0 0 0.25,0.25 h 2.5 a 0.49999601,0.49999601 0 0 0 0.5,-0.5 0.49999601,0.49999601 0 0 0 -0.5,-0.5 h -2.5 a 0.49999601,0.49999601 0 0 0 -0.25,0.25 0.49999601,0.49999601 0 0 0 -0.25,-0.25 z m 5.5,0 a 0.49999601,0.49999601 0 0 0 -0.5,0.5 0.49999601,0.49999601 0 0 0 0.5,0.5 h 3 a 0.49999601,0.49999601 0 0 0 0.25,-0.25 0.49999601,0.49999601 0 0 0 0.25,0.25 h 0.5 a 0.49999601,0.49999601 0 0 0 0.5,-0.5 0.49999601,0.49999601 0 0 0 -0.5,-0.5 h -0.5 a 0.49999601,0.49999601 0 0 0 -0.25,0.25 0.49999601,0.49999601 0 0 0 -0.25,-0.25 z m 6.5,0 a 0.49999601,0.49999601 0 0 0 -0.5,0.5 0.49999601,0.49999601 0 0 0 0.5,0.5 h 2 a 0.49999601,0.49999601 0 0 0 0.5,-0.5 0.49999601,0.49999601 0 0 0 -0.5,-0.5 z m 5,0 a 0.49999601,0.49999601 0 0 0 -0.5,0.5 0.49999601,0.49999601 0 0 0 0.5,0.5 h 0.5 a 0.49999601,0.49999601 0 0 0 0.5,-0.5 0.49999601,0.49999601 0 0 0 -0.5,-0.5 z"
         id="path24" /><path
         style="baseline-shift:baseline;display:inline;overflow:visible;vector-effect:none;stroke-linecap:round;stroke-linejoin:round;stroke-dasharray:0.5, 3, 2, 2.5, 0.5;paint-order:stroke fill markers;enable-background:accumulate;stop-color:#000000"
         d="m 3164.4814,165.26723 h -31.9407"
         id="path25" /><path
         id="path224"
         class="cls-1"
         d="m 3152.6941,125.8086 c 3.1333,0 5.7455,2.56094 5.7455,5.69202 v 0.0205 c -0.024,2.15214 0.988,3.94812 2.5449,5.10118 1.0965,0.81136 2.3992,1.19065 3.6796,1.17521 0.5603,-0.007 1.0988,-0.0588 1.6486,-0.21105 0.6826,-0.17961 1.4285,-0.44412 2.2023,-0.44412 0.6132,0 1.2241,0.10073 1.8105,0.29768 1.457,0.49014 2.5897,1.47713 3.2723,2.85355 0.5778,1.16303 0.7399,2.41047 0.4822,3.64694 -0.5126,2.60515 -2.8139,4.57539 -5.5672,4.57539 -0.7778,0 -1.4412,-0.29441 -2.1707,-0.4632 -0.5451,-0.14901 -1.1258,-0.20123 -1.6808,-0.20123 -1.3071,0 -2.5849,0.45642 -3.6682,1.24422 -1.6106,1.20935 -2.5479,3.01925 -2.5985,5.05344 0,0.62218 -0.099,1.2447 -0.3025,1.85122 -0.7785,2.31341 -2.9416,3.8684 -5.3801,3.86943 v 0 c -0.6148,-2.1e-4 -1.2226,-0.0987 -1.8106,-0.29768 -1.4324,-0.48343 -2.5942,-1.49712 -3.2701,-2.86011 -0.6759,-1.36299 -0.7833,-2.90303 -0.2999,-4.33541 0.7788,-2.31417 2.9432,-3.86943 5.3828,-3.86943 0.6077,0 1.2087,0.099 1.7904,0.29113 l 0.1119,0.038 c 0.6379,0.21038 1.2982,0.31298 1.9562,0.31298 1.307,0 2.6008,-0.40943 3.6862,-1.19947 1.6294,-1.18395 2.5893,-3.08173 2.5804,-5.09601 -2e-4,-0.053 4e-4,-0.10605 0,-0.15911 -0.029,-1.98176 -0.9962,-3.83549 -2.6114,-4.99546 -1.0788,-0.77662 -2.359,-1.17718 -3.6548,-1.17718 -0.6849,0 -1.3741,0.11442 -2.0388,0.3427 -0.5886,0.20143 -1.2065,0.30424 -1.8398,0.30424 -3.1333,0 -5.6805,-2.54713 -5.6805,-5.68044 0,-3.13331 2.5472,-5.68 5.6805,-5.68 z"
         style="font-size:96px;font-family:ZagBold, 'Zag Bold';display:inline;fill:#000000;fill-opacity:1;stroke-width:0px" /><path
         style="baseline-shift:baseline;display:inline;overflow:visible;vector-effect:none;fill:#ff9200;fill-opacity:1;stroke-width:0.264584;paint-order:stroke fill markers;enable-background:accumulate;stop-color:#000000"
         d="m 3167.6574,154.19917 a 2.9160715,2.9160715 0 0 1 -2.9161,2.91607 2.9160715,2.9160715 0 0 1 -2.916,-2.91607 2.9160715,2.9160715 0 0 1 2.916,-2.91607 2.9160715,2.9160715 0 0 1 2.9161,2.91607 z"
         id="path225" /><path
         style="baseline-shift:baseline;display:inline;overflow:visible;vector-effect:none;fill:#ff9200;fill-opacity:1;stroke-width:0.264584;stroke-linecap:round;paint-order:stroke fill markers;enable-background:accumulate;stop-color:#000000"
         d="m 3168.3259,131.66231 a 3.7521584,3.7521584 0 0 1 -3.7521,3.75216 3.7521584,3.7521584 0 0 1 -3.7522,-3.75216 3.7521584,3.7521584 0 0 1 3.7522,-3.75215 3.7521584,3.7521584 0 0 1 3.7521,3.75215 z"
         id="path226" /><path
         style="baseline-shift:baseline;display:inline;overflow:visible;vector-effect:none;fill:#ff9200;fill-opacity:1;stroke-width:0.264584;stroke-linecap:round;stroke-linejoin:round;paint-order:stroke fill markers;enable-background:accumulate;stop-color:#000000"
         d="m 3146.4407,142.79979 a 1.9121287,1.9121287 0 0 1 -1.9121,1.91213 1.9121287,1.9121287 0 0 1 -1.9121,-1.91213 1.9121287,1.9121287 0 0 1 1.9121,-1.91213 1.9121287,1.9121287 0 0 1 1.9121,1.91213 z"
         id="path228" /><path
         style="baseline-shift:baseline;display:inline;overflow:visible;vector-effect:none;fill:#ff9200;stroke-linecap:round;stroke-linejoin:round;stroke-dasharray:2, 1, 1, 2.5, 0.5;paint-order:stroke fill markers;enable-background:accumulate;stop-color:#000000"
         d="m 3133.0562,131.03925 a 0.5,0.5 0 0 0 -0.5,0.5 0.5,0.5 0 0 0 0.5,0.5 h 2 a 0.5,0.5 0 0 0 0.5,-0.5 0.5,0.5 0 0 0 -0.5,-0.5 z m 2.5,0.5 a 0.5,0.5 0 0 0 0.5,0.5 h 1 a 0.5,0.5 0 0 0 0.5,-0.5 0.5,0.5 0 0 0 -0.5,-0.5 h -1 a 0.5,0.5 0 0 0 -0.5,0.5 z m 4,-0.5 a 0.5,0.5 0 0 0 -0.5,0.5 0.5,0.5 0 0 0 0.5,0.5 h 0.5 a 0.5,0.5 0 0 0 0.5,-0.5 0.5,0.5 0 0 0 -0.5,-0.5 z m 2.5,0 a 0.5,0.5 0 0 0 -0.5,0.5 0.5,0.5 0 0 0 0.5,0.5 h 1 a 0.5,0.5 0 0 0 0.5,-0.5 0.5,0.5 0 0 0 -0.5,-0.5 z m 1.5,0.5 a 0.5,0.5 0 0 0 0.5,0.5 h 2.5 a 0.5,0.5 0 0 0 0.25,-0.25 0.5,0.5 0 0 0 0.25,0.25 h 2 a 0.5,0.5 0 0 0 0.5,-0.5 0.5,0.5 0 0 0 -0.5,-0.5 h -2 a 0.5,0.5 0 0 0 -0.25,0.25 0.5,0.5 0 0 0 -0.25,-0.25 h -2.5 a 0.5,0.5 0 0 0 -0.5,0.5 z m 6,0 a 0.5,0.5 0 0 0 0.5,0.5 h 1 a 0.5,0.5 0 0 0 0.5,-0.5 0.5,0.5 0 0 0 -0.5,-0.5 h -1 a 0.5,0.5 0 0 0 -0.5,0.5 z m 4,-0.5 a 0.5,0.5 0 0 0 -0.5,0.5 0.5,0.5 0 0 0 0.5,0.5 h 0.5 a 0.5,0.5 0 0 0 0.5,-0.5 0.5,0.5 0 0 0 -0.5,-0.5 z m 2.5,0 a 0.5,0.5 0 0 0 -0.5,0.5 0.5,0.5 0 0 0 0.5,0.5 h 1 a 0.5,0.5 0 0 0 0.5,-0.5 0.5,0.5 0 0 0 -0.5,-0.5 z m 1.5,0.5 a 0.5,0.5 0 0 0 0.5,0.5 h 2.5 a 0.5,0.5 0 0 0 0.25,-0.25 0.5,0.5 0 0 0 0.25,0.25 h 2 a 0.5,0.5 0 0 0 0.5,-0.5 0.5,0.5 0 0 0 -0.5,-0.5 h -2 a 0.5,0.5 0 0 0 -0.25,0.25 0.5,0.5 0 0 0 -0.25,-0.25 h -2.5 a 0.5,0.5 0 0 0 -0.5,0.5 z m 6,0 a 0.5,0.5 0 0 0 0.5,0.5 h 1 a 0.5,0.5 0 0 0 0.5,-0.5 0.5,0.5 0 0 0 -0.5,-0.5 h -1 a 0.5,0.5 0 0 0 -0.5,0.5 z"
         id="path9" /><path
         style="baseline-shift:baseline;display:inline;overflow:visible;vector-effect:none;stroke-linecap:round;stroke-linejoin:round;stroke-dasharray:2, 1, 1, 2.5, 0.5;paint-order:stroke fill markers;enable-background:accumulate;stop-color:#000000"
         d="m 3133.0567,131.53892 h 32.9853"
         id="path11" /></g></g></svg>
