<svg xmlns="http://www.w3.org/2000/svg" xml:space="preserve" id="svg1" width="400.38" height="171.526" viewBox="0 0 105.934 45.383">
    <defs id="defs1">
        <style id="style1">
            .cls-1{font-family:ZagBold,&quot;Zag Bold&quot;;font-size:96px}
        </style>
    </defs>
    <g id="layer1" transform="translate(-3132.033 -125.809)">
        <g id="g93">
            <path id="text195" d="M3181.582 159.779c.737 0 1.371.668 1.371 1.44v6.308c0 .772-.634 1.406-1.371 1.406h-2.297c0-3.103-.017-6.069-.017-9.154zm-2.623 10.577h2.623c1.457 0 2.794-1.2 2.794-2.829v-6.325c0-1.526-1.337-2.846-2.794-2.846h-2.623c-.634 0-1.097.445-1.097 1.097v9.789c0 .582.411 1.114 1.097 1.114m12.48 0h1.526l-2.897-11.212c-.155-.548-.686-.925-1.115-.925-.445 0-.942.342-1.148.96l-2.846 11.177h1.492c.154-.634.377-1.492 1.045-4.097h2.88zm-3.6-5.503c.326-1.371.566-2.897.909-4.269l.137-1.165h.137l.12 1.165.874 4.269zm4.183-6.497v1.423h2.743v10.577h1.406v-10.577h2.811v-1.423zm12.566 12h1.525l-2.897-11.212c-.154-.548-.685-.925-1.114-.925-.446 0-.943.342-1.149.96l-2.845 11.177h1.491c.154-.634.377-1.492 1.046-4.097h2.88zm-3.6-5.503c.325-1.371.565-2.897.908-4.269l.137-1.165h.138l.12 1.165.874 4.269z" aria-label="DATA" style="font-size:17.143px;line-height:.8;font-family:&quot;Zag Bold&quot;;-inkscape-font-specification:&quot;Zag Bold, &quot;;letter-spacing:0;fill:gray;stroke-width:.177966;stroke-linecap:round;stroke-linejoin:round;paint-order:stroke fill markers"/>
            <path id="path195" d="M3156.48 137.13a5.687 5.687 0 0 0-5.68 5.68v.02c-.131 2.098-.912 3.728-2.616 5.01-1.079.777-2.408 1.236-3.704 1.236-.56 0-1.063-.065-1.613-.217-.715-.17-1.434-.395-2.208-.395-.613 0-1.224.1-1.81.298a5.56 5.56 0 0 0-3.273 2.853 5.54 5.54 0 0 0-.482 3.647 5.68 5.68 0 0 0 5.567 4.576c.778 0 1.188-.265 2.164-.479a7 7 0 0 1 1.689-.161c1.319.03 2.528.446 3.628 1.23 1.634 1.186 2.682 3.2 2.671 5.22 0 .621.065 1.067.269 1.674a5.68 5.68 0 0 0 5.38 3.87c.615 0 1.223-.1 1.81-.298a5.64 5.64 0 0 0 3.27-2.86 5.64 5.64 0 0 0 .3-4.336 5.677 5.677 0 0 0-7.173-3.578l-.111.038a6.263 6.263 0 0 1-5.642-.886 6.27 6.27 0 0 1-2.581-5.097v-.159a6.26 6.26 0 0 1 2.611-4.995 6.25 6.25 0 0 1 5.694-.835 5.685 5.685 0 0 0 7.52-5.376 5.685 5.685 0 0 0-5.68-5.68z" style="font-size:96px;font-family:ZagBold,&quot;Zag Bold&quot;;baseline-shift:baseline;display:inline;overflow:visible;vector-effect:none;fill:gray;fill-opacity:1;stroke-width:.264584;stroke-linecap:round;paint-order:stroke fill markers;stop-color:#000"/>
            <path id="path196" d="M3155.43 154.176a2.916 2.916 0 0 1-2.916 2.916 2.916 2.916 0 0 1-2.916-2.916 2.916 2.916 0 0 1 2.916-2.916 2.916 2.916 0 0 1 2.916 2.916" style="baseline-shift:baseline;display:inline;overflow:visible;vector-effect:none;fill:#ff9200;fill-opacity:1;stroke-width:.264584;paint-order:stroke fill markers;stop-color:#000"/>
            <path id="path198" d="M3149.464 165.647a5.1 5.1 0 0 1-5.102 5.102 5.1 5.1 0 0 1-5.101-5.102 5.1 5.1 0 0 1 5.101-5.101 5.1 5.1 0 0 1 5.102 5.101" style="baseline-shift:baseline;display:inline;overflow:visible;vector-effect:none;fill:#ff9200;fill-opacity:1;stroke-width:.264584;paint-order:stroke fill markers;stop-color:#000"/>
            <path id="path199" d="M3146.392 142.777a1.91 1.91 0 0 1-1.912 1.912 1.91 1.91 0 0 1-1.912-1.912 1.91 1.91 0 0 1 1.912-1.912 1.91 1.91 0 0 1 1.912 1.912" style="baseline-shift:baseline;display:inline;overflow:visible;vector-effect:none;fill:#ff9200;fill-opacity:1;stroke-width:.264584;stroke-linecap:round;stroke-linejoin:round;paint-order:stroke fill markers;stop-color:#000"/>
            <path id="text200" d="m3182.433 134.755-.093 1.007h-.111l-.093-.97c-.522-1.938-.97-3.84-1.603-5.852a1.23 1.23 0 0 0-1.156-.84c-.596 0-1.323.336-1.305 1.12v11.928h1.529l-.037-9.058-.187-2.498h.13l.336 1.92 1.491 4.977c.205.447.597.708.932.708.43 0 .82-.28.97-.708.484-1.492 1.025-3.318 1.528-4.884l.429-2.013h.242l-.429 2.59-.056 8.706.02.26h1.528v-11.966c-.037-.783-.671-1.156-1.23-1.156-.448 0-.932.28-1.137.858a97 97 0 0 0-.988 3.243c-.261.876-.466 1.77-.709 2.628zm9.935-5.107c.802 0 1.491.727 1.491 1.566v6.859c0 .839-.69 1.528-1.49 1.528h-2.498c0-3.373-.02-6.598-.02-9.953zm-2.852 11.5h2.852a3.07 3.07 0 0 0 3.039-3.075v-6.878c0-1.659-1.454-3.094-3.039-3.094h-2.852c-.69 0-1.193.484-1.193 1.193v10.643c0 .634.448 1.211 1.193 1.211" aria-label="MD" class="cls-1" style="font-size:18.6395px;font-family:&quot;Zag Bold&quot;;-inkscape-font-specification:&quot;Zag Bold, Normal&quot;;stroke-width:.258219"/>
            <path id="text201" d="M3185.081 156.283h1.7l-3.228-12.49c-.171-.611-.763-1.032-1.24-1.032-.498 0-1.051.382-1.28 1.07l-3.171 12.452h1.662c.172-.706.42-1.661 1.165-4.564h3.208zm-4.01-6.13c.363-1.528.63-3.228 1.012-4.756l.153-1.299h.152l.134 1.299.974 4.756zm12.49-7.239.076 9.263.554 2.521h-.114l-3.935-11.115.02.038c-.096-.478-.67-.764-1.128-.764a1.06 1.06 0 0 0-1.07 1.127v12.3h1.624l-.076-9.206-.458-2.35.23-.057c.171.497.553 2.35.897 3.266.993 2.598 1.91 5.31 2.865 7.659.19.42.706.687 1.088.687.516 0 1.012-.362 1.012-1.088v-12.28zm10.161 13.37h1.7l-3.228-12.491c-.172-.611-.764-1.032-1.241-1.032-.497 0-1.05.382-1.28 1.07l-3.17 12.452h1.661c.172-.706.42-1.661 1.165-4.564h3.209zm-4.01-6.131c.362-1.528.63-3.228 1.011-4.756l.153-1.299h.153l.134 1.299.974 4.756zm13.14 6.13v-1.585h-4.623l-.019-11.784h-1.604v12.147c0 .745.668 1.26 1.318 1.222zm5.653-13.369h-1.72c-.42.993-1.7 4.355-2.138 5.424-.038.172-.134.898-.153 1.05l-.172-1.03c-.497-1.242-1.604-4.183-2.158-5.444h-1.68a176 176 0 0 0 1.966 4.641c.44 1.012.84 1.967 1.242 2.922v5.806h1.585v-5.767zm.305 3.056v1.108c.02 2.463 1.7 2.845 3.362 3.17 1.031.172 2.1.42 2.1 1.566v1.375c0 1.05-.993 1.624-1.967 1.624-.993 0-1.948-.726-1.948-2.158h-1.547c-.019 2.482 1.68 3.762 3.495 3.762 1.738 0 3.534-1.089 3.534-3.228v-1.375c0-2.33-1.796-2.807-3.343-3.132-.936-.191-2.139-.554-2.139-1.604v-1.108c0-1.05.974-1.623 1.967-1.623.974 0 1.948.744 1.948 2.158h1.567c0-2.464-1.777-3.744-3.515-3.744-1.795 0-3.514 1.089-3.514 3.209m10.352 10.313v-13.369h-1.585v13.37zm1.776-10.313v1.108c.02 2.463 1.7 2.845 3.361 3.17 1.032.172 2.101.42 2.101 1.566v1.375c0 1.05-.993 1.624-1.967 1.624-.993 0-1.948-.726-1.948-2.158h-1.547c-.019 2.482 1.68 3.762 3.495 3.762 1.738 0 3.533-1.089 3.533-3.228v-1.375c0-2.33-1.795-2.807-3.342-3.132-.936-.191-2.139-.554-2.139-1.604v-1.108c0-1.05.974-1.623 1.967-1.623.974 0 1.948.744 1.948 2.158h1.566c0-2.464-1.776-3.744-3.514-3.744-1.795 0-3.514 1.089-3.514 3.209" aria-label="ANALYSIS" style="font-size:19.099px;font-family:&quot;Zag Bold&quot;;-inkscape-font-specification:&quot;Zag Bold, Normal&quot;;letter-spacing:0;fill:#ff9200;stroke-width:.264584"/>
            <path id="path13" d="M3133.99 142.29a.5.5 0 0 0-.5.5.5.5 0 0 0 .5.5h1a.5.5 0 0 0 .5-.5.5.5 0 0 0-.5-.5zm1.5.5a.5.5 0 0 0 .5.5h2a.5.5 0 0 0 .25-.25.5.5 0 0 0 .25.25h2.5a.5.5 0 0 0 .5-.5.5.5 0 0 0-.5-.5h-2.5a.5.5 0 0 0-.25.25.5.5 0 0 0-.25-.25h-2a.5.5 0 0 0-.5.5m6 0a.5.5 0 0 0 .5.5h1a.5.5 0 0 0 .5-.5.5.5 0 0 0-.5-.5h-1a.5.5 0 0 0-.5.5m3.5-.5a.5.5 0 0 0-.5.5.5.5 0 0 0 .5.5h.5a.5.5 0 0 0 .5-.5.5.5 0 0 0-.5-.5zm3 0a.5.5 0 0 0-.5.5.5.5 0 0 0 .5.5h1a.5.5 0 0 0 .5-.5.5.5 0 0 0-.5-.5zm1.5.5a.5.5 0 0 0 .5.5h2a.5.5 0 0 0 .25-.25.5.5 0 0 0 .25.25h2.5a.5.5 0 0 0 .5-.5.5.5 0 0 0-.5-.5h-2.5a.5.5 0 0 0-.25.25.5.5 0 0 0-.25-.25h-2a.5.5 0 0 0-.5.5m6 0a.5.5 0 0 0 .5.5h1a.5.5 0 0 0 .5-.5.5.5 0 0 0-.5-.5h-1a.5.5 0 0 0-.5.5m3.5-.5a.5.5 0 0 0-.5.5.5.5 0 0 0 .5.5h.5a.5.5 0 0 0 .5-.5.5.5 0 0 0-.5-.5zm3 0a.5.5 0 0 0-.5.5.5.5 0 0 0 .5.5h1a.5.5 0 0 0 .5-.5.5.5 0 0 0-.5-.5zm1.5.5a.5.5 0 0 0 .5.5h2a.5.5 0 0 0 .5-.5.5.5 0 0 0-.5-.5h-2a.5.5 0 0 0-.5.5" style="baseline-shift:baseline;display:inline;overflow:visible;vector-effect:none;fill:#ff9200;stroke-linecap:round;stroke-linejoin:round;stroke-dasharray:2,.999999,.999999,2.5,.5;paint-order:stroke fill markers;stop-color:#000"/>
            <path id="path18" d="M3165.989 142.79h-33.299" style="baseline-shift:baseline;display:inline;overflow:visible;vector-effect:none;stroke-linecap:round;stroke-linejoin:round;stroke-dasharray:2,.999999,.999999,2.5,.5;paint-order:stroke fill markers;stop-color:#000"/>
            <path id="path22" d="M3132.533 153.86a.5.5 0 0 0-.5.5.5.5 0 0 0 .5.5h2.453a.5.5 0 0 0 .5-.5.5.5 0 0 0-.5-.5zm5.453 0a.5.5 0 0 0-.5.5.5.5 0 0 0 .5.5h1a.5.5 0 0 0 .5-.5.5.5 0 0 0-.5-.5zm1.5.5a.5.5 0 0 0 .5.5h.5a.5.5 0 0 0 .5-.5.5.5 0 0 0-.5-.5h-.5a.5.5 0 0 0-.5.5m3.5-.5a.5.5 0 0 0-.5.5.5.5 0 0 0 .5.5h3a.5.5 0 0 0 .5-.5.5.5 0 0 0-.5-.5zm3.5.5a.5.5 0 0 0 .5.5h1a.5.5 0 0 0 .25-.25.5.5 0 0 0 .25.25h2.5a.5.5 0 0 0 .5-.5.5.5 0 0 0-.5-.5h-2.5a.5.5 0 0 0-.25.25.5.5 0 0 0-.25-.25h-1a.5.5 0 0 0-.5.5m7.5-.5a.5.5 0 0 0-.5.5.5.5 0 0 0 .5.5h1a.5.5 0 0 0 .5-.5.5.5 0 0 0-.5-.5zm1.5.5a.5.5 0 0 0 .5.5h.5a.5.5 0 0 0 .5-.5.5.5 0 0 0-.5-.5h-.5a.5.5 0 0 0-.5.5m3.5-.5a.5.5 0 0 0-.5.5.5.5 0 0 0 .5.5h3a.5.5 0 0 0 .5-.5.5.5 0 0 0-.5-.5zm3.5.5a.5.5 0 0 0 .5.5h1a.5.5 0 0 0 .5-.5.5.5 0 0 0-.5-.5h-1a.5.5 0 0 0-.5.5" style="baseline-shift:baseline;display:inline;overflow:visible;vector-effect:none;fill:#ff9200;stroke-linecap:round;stroke-linejoin:round;stroke-dasharray:.999999,.999999,3,2.5,.5;paint-order:stroke fill markers;stop-color:#000"/>
            <path id="path23" d="M3163.986 154.36h-31.453" style="baseline-shift:baseline;display:inline;overflow:visible;vector-effect:none;stroke-linecap:round;stroke-linejoin:round;stroke-dasharray:.999999,.999999,3,2.5,.5;paint-order:stroke fill markers;stop-color:#000"/>
            <path id="path24" d="M3132.54 164.768a.5.5 0 0 0-.5.5.5.5 0 0 0 .5.5h.942a.5.5 0 0 0 .5-.5.5.5 0 0 0-.5-.5zm2.942 0a.5.5 0 0 0-.5.5.5.5 0 0 0 .5.5h3a.5.5 0 0 0 .25-.25.5.5 0 0 0 .25.25h.5a.5.5 0 0 0 .5-.5.5.5 0 0 0-.5-.5h-.5a.5.5 0 0 0-.25.25.5.5 0 0 0-.25-.25zm6.5 0a.5.5 0 0 0-.5.5.5.5 0 0 0 .5.5h2a.5.5 0 0 0 .5-.5.5.5 0 0 0-.5-.5zm5 0a.5.5 0 0 0-.5.5.5.5 0 0 0 .5.5h.5a.5.5 0 0 0 .25-.25.5.5 0 0 0 .25.25h2.5a.5.5 0 0 0 .5-.5.5.5 0 0 0-.5-.5h-2.5a.5.5 0 0 0-.25.25.5.5 0 0 0-.25-.25zm5.5 0a.5.5 0 0 0-.5.5.5.5 0 0 0 .5.5h3a.5.5 0 0 0 .25-.25.5.5 0 0 0 .25.25h.5a.5.5 0 0 0 .5-.5.5.5 0 0 0-.5-.5h-.5a.5.5 0 0 0-.25.25.5.5 0 0 0-.25-.25zm6.5 0a.5.5 0 0 0-.5.5.5.5 0 0 0 .5.5h2a.5.5 0 0 0 .5-.5.5.5 0 0 0-.5-.5zm5 0a.5.5 0 0 0-.5.5.5.5 0 0 0 .5.5h.5a.5.5 0 0 0 .5-.5.5.5 0 0 0-.5-.5z" style="baseline-shift:baseline;display:inline;overflow:visible;vector-effect:none;fill:#ff9200;stroke-linecap:round;stroke-linejoin:round;stroke-dasharray:.5,3,2,2.5,.5;paint-order:stroke fill markers;stop-color:#000"/>
            <path id="path25" d="M3164.481 165.267h-31.94" style="baseline-shift:baseline;display:inline;overflow:visible;vector-effect:none;stroke-linecap:round;stroke-linejoin:round;stroke-dasharray:.5,3,2,2.5,.5;paint-order:stroke fill markers;stop-color:#000"/>
            <path id="path224" d="M3152.694 125.809c3.133 0 5.746 2.56 5.746 5.692v.02c-.024 2.152.988 3.948 2.545 5.101a6.05 6.05 0 0 0 3.68 1.176 6.4 6.4 0 0 0 1.648-.212c.682-.18 1.428-.444 2.202-.444.613 0 1.224.101 1.81.298a5.56 5.56 0 0 1 3.273 2.854 5.54 5.54 0 0 1 .482 3.647 5.68 5.68 0 0 1-5.567 4.575c-.778 0-1.441-.295-2.17-.463a6.4 6.4 0 0 0-1.682-.202c-1.307 0-2.585.457-3.668 1.245a6.43 6.43 0 0 0-2.598 5.053c0 .622-.1 1.245-.303 1.851a5.68 5.68 0 0 1-5.38 3.87 5.6 5.6 0 0 1-1.81-.298 5.64 5.64 0 0 1-3.27-2.86 5.64 5.64 0 0 1-.3-4.335 5.677 5.677 0 0 1 7.173-3.579l.111.038a6.263 6.263 0 0 0 5.642-.886 6.27 6.27 0 0 0 2.581-5.096v-.16a6.26 6.26 0 0 0-2.611-4.995 6.25 6.25 0 0 0-5.694-.834 5.686 5.686 0 0 1-7.52-5.376 5.685 5.685 0 0 1 5.68-5.68z" class="cls-1" style="font-size:96px;font-family:ZagBold,&quot;Zag Bold&quot;;display:inline;fill:#000;fill-opacity:1;stroke-width:0"/>
            <path id="path225" d="M3167.657 154.2a2.916 2.916 0 0 1-2.916 2.915 2.916 2.916 0 0 1-2.916-2.916 2.916 2.916 0 0 1 2.916-2.916 2.916 2.916 0 0 1 2.916 2.916" style="baseline-shift:baseline;display:inline;overflow:visible;vector-effect:none;fill:#ff9200;fill-opacity:1;stroke-width:.264584;paint-order:stroke fill markers;stop-color:#000"/>
            <path id="path226" d="M3168.326 131.662a3.75 3.75 0 0 1-3.752 3.752 3.75 3.75 0 0 1-3.752-3.752 3.75 3.75 0 0 1 3.752-3.752 3.75 3.75 0 0 1 3.752 3.752" style="baseline-shift:baseline;display:inline;overflow:visible;vector-effect:none;fill:#ff9200;fill-opacity:1;stroke-width:.264584;stroke-linecap:round;paint-order:stroke fill markers;stop-color:#000"/>
            <path id="path228" d="M3146.44 142.8a1.91 1.91 0 0 1-1.911 1.912 1.91 1.91 0 0 1-1.912-1.912 1.91 1.91 0 0 1 1.912-1.912 1.91 1.91 0 0 1 1.912 1.912" style="baseline-shift:baseline;display:inline;overflow:visible;vector-effect:none;fill:#ff9200;fill-opacity:1;stroke-width:.264584;stroke-linecap:round;stroke-linejoin:round;paint-order:stroke fill markers;stop-color:#000"/>
            <path id="path9" d="M3133.056 131.04a.5.5 0 0 0-.5.5.5.5 0 0 0 .5.5h2a.5.5 0 0 0 .5-.5.5.5 0 0 0-.5-.5zm2.5.5a.5.5 0 0 0 .5.5h1a.5.5 0 0 0 .5-.5.5.5 0 0 0-.5-.5h-1a.5.5 0 0 0-.5.5m4-.5a.5.5 0 0 0-.5.5.5.5 0 0 0 .5.5h.5a.5.5 0 0 0 .5-.5.5.5 0 0 0-.5-.5zm2.5 0a.5.5 0 0 0-.5.5.5.5 0 0 0 .5.5h1a.5.5 0 0 0 .5-.5.5.5 0 0 0-.5-.5zm1.5.5a.5.5 0 0 0 .5.5h2.5a.5.5 0 0 0 .25-.25.5.5 0 0 0 .25.25h2a.5.5 0 0 0 .5-.5.5.5 0 0 0-.5-.5h-2a.5.5 0 0 0-.25.25.5.5 0 0 0-.25-.25h-2.5a.5.5 0 0 0-.5.5m6 0a.5.5 0 0 0 .5.5h1a.5.5 0 0 0 .5-.5.5.5 0 0 0-.5-.5h-1a.5.5 0 0 0-.5.5m4-.5a.5.5 0 0 0-.5.5.5.5 0 0 0 .5.5h.5a.5.5 0 0 0 .5-.5.5.5 0 0 0-.5-.5zm2.5 0a.5.5 0 0 0-.5.5.5.5 0 0 0 .5.5h1a.5.5 0 0 0 .5-.5.5.5 0 0 0-.5-.5zm1.5.5a.5.5 0 0 0 .5.5h2.5a.5.5 0 0 0 .25-.25.5.5 0 0 0 .25.25h2a.5.5 0 0 0 .5-.5.5.5 0 0 0-.5-.5h-2a.5.5 0 0 0-.25.25.5.5 0 0 0-.25-.25h-2.5a.5.5 0 0 0-.5.5m6 0a.5.5 0 0 0 .5.5h1a.5.5 0 0 0 .5-.5.5.5 0 0 0-.5-.5h-1a.5.5 0 0 0-.5.5" style="baseline-shift:baseline;display:inline;overflow:visible;vector-effect:none;fill:#ff9200;stroke-linecap:round;stroke-linejoin:round;stroke-dasharray:2,1,1,2.5,.5;paint-order:stroke fill markers;stop-color:#000"/>
            <path id="path11" d="M3133.057 131.539h32.985" style="baseline-shift:baseline;display:inline;overflow:visible;vector-effect:none;stroke-linecap:round;stroke-linejoin:round;stroke-dasharray:2,1,1,2.5,.5;paint-order:stroke fill markers;stop-color:#000"/>
        </g>
    </g>
</svg>
