<?xml version="1.0" encoding="UTF-8" standalone="no"?>
<!-- Created with Inkscape (http://www.inkscape.org/) -->

<svg
   width="106.22618mm"
   height="32.395412mm"
   viewBox="0 0 106.22618 32.395412"
   version="1.1"
   id="svg1"
   xml:space="preserve"
   xmlns="http://www.w3.org/2000/svg"
   xmlns:svg="http://www.w3.org/2000/svg"><defs
     id="defs1"><style
       id="style1">
      .cls-1, .cls-2 {
        font-family: ZagBold, 'Zag Bold';
        font-size: 96px;
      }

      .cls-3 {
        letter-spacing: -.16em;
      }

      .cls-4 {
        letter-spacing: -.02em;
      }

      .cls-2, .cls-5 {
        fill: #ff9200;
      }

      .cls-6 {
        letter-spacing: 0em;
      }

      .cls-7 {
        fill: gray;
      }

      .cls-7, .cls-5, .cls-8 {
        fill-rule: evenodd;
      }

      .cls-9 {
        letter-spacing: -.03em;
      }
    </style></defs><g
     id="layer1"
     transform="translate(-2251.8785,-132.30228)"><g
       id="g89"><g
         id="text107"
         style="font-size:17.0847px;line-height:0.8;font-family:'Zag Bold';-inkscape-font-specification:'Zag Bold, Normal';text-align:end;letter-spacing:-0.177966px;text-anchor:end;fill:#ff9200;stroke:#ff00ff;stroke-width:0.177966;stroke-linecap:round;stroke-linejoin:round;paint-order:stroke fill markers"
         aria-label="MDANALYSIS&#10;Benchmarks"><path
           style="text-align:start;letter-spacing:-0.177271px;text-anchor:start;fill:#000000;stroke:none"
           d="m 2291.5938,141.7053 -0.086,0.92258 h -0.1025 l -0.085,-0.88841 c -0.4784,-1.77681 -0.8884,-3.51945 -1.4693,-5.36459 -0.1537,-0.47838 -0.615,-0.76882 -1.0592,-0.76882 -0.5467,0 -1.213,0.30753 -1.196,1.02509 v 10.9342 h 1.401 l -0.034,-8.30316 -0.1708,-2.28935 h 0.1196 l 0.3075,1.75972 1.3668,4.56162 c 0.1879,0.41003 0.5467,0.64922 0.8542,0.64922 0.393,0 0.7517,-0.25627 0.8884,-0.64922 0.4442,-1.36678 0.9397,-3.04108 1.401,-4.47619 l 0.3929,-1.84515 h 0.2221 l -0.3929,2.37477 -0.051,7.97856 0.017,0.23918 h 1.4009 v -10.96837 c -0.034,-0.71756 -0.615,-1.05926 -1.1276,-1.05926 -0.41,0 -0.8542,0.25628 -1.0421,0.7859 -0.3075,0.93966 -0.6151,1.96474 -0.9055,2.97274 -0.2392,0.80298 -0.4271,1.62305 -0.6492,2.40894 z m 8.9288,-4.68121 c 0.7347,0 1.3668,0.66631 1.3668,1.43512 v 6.28717 c 0,0.76881 -0.6321,1.40094 -1.3668,1.40094 h -2.2893 c 0,-3.09233 -0.017,-6.04798 -0.017,-9.12323 z m -2.6139,10.54126 h 2.6139 c 1.4522,0 2.7848,-1.19593 2.7848,-2.81897 v -6.30426 c 0,-1.52053 -1.3326,-2.83606 -2.7848,-2.83606 h -2.6139 c -0.6322,0 -1.0935,0.44421 -1.0935,1.09342 v 9.75537 c 0,0.58088 0.4101,1.1105 1.0935,1.1105 z"
           id="path62" /><path
           style="text-align:start;letter-spacing:-0.177271px;text-anchor:start;stroke:none"
           d="m 2310.9721,147.56535 h 1.5205 l -2.8873,-11.17339 c -0.1538,-0.54671 -0.6834,-0.92257 -1.1105,-0.92257 -0.4442,0 -0.9397,0.34169 -1.1447,0.95674 l -2.8361,11.13922 h 1.4864 c 0.1538,-0.63213 0.3759,-1.48637 1.0422,-4.08324 h 2.8702 z m -3.5878,-5.48419 c 0.3246,-1.36677 0.5638,-2.88731 0.9055,-4.25409 l 0.1366,-1.16175 h 0.1367 l 0.1196,1.16175 0.8713,4.25409 z m 10.9961,-6.4751 0.068,8.28608 0.4955,2.25518 h -0.1025 l -3.5195,-9.94329 0.017,0.0342 c -0.085,-0.42712 -0.598,-0.68339 -1.008,-0.68339 -0.4955,0 -0.9738,0.37586 -0.9567,1.008 v 11.00254 h 1.4522 l -0.068,-8.23482 -0.41,-2.10142 0.205,-0.0512 c 0.1538,0.4442 0.4955,2.10141 0.803,2.92148 0.8884,2.32352 1.7084,4.74955 2.5627,6.85096 0.1708,0.37587 0.6321,0.61505 0.9738,0.61505 0.4613,0 0.9055,-0.32461 0.9055,-0.97382 v -10.98547 z m 8.9118,11.95929 h 1.5205 l -2.8873,-11.17339 c -0.1538,-0.54671 -0.6834,-0.92257 -1.1105,-0.92257 -0.4442,0 -0.9397,0.34169 -1.1447,0.95674 l -2.836,11.13922 h 1.4863 c 0.1538,-0.63213 0.3759,-1.48637 1.0422,-4.08324 h 2.8702 z m -3.5878,-5.48419 c 0.3246,-1.36677 0.5638,-2.88731 0.9055,-4.25409 l 0.1367,-1.16175 h 0.1366 l 0.1196,1.16175 0.8713,4.25409 z m 11.577,5.48419 v -1.41803 h -4.1345 l -0.017,-10.54126 h -1.4351 v 10.86587 c 0,0.66631 0.5979,1.12759 1.1788,1.09342 z m 4.8798,-11.95929 h -1.5376 c -0.3759,0.88841 -1.5206,3.89532 -1.9135,4.85206 -0.034,0.15376 -0.1196,0.80298 -0.1367,0.93966 l -0.1538,-0.92258 c -0.4442,-1.1105 -1.4351,-3.74155 -1.9305,-4.86914 h -1.5035 c 0.4784,1.17885 1.213,2.92149 1.7597,4.15159 0.393,0.90548 0.7518,1.75972 1.1105,2.61395 v 5.19375 h 1.4181 v -5.15958 z m 0.096,2.73356 v 0.99091 c 0.017,2.20392 1.5205,2.54562 3.0069,2.83606 0.9225,0.15376 1.8793,0.37586 1.8793,1.40094 v 1.2301 c 0,0.93966 -0.8884,1.4522 -1.7597,1.4522 -0.8884,0 -1.7427,-0.64922 -1.7427,-1.93057 h -1.3838 c -0.017,2.22101 1.5034,3.36569 3.1265,3.36569 1.5547,0 3.1606,-0.97383 3.1606,-2.88732 v -1.2301 c 0,-2.08433 -1.6059,-2.51145 -2.9898,-2.80189 -0.8371,-0.17084 -1.9135,-0.49545 -1.9135,-1.43511 v -0.99091 c 0,-0.93966 0.8713,-1.4522 1.7597,-1.4522 0.8714,0 1.7427,0.6663 1.7427,1.93057 h 1.4009 c 0,-2.20393 -1.5889,-3.3486 -3.1436,-3.3486 -1.6059,0 -3.1435,0.97382 -3.1435,2.87023 z m 9.0826,9.22573 v -11.95929 h -1.418 v 11.95929 z m 1.4116,-9.22573 v 0.99091 c 0.017,2.20392 1.5205,2.54562 3.0069,2.83606 0.9226,0.15376 1.8793,0.37586 1.8793,1.40094 v 1.2301 c 0,0.93966 -0.8884,1.4522 -1.7597,1.4522 -0.8884,0 -1.7426,-0.64922 -1.7426,-1.93057 h -1.3839 c -0.017,2.22101 1.5035,3.36569 3.1265,3.36569 1.5547,0 3.1607,-0.97383 3.1607,-2.88732 v -1.2301 c 0,-2.08433 -1.606,-2.51145 -2.9898,-2.80189 -0.8372,-0.17084 -1.9135,-0.49545 -1.9135,-1.43511 v -0.99091 c 0,-0.93966 0.8713,-1.4522 1.7597,-1.4522 0.8713,0 1.7426,0.6663 1.7426,1.93057 h 1.401 c 0,-2.20393 -1.5889,-3.3486 -3.1436,-3.3486 -1.606,0 -3.1436,0.97382 -3.1436,2.87023 z"
           id="path65" /><path
           style="text-align:start;letter-spacing:0px;text-anchor:start;fill:#808080;stroke:none"
           d="m 2291.0641,150.69185 c 0.7859,0 1.4181,0.64922 1.4181,1.41803 v 0.59797 c 0,0.76881 -0.5126,1.41803 -1.2301,1.41803 h -2.2552 v -3.43403 z m 2.819,2.016 v -0.59797 c 0,-1.62304 -1.3155,-2.81897 -2.819,-2.83606 h -2.3747 c -0.6834,0 -1.0935,0.44421 -1.0935,1.11051 v 9.73828 c 0,0.70047 0.4101,1.12759 1.0935,1.12759 h 2.5968 c 1.4181,-0.0171 2.7848,-1.33261 2.7848,-2.81898 v -1.41803 c 0,-0.82006 -0.5467,-2.03308 -1.6743,-2.20392 1.0251,-0.23919 1.4864,-1.4522 1.4864,-2.10142 z m -2.5969,7.12432 h -2.2893 v -4.27118 h 2.2552 c 0.7688,0 1.4009,0.64922 1.4009,1.4522 v 1.41803 c 0,0.75173 -0.6663,1.36678 -1.3668,1.40095 z m 9.4479,-4.20284 c 0,-1.50345 -1.2301,-2.71647 -2.6994,-2.71647 -1.5376,0 -2.7165,1.29844 -2.7165,2.73356 v 2.95565 c 0,1.55471 1.2643,2.69938 2.7165,2.69938 0.7859,0 1.811,-0.32461 2.5456,-1.40094 l -1.1276,-0.82007 c -0.4271,0.59797 -1.008,0.83715 -1.418,0.83715 -0.7346,0 -1.3326,-0.59796 -1.3326,-1.31552 v -0.54671 h 1.3326 c 1.4522,0 2.6994,-0.87132 2.6994,-2.42603 z m -4.032,1.34969 v -1.31552 c 0,-0.73464 0.598,-1.34969 1.3326,-1.34969 0.7176,0 1.3155,0.59796 1.3155,1.31552 0,0.73464 -0.5979,1.34969 -1.3155,1.34969 z m 8.3544,-2.68229 c 0.7347,0 1.3497,0.61504 1.3497,1.3326 v 5.60378 h 1.3839 v -5.60378 c 0,-1.41803 -1.2301,-2.80189 -2.7165,-2.71647 -0.4613,0.0342 -1.1276,0.20502 -1.4351,0.92258 l -0.1879,-0.83715 h -1.0935 v 8.23482 h 1.3839 v -5.60378 c 0,-0.71756 0.598,-1.3326 1.3155,-1.3326 z m 8.2861,3.82697 c 0,0.99091 -0.598,1.81098 -1.3155,1.81098 -0.7347,0 -1.3497,-0.59797 -1.3497,-1.33261 v -2.97274 c 0,-0.71756 0.615,-1.31552 1.3497,-1.31552 0.7175,0 1.3155,0.76881 1.3155,1.79389 h 1.3839 c -0.017,-1.79389 -1.2643,-3.19484 -2.6994,-3.19484 -1.4693,0 -2.7336,1.17885 -2.7336,2.71647 v 2.97274 c 0,1.46928 1.2472,2.71647 2.7336,2.71647 1.5205,0 2.6823,-1.4522 2.6994,-3.19484 z m 5.7405,-3.79281 c 0.7517,-0.0342 1.3155,0.61505 1.3155,1.3497 v 5.55252 h 1.3838 l -0.017,-5.55252 c 0,-1.4522 -1.008,-2.87023 -2.6823,-2.73356 -0.5126,0.0342 -1.1276,0.37587 -1.3326,0.92258 l -0.017,-4.21992 h -1.3839 v 11.58342 h 1.3839 v -5.55252 c 0,-0.73465 0.615,-1.31553 1.3497,-1.3497 z m 5.7062,1.29844 c 0,-0.71756 0.5809,-1.3326 1.3156,-1.3326 0.7517,0 1.3497,0.61504 1.3497,1.3326 v 5.60378 h 1.3667 v -5.60378 c 0,-1.77681 2.6823,-1.86223 2.6652,0 v 5.60378 h 1.3668 v -5.60378 c 0,-1.52054 -1.1959,-2.71647 -2.6652,-2.71647 -0.7859,0 -1.623,0.30753 -2.0331,1.36678 -0.4271,-1.05925 -1.3326,-1.38386 -2.016,-1.36678 -0.4954,0.0171 -1.1276,0.23919 -1.4693,0.90549 l -0.1708,-0.80298 h -1.0763 v 8.21774 h 1.3667 z m 12.694,5.70629 c 0.4271,0 1.2984,-0.25627 1.4693,-0.97383 l 0.1366,0.87132 h 1.1106 v -5.58669 c 0,-1.50346 -1.2643,-2.71647 -2.7165,-2.71647 -0.6663,0 -1.4693,0.37586 -2.0502,0.90549 l 0.7518,1.14467 c 0.4612,-0.4442 0.9567,-0.64922 1.2984,-0.64922 0.7346,0 1.3326,0.59797 1.3326,1.31553 l 0.034,0.71755 c -0.188,-0.54671 -0.8543,-0.90549 -1.401,-0.90549 -1.5718,0 -2.6652,1.2301 -2.6652,2.66522 v 0.47837 c 0,1.46928 1.2301,2.73355 2.6994,2.73355 z m -1.3155,-2.73355 v -0.47837 c 0,-0.73464 0.5979,-1.31552 1.3155,-1.31552 0.7346,0 1.3326,0.47837 1.3326,1.16176 v 0.83715 c 0,0.61505 -0.6834,1.14467 -1.3326,1.14467 -0.7176,0 -1.3155,-0.61505 -1.3155,-1.34969 z m 7.0389,2.63104 v -5.89422 c 0.1366,-1.12759 1.3667,-1.26427 2.1697,-0.70047 l 0.4784,-1.24718 c -0.9226,-0.73465 -2.2381,-0.71756 -2.7165,0.49545 l -0.1537,-0.83715 h -1.1447 v 8.18357 z m 4.9374,-3.41694 c 0.6322,0 1.1789,0.2221 1.4181,0.75173 l 1.2301,2.66521 h 1.4522 l -1.4352,-3.21192 c -0.1366,-0.29044 -0.5979,-0.83715 -1.3496,-0.87132 0.7517,-0.0683 1.213,-0.63213 1.3496,-0.90549 0.2051,-0.47837 0.5126,-1.19593 0.7689,-1.74264 0.1537,-0.30752 0.5808,-1.2301 0.6833,-1.50345 h -1.4522 l -1.2471,2.6823 c -0.2392,0.54671 -0.7859,0.76881 -1.4181,0.76881 h -0.1025 v -6.78263 h -1.3838 v 11.56634 h 1.3838 v -3.41694 z m 9.9263,-3.36568 c -0.7005,-1.05925 -1.6231,-1.53763 -2.4944,-1.53763 -1.3668,0 -2.7165,0.93966 -2.6994,2.61396 0,1.58888 1.1447,2.18685 2.5627,2.22101 0.6663,0.0171 1.2814,0.35878 1.2814,1.07634 0,0.75173 -0.6492,1.14468 -1.3326,1.14468 -0.5297,0 -1.1276,-0.30753 -1.5206,-0.95675 l -1.1788,0.63214 c 0.6321,1.1105 1.7597,1.70847 2.6823,1.70847 1.3668,0 2.7506,-0.80298 2.7335,-2.52854 0,-1.64013 -1.2984,-2.44311 -2.6481,-2.47728 -0.6663,-0.0171 -1.213,-0.20502 -1.1959,-0.82007 0,-0.35878 0.1367,-0.63213 0.3075,-0.82006 0.2563,-0.27336 0.6321,-0.4442 1.0251,-0.4442 0.3758,0 0.8713,0.34169 1.3155,0.95674 z"
           id="path66" /></g><path
         style="baseline-shift:baseline;display:inline;overflow:visible;vector-effect:none;fill:#000000;fill-opacity:1;stroke-width:0.18949;paint-order:stroke fill markers;enable-background:accumulate;stop-color:#000000"
         d="m 2268.5736,160.64484 a 3.8009723,3.8009723 0 0 0 -4.0443,-3.54076 3.8009723,3.8009723 0 0 0 -3.5408,4.04446 3.8009723,3.8009723 0 0 0 4.0445,3.5408 3.8009723,3.8009723 0 0 0 3.5406,-4.0445 z"
         id="path86-6" /><path
         style="font-size:96px;font-family:ZagBold, 'Zag Bold';baseline-shift:baseline;display:inline;overflow:visible;vector-effect:none;fill:#808080;fill-opacity:1;stroke-width:0.228116;stroke-linecap:round;paint-order:stroke fill markers;enable-background:accumulate;stop-color:#000000"
         d="m 2252.9201,154.62071 c 1.8273,2.61916 5.4433,3.26194 8.0608,1.43564 l 0.018,-0.0116 c 1.8298,-1.11407 3.6476,-1.41215 5.7131,-0.73559 1.2783,0.44884 2.437,1.29261 3.1927,2.37586 0.3264,0.46855 0.5663,0.92617 0.76,1.47447 0.2748,0.69718 0.5062,1.42943 0.953,2.07819 0.3578,0.51265 0.7983,0.96462 1.3049,1.33996 1.2595,0.93197 2.7451,1.3032 4.2938,1.07114 1.309,-0.19537 2.4463,-0.78729 3.3296,-1.72383 1.8788,-1.94788 2.1837,-5.02063 0.5779,-7.32212 -0.4535,-0.65038 -0.9142,-0.83858 -1.6618,-1.52962 -0.4222,-0.38769 -0.807,-0.84632 -1.1197,-1.31769 -0.7433,-1.12027 -1.1014,-2.37387 -1.0873,-3.75032 0.039,-2.05756 1.1105,-4.10876 2.8046,-5.27679 0.5257,-0.35477 0.8554,-0.67681 1.2433,-1.20126 1.4798,-2.00014 1.5181,-4.71496 0.097,-6.75396 v 0 c -0.3586,-0.51387 -0.7956,-0.96442 -1.3047,-1.33987 -1.2396,-0.91536 -2.7645,-1.29549 -4.298,-1.06551 -1.5336,0.22992 -2.8834,1.03825 -3.7989,2.27776 -1.4802,2.00065 -1.518,4.71703 -0.095,6.75614 0.3544,0.50798 0.7876,0.95263 1.2873,1.3269 l 0.097,0.0714 c 0.5481,0.4104 1.0188,0.90264 1.4025,1.45265 0.7623,1.09247 1.1745,2.41287 1.1472,3.78099 -0.039,2.05237 -1.066,3.96162 -2.755,5.12894 -0.045,0.0305 -0.088,0.0624 -0.1322,0.094 -1.6738,1.13084 -3.7871,1.40406 -5.6987,0.73045 -1.2784,-0.44887 -2.3598,-1.28533 -3.1156,-2.36855 -0.3993,-0.5725 -0.7055,-1.21531 -0.9021,-1.90427 -0.177,-0.60899 -0.4498,-1.18573 -0.8188,-1.71535 -1.8274,-2.61913 -5.4423,-3.26243 -8.0612,-1.43541 -2.6191,1.82735 -3.2625,5.44172 -1.4352,8.06088 z"
         id="path80-2" /><path
         style="baseline-shift:baseline;display:inline;overflow:visible;vector-effect:none;fill:#ff9200;fill-opacity:1;stroke-width:0.18949;paint-order:stroke fill markers;enable-background:accumulate;stop-color:#000000"
         d="m 2272.1561,147.75466 a 2.7643435,2.7643435 0 0 0 -2.9414,-2.5751 2.7643435,2.7643435 0 0 0 -2.5751,2.94143 2.7643435,2.7643435 0 0 0 2.9414,2.57511 2.7643435,2.7643435 0 0 0 2.5751,-2.94144 z"
         id="path113" /></g></g></svg>
