<svg xmlns="http://www.w3.org/2000/svg" xml:space="preserve" width="401.485" height="122.439" viewBox="0 0 106.226 32.395">
    <g stroke="none" aria-label="MDANALYSIS Benchmarks" style="font-size:17.0847px;line-height:.8;font-family:&quot;Zag Bold&quot;;-inkscape-font-specification:&quot;Zag Bold, Normal&quot;;text-align:end;letter-spacing:-.177966px;text-anchor:end;fill:#ff9200;stroke-linecap:round;stroke-linejoin:round;paint-order:stroke fill markers">
        <path d="m2291.594 141.705-.086.923h-.103l-.085-.889c-.478-1.776-.888-3.519-1.469-5.364a1.13 1.13 0 0 0-1.06-.769c-.546 0-1.212.308-1.195 1.025v10.934h1.4l-.033-8.303-.171-2.29h.12l.307 1.76 1.367 4.562c.188.41.547.65.854.65a.95.95 0 0 0 .888-.65c.445-1.367.94-3.04 1.401-4.476l.393-1.845h.222l-.392 2.375-.051 7.978.017.24h1.4v-10.969c-.034-.718-.615-1.06-1.127-1.06-.41 0-.854.257-1.042.787-.308.94-.615 1.964-.906 2.972-.239.803-.427 1.623-.649 2.41zm8.929-4.68c.734 0 1.366.665 1.366 1.434v6.287c0 .77-.632 1.401-1.366 1.401h-2.29c0-3.092-.017-6.048-.017-9.123zm-2.614 10.54h2.614a2.814 2.814 0 0 0 2.784-2.819v-6.304c0-1.52-1.332-2.836-2.784-2.836h-2.614c-.632 0-1.094.444-1.094 1.093v9.756c0 .58.41 1.11 1.094 1.11" style="text-align:start;letter-spacing:-.177271px;text-anchor:start;fill:#000;stroke:none" transform="translate(-2251.878 -132.302)"/>
        <path d="M2310.972 147.565h1.52l-2.887-11.173c-.153-.547-.683-.923-1.11-.923-.444 0-.94.342-1.145.957l-2.836 11.14H2306c.154-.633.376-1.487 1.043-4.084h2.87zm-3.588-5.484c.325-1.367.564-2.887.906-4.254l.136-1.162h.137l.12 1.162.871 4.254zm10.996-6.475.068 8.286.496 2.255h-.103l-3.52-9.943.018.034c-.085-.427-.598-.683-1.008-.683a.947.947 0 0 0-.957 1.008v11.002h1.452l-.068-8.234-.41-2.102.205-.051c.154.444.496 2.101.803 2.921.889 2.324 1.709 4.75 2.563 6.851.17.376.632.615.974.615.461 0 .905-.324.905-.973v-10.986zm8.912 11.96h1.52l-2.887-11.174c-.153-.547-.683-.923-1.11-.923-.444 0-.94.342-1.145.957l-2.836 11.14h1.487c.153-.633.375-1.487 1.042-4.084h2.87zm-3.588-5.485c.325-1.367.564-2.887.906-4.254l.137-1.162h.136l.12 1.162.871 4.254zm11.577 5.484v-1.418h-4.134l-.017-10.54h-1.435v10.865c0 .666.598 1.128 1.179 1.093zm4.88-11.959h-1.537c-.376.888-1.521 3.895-1.914 4.852-.034.154-.12.803-.137.94l-.153-.923c-.445-1.11-1.435-3.741-1.93-4.869h-1.504a158 158 0 0 0 1.76 4.152c.392.905.751 1.76 1.11 2.614v5.193h1.418v-5.16zm.096 2.734v.99c.017 2.204 1.52 2.546 3.007 2.837.923.153 1.88.375 1.88 1.4v1.23c0 .94-.889 1.453-1.76 1.453-.889 0-1.743-.65-1.743-1.93h-1.384c-.017 2.22 1.504 3.365 3.127 3.365 1.554 0 3.16-.974 3.16-2.887v-1.23c0-2.085-1.606-2.512-2.99-2.802-.837-.171-1.913-.496-1.913-1.435v-.991c0-.94.871-1.453 1.76-1.453.871 0 1.742.667 1.742 1.931h1.401c0-2.204-1.589-3.349-3.143-3.349-1.606 0-3.144.974-3.144 2.87m9.083 9.225v-11.959h-1.418v11.96zm1.411-9.225v.99c.017 2.204 1.52 2.546 3.007 2.837.923.153 1.88.375 1.88 1.4v1.23c0 .94-.889 1.453-1.76 1.453-.888 0-1.743-.65-1.743-1.93h-1.384c-.017 2.22 1.504 3.365 3.127 3.365 1.555 0 3.16-.974 3.16-2.887v-1.23c0-2.085-1.605-2.512-2.99-2.802-.836-.171-1.913-.496-1.913-1.435v-.991c0-.94.872-1.453 1.76-1.453.871 0 1.743.667 1.743 1.931h1.4c0-2.204-1.588-3.349-3.143-3.349-1.606 0-3.144.974-3.144 2.87" style="text-align:start;letter-spacing:-.177271px;text-anchor:start;stroke:none" transform="translate(-2251.878 -132.302)"/>
        <path d="M2291.064 150.692c.786 0 1.418.65 1.418 1.418v.598c0 .769-.512 1.418-1.23 1.418h-2.255v-3.434zm2.82 2.016v-.598c0-1.623-1.316-2.82-2.82-2.836h-2.375c-.683 0-1.093.444-1.093 1.11v9.739c0 .7.41 1.127 1.093 1.127h2.597c1.418-.017 2.785-1.332 2.785-2.819v-1.418c0-.82-.547-2.033-1.674-2.204 1.025-.239 1.486-1.452 1.486-2.101m-2.598 7.124h-2.29v-4.271h2.256c.769 0 1.401.65 1.401 1.452v1.418c0 .752-.666 1.367-1.367 1.401m9.448-4.203c0-1.503-1.23-2.716-2.7-2.716-1.537 0-2.716 1.298-2.716 2.733v2.956c0 1.555 1.264 2.7 2.717 2.7.786 0 1.81-.325 2.545-1.401l-1.127-.82c-.427.597-1.008.837-1.418.837a1.33 1.33 0 0 1-1.333-1.316v-.547h1.333c1.452 0 2.7-.871 2.7-2.426m-4.032 1.35v-1.316c0-.734.598-1.35 1.333-1.35.717 0 1.315.599 1.315 1.316 0 .735-.598 1.35-1.315 1.35zm8.354-2.682c.735 0 1.35.615 1.35 1.332v5.604h1.384v-5.604c0-1.418-1.23-2.802-2.716-2.716-.462.034-1.128.205-1.435.922l-.188-.837h-1.094v8.235h1.384v-5.604c0-.717.598-1.332 1.316-1.332m8.287 3.827c0 .99-.598 1.81-1.316 1.81-.735 0-1.35-.597-1.35-1.332v-2.973c0-.717.615-1.315 1.35-1.315.718 0 1.316.769 1.316 1.794h1.384c-.018-1.794-1.265-3.195-2.7-3.195-1.47 0-2.734 1.179-2.734 2.716v2.973c0 1.47 1.248 2.717 2.734 2.717 1.52 0 2.682-1.453 2.7-3.195zm5.74-3.793c.752-.034 1.316.615 1.316 1.35v5.552h1.383l-.017-5.552c0-1.453-1.008-2.87-2.682-2.734-.512.034-1.127.376-1.332.923l-.018-4.22h-1.383v11.583h1.384v-5.552c0-.735.615-1.316 1.35-1.35zm5.706 1.298c0-.717.581-1.332 1.316-1.332.752 0 1.35.615 1.35 1.332v5.604h1.366v-5.604c0-1.776 2.683-1.862 2.666 0v5.604h1.366v-5.604c0-1.52-1.196-2.716-2.665-2.716-.786 0-1.623.307-2.033 1.367-.427-1.06-1.333-1.384-2.016-1.367-.495.017-1.128.239-1.47.905l-.17-.803h-1.076v8.218h1.366zm12.694 5.707c.427 0 1.299-.257 1.47-.974l.136.871h1.11v-5.587c0-1.503-1.264-2.716-2.716-2.716-.666 0-1.469.376-2.05.905l.752 1.145c.461-.444.957-.65 1.298-.65a1.33 1.33 0 0 1 1.333 1.316l.034.718c-.188-.547-.854-.906-1.401-.906-1.572 0-2.665 1.23-2.665 2.666v.478c0 1.47 1.23 2.734 2.7 2.734zm-1.315-2.734v-.478c0-.735.598-1.316 1.315-1.316.735 0 1.333.479 1.333 1.162v.837c0 .615-.683 1.145-1.333 1.145-.717 0-1.315-.615-1.315-1.35m7.039 2.631v-5.894c.136-1.128 1.366-1.264 2.17-.7l.478-1.248c-.923-.734-2.238-.717-2.717.496l-.153-.837h-1.145v8.183zm4.937-3.417c.632 0 1.179.222 1.418.752l1.23 2.665h1.452l-1.435-3.212c-.136-.29-.598-.837-1.35-.871.752-.068 1.214-.632 1.35-.906.205-.478.513-1.196.77-1.742.153-.308.58-1.23.682-1.504h-1.452l-1.247 2.683c-.239.546-.786.768-1.418.768h-.102v-6.782h-1.384v11.566h1.384v-3.417zm9.926-3.366c-.7-1.059-1.623-1.537-2.494-1.537-1.367 0-2.717.94-2.7 2.614 0 1.589 1.145 2.187 2.563 2.22.667.018 1.282.36 1.282 1.077 0 .752-.65 1.145-1.333 1.145-.53 0-1.128-.308-1.52-.957l-1.18.632c.633 1.11 1.76 1.709 2.683 1.709 1.367 0 2.75-.803 2.733-2.529 0-1.64-1.298-2.443-2.648-2.477-.666-.017-1.213-.205-1.196-.82 0-.359.137-.632.308-.82a1.42 1.42 0 0 1 1.025-.444c.376 0 .871.341 1.316.956z" style="text-align:start;letter-spacing:0;text-anchor:start;fill:gray;stroke:none" transform="translate(-2251.878 -132.302)"/>
    </g>
    <path d="M2268.574 160.645a3.8 3.8 0 0 0-4.045-3.54 3.8 3.8 0 0 0-3.54 4.044 3.8 3.8 0 0 0 4.044 3.54 3.8 3.8 0 0 0 3.54-4.044" style="baseline-shift:baseline;display:inline;overflow:visible;vector-effect:none;fill:#000;fill-opacity:1;stroke-width:.18949;paint-order:stroke fill markers;stop-color:#000" transform="translate(-2251.878 -132.302)"/>
    <path d="M2252.92 154.62a5.796 5.796 0 0 0 8.06 1.436l.019-.011c1.83-1.114 3.648-1.412 5.713-.736 1.278.449 2.437 1.293 3.193 2.376.326.469.566.926.76 1.474.275.698.506 1.43.953 2.079a5.8 5.8 0 0 0 1.305 1.34 5.67 5.67 0 0 0 4.293 1.07 5.65 5.65 0 0 0 3.33-1.723 5.79 5.79 0 0 0 .578-7.322c-.454-.65-.914-.839-1.662-1.53a7.3 7.3 0 0 1-1.12-1.317c-.743-1.12-1.101-2.374-1.087-3.75.04-2.058 1.11-4.11 2.805-5.278a4.6 4.6 0 0 0 1.243-1.2c1.48-2.001 1.518-4.716.097-6.755a5.7 5.7 0 0 0-1.305-1.34 5.75 5.75 0 0 0-4.298-1.065 5.75 5.75 0 0 0-3.799 2.278 5.786 5.786 0 0 0 1.193 8.083l.097.071a6.384 6.384 0 0 1 2.55 5.234 6.39 6.39 0 0 1-2.756 5.129q-.067.046-.132.094a6.387 6.387 0 0 1-9.716-3.543 5.795 5.795 0 0 0-8.88-3.15 5.795 5.795 0 0 0-1.435 8.06z" style="font-size:96px;font-family:ZagBold,&quot;Zag Bold&quot;;baseline-shift:baseline;display:inline;overflow:visible;vector-effect:none;fill:gray;fill-opacity:1;stroke-width:.228116;stroke-linecap:round;paint-order:stroke fill markers;stop-color:#000" transform="translate(-2251.878 -132.302)"/>
    <path d="M2272.156 147.755a2.764 2.764 0 0 0-2.941-2.575 2.764 2.764 0 0 0-2.575 2.941 2.764 2.764 0 0 0 2.941 2.575 2.764 2.764 0 0 0 2.575-2.941" style="baseline-shift:baseline;display:inline;overflow:visible;vector-effect:none;fill:#ff9200;fill-opacity:1;stroke-width:.18949;paint-order:stroke fill markers;stop-color:#000" transform="translate(-2251.878 -132.302)"/>
</svg>
