<?xml version="1.0" encoding="UTF-8" standalone="no"?>
<!-- Created with Inkscape (http://www.inkscape.org/) -->

<svg
   width="100.67025mm"
   height="45.882832mm"
   viewBox="0 0 100.67025 45.882832"
   version="1.1"
   id="svg1"
   xml:space="preserve"
   xmlns="http://www.w3.org/2000/svg"
   xmlns:svg="http://www.w3.org/2000/svg"><defs
     id="defs1"><style
       id="style1">
      .cls-1, .cls-2 {
        font-family: ZagBold, 'Zag Bold';
        font-size: 96px;
      }

      .cls-3 {
        letter-spacing: -.16em;
      }

      .cls-4 {
        letter-spacing: -.02em;
      }

      .cls-2, .cls-5 {
        fill: #ff9200;
      }

      .cls-6 {
        letter-spacing: 0em;
      }

      .cls-7 {
        fill: gray;
      }

      .cls-7, .cls-5, .cls-8 {
        fill-rule: evenodd;
      }

      .cls-9 {
        letter-spacing: -.03em;
      }
    </style></defs><g
     id="layer1"
     transform="translate(-3574.6649,-125.55859)"><g
       id="g95"><path
         style="font-size:96px;font-family:ZagBold, 'Zag Bold';baseline-shift:baseline;display:inline;overflow:visible;opacity:1;vector-effect:none;enable-background:accumulate;stop-color:#000000;stop-opacity:1"
         d="m 3616.7461,125.55859 c -0.014,1e-5 -0.026,0.008 -0.041,0.008 v -0.004 0 0.006 c -3.2468,0.0258 -5.8867,2.66708 -5.8867,5.91992 0,3.2688 2.6629,5.93164 5.9316,5.93164 0.6604,0 1.3053,-0.10801 1.92,-0.31836 0.6387,-0.21937 1.2999,-0.33008 1.957,-0.33008 1.2443,0 2.474,0.38522 3.5098,1.13086 1.5511,1.11394 2.4799,2.89415 2.5078,4.79688 3e-4,0.0494 -2e-4,0.10142 0,0.15625 0.01,1.93416 -0.9141,3.75586 -2.4785,4.89258 -1.0422,0.75859 -2.2843,1.15039 -3.5391,1.15039 -0.6314,0 -1.2635,-0.0974 -1.875,-0.29883 v 0 l -0.1113,-0.0391 v 0 c -0.6061,-0.2002 -1.2324,-0.30274 -1.8672,-0.30274 -2.5459,0 -4.8085,1.62428 -5.6211,4.03906 -0.5044,1.49446 -0.3901,3.1047 0.3144,4.5254 0.7044,1.42042 1.919,2.48191 3.4121,2.98632 0.6139,0.20772 1.2492,0.31033 1.8907,0.31055 v 0 c 2.5447,-0.001 4.8029,-1.62507 5.6153,-4.03906 0.2121,-0.63225 0.3164,-1.28294 0.3164,-1.93164 v 0.008 c 0.049,-1.95967 0.9462,-3.69204 2.4961,-4.85742 1.0448,-0.75982 2.2725,-1.19727 3.5214,-1.19727 0.5394,0 1.0975,0.0504 1.6133,0.19141 l 0.01,0.002 v 0.002 c 0.6997,0.16191 1.3876,0.46875 2.2285,0.46875 2.871,0 5.2735,-2.0548 5.8106,-4.77343 0.2688,-1.28985 0.099,-2.60041 -0.502,-3.81055 -0.7104,-1.43242 -1.902,-2.46852 -3.418,-2.97852 -0.6117,-0.20544 -1.2481,-0.31054 -1.8886,-0.31054 -0.8308,0 -1.5981,0.27748 -2.2657,0.45312 v 0 0 c -0.5234,0.14494 -1.039,0.19434 -1.5859,0.20117 -1.229,0.0148 -2.477,-0.34779 -3.5274,-1.125 -1.4987,-1.11 -2.4664,-2.8262 -2.4433,-4.89843 V 131.5 c 0,-3.26946 -2.7255,-5.94032 -5.9942,-5.94141 -6e-4,0 0,0 0,0 z m 0,0.5 c 7e-4,0 0,0 0,0 2.9962,0.001 5.4942,2.45004 5.4942,5.44141 v 0.0215 c -0.024,2.23026 1.0324,4.1054 2.6465,5.30079 v 0.002 c 1.1426,0.84552 2.5002,1.23871 3.832,1.22265 0.5731,-0.007 1.1335,-0.0596 1.709,-0.21875 0.6977,-0.18357 1.4218,-0.43554 2.1387,-0.43554 0.5858,0 1.1693,0.0967 1.7304,0.28515 1.398,0.47029 2.4722,1.40615 3.127,2.72657 0.5544,1.11592 0.7094,2.30128 0.4629,3.48437 v 0.002 0.002 c -0.4898,2.4895 -2.6863,4.37304 -5.3203,4.37304 -0.7147,0 -1.356,-0.28135 -2.1152,-0.45703 l 0.01,0.004 c -0.5743,-0.157 -1.1754,-0.21094 -1.7461,-0.21094 -1.3653,0 -2.6946,0.47523 -3.8164,1.29102 v 0.002 0.002 c -1.6691,1.2533 -2.6468,3.13887 -2.6992,5.2461 v 0.004 0.002 c 0,0.59566 -0.094,1.19069 -0.2891,1.77148 -0.7444,2.21221 -2.8111,3.6974 -5.1426,3.69922 -0.5881,-2e-4 -1.1683,-0.093 -1.7304,-0.2832 v 0 c -1.3709,-0.46267 -2.4778,-1.42934 -3.125,-2.73438 -0.6473,-1.30528 -0.7496,-2.77422 -0.2871,-4.14453 0.7449,-2.21355 2.8131,-3.69922 5.1465,-3.69922 0.5799,0 1.1523,0.0937 1.709,0.27735 l 0.1132,0.0391 v 0 c 0.6637,0.21888 1.3492,0.32422 2.0332,0.32422 1.3592,0 2.7054,-0.42461 3.834,-1.2461 1.6944,-1.23118 2.6928,-3.20443 2.6836,-5.29882 -2e-4,-0.0505 4e-4,-0.10396 0,-0.16016 v -0.002 c -0.03,-2.0608 -1.0375,-3.98932 -2.7168,-5.19532 -1.1218,-0.80759 -2.4535,-1.22461 -3.8008,-1.22461 -0.7127,0 -1.4285,0.12024 -2.1191,0.35743 -0.5626,0.19251 -1.1516,0.29101 -1.7579,0.29101 -2.9978,0 -5.4316,-2.43382 -5.4316,-5.43164 0,-2.99715 2.4328,-5.42861 5.4297,-5.42969 z"
         id="path258" /><path
         style="font-size:96px;font-family:ZagBold, 'Zag Bold';baseline-shift:baseline;display:inline;overflow:visible;vector-effect:none;fill:#808080;fill-opacity:1;stroke-width:0.264584;stroke-linecap:round;paint-order:stroke fill markers;enable-background:accumulate;stop-color:#000000"
         d="m 3608.4759,137.13025 c -3.1334,0 -5.6805,2.54893 -5.6805,5.68001 v 0.0205 c -0.1307,2.09769 -0.9113,3.72765 -2.6153,5.00986 -1.0788,0.77661 -2.4082,1.23516 -3.704,1.23516 -0.5603,0 -1.0631,-0.0643 -1.613,-0.21657 -0.7153,-0.17032 -1.4343,-0.39522 -2.2081,-0.39522 -0.6132,0 -1.2242,0.10074 -1.8106,0.29769 -1.457,0.49014 -2.5897,1.47713 -3.2723,2.85355 -0.5777,1.16303 -0.7398,2.41047 -0.4821,3.64693 0.5126,2.60516 2.8138,4.57539 5.5672,4.57539 0.7778,0 1.1879,-0.26481 2.1636,-0.47844 0.5489,-0.12199 1.134,-0.17424 1.6889,-0.16124 1.3187,0.0309 2.5284,0.44641 3.6281,1.23035 1.6338,1.18618 2.6825,3.20023 2.6714,5.21897 0,0.62219 0.065,1.0683 0.2686,1.67482 0.7786,2.3134 2.9416,3.86839 5.3801,3.86943 v 0 c 0.6148,-2.1e-4 1.2226,-0.0987 1.8106,-0.29768 1.4324,-0.48343 2.5942,-1.49712 3.2701,-2.86011 0.6759,-1.363 0.7833,-2.90304 0.2999,-4.33541 -0.7788,-2.31417 -2.9432,-3.86943 -5.3828,-3.86943 -0.6077,0 -1.2087,0.099 -1.7904,0.29112 l -0.1119,0.038 c -0.6379,0.21038 -1.2982,0.31299 -1.9562,0.31299 -1.307,0 -2.6008,-0.40943 -3.6862,-1.19948 -1.6294,-1.18394 -2.5893,-3.08173 -2.5804,-5.096 2e-4,-0.053 -4e-4,-0.10606 0,-0.15911 0.029,-1.98177 0.9962,-3.8355 2.6114,-4.99547 1.0787,-0.77661 2.3589,-1.17718 3.6548,-1.17718 0.6848,0 1.374,0.11442 2.0387,0.34271 0.5886,0.20143 1.2065,0.30424 1.8399,0.30424 3.1333,0 5.6804,-2.54713 5.6804,-5.68044 0,-3.13332 -2.5471,-5.68001 -5.6804,-5.68001 z"
         id="path261" /><path
         id="path262"
         class="cls-1"
         d="m 3604.69,125.80864 c 3.1333,0 5.7455,2.56094 5.7455,5.69202 v 0.0205 c -0.024,2.15214 0.988,3.94812 2.5449,5.10118 1.0965,0.81136 2.3992,1.19065 3.6796,1.17521 0.5603,-0.007 1.0988,-0.0588 1.6486,-0.21105 0.6826,-0.17961 1.4285,-0.44412 2.2023,-0.44412 0.6132,0 1.2241,0.10073 1.8105,0.29768 1.457,0.49014 2.5897,1.47713 3.2723,2.85355 0.5778,1.16303 0.7399,2.41047 0.4822,3.64694 -0.5126,2.60515 -2.8139,4.57539 -5.5672,4.57539 -0.7778,0 -1.4412,-0.29441 -2.1707,-0.4632 -0.5451,-0.14901 -1.1258,-0.20123 -1.6808,-0.20123 -1.3071,0 -2.5849,0.45642 -3.6682,1.24422 -1.6106,1.20935 -2.5479,3.01925 -2.5985,5.05344 0,0.62218 -0.099,1.2447 -0.3025,1.85122 -0.7785,2.31341 -2.9416,3.8684 -5.3801,3.86943 v 0 c -0.6148,-2.1e-4 -1.2226,-0.0987 -1.8106,-0.29768 -1.4324,-0.48343 -2.5942,-1.49712 -3.2701,-2.86011 -0.6759,-1.36299 -0.7833,-2.90303 -0.2999,-4.33541 0.7788,-2.31417 2.9432,-3.86943 5.3828,-3.86943 0.6077,0 1.2087,0.099 1.7904,0.29113 l 0.1119,0.038 c 0.6379,0.21038 1.2982,0.31298 1.9562,0.31298 1.307,0 2.6008,-0.40943 3.6862,-1.19947 1.6294,-1.18395 2.5893,-3.08173 2.5804,-5.09601 -2e-4,-0.053 4e-4,-0.10605 0,-0.15911 -0.029,-1.98176 -0.9962,-3.83549 -2.6114,-4.99546 -1.0788,-0.77662 -2.359,-1.17718 -3.6548,-1.17718 -0.6849,0 -1.3741,0.11442 -2.0388,0.3427 -0.5886,0.20143 -1.2065,0.30424 -1.8398,0.30424 -3.1333,0 -5.6805,-2.54713 -5.6805,-5.68044 0,-3.13331 2.5472,-5.68 5.6805,-5.68 z"
         style="font-size:96px;font-family:ZagBold, 'Zag Bold';display:inline;fill:#000000;fill-opacity:1;stroke-width:0px" /><path
         style="baseline-shift:baseline;display:inline;overflow:visible;vector-effect:none;fill:#ff9200;fill-opacity:1;stroke-width:0.264584;paint-order:stroke fill markers;enable-background:accumulate;stop-color:#000000"
         d="m 3619.6533,154.19921 a 2.9160715,2.9160715 0 0 1 -2.9161,2.91607 2.9160715,2.9160715 0 0 1 -2.916,-2.91607 2.9160715,2.9160715 0 0 1 2.916,-2.91607 2.9160715,2.9160715 0 0 1 2.9161,2.91607 z"
         id="path263" /><path
         style="baseline-shift:baseline;display:inline;overflow:visible;vector-effect:none;fill:#ff9200;fill-opacity:1;stroke-width:0.264584;stroke-linecap:round;paint-order:stroke fill markers;enable-background:accumulate;stop-color:#000000"
         d="m 3620.3218,131.66235 a 3.7521584,3.7521584 0 0 1 -3.7521,3.75216 3.7521584,3.7521584 0 0 1 -3.7522,-3.75216 3.7521584,3.7521584 0 0 1 3.7522,-3.75215 3.7521584,3.7521584 0 0 1 3.7521,3.75215 z"
         id="path264" /><path
         style="font-size:96px;font-family:ZagBold, 'Zag Bold';baseline-shift:baseline;display:inline;overflow:visible;opacity:1;vector-effect:none;fill:#808080;stroke-linecap:round;stroke-linejoin:round;paint-order:stroke fill markers;enable-background:accumulate;stop-color:#000000;stop-opacity:1"
         d="m 3596.418,136.88086 c -3.2681,10e-4 -5.9297,2.66369 -5.9297,5.92969 v 0.004 c -0.1274,2.04405 -0.8637,3.58311 -2.5156,4.82617 -1.0371,0.74543 -2.3174,1.18555 -3.5528,1.18555 -0.5412,0 -1.0173,-0.0604 -1.5469,-0.20703 a 0.250025,0.250025 0 0 0 -0.01,-0.004 c -0.7038,-0.16757 -1.4434,-0.40039 -2.2656,-0.40039 -0.6406,0 -1.279,0.10511 -1.8907,0.31055 -1.516,0.50999 -2.7056,1.54609 -3.416,2.97852 -0.6011,1.21013 -0.7708,2.51875 -0.5019,3.80859 0.5363,2.71954 2.9387,4.77539 5.8105,4.77539 0.8346,0 1.269,-0.27685 2.2168,-0.48437 0.5269,-0.11711 1.0938,-0.16879 1.6289,-0.15625 1.2692,0.0297 2.4236,0.4264 3.4863,1.18359 1.5661,1.13702 2.579,3.08438 2.5684,5.01562 0,0.63961 0.071,1.1295 0.2812,1.75586 0.8124,2.41397 3.0725,4.03798 5.6172,4.03907 0.6414,-2.2e-4 1.2768,-0.10283 1.8906,-0.31055 1.4939,-0.50419 2.7094,-1.56538 3.4141,-2.98633 0.7045,-1.4207 0.8168,-3.03095 0.3125,-4.52539 -0.8127,-2.41479 -3.0733,-4.04102 -5.6192,-4.04102 -0.6348,0 -1.263,0.10451 -1.8691,0.30469 l -0.1093,0.0371 c -0.6122,0.20188 -1.245,0.30078 -1.877,0.30078 -1.2548,0 -2.4968,-0.39373 -3.539,-1.15234 -1.5644,-1.13671 -2.4871,-2.95843 -2.4786,-4.89258 2e-4,-0.0548 -3e-4,-0.10689 0,-0.15625 v -0.002 c 0.028,-1.902 0.9573,-3.67941 2.5079,-4.79297 1.0356,-0.74563 2.2634,-1.13086 3.5078,-1.13086 0.6569,0 1.3202,0.10874 1.9589,0.32812 a 0.250025,0.250025 0 0 0 0,0.002 c 0.6147,0.21034 1.2595,0.3164 1.92,0.3164 3.2688,0 5.9316,-2.66089 5.9316,-5.92968 0,-3.2563 -2.6449,-5.90163 -5.8965,-5.92188 -0.012,-7e-5 -0.021,-0.008 -0.033,-0.008 -6e-4,0 0,0 0,0 z m 0,0.5 c 6e-4,0 0,0 0,0 2.9969,10e-4 5.4297,2.43252 5.4297,5.42969 0,2.99782 -2.4338,5.42968 -5.4316,5.42968 -0.6064,0 -1.1953,-0.0985 -1.7578,-0.29101 -0.6907,-0.2372 -1.4085,-0.35547 -2.1211,-0.35547 -1.3469,0 -2.6774,0.4177 -3.7989,1.22461 -1.6793,1.206 -2.6866,3.13255 -2.7168,5.19336 a 0.250025,0.250025 0 0 0 0,0.002 c -4e-4,0.0562 2e-4,0.10967 0,0.16016 -0.01,2.09387 0.99,4.06759 2.6836,5.29883 1.1286,0.82149 2.4748,1.24804 3.834,1.24804 0.684,0 1.3695,-0.10729 2.0332,-0.32617 l 0.1113,-0.0371 c 0.5573,-0.18406 1.1304,-0.2793 1.7109,-0.2793 2.3334,0 4.4016,1.48567 5.1465,3.69922 0.4625,1.3703 0.3602,2.83924 -0.2871,4.14453 -0.6471,1.30504 -1.7561,2.27171 -3.1269,2.73438 -0.5622,0.19024 -1.1424,0.28496 -1.7305,0.28516 -2.3323,-0.001 -4.3978,-1.48639 -5.1426,-3.69922 -0.1967,-0.58598 -0.2557,-0.99017 -0.2558,-1.59375 v -0.002 c 0.011,-2.10557 -1.0725,-4.18495 -2.7735,-5.41992 a 0.250025,0.250025 0 0 0 0,-0.002 c -1.1363,-0.81001 -2.4,-1.2453 -3.7676,-1.27734 -0.5747,-0.0135 -1.1791,0.0411 -1.75,0.16796 -1.0016,0.2196 -1.389,0.47266 -2.1094,0.47266 -2.6341,0 -4.8305,-1.88353 -5.3203,-4.37305 a 0.250025,0.250025 0 0 0 0,-0.004 c -0.2465,-1.18308 -0.093,-2.36845 0.461,-3.48438 0.6548,-1.32041 1.7309,-2.25823 3.1289,-2.72851 0.5611,-0.18846 1.1446,-0.28321 1.7305,-0.28321 0.7253,0 1.4235,0.21366 2.1503,0.38672 0.5672,0.15631 1.0952,0.22461 1.6719,0.22461 1.3548,0 2.7297,-0.47696 3.8496,-1.2832 a 0.250025,0.250025 0 0 0 0,-0.002 c 1.7561,-1.32136 2.5808,-3.04399 2.7149,-5.19532 a 0.250025,0.250025 0 0 0 0,-0.0156 v -0.0195 c 0,-2.99484 2.4328,-5.42861 5.4297,-5.42969 z"
         id="path265" /><path
         style="baseline-shift:baseline;display:inline;overflow:visible;vector-effect:none;fill:#ff9200;fill-opacity:1;stroke-width:0.264584;stroke-linecap:round;stroke-linejoin:round;paint-order:stroke fill markers;enable-background:accumulate;stop-color:#000000"
         d="m 3598.2445,142.77684 a 1.9121287,1.9121287 0 0 1 -1.9121,1.91213 1.9121287,1.9121287 0 0 1 -1.9121,-1.91213 1.9121287,1.9121287 0 0 1 1.9121,-1.91213 1.9121287,1.9121287 0 0 1 1.9121,1.91213 z"
         id="path267" /><path
         style="baseline-shift:baseline;display:inline;overflow:visible;vector-effect:none;fill:#ff9200;fill-opacity:1;stroke-width:0.264584;paint-order:stroke fill markers;enable-background:accumulate;stop-color:#000000"
         d="m 3601.5135,165.5396 a 5.1015315,5.1015315 0 0 1 -5.1015,5.10153 5.1015315,5.1015315 0 0 1 -5.1015,-5.10153 5.1015315,5.1015315 0 0 1 5.1015,-5.10154 5.1015315,5.1015315 0 0 1 5.1015,5.10154 z"
         id="path268" /><g
         id="text270"
         style="font-size:25.4584px;font-family:ZagBold, 'Zag Bold';letter-spacing:0px;fill:#ff9200;stroke-width:0.264584"
         class="cls-2"
         aria-label="PMDA"><path
           style="font-weight:bold;font-family:'Zag Bold';-inkscape-font-specification:'Zag Bold,  Bold';fill:#000000"
           d="m 3628.7409,152.96592 c -0.8401,0 -1.6293,0.68738 -1.6293,1.6548 v 16.16608 h 2.0621 v -6.82285 h 3.1314 c 2.2403,0 4.1242,-2.01121 4.1242,-4.22609 v -2.54584 c 0,-2.21488 -1.8839,-4.2261 -4.1242,-4.2261 z m 0.4328,2.16397 3.1314,-0.0509 c 1.1202,0 2.0367,0.96742 2.0367,2.11305 v 2.54584 c 0,1.17108 -0.9165,2.11305 -2.0367,2.11305 h -3.1314 z"
           id="path69" /><path
           style="font-weight:bold;font-family:'Zag Bold';-inkscape-font-specification:'Zag Bold,  Bold'"
           d="m 3644.1942,162.05457 -0.1273,1.37476 h -0.1528 l -0.1273,-1.32384 c -0.7128,-2.64767 -1.3238,-5.24443 -2.1894,-7.99394 -0.2291,-0.71283 -0.9165,-1.14563 -1.5784,-1.14563 -0.8147,0 -1.8076,0.45825 -1.7821,1.52751 v 16.29337 h 2.0876 l -0.051,-12.37278 -0.2546,-3.41142 h 0.1782 l 0.4582,2.62221 2.0367,6.79739 c 0.2801,0.61101 0.8147,0.96742 1.2729,0.96742 0.5856,0 1.1202,-0.38187 1.3239,-0.96742 0.6619,-2.03667 1.4002,-4.53159 2.0876,-6.6701 l 0.5855,-2.7495 h 0.331 l -0.5856,3.53871 -0.076,11.88908 0.025,0.35641 h 2.0876 v -16.34429 c -0.051,-1.06925 -0.9165,-1.57842 -1.6803,-1.57842 -0.611,0 -1.2729,0.38188 -1.5529,1.17109 -0.4583,1.40021 -0.9165,2.92771 -1.3493,4.42976 -0.3564,1.19654 -0.6365,2.41855 -0.9674,3.58963 z"
           id="path74" /><path
           style="font-weight:bold;font-family:'Zag Bold';-inkscape-font-specification:'Zag Bold,  Bold';letter-spacing:-0.529167px"
           d="m 3657.7635,155.07897 c 1.0947,0 2.0366,0.99288 2.0366,2.13851 v 9.36869 c 0,1.14563 -0.9419,2.08759 -2.0366,2.08759 h -3.4115 c 0,-4.60797 -0.025,-9.01228 -0.025,-13.59479 z m -3.8952,15.70783 h 3.8952 c 2.1639,0 4.1497,-1.78208 4.1497,-4.20063 v -9.39415 c 0,-2.2658 -1.9858,-4.2261 -4.1497,-4.2261 h -3.8952 c -0.9419,0 -1.6293,0.66192 -1.6293,1.62934 v 14.53675 c 0,0.86558 0.611,1.65479 1.6293,1.65479 z"
           id="path75" /><path
           style="font-weight:bold;font-family:'Zag Bold';-inkscape-font-specification:'Zag Bold,  Bold';fill:#808080"
           d="m 3673.0695,170.7868 h 2.2657 l -4.3024,-16.64979 c -0.2291,-0.81467 -1.0184,-1.37475 -1.6548,-1.37475 -0.6619,0 -1.4002,0.50916 -1.7057,1.42567 l -4.2261,16.59887 h 2.2149 c 0.2291,-0.94196 0.56,-2.21488 1.5529,-6.08455 h 4.277 z m -5.3463,-8.17214 c 0.4837,-2.03667 0.8401,-4.30247 1.3493,-6.33914 l 0.2036,-1.73118 h 0.2037 l 0.1782,1.73118 1.2984,6.33914 z"
           id="path76" /></g></g></g></svg>
