<svg xmlns="http://www.w3.org/2000/svg" xml:space="preserve" width="380.486" height="173.415" viewBox="0 0 100.67 45.883">
    <path d="M3616.746 125.559c-.014 0-.026.008-.04.008v-.004.006c-3.248.025-5.888 2.667-5.888 5.92a5.94 5.94 0 0 0 5.932 5.931c.66 0 1.305-.108 1.92-.318a6.003 6.003 0 0 1 5.467.8 6.02 6.02 0 0 1 2.508 4.797v.157a6.01 6.01 0 0 1-6.018 6.043 6 6 0 0 1-1.875-.3l-.111-.038a5.93 5.93 0 0 0-7.488 3.736 5.9 5.9 0 0 0 .314 4.525 5.9 5.9 0 0 0 3.412 2.987 5.926 5.926 0 0 0 7.506-3.729 6 6 0 0 0 .316-1.931v.008c.05-1.96.946-3.692 2.496-4.858 1.045-.76 2.273-1.197 3.522-1.197.54 0 1.097.05 1.613.191l.01.002v.002c.7.162 1.388.47 2.229.47a5.93 5.93 0 0 0 5.81-4.774c.269-1.29.1-2.6-.502-3.81a5.82 5.82 0 0 0-3.418-2.98 6 6 0 0 0-1.888-.31c-.831 0-1.599.278-2.266.453-.524.145-1.04.195-1.586.201a5.8 5.8 0 0 1-3.527-1.125c-1.5-1.11-2.467-2.826-2.444-4.898v-.024c0-3.27-2.725-5.94-5.994-5.941zm0 .5c2.996 0 5.494 2.45 5.494 5.441v.022c-.024 2.23 1.033 4.105 2.647 5.3v.002a6.3 6.3 0 0 0 3.832 1.223 6.6 6.6 0 0 0 1.709-.219c.697-.183 1.422-.435 2.138-.435.586 0 1.17.096 1.73.285a5.3 5.3 0 0 1 3.128 2.726c.554 1.116.71 2.302.463 3.485v.004a5.43 5.43 0 0 1-5.32 4.373c-.715 0-1.357-.282-2.116-.457l.01.004a6.7 6.7 0 0 0-1.746-.211c-1.365 0-2.694.475-3.816 1.29v.005a6.69 6.69 0 0 0-2.7 5.246v.006c0 .596-.093 1.19-.289 1.771a5.426 5.426 0 0 1-6.873 3.416 5.38 5.38 0 0 1-3.125-2.734 5.38 5.38 0 0 1-.287-4.144 5.426 5.426 0 0 1 6.856-3.422l.113.039a6.514 6.514 0 0 0 8.55-6.22v-.163a6.52 6.52 0 0 0-2.716-5.195 6.5 6.5 0 0 0-5.92-.868 5.434 5.434 0 0 1-7.19-5.14 5.433 5.433 0 0 1 5.43-5.43z" style="stop-color:#000;stop-opacity:1" transform="translate(-3574.665 -125.559)"/>
    <path d="M3608.476 137.13a5.687 5.687 0 0 0-5.68 5.68v.02c-.131 2.098-.912 3.728-2.616 5.01-1.079.777-2.408 1.236-3.704 1.236-.56 0-1.063-.065-1.613-.217-.715-.17-1.434-.395-2.208-.395-.613 0-1.224.1-1.81.298a5.56 5.56 0 0 0-3.273 2.853 5.54 5.54 0 0 0-.482 3.647 5.68 5.68 0 0 0 5.567 4.576c.778 0 1.188-.265 2.164-.479a7 7 0 0 1 1.689-.161c1.318.03 2.528.446 3.628 1.23 1.634 1.186 2.682 3.2 2.671 5.22 0 .621.065 1.067.269 1.674a5.68 5.68 0 0 0 5.38 3.87c.615 0 1.222-.1 1.81-.298a5.64 5.64 0 0 0 3.27-2.86 5.64 5.64 0 0 0 .3-4.336 5.677 5.677 0 0 0-7.173-3.578l-.112.038a6.263 6.263 0 0 1-5.642-.886 6.27 6.27 0 0 1-2.58-5.097v-.159a6.26 6.26 0 0 1 2.611-4.995 6.25 6.25 0 0 1 5.693-.835 5.685 5.685 0 0 0 7.52-5.376 5.685 5.685 0 0 0-5.68-5.68z" style="fill:gray;fill-opacity:1;stroke-width:.264584;stroke-linecap:round;paint-order:stroke fill markers;stop-color:#000" transform="translate(-3574.665 -125.559)"/>
    <path d="M3604.69 125.809c3.133 0 5.746 2.56 5.746 5.692v.02c-.025 2.152.987 3.948 2.544 5.101a6.05 6.05 0 0 0 3.68 1.176 6.4 6.4 0 0 0 1.649-.212c.682-.18 1.428-.444 2.202-.444.613 0 1.224.101 1.81.298a5.56 5.56 0 0 1 3.273 2.854 5.54 5.54 0 0 1 .482 3.647 5.68 5.68 0 0 1-5.567 4.575c-.778 0-1.442-.294-2.171-.463a6.4 6.4 0 0 0-1.68-.201c-1.308 0-2.586.456-3.669 1.244a6.43 6.43 0 0 0-2.599 5.053c0 .622-.099 1.245-.302 1.851a5.68 5.68 0 0 1-5.38 3.87 5.6 5.6 0 0 1-1.81-.298 5.64 5.64 0 0 1-3.27-2.86 5.64 5.64 0 0 1-.3-4.335 5.677 5.677 0 0 1 7.172-3.579l.112.038a6.263 6.263 0 0 0 5.642-.886 6.27 6.27 0 0 0 2.581-5.096v-.16a6.26 6.26 0 0 0-2.611-4.995 6.25 6.25 0 0 0-5.694-.834 5.686 5.686 0 0 1-7.52-5.376 5.685 5.685 0 0 1 5.68-5.68z" style="font-size:96px;font-family:ZagBold,&quot;Zag Bold&quot;;display:inline;fill:#000;fill-opacity:1;stroke-width:0" transform="translate(-3574.665 -125.559)"/>
    <path d="M3619.653 154.2a2.916 2.916 0 0 1-2.916 2.915 2.916 2.916 0 0 1-2.916-2.916 2.916 2.916 0 0 1 2.916-2.916 2.916 2.916 0 0 1 2.916 2.916" style="baseline-shift:baseline;display:inline;overflow:visible;vector-effect:none;fill:#ff9200;fill-opacity:1;stroke-width:.264584;paint-order:stroke fill markers;stop-color:#000" transform="translate(-3574.665 -125.559)"/>
    <path d="M3620.322 131.662a3.75 3.75 0 0 1-3.752 3.753 3.75 3.75 0 0 1-3.753-3.753 3.75 3.75 0 0 1 3.753-3.752 3.75 3.75 0 0 1 3.752 3.752" style="baseline-shift:baseline;display:inline;overflow:visible;vector-effect:none;fill:#ff9200;fill-opacity:1;stroke-width:.264584;stroke-linecap:round;paint-order:stroke fill markers;stop-color:#000" transform="translate(-3574.665 -125.559)"/>
    <path d="M3596.418 136.88a5.94 5.94 0 0 0-5.93 5.93v.005c-.127 2.044-.863 3.583-2.515 4.826-1.037.745-2.318 1.185-3.553 1.185-.541 0-1.017-.06-1.547-.207l-.01-.004c-.704-.167-1.443-.4-2.266-.4-.64 0-1.279.105-1.89.31a5.82 5.82 0 0 0-3.416 2.979 5.8 5.8 0 0 0-.502 3.809 5.93 5.93 0 0 0 5.81 4.775c.835 0 1.27-.277 2.217-.484a7 7 0 0 1 1.629-.157c1.27.03 2.424.427 3.486 1.184 1.566 1.137 2.58 3.084 2.569 5.015 0 .64.07 1.13.28 1.756a5.93 5.93 0 0 0 7.509 3.729 5.9 5.9 0 0 0 3.414-2.986 5.93 5.93 0 0 0-5.307-8.566 6 6 0 0 0-1.869.304l-.11.037a6.013 6.013 0 0 1-5.416-.852 6.02 6.02 0 0 1-2.478-4.892v-.158a6.01 6.01 0 0 1 2.508-4.793 6 6 0 0 1 5.467-.803v.002a5.94 5.94 0 0 0 7.852-5.613c0-3.257-2.646-5.902-5.897-5.922-.012 0-.021-.008-.033-.008zm0 .5a5.433 5.433 0 0 1 5.43 5.43 5.432 5.432 0 0 1-7.19 5.14 6.5 6.5 0 0 0-5.92.87 6.51 6.51 0 0 0-2.716 5.192v.162a6.516 6.516 0 0 0 8.55 6.22l.112-.037a5.426 5.426 0 0 1 6.857 3.42c.463 1.37.36 2.84-.287 4.145a5.39 5.39 0 0 1-3.127 2.734 5.424 5.424 0 0 1-6.873-3.414 4.5 4.5 0 0 1-.256-1.593v-.002c.011-2.106-1.072-4.185-2.773-5.42v-.002c-1.137-.81-2.4-1.246-3.768-1.278a7.4 7.4 0 0 0-1.75.168c-1.002.22-1.389.473-2.11.473a5.43 5.43 0 0 1-5.32-4.373v-.004a5.28 5.28 0 0 1 .461-3.485 5.3 5.3 0 0 1 3.13-2.728 5.4 5.4 0 0 1 1.73-.283c.725 0 1.423.213 2.15.386a6.1 6.1 0 0 0 1.672.225c1.355 0 2.73-.477 3.85-1.283v-.002c1.756-1.322 2.58-3.044 2.714-5.195v-.036a5.434 5.434 0 0 1 5.43-5.43z" style="fill:gray;stroke-linecap:round;stroke-linejoin:round;paint-order:stroke fill markers;stop-color:#000;stop-opacity:1" transform="translate(-3574.665 -125.559)"/>
    <path d="M3598.245 142.777a1.91 1.91 0 0 1-1.913 1.912 1.91 1.91 0 0 1-1.912-1.912 1.91 1.91 0 0 1 1.912-1.912 1.91 1.91 0 0 1 1.912 1.912" style="baseline-shift:baseline;display:inline;overflow:visible;vector-effect:none;fill:#ff9200;fill-opacity:1;stroke-width:.264584;stroke-linecap:round;stroke-linejoin:round;paint-order:stroke fill markers;stop-color:#000" transform="translate(-3574.665 -125.559)"/>
    <path d="M3601.514 165.54a5.1 5.1 0 0 1-5.102 5.101 5.1 5.1 0 0 1-5.101-5.101 5.1 5.1 0 0 1 5.101-5.102 5.1 5.1 0 0 1 5.102 5.102" style="baseline-shift:baseline;display:inline;overflow:visible;vector-effect:none;fill:#ff9200;fill-opacity:1;stroke-width:.264584;paint-order:stroke fill markers;stop-color:#000" transform="translate(-3574.665 -125.559)"/>
    <g aria-label="PMDA" style="fill:#ff9200;stroke-width:.264584">
        <path d="M3628.74 152.966c-.84 0-1.628.687-1.628 1.655v16.166h2.062v-6.823h3.131c2.24 0 4.124-2.011 4.124-4.226v-2.546c0-2.215-1.884-4.226-4.124-4.226zm.434 2.164 3.131-.051c1.12 0 2.037.967 2.037 2.113v2.546c0 1.171-.917 2.113-2.037 2.113h-3.131z" style="fill:#000" transform="translate(-3574.665 -125.559)"/>
        <path d="m3644.194 162.055-.127 1.374h-.153l-.127-1.324c-.713-2.647-1.324-5.244-2.19-7.993-.229-.713-.916-1.146-1.578-1.146-.815 0-1.808.458-1.782 1.527v16.294h2.087l-.05-12.373-.255-3.411h.178l.458 2.622 2.037 6.797c.28.611.815.968 1.273.968.585 0 1.12-.382 1.324-.968.662-2.036 1.4-4.531 2.087-6.67l.586-2.75h.33l-.585 3.54-.076 11.888.025.357h2.088v-16.344c-.051-1.07-.917-1.579-1.68-1.579-.611 0-1.273.382-1.553 1.171-.459 1.4-.917 2.928-1.35 4.43-.356 1.196-.636 2.418-.967 3.59z" style="font-weight:700;font-family:&quot;Zag Bold&quot;;-inkscape-font-specification:&quot;Zag Bold, Bold&quot;" transform="translate(-3574.665 -125.559)"/>
        <path d="M3657.764 155.079c1.094 0 2.036.993 2.036 2.138v9.37c0 1.145-.942 2.087-2.037 2.087h-3.411c0-4.608-.025-9.013-.025-13.595zm-3.896 15.708h3.896c2.163 0 4.15-1.782 4.15-4.2v-9.395c0-2.266-1.987-4.226-4.15-4.226h-3.896c-.942 0-1.629.662-1.629 1.63v14.536c0 .866.611 1.655 1.63 1.655" style="letter-spacing:-.529167px" transform="translate(-3574.665 -125.559)"/>
        <path d="M3673.07 170.787h2.265l-4.302-16.65c-.23-.815-1.019-1.375-1.655-1.375-.662 0-1.4.51-1.706 1.426l-4.226 16.599h2.215c.23-.942.56-2.215 1.553-6.085h4.277zm-5.347-8.172c.484-2.037.84-4.303 1.35-6.34l.203-1.73h.204l.178 1.73 1.298 6.34z" style="fill:gray" transform="translate(-3574.665 -125.559)"/>
    </g>
</svg>
