<?xml version="1.0" encoding="UTF-8" standalone="no"?>
<!-- Created with Inkscape (http://www.inkscape.org/) -->

<svg
   width="129.05629mm"
   height="48.136936mm"
   viewBox="0 0 129.05629 48.136936"
   version="1.1"
   id="svg1"
   xml:space="preserve"
   xmlns="http://www.w3.org/2000/svg"
   xmlns:svg="http://www.w3.org/2000/svg"><defs
     id="defs1"><style
       id="style1">
      .cls-1, .cls-2 {
        font-family: ZagBold, 'Zag Bold';
        font-size: 96px;
      }

      .cls-3 {
        letter-spacing: -.16em;
      }

      .cls-4 {
        letter-spacing: -.02em;
      }

      .cls-2, .cls-5 {
        fill: #ff9200;
      }

      .cls-6 {
        letter-spacing: 0em;
      }

      .cls-7 {
        fill: gray;
      }

      .cls-7, .cls-5, .cls-8 {
        fill-rule: evenodd;
      }

      .cls-9 {
        letter-spacing: -.03em;
      }
    </style></defs><g
     id="layer1"
     transform="translate(-1800.4635,-124.43163)"><g
       id="g87"><g
         id="text63"
         style="font-size:17.0847px;line-height:0.8;font-family:'Zag Bold';-inkscape-font-specification:'Zag Bold, Normal';text-align:end;letter-spacing:-0.177966px;text-anchor:end;fill:#ff9200;stroke:#ff00ff;stroke-width:0.177966;stroke-linecap:round;stroke-linejoin:round;paint-order:stroke fill markers"
         aria-label="TransportAnalysis"><path
           style="text-align:center;text-anchor:middle;stroke:none"
           d="m 1829.3463,156.52715 v 1.41803 h 2.7336 v 10.54125 h 1.4009 v -10.54125 h 2.8019 v -1.41803 z m 8.2277,11.95928 v -5.89422 c 0.1367,-1.12759 1.3668,-1.26426 2.1698,-0.70047 l 0.4784,-1.24718 c -0.9226,-0.73464 -2.2381,-0.71756 -2.7165,0.49545 l -0.1538,-0.83715 h -1.1446 v 8.18357 z m 5.1695,0.10251 c 0.4272,0 1.2985,-0.25627 1.4693,-0.97382 l 0.1367,0.87131 h 1.1105 v -5.58669 c 0,-1.50346 -1.2643,-2.71647 -2.7165,-2.71647 -0.6663,0 -1.4692,0.37586 -2.0501,0.90549 l 0.7517,1.14467 c 0.4613,-0.4442 0.9568,-0.64921 1.2984,-0.64921 0.7347,0 1.3327,0.59796 1.3327,1.31552 l 0.034,0.71756 c -0.1879,-0.54671 -0.8542,-0.90549 -1.4009,-0.90549 -1.5718,0 -2.6652,1.23009 -2.6652,2.66521 v 0.47837 c 0,1.46929 1.2301,2.73355 2.6993,2.73355 z m -1.3155,-2.73355 v -0.47837 c 0,-0.73464 0.598,-1.31552 1.3155,-1.31552 0.7347,0 1.3327,0.47837 1.3327,1.16176 v 0.83715 c 0,0.61505 -0.6834,1.14467 -1.3327,1.14467 -0.7175,0 -1.3155,-0.61505 -1.3155,-1.34969 z m 8.1936,-4.30534 c 0.7346,0 1.3497,0.61505 1.3497,1.3326 v 5.60378 h 1.3838 v -5.60378 c 0,-1.41803 -1.2301,-2.80189 -2.7164,-2.71646 -0.4613,0.0342 -1.1276,0.20501 -1.4352,0.92257 l -0.1879,-0.83715 h -1.0934 v 8.23482 h 1.3838 v -5.60378 c 0,-0.71755 0.598,-1.3326 1.3156,-1.3326 z m 9.2186,0.15376 c -0.7005,-1.05925 -1.6231,-1.53762 -2.4944,-1.53762 -1.3668,0 -2.7164,0.93965 -2.6994,2.61396 0,1.58887 1.1447,2.18684 2.5627,2.22101 0.6663,0.0171 1.2814,0.35877 1.2814,1.07633 0,0.75173 -0.6492,1.14468 -1.3326,1.14468 -0.5296,0 -1.1276,-0.30753 -1.5205,-0.95675 l -1.1789,0.63214 c 0.6321,1.1105 1.7597,1.70847 2.6823,1.70847 1.3668,0 2.7506,-0.80298 2.7336,-2.52854 0,-1.64013 -1.2985,-2.44311 -2.6482,-2.47728 -0.6663,-0.0171 -1.213,-0.20502 -1.1959,-0.82006 0,-0.35878 0.1367,-0.63214 0.3075,-0.82007 0.2563,-0.27336 0.6322,-0.4442 1.0251,-0.4442 0.3759,0 0.8713,0.34169 1.3155,0.95674 z m 3.9053,-1.58888 c -0.5126,0 -1.1105,0.25627 -1.4181,0.95675 l -0.2733,-0.85424 h -1.0422 v 11.65177 h 1.3839 v -4.06616 c 0.3075,0.56379 0.8542,0.6663 1.3155,0.70047 1.5205,0.11959 2.7506,-1.24718 2.7506,-2.63104 v -3.26318 c 0,-1.41803 -0.8542,-2.49437 -2.7164,-2.49437 z m 1.3326,5.75755 c 0,0.70047 -0.6322,1.24718 -1.3668,1.24718 -0.8542,0 -1.2984,-0.49546 -1.3155,-1.17885 v -3.24609 c 0,-0.59796 0.5809,-1.21301 1.3155,-1.21301 0.7517,0 1.3668,0.4442 1.3668,1.12759 z m 8.3985,-3.00691 c 0,-1.84515 -1.3838,-2.69938 -2.7848,-2.69938 -1.3838,0 -2.7677,0.85423 -2.7677,2.69938 v 2.98982 c 0,1.82806 1.3668,2.71647 2.7677,2.71647 1.3839,0 2.7848,-0.88841 2.7848,-2.71647 z m -1.3838,2.98982 c 0,0.87132 -0.7005,1.31552 -1.401,1.31552 -0.6834,0 -1.4009,-0.4442 -1.4009,-1.31552 v -2.98982 c 0,-0.87132 0.7175,-1.33261 1.4009,-1.33261 0.7005,0 1.401,0.46129 1.401,1.33261 z m 4.1786,2.63104 v -5.89422 c 0.1367,-1.12759 1.3668,-1.26426 2.1698,-0.70047 l 0.4783,-1.24718 c -0.9225,-0.73464 -2.2381,-0.71756 -2.7164,0.49545 l -0.1538,-0.83715 h -1.1447 v 8.18357 z m 4.6399,-8.2519 v -3.33152 h -1.3668 v 8.8157 c 0,1.62305 1.5035,2.76772 3.229,2.76772 v -1.36677 c -1.008,0 -1.8622,-0.61505 -1.8622,-1.40095 v -4.10032 h 1.7085 v -1.38386 z"
           id="path57" /><path
           style="text-align:center;text-anchor:middle;fill:#000000;stroke:none"
           d="m 1888.942,168.48643 h 1.5205 l -2.8873,-11.17339 c -0.1537,-0.54671 -0.6834,-0.92257 -1.1105,-0.92257 -0.4442,0 -0.9397,0.34169 -1.1447,0.95674 l -2.836,11.13922 h 1.4863 c 0.1538,-0.63213 0.3759,-1.48636 1.0422,-4.08324 h 2.8702 z m -3.5878,-5.48418 c 0.3246,-1.36678 0.5638,-2.88732 0.9055,-4.25409 l 0.1367,-1.16176 h 0.1366 l 0.1196,1.16176 0.8714,4.25409 z m 8.689,-1.4522 c 0.7346,0 1.3497,0.61505 1.3497,1.3326 v 5.60378 h 1.3838 v -5.60378 c 0,-1.41803 -1.2301,-2.80189 -2.7164,-2.71646 -0.4613,0.0342 -1.1276,0.20501 -1.4352,0.92257 l -0.1879,-0.83715 h -1.0934 v 8.23482 h 1.3839 v -5.60378 c 0,-0.71755 0.5979,-1.3326 1.3155,-1.3326 z m 6.5876,7.03889 c 0.4271,0 1.2984,-0.25627 1.4692,-0.97382 l 0.1367,0.87131 h 1.1105 v -5.58669 c 0,-1.50346 -1.2642,-2.71647 -2.7164,-2.71647 -0.6664,0 -1.4693,0.37586 -2.0502,0.90549 l 0.7517,1.14467 c 0.4613,-0.4442 0.9568,-0.64921 1.2985,-0.64921 0.7346,0 1.3326,0.59796 1.3326,1.31552 l 0.034,0.71756 c -0.1879,-0.54671 -0.8542,-0.90549 -1.4009,-0.90549 -1.5718,0 -2.6652,1.23009 -2.6652,2.66521 v 0.47837 c 0,1.46929 1.2301,2.73355 2.6994,2.73355 z m -1.3156,-2.73355 v -0.47837 c 0,-0.73464 0.598,-1.31552 1.3156,-1.31552 0.7346,0 1.3326,0.47837 1.3326,1.16176 v 0.83715 c 0,0.61505 -0.6834,1.14467 -1.3326,1.14467 -0.7176,0 -1.3156,-0.61505 -1.3156,-1.34969 z m 6.861,-0.13668 v -8.8157 h -1.3668 v 8.8157 c 0,1.62305 1.3497,2.76772 3.1094,2.76772 v -1.36677 c -0.9909,0 -1.7426,-0.61505 -1.7426,-1.40095 z m 7.7493,3.43403 v -8.88405 h -1.3839 v 5.87714 c 0,0.6663 -0.5979,1.02508 -1.2813,1.02508 -0.7176,0.0171 -1.3668,-0.56379 -1.3668,-1.26426 v -5.63796 h -1.3839 v 5.63796 c 0,1.48636 1.2985,2.71646 2.7507,2.63104 0.3417,-0.0171 1.0592,-0.25627 1.2813,-0.88841 v 1.50346 c 0,0.71756 -0.5979,1.29844 -1.2984,1.29844 -0.3588,0 -0.9055,-0.23919 -1.3839,-0.63214 l -0.9055,1.04217 c 0.6834,0.56379 1.6231,0.99091 2.2894,0.99091 1.4351,0 2.6652,-1.16176 2.6823,-2.69938 z m 6.5021,-7.44893 c -0.7004,-1.05925 -1.623,-1.53762 -2.4943,-1.53762 -1.3668,0 -2.7165,0.93965 -2.6994,2.61396 0,1.58887 1.1447,2.18684 2.5627,2.22101 0.6663,0.0171 1.2813,0.35877 1.2813,1.07633 0,0.75173 -0.6492,1.14468 -1.3326,1.14468 -0.5296,0 -1.1275,-0.30753 -1.5205,-0.95675 l -1.1788,0.63214 c 0.6321,1.1105 1.7597,1.70847 2.6823,1.70847 1.3667,0 2.7506,-0.80298 2.7335,-2.52854 0,-1.64013 -1.2984,-2.44311 -2.6481,-2.47728 -0.6663,-0.0171 -1.213,-0.20502 -1.1959,-0.82006 0,-0.35878 0.1366,-0.63214 0.3075,-0.82007 0.2562,-0.27336 0.6321,-0.4442 1.0251,-0.4442 0.3758,0 0.8713,0.34169 1.3155,0.95674 z m 1.9406,-4.10033 c -0.4442,0 -0.8372,0.3417 -0.8372,0.87132 0,0.49546 0.393,0.85424 0.8372,0.85424 0.4613,0 0.8884,-0.35878 0.8884,-0.85424 0,-0.52962 -0.4271,-0.87132 -0.8884,-0.87132 z m 0.7005,2.66521 h -1.3668 v 8.21774 h 1.3668 z m 6.4167,1.43512 c -0.7005,-1.05925 -1.6231,-1.53762 -2.4944,-1.53762 -1.3668,0 -2.7164,0.93965 -2.6994,2.61396 0,1.58887 1.1447,2.18684 2.5627,2.22101 0.6663,0.0171 1.2814,0.35877 1.2814,1.07633 0,0.75173 -0.6492,1.14468 -1.3326,1.14468 -0.5296,0 -1.1276,-0.30753 -1.5205,-0.95675 l -1.1789,0.63214 c 0.6321,1.1105 1.7597,1.70847 2.6823,1.70847 1.3668,0 2.7506,-0.80298 2.7336,-2.52854 0,-1.64013 -1.2985,-2.44311 -2.6482,-2.47728 -0.6663,-0.0171 -1.213,-0.20502 -1.1959,-0.82006 0,-0.35878 0.1367,-0.63214 0.3075,-0.82007 0.2563,-0.27336 0.6322,-0.4442 1.0251,-0.4442 0.3759,0 0.8713,0.34169 1.3155,0.95674 z"
           id="path58" /></g><path
         style="font-size:96px;font-family:ZagBold, 'Zag Bold';baseline-shift:baseline;display:inline;overflow:visible;vector-effect:none;fill:#808080;fill-opacity:1;stroke-width:0.228116;stroke-linecap:round;paint-order:stroke fill markers;enable-background:accumulate;stop-color:#000000"
         d="m 1822.5494,137.85749 c -3.1934,-0.0312 -5.8148,2.54126 -5.8458,5.73272 l -5e-4,0.0209 c -0.1541,2.13669 -0.9658,3.79026 -2.7153,5.08013 -1.1072,0.78083 -2.4666,1.23499 -3.7874,1.22213 -0.571,-0.006 -1.0829,-0.076 -1.6418,-0.23637 -0.7274,-0.18049 -1.458,-0.417 -2.2457,-0.42938 -0.6251,-0.006 -1.2488,0.0906 -1.8484,0.28541 -1.4898,0.48519 -2.654,1.47987 -3.3635,2.87593 -0.6003,1.17957 -0.7779,2.44935 -0.5276,3.71211 0.4967,2.66035 2.8225,4.69129 5.6288,4.71858 0.7927,0.008 1.2133,-0.25809 2.2099,-0.46613 0.5607,-0.11894 1.1575,-0.16633 1.7229,-0.14764 1.3437,0.0446 2.5725,0.48015 3.6855,1.29001 1.6535,1.22515 2.7024,3.28826 2.6709,5.34569 -0.016,0.634 0.055,1.08946 0.2572,1.70964 0.7706,2.36565 2.9596,3.97188 5.445,3.99708 v 0 c 0.6266,0.006 1.247,-0.0884 1.8482,-0.28536 1.4647,-0.47856 2.659,-1.50011 3.3614,-2.88263 0.7024,-1.38244 0.8271,-2.95086 0.3486,-4.41561 -0.7708,-2.36634 -2.9613,-3.97301 -5.4477,-3.99712 -0.6194,-0.006 -1.2329,0.0889 -1.8277,0.27887 l -0.1144,0.0375 c -0.6523,0.20825 -1.3263,0.30608 -1.9969,0.29954 -1.3321,-0.0129 -2.6466,-0.44321 -3.7452,-1.25912 -1.6488,-1.22283 -2.6084,-3.16656 -2.5793,-5.21948 7e-4,-0.0537 7e-4,-0.10816 0,-0.16217 0.05,-2.01944 1.0534,-3.89912 2.7111,-5.06538 1.1072,-0.78082 2.4159,-1.1764 3.7367,-1.16353 0.698,0.007 1.3993,0.13031 2.0744,0.36993 0.5979,0.21134 1.2267,0.32161 1.8722,0.3282 3.1935,0.0311 5.8147,-2.54007 5.8459,-5.7332 0.031,-3.19338 -2.5396,-5.81426 -5.7331,-5.84544 z"
         id="path63" /><path
         style="font-size:96px;font-family:ZagBold, 'Zag Bold';baseline-shift:baseline;display:inline;overflow:visible;vector-effect:none;fill:#808080;fill-opacity:1;stroke-width:0.228116;stroke-linecap:round;paint-order:stroke fill markers;enable-background:accumulate;stop-color:#000000"
         d="m 1817.7631,147.03512 c 1.8592,2.5967 5.483,3.19501 8.0778,1.33715 l 0.019,-0.008 c 1.816,-1.13639 3.63,-1.45671 5.7037,-0.80532 1.2837,0.43303 2.4525,1.26268 3.2214,2.3366 0.3322,0.46446 0.5777,0.91916 0.7781,1.46498 0.2834,0.69379 0.5236,1.42321 0.9783,2.06648 0.364,0.50823 0.81,0.9547 1.3211,1.32392 1.2708,0.91659 2.7608,1.26959 4.3066,1.01854 1.3065,-0.21126 2.4365,-0.81714 3.3083,-1.76445 1.8548,-1.97066 2.1221,-5.04672 0.4883,-7.32865 -0.4615,-0.64449 -0.9243,-0.82726 -1.6803,-1.50904 -0.4269,-0.38259 -0.8173,-0.83636 -1.1358,-1.30398 -0.7568,-1.11108 -1.1303,-2.36021 -1.1332,-3.73667 0.014,-2.05792 1.0603,-4.12207 2.74,-5.31059 0.5214,-0.36105 0.8469,-0.68766 1.2285,-1.21648 1.4552,-2.018 1.4604,-4.73313 0.014,-6.75468 v 0 c -0.3649,-0.50932 -0.8072,-0.95455 -1.3209,-1.32375 -1.2506,-0.90014 -2.7801,-1.26157 -4.3107,-1.01293 -1.5307,0.24867 -2.8705,1.07354 -3.7707,2.32409 -1.4557,2.01854 -1.4603,4.73506 -0.013,6.75675 0.3606,0.50361 0.7994,0.94285 1.3037,1.31099 l 0.098,0.0702 c 0.553,0.40387 1.0298,0.89006 1.4201,1.43536 0.7757,1.08319 1.2039,2.39833 1.1934,3.7667 -0.014,2.05267 -1.0174,3.9744 -2.6921,5.16226 -0.044,0.0311 -0.088,0.063 -0.1319,0.0942 -1.6598,1.15145 -3.7697,1.45025 -5.6893,0.79997 -1.2838,-0.43303 -2.3753,-1.25633 -3.1443,-2.33023 -0.4064,-0.56757 -0.7205,-1.20658 -0.9253,-1.8931 -0.1822,-0.60751 -0.4642,-1.18012 -0.8398,-1.70521 -1.8592,-2.59657 -5.4815,-3.19607 -8.0782,-1.33684 -2.5966,1.85918 -3.1956,5.48117 -1.3365,8.07788 z"
         id="path64" /><path
         style="baseline-shift:baseline;display:inline;overflow:visible;vector-effect:none;fill:#000000;fill-opacity:1;stroke-width:0.18949;paint-order:stroke fill markers;enable-background:accumulate;stop-color:#000000"
         d="m 1826.5035,141.96969 a 4.3192867,4.3192867 0 0 0 -5.6798,-2.24786 4.3192867,4.3192867 0 0 0 -2.2478,5.67977 4.3192867,4.3192867 0 0 0 5.6797,2.24786 4.3192867,4.3192867 0 0 0 2.2479,-5.67977 z"
         id="path70" /><path
         style="baseline-shift:baseline;display:inline;overflow:visible;vector-effect:none;fill:#ff9200;fill-opacity:1;stroke-width:0.18949;paint-order:stroke fill markers;enable-background:accumulate;stop-color:#000000"
         d="m 1838.2504,138.3756 a 4.3192867,4.3192867 0 0 0 -5.6798,-2.24786 4.3192867,4.3192867 0 0 0 -2.2478,5.67977 4.3192867,4.3192867 0 0 0 5.6797,2.24786 4.3192867,4.3192867 0 0 0 2.2479,-5.67977 z"
         id="path71" /><path
         style="baseline-shift:baseline;display:inline;overflow:visible;vector-effect:none;fill:#ff9200;fill-opacity:1;stroke-width:0.18949;paint-order:stroke fill markers;enable-background:accumulate;stop-color:#000000"
         d="m 1814.0912,141.82827 a 4.3192867,4.3192867 0 0 0 -5.6798,-2.24786 4.3192867,4.3192867 0 0 0 -2.2478,5.67977 4.3192867,4.3192867 0 0 0 5.6798,2.24786 4.3192867,4.3192867 0 0 0 2.2478,-5.67977 z"
         id="path72" /><path
         style="baseline-shift:baseline;display:inline;overflow:visible;vector-effect:none;fill:#ff9200;fill-opacity:1;stroke-width:0.18949;paint-order:stroke fill markers;enable-background:accumulate;stop-color:#000000"
         d="m 1822.5799,153.51197 a 4.3192867,4.3192867 0 0 0 -5.6797,-2.24786 4.3192867,4.3192867 0 0 0 -2.2479,5.67977 4.3192867,4.3192867 0 0 0 5.6798,2.24786 4.3192867,4.3192867 0 0 0 2.2478,-5.67977 z"
         id="path73" /></g></g></svg>
