<svg xmlns="http://www.w3.org/2000/svg" xml:space="preserve" width="487.772" height="181.935" viewBox="0 0 129.056 48.137">
    <g stroke="none" aria-label="TransportAnalysis" style="fill:#ff9200;stroke-width:.177966;stroke-linecap:round;stroke-linejoin:round;paint-order:stroke fill markers">
        <path d="M1829.346 156.527v1.418h2.734v10.541h1.4v-10.54h2.803v-1.419zm8.228 11.96v-5.895c.137-1.127 1.367-1.264 2.17-.7l.478-1.247c-.922-.735-2.238-.718-2.716.495l-.154-.837h-1.145v8.183zm5.17.102c.427 0 1.298-.256 1.469-.974l.136.871h1.111V162.9c0-1.504-1.264-2.717-2.717-2.717-.666 0-1.469.376-2.05.906l.752 1.144c.461-.444.957-.649 1.298-.649a1.33 1.33 0 0 1 1.333 1.316l.034.717c-.188-.546-.854-.905-1.4-.905-1.573 0-2.666 1.23-2.666 2.665v.478c0 1.47 1.23 2.734 2.7 2.734m-1.316-2.734v-.478c0-.735.598-1.316 1.315-1.316.735 0 1.333.479 1.333 1.162v.837c0 .615-.683 1.145-1.333 1.145-.717 0-1.315-.615-1.315-1.35m8.194-4.305c.734 0 1.35.615 1.35 1.333v5.603h1.383v-5.603c0-1.418-1.23-2.802-2.716-2.717-.462.034-1.128.205-1.435.923l-.188-.837h-1.094v8.234h1.384v-5.603c0-.718.598-1.333 1.316-1.333m9.218.154c-.7-1.06-1.623-1.538-2.494-1.538-1.367 0-2.717.94-2.7 2.614 0 1.589 1.145 2.187 2.563 2.221.666.017 1.281.359 1.281 1.076 0 .752-.649 1.145-1.332 1.145-.53 0-1.128-.307-1.52-.957l-1.18.633c.633 1.11 1.76 1.708 2.683 1.708 1.367 0 2.75-.803 2.733-2.529 0-1.64-1.298-2.443-2.648-2.477-.666-.017-1.213-.205-1.196-.82 0-.359.137-.632.308-.82a1.42 1.42 0 0 1 1.025-.444c.376 0 .871.342 1.315.957zm3.905-1.59c-.512 0-1.11.257-1.418.958l-.273-.855h-1.042v11.652h1.384v-4.066c.307.564.854.666 1.315.7 1.52.12 2.75-1.247 2.75-2.63v-3.264c0-1.418-.853-2.494-2.716-2.494m1.333 5.758c0 .701-.632 1.248-1.367 1.248-.854 0-1.298-.496-1.315-1.18v-3.245c0-.598.58-1.213 1.315-1.213.752 0 1.367.444 1.367 1.127zm8.399-3.006c0-1.846-1.384-2.7-2.785-2.7-1.384 0-2.768.854-2.768 2.7v2.99c0 1.827 1.367 2.716 2.768 2.716 1.384 0 2.785-.889 2.785-2.717zm-1.384 2.99c0 .87-.7 1.315-1.401 1.315-.684 0-1.401-.444-1.401-1.316v-2.99c0-.87.717-1.332 1.4-1.332.701 0 1.402.461 1.402 1.333zm4.178 2.63v-5.894c.137-1.127 1.367-1.264 2.17-.7l.478-1.247c-.922-.735-2.238-.718-2.716.495l-.154-.837h-1.144v8.183zm4.64-8.251v-3.332h-1.367v8.816c0 1.623 1.504 2.767 3.23 2.767v-1.366c-1.009 0-1.863-.615-1.863-1.401v-4.1h1.709v-1.384z" style="text-align:center;text-anchor:middle;stroke:none" transform="translate(-1800.464 -124.432)"/>
        <path d="M1888.942 168.486h1.52l-2.887-11.173c-.154-.547-.683-.923-1.11-.923-.444 0-.94.342-1.145.957l-2.836 11.14h1.486c.154-.633.376-1.487 1.042-4.084h2.87zm-3.588-5.484c.325-1.367.564-2.887.906-4.254l.136-1.162h.137l.12 1.162.871 4.254zm8.69-1.452c.734 0 1.349.615 1.349 1.333v5.603h1.384v-5.603c0-1.418-1.23-2.802-2.717-2.717-.461.034-1.127.205-1.435.923l-.188-.837h-1.093v8.234h1.384v-5.603c0-.718.598-1.333 1.315-1.333m6.587 7.039c.427 0 1.298-.256 1.469-.974l.137.871h1.11V162.9c0-1.504-1.264-2.717-2.716-2.717-.667 0-1.47.376-2.05.906l.751 1.144c.462-.444.957-.649 1.299-.649a1.33 1.33 0 0 1 1.332 1.316l.034.717c-.187-.546-.854-.905-1.4-.905-1.572 0-2.666 1.23-2.666 2.665v.478c0 1.47 1.23 2.734 2.7 2.734m-1.316-2.734v-.478c0-.735.598-1.316 1.316-1.316.734 0 1.332.479 1.332 1.162v.837c0 .615-.683 1.145-1.332 1.145-.718 0-1.316-.615-1.316-1.35m6.861-.136v-8.816h-1.367v8.816c0 1.623 1.35 2.767 3.11 2.767v-1.366c-.991 0-1.743-.615-1.743-1.401m7.75 3.434v-8.884h-1.384v5.877c0 .666-.598 1.025-1.282 1.025-.717.017-1.366-.564-1.366-1.264v-5.638h-1.384v5.638c0 1.486 1.298 2.716 2.75 2.63.342-.016 1.06-.256 1.282-.888v1.504c0 .717-.598 1.298-1.299 1.298-.359 0-.905-.239-1.384-.632l-.905 1.042c.683.564 1.623.991 2.29.991 1.434 0 2.664-1.162 2.682-2.7m6.502-7.45c-.7-1.058-1.623-1.537-2.495-1.537-1.366 0-2.716.94-2.7 2.614 0 1.589 1.146 2.187 2.564 2.221.666.017 1.28.359 1.28 1.076 0 .752-.648 1.145-1.332 1.145-.53 0-1.127-.307-1.52-.957l-1.179.633c.632 1.11 1.76 1.708 2.682 1.708 1.367 0 2.75-.803 2.734-2.529 0-1.64-1.299-2.443-2.648-2.477-.667-.017-1.213-.205-1.196-.82 0-.359.136-.632.307-.82a1.42 1.42 0 0 1 1.025-.444c.376 0 .872.342 1.316.957zm1.94-4.1c-.444 0-.837.342-.837.872 0 .495.393.854.837.854.462 0 .889-.359.889-.854 0-.53-.427-.872-.889-.872m.7 2.666h-1.366v8.217h1.367zm6.417 1.435c-.7-1.06-1.623-1.538-2.494-1.538-1.367 0-2.716.94-2.7 2.614 0 1.589 1.145 2.187 2.563 2.221.667.017 1.282.359 1.282 1.076 0 .752-.65 1.145-1.333 1.145-.53 0-1.128-.307-1.52-.957l-1.18.633c.633 1.11 1.76 1.708 2.683 1.708 1.367 0 2.75-.803 2.734-2.529 0-1.64-1.299-2.443-2.649-2.477-.666-.017-1.213-.205-1.196-.82 0-.359.137-.632.308-.82a1.42 1.42 0 0 1 1.025-.444c.376 0 .871.342 1.316.957z" style="text-align:center;text-anchor:middle;fill:#000;stroke:none" transform="translate(-1800.464 -124.432)"/>
    </g>
    <path d="M1822.55 137.857a5.796 5.796 0 0 0-5.846 5.733v.021c-.155 2.137-.967 3.79-2.716 5.08-1.107.781-2.467 1.235-3.788 1.222a6 6 0 0 1-1.641-.236c-.728-.18-1.458-.417-2.246-.43a5.8 5.8 0 0 0-1.849.286 5.67 5.67 0 0 0-3.363 2.876 5.65 5.65 0 0 0-.528 3.712 5.79 5.79 0 0 0 5.63 4.719c.792.008 1.212-.258 2.21-.466a7.3 7.3 0 0 1 1.722-.148c1.344.044 2.573.48 3.686 1.29 1.653 1.225 2.702 3.288 2.67 5.346-.016.634.055 1.089.258 1.71a5.79 5.79 0 0 0 5.445 3.996 5.7 5.7 0 0 0 1.848-.285 5.75 5.75 0 0 0 3.361-2.883 5.75 5.75 0 0 0 .349-4.415 5.786 5.786 0 0 0-7.276-3.719l-.114.038a6.385 6.385 0 0 1-5.742-.96 6.39 6.39 0 0 1-2.58-5.22v-.161a6.387 6.387 0 0 1 8.523-5.86 5.795 5.795 0 0 0 7.718-5.405 5.795 5.795 0 0 0-5.733-5.845z" style="fill:gray;fill-opacity:1;stroke-width:.228116;stroke-linecap:round;paint-order:stroke fill markers;stop-color:#000" transform="translate(-1800.464 -124.432)"/>
    <path d="M1817.763 147.035a5.796 5.796 0 0 0 8.078 1.337l.019-.008c1.816-1.136 3.63-1.456 5.704-.805 1.283.433 2.452 1.263 3.221 2.337.332.464.578.919.778 1.465.283.693.524 1.423.978 2.066.364.508.81.955 1.321 1.324a5.67 5.67 0 0 0 4.307 1.018 5.65 5.65 0 0 0 3.308-1.764 5.79 5.79 0 0 0 .489-7.329c-.462-.644-.925-.827-1.68-1.509a7.3 7.3 0 0 1-1.136-1.304c-.757-1.11-1.13-2.36-1.134-3.736.014-2.058 1.06-4.122 2.74-5.31.522-.362.847-.689 1.229-1.217a5.79 5.79 0 0 0 .014-6.755 5.7 5.7 0 0 0-1.321-1.324 5.75 5.75 0 0 0-4.31-1.013 5.75 5.75 0 0 0-3.771 2.324 5.786 5.786 0 0 0 1.29 8.068l.098.07a6.384 6.384 0 0 1 2.614 5.202 6.39 6.39 0 0 1-2.692 5.163q-.066.046-.132.094a6.386 6.386 0 0 1-9.76-3.424 5.795 5.795 0 0 0-8.918-3.042 5.795 5.795 0 0 0-1.336 8.078z" style="fill:gray;fill-opacity:1;stroke-width:.228116;stroke-linecap:round;paint-order:stroke fill markers;stop-color:#000" transform="translate(-1800.464 -124.432)"/>
    <path d="M1826.504 141.97a4.32 4.32 0 0 0-5.68-2.248 4.32 4.32 0 0 0-2.248 5.68 4.32 4.32 0 0 0 5.68 2.247 4.32 4.32 0 0 0 2.247-5.68" style="baseline-shift:baseline;display:inline;overflow:visible;vector-effect:none;fill:#000;fill-opacity:1;stroke-width:.18949;paint-order:stroke fill markers;stop-color:#000" transform="translate(-1800.464 -124.432)"/>
    <path d="M1838.25 138.376a4.32 4.32 0 0 0-5.68-2.248 4.32 4.32 0 0 0-2.247 5.68 4.32 4.32 0 0 0 5.68 2.247 4.32 4.32 0 0 0 2.247-5.68M1814.091 141.828a4.32 4.32 0 0 0-5.68-2.248 4.32 4.32 0 0 0-2.247 5.68 4.32 4.32 0 0 0 5.68 2.248 4.32 4.32 0 0 0 2.247-5.68M1822.58 153.512a4.32 4.32 0 0 0-5.68-2.248 4.32 4.32 0 0 0-2.248 5.68 4.32 4.32 0 0 0 5.68 2.248 4.32 4.32 0 0 0 2.248-5.68" style="baseline-shift:baseline;display:inline;overflow:visible;vector-effect:none;fill:#ff9200;fill-opacity:1;stroke-width:.18949;paint-order:stroke fill markers;stop-color:#000" transform="translate(-1800.464 -124.432)"/>
</svg>
