<?xml version="1.0" encoding="UTF-8" standalone="no"?>
<!-- Created with Inkscape (http://www.inkscape.org/) -->

<svg
   width="117.9417mm"
   height="34.736839mm"
   viewBox="0 0 117.9417 34.736839"
   version="1.1"
   id="svg1"
   xml:space="preserve"
   xmlns="http://www.w3.org/2000/svg"
   xmlns:svg="http://www.w3.org/2000/svg"><defs
     id="defs1"><style
       id="style1">
      .cls-1, .cls-2 {
        font-family: ZagBold, 'Zag Bold';
        font-size: 96px;
      }

      .cls-3 {
        letter-spacing: -.16em;
      }

      .cls-4 {
        letter-spacing: -.02em;
      }

      .cls-2, .cls-5 {
        fill: #ff9200;
      }

      .cls-6 {
        letter-spacing: 0em;
      }

      .cls-7 {
        fill: gray;
      }

      .cls-7, .cls-5, .cls-8 {
        fill-rule: evenodd;
      }

      .cls-9 {
        letter-spacing: -.03em;
      }
    </style></defs><g
     id="layer1"
     transform="translate(-706.02917,-131.13159)"><g
       id="g82"><path
         style="font-size:96px;font-family:ZagBold, 'Zag Bold';baseline-shift:baseline;display:inline;overflow:visible;vector-effect:none;fill:#808080;fill-opacity:1;stroke-width:0.228116;stroke-linecap:round;paint-order:stroke fill markers;enable-background:accumulate;stop-color:#000000"
         d="m 752.43845,165.84838 c -3.19363,0 -5.78978,-2.59799 -5.78978,-5.78933 v -0.0209 c -0.13327,-2.13807 -0.92883,-3.79939 -2.66569,-5.10628 -1.09952,-0.79157 -2.45449,-1.25894 -3.77528,-1.25894 -0.5711,0 -1.08359,0.0655 -1.644,0.22074 -0.72906,0.1736 -1.46195,0.40282 -2.25064,0.40282 -0.62504,0 -1.24776,-0.10267 -1.84542,-0.30341 -1.48504,-0.49958 -2.63955,-1.50557 -3.33531,-2.90848 -0.58886,-1.18542 -0.75409,-2.45686 -0.49143,-3.71713 0.52247,-2.6553 2.86802,-4.66345 5.67439,-4.66345 0.79277,0 1.21077,0.26991 2.20529,0.48765 0.55947,0.12433 1.15582,0.17759 1.72141,0.16434 1.344,-0.0315 2.57699,-0.455 3.69794,-1.25403 1.66524,-1.20902 2.73414,-3.26183 2.72274,-5.31943 -0.005,-0.63416 0.0662,-1.08886 0.27382,-1.70705 0.79358,-2.35793 2.99824,-3.94285 5.48369,-3.94391 h 0.002 c 0.62663,2.2e-4 1.24613,0.10061 1.84543,0.30341 1.45994,0.49273 2.64416,1.52594 3.33307,2.91516 0.68891,1.38923 0.79837,2.95891 0.30564,4.41886 -0.79384,2.35871 -2.9999,3.94391 -5.48636,3.94391 -0.61946,0 -1.232,-0.10093 -1.82493,-0.29673 l -0.11406,-0.0388 c -0.65013,-0.21443 -1.32312,-0.31901 -1.99378,-0.31901 -1.3322,0 -2.65087,0.41731 -3.75723,1.22256 -1.66069,1.20673 -2.63914,3.14105 -2.63002,5.19409 2e-4,0.0541 -4.3e-4,0.1081 -0.002,0.16218 0.0299,2.01991 1.01535,3.90931 2.66165,5.09161 1.09952,0.79157 2.40436,1.19984 3.72515,1.19984 0.69804,0 1.40049,-0.11662 2.07799,-0.3493 0.59995,-0.20531 1.22971,-0.3101 1.87528,-0.3101 3.19362,0 5.78977,2.59616 5.78977,5.78978 0,3.19362 -2.59615,5.78933 -5.78977,5.78933 z"
         id="path36" /><path
         style="baseline-shift:baseline;display:inline;overflow:visible;vector-effect:none;fill:#ff9200;fill-opacity:1;stroke-width:0.228116;paint-order:stroke fill markers;enable-background:accumulate;stop-color:#000000"
         d="m 720.34633,136.35132 a 5.1997254,5.1997254 0 0 0 -5.19973,-5.19972 5.1997254,5.1997254 0 0 0 -5.19972,5.19972 5.1997254,5.1997254 0 0 0 5.19972,5.19973 5.1997254,5.1997254 0 0 0 5.19973,-5.19973 z"
         id="path37" /><path
         style="baseline-shift:baseline;display:inline;overflow:visible;vector-effect:none;fill:#ff9200;fill-opacity:1;stroke-width:0.288699;stroke-linecap:round;stroke-linejoin:round;paint-order:stroke fill markers;enable-background:accumulate;stop-color:#000000"
         d="m 750.89682,148.45011 a 2.4665399,2.4665399 0 0 0 -2.46654,-2.46654 2.4665399,2.4665399 0 0 0 -2.46654,2.46654 2.4665399,2.4665399 0 0 0 2.46654,2.46654 2.4665399,2.4665399 0 0 0 2.46654,-2.46654 z"
         id="path38" /><path
         style="font-size:96px;font-family:ZagBold, 'Zag Bold';baseline-shift:baseline;display:inline;overflow:visible;vector-effect:none;fill:#000000;fill-opacity:1;stroke-width:0.228116;stroke-linecap:round;paint-order:stroke fill markers;enable-background:accumulate;stop-color:#000000"
         d="m 740.17395,165.86843 c -3.19362,0 -5.78978,-2.59799 -5.78978,-5.78933 v -0.0209 c -0.13326,-2.13806 -0.92883,-3.79939 -2.66569,-5.10628 -1.09952,-0.79156 -2.45448,-1.25894 -3.77528,-1.25894 -0.5711,0 -1.08358,0.0655 -1.644,0.22074 -0.72906,0.1736 -1.46195,0.40282 -2.25064,0.40282 -0.62503,0 -1.24775,-0.10267 -1.84542,-0.30341 -1.48503,-0.49957 -2.63955,-1.50556 -3.3353,-2.90848 -0.58886,-1.18541 -0.75409,-2.45686 -0.49143,-3.71713 0.52246,-2.6553 2.86801,-4.66345 5.67438,-4.66345 0.79277,0 1.21077,0.26991 2.2053,0.48765 0.55947,0.12434 1.15581,0.17759 1.72141,0.16435 1.344,-0.0315 2.57699,-0.45501 3.69793,-1.25404 1.66525,-1.20901 2.73415,-3.26182 2.72274,-5.31943 -0.005,-0.63416 0.0662,-1.08885 0.27382,-1.70705 0.79358,-2.35793 2.99824,-3.94285 5.48369,-3.94391 h 0.002 c 0.62662,2.2e-4 1.24612,0.10061 1.84542,0.30341 1.45994,0.49273 2.64417,1.52594 3.33308,2.91516 0.68891,1.38923 0.79837,2.95892 0.30563,4.41886 -0.79384,2.35872 -2.9999,3.94391 -5.48636,3.94391 -0.61946,0 -1.23199,-0.10093 -1.82493,-0.29673 l -0.11405,-0.0388 c -0.65013,-0.21443 -1.32313,-0.31901 -1.99379,-0.31901 -1.3322,0 -2.65087,0.41731 -3.75723,1.22256 -1.66068,1.20674 -2.63914,3.14105 -2.63001,5.19409 1.9e-4,0.0541 -4.4e-4,0.1081 -0.002,0.16218 0.0299,2.01991 1.01535,3.90932 2.66164,5.09162 1.09952,0.79156 2.40436,1.19983 3.72516,1.19983 0.69803,0 1.40048,-0.11662 2.07799,-0.3493 0.59994,-0.2053 1.2297,-0.31009 1.87527,-0.31009 3.19362,0 5.78978,2.59615 5.78978,5.78977 0,3.19363 -2.59616,5.78933 -5.78978,5.78933 z"
         id="path39" /><path
         style="font-size:96px;font-family:ZagBold, 'Zag Bold';baseline-shift:baseline;display:inline;overflow:visible;vector-effect:none;fill:#808080;fill-opacity:1;stroke-width:0.228116;stroke-linecap:round;paint-order:stroke fill markers;enable-background:accumulate;stop-color:#000000"
         d="m 727.94777,165.86843 c -3.19362,0 -5.78978,-2.59799 -5.78978,-5.78933 v -0.0209 c -0.13326,-2.13806 -0.92883,-3.79939 -2.66569,-5.10628 -1.09952,-0.79156 -2.45449,-1.25894 -3.77528,-1.25894 -0.5711,0 -1.08358,0.0655 -1.644,0.22074 -0.72906,0.1736 -1.46195,0.40282 -2.25064,0.40282 -0.62503,0 -1.24776,-0.10267 -1.84542,-0.30341 -1.48503,-0.49957 -2.63955,-1.50556 -3.3353,-2.90848 -0.58887,-1.18541 -0.7541,-2.45686 -0.49143,-3.71713 0.52246,-2.6553 2.86801,-4.66345 5.67438,-4.66345 0.79277,0 1.21077,0.26991 2.20529,0.48765 0.55948,0.12434 1.15582,0.17759 1.72142,0.16435 1.344,-0.0315 2.57699,-0.45501 3.69793,-1.25404 1.66525,-1.20901 2.73415,-3.26182 2.72274,-5.31943 -0.005,-0.63416 0.0662,-1.08885 0.27382,-1.70705 0.79358,-2.35793 2.99824,-3.94285 5.48369,-3.94391 h 0.002 c 0.62662,2.2e-4 1.24612,0.10061 1.84542,0.30341 1.45994,0.49273 2.64417,1.52594 3.33308,2.91516 0.6889,1.38923 0.79837,2.95892 0.30563,4.41886 -0.79384,2.35872 -2.9999,3.94391 -5.48636,3.94391 -0.61946,0 -1.23199,-0.10093 -1.82493,-0.29673 l -0.11405,-0.0388 c -0.65014,-0.21443 -1.32313,-0.31901 -1.99379,-0.31901 -1.3322,0 -2.65087,0.41731 -3.75723,1.22256 -1.66068,1.20674 -2.63914,3.14105 -2.63002,5.19409 2e-4,0.0541 -4.3e-4,0.1081 -0.002,0.16218 0.0299,2.01991 1.01535,3.90932 2.66164,5.09162 1.09952,0.79156 2.40436,1.19983 3.72515,1.19983 0.69804,0 1.40049,-0.11662 2.078,-0.3493 0.59994,-0.2053 1.2297,-0.31009 1.87527,-0.31009 3.19362,0 5.78978,2.59615 5.78978,5.78977 0,3.19363 -2.59616,5.78933 -5.78978,5.78933 z"
         id="path44" /><g
         id="text42"
         style="font-size:17.143px;line-height:0.8;font-family:'Zag Bold';-inkscape-font-specification:'Zag Bold, Normal';text-align:end;letter-spacing:-0.178574px;text-anchor:end;fill:#ff9200;stroke:#ff00ff;stroke-width:0.178574;stroke-linecap:round;stroke-linejoin:round;paint-order:stroke fill markers"
         aria-label="MDAEncore"><path
           style="text-align:start;text-anchor:start;fill:#000000;stroke:none"
           d="m 765.43328,148.48172 -0.0857,0.92572 h -0.10286 l -0.0857,-0.89143 c -0.48001,-1.78287 -0.89144,-3.53146 -1.4743,-5.3829 -0.15429,-0.48001 -0.61715,-0.77144 -1.06287,-0.77144 -0.54857,0 -1.21715,0.30857 -1.20001,1.02858 v 10.97152 h 1.40573 l -0.0343,-8.3315 -0.17143,-2.29716 h 0.12 l 0.30858,1.76573 1.37144,4.57718 c 0.18857,0.41143 0.54857,0.65143 0.85715,0.65143 0.39429,0 0.75429,-0.25714 0.89143,-0.65143 0.44572,-1.37144 0.94287,-3.05145 1.40573,-4.49147 l 0.39429,-1.85144 h 0.22286 l -0.39429,2.38288 -0.0514,8.00578 0.0171,0.24 h 1.40573 v -11.00581 c -0.0343,-0.72 -0.61715,-1.06286 -1.13144,-1.06286 -0.41143,0 -0.85715,0.25714 -1.04572,0.78858 -0.30858,0.94286 -0.61715,1.97144 -0.90858,2.98288 -0.24,0.80572 -0.42858,1.62858 -0.65143,2.41716 z m 8.95863,-4.69718 c 0.73715,0 1.37144,0.66858 1.37144,1.44001 v 6.30863 c 0,0.77143 -0.63429,1.40572 -1.37144,1.40572 h -2.29716 c 0,-3.10288 -0.0172,-6.06862 -0.0172,-9.15436 z m -2.62288,10.57723 h 2.62288 c 1.45715,0 2.79431,-1.20001 2.79431,-2.82859 v -6.32577 c 0,-1.52573 -1.33716,-2.84574 -2.79431,-2.84574 h -2.62288 c -0.63429,0 -1.09715,0.44572 -1.09715,1.09715 v 9.78866 c 0,0.58286 0.41143,1.11429 1.09715,1.11429 z m 12.30152,0 h 1.52573 l -2.89717,-11.21152 c -0.15428,-0.54858 -0.68572,-0.92572 -1.11429,-0.92572 -0.44572,0 -0.94287,0.34286 -1.14858,0.96 l -2.84574,11.17724 h 1.49144 c 0.15429,-0.63429 0.37715,-1.49144 1.04572,-4.09718 h 2.88003 z m -3.60003,-5.5029 c 0.32572,-1.37144 0.56572,-2.89717 0.90858,-4.26861 l 0.13715,-1.16572 h 0.13714 l 0.12,1.16572 0.8743,4.26861 z"
           id="path33" /><path
           style="text-align:start;text-anchor:start;stroke:none"
           d="m 791.93203,142.36167 h -4.30289 c -0.58286,0 -1.14858,0.46286 -1.14858,1.1143 v 8.02292 c 0,1.52573 1.30287,2.86288 2.84574,2.86288 h 2.60573 v -1.42287 h -2.60573 c -0.78858,0 -1.42287,-0.66858 -1.42287,-1.44001 v -2.57145 h 3.85717 v -1.42287 h -3.85717 v -3.68574 l 4.0286,-0.0343 z m 4.26148,5.04004 c 0.73715,0 1.35429,0.61715 1.35429,1.33716 v 5.6229 h 1.38859 v -5.6229 c 0,-1.42287 -1.2343,-2.81146 -2.72574,-2.72574 -0.46286,0.0343 -1.13144,0.20572 -1.44001,0.92572 l -0.18858,-0.84001 h -1.09715 v 8.26293 h 1.38859 v -5.6229 c 0,-0.72001 0.6,-1.33716 1.32001,-1.33716 z m 8.13578,3.84003 c 0,0.9943 -0.60001,1.81716 -1.32001,1.81716 -0.73715,0 -1.3543,-0.6 -1.3543,-1.33715 v -2.98288 c 0,-0.72001 0.61715,-1.32001 1.3543,-1.32001 0.72,0 1.32001,0.77143 1.32001,1.80001 h 1.38858 c -0.0171,-1.80001 -1.26858,-3.20574 -2.70859,-3.20574 -1.4743,0 -2.74288,1.18287 -2.74288,2.72574 v 2.98288 c 0,1.4743 1.25144,2.72574 2.74288,2.72574 1.52572,0 2.69145,-1.45716 2.70859,-3.20575 z m 8.42721,-2.52002 c 0,-1.85144 -1.38858,-2.70859 -2.79431,-2.70859 -1.38858,0 -2.77716,0.85715 -2.77716,2.70859 v 3.00003 c 0,1.8343 1.37144,2.72574 2.77716,2.72574 1.38859,0 2.79431,-0.89144 2.79431,-2.72574 z m -1.38858,3.00003 c 0,0.87429 -0.70286,1.32001 -1.40573,1.32001 -0.68572,0 -1.40572,-0.44572 -1.40572,-1.32001 v -3.00003 c 0,-0.87429 0.72,-1.33715 1.40572,-1.33715 0.70287,0 1.40573,0.46286 1.40573,1.33715 z m 4.19289,2.64002 v -5.91433 c 0.13715,-1.13144 1.37144,-1.26859 2.17716,-0.70287 l 0.48001,-1.25144 c -0.92572,-0.73715 -2.24574,-0.72 -2.72574,0.49715 l -0.15429,-0.84001 h -1.14858 v 8.2115 z m 8.41007,-5.6229 c 0,-1.50859 -1.2343,-2.72574 -2.70859,-2.72574 -1.54287,0 -2.72574,1.30287 -2.72574,2.74288 v 2.96574 c 0,1.56001 1.26858,2.70859 2.72574,2.70859 0.78857,0 1.81715,-0.32571 2.5543,-1.40572 l -1.13144,-0.82287 c -0.42857,0.60001 -1.01143,0.84001 -1.42286,0.84001 -0.73715,0 -1.33716,-0.60001 -1.33716,-1.32001 v -0.54858 h 1.33716 c 1.45715,0 2.70859,-0.87429 2.70859,-2.4343 z m -4.04575,1.35429 v -1.32001 c 0,-0.73715 0.60001,-1.35429 1.33716,-1.35429 0.72,0 1.32001,0.6 1.32001,1.32001 0,0.73715 -0.60001,1.35429 -1.32001,1.35429 z"
           id="path40" /></g></g></g></svg>
