<svg xmlns="http://www.w3.org/2000/svg" xml:space="preserve" width="445.764" height="131.289" viewBox="0 0 117.942 34.737">
    <path d="M752.438 165.848a5.796 5.796 0 0 1-5.79-5.789v-.02c-.133-2.139-.928-3.8-2.665-5.107-1.1-.792-2.455-1.26-3.775-1.26-.571 0-1.084.066-1.644.222-.73.173-1.462.402-2.25.402a5.8 5.8 0 0 1-1.846-.303 5.67 5.67 0 0 1-3.336-2.908 5.65 5.65 0 0 1-.491-3.718 5.79 5.79 0 0 1 5.674-4.663c.793 0 1.211.27 2.206.488.56.124 1.155.177 1.721.164 1.344-.031 2.577-.455 3.698-1.254 1.665-1.209 2.734-3.262 2.723-5.32a4.7 4.7 0 0 1 .273-1.707 5.79 5.79 0 0 1 5.484-3.943h.002c.627 0 1.246.1 1.846.303a5.75 5.75 0 0 1 3.333 2.915 5.75 5.75 0 0 1 .305 4.419 5.786 5.786 0 0 1-7.311 3.647l-.114-.039a6.384 6.384 0 0 0-5.751.904 6.39 6.39 0 0 0-2.63 5.194q0 .081-.002.162a6.385 6.385 0 0 0 8.465 5.942 5.795 5.795 0 0 1 7.665 5.48 5.794 5.794 0 0 1-5.79 5.79z" style="fill:gray;fill-opacity:1;stroke-width:.228116;stroke-linecap:round;paint-order:stroke fill markers;stop-color:#000" transform="translate(-706.03 -131.132)"/>
    <path d="M720.346 136.351a5.2 5.2 0 0 0-5.2-5.2 5.2 5.2 0 0 0-5.2 5.2 5.2 5.2 0 0 0 5.2 5.2 5.2 5.2 0 0 0 5.2-5.2" style="baseline-shift:baseline;display:inline;overflow:visible;vector-effect:none;fill:#ff9200;fill-opacity:1;stroke-width:.228116;paint-order:stroke fill markers;stop-color:#000" transform="translate(-706.03 -131.132)"/>
    <path d="M750.897 148.45a2.467 2.467 0 0 0-2.467-2.466 2.467 2.467 0 0 0-2.466 2.466 2.467 2.467 0 0 0 2.466 2.467 2.467 2.467 0 0 0 2.467-2.467" style="baseline-shift:baseline;display:inline;overflow:visible;vector-effect:none;fill:#ff9200;fill-opacity:1;stroke-width:.288699;stroke-linecap:round;stroke-linejoin:round;paint-order:stroke fill markers;stop-color:#000" transform="translate(-706.03 -131.132)"/>
    <path d="M740.174 165.868a5.796 5.796 0 0 1-5.79-5.789v-.02c-.133-2.139-.929-3.8-2.666-5.107-1.099-.792-2.454-1.259-3.775-1.259-.57 0-1.083.065-1.644.22-.729.174-1.462.404-2.25.404a5.8 5.8 0 0 1-1.846-.304 5.67 5.67 0 0 1-3.335-2.908 5.65 5.65 0 0 1-.492-3.717 5.79 5.79 0 0 1 5.675-4.664c.793 0 1.21.27 2.205.488.56.124 1.156.177 1.722.164 1.344-.031 2.576-.455 3.697-1.254 1.666-1.209 2.735-3.262 2.723-5.32a4.7 4.7 0 0 1 .274-1.706 5.79 5.79 0 0 1 5.484-3.944h.002c.626 0 1.246.1 1.845.303a5.75 5.75 0 0 1 3.333 2.915 5.75 5.75 0 0 1 .306 4.42 5.786 5.786 0 0 1-7.311 3.646l-.115-.039a6.384 6.384 0 0 0-5.751.904 6.39 6.39 0 0 0-2.63 5.194q0 .081-.002.162a6.385 6.385 0 0 0 8.465 5.942 5.795 5.795 0 0 1 7.665 5.48 5.795 5.795 0 0 1-5.79 5.79z" style="fill:#000;fill-opacity:1;stroke-width:.228116;stroke-linecap:round;paint-order:stroke fill markers;stop-color:#000" transform="translate(-706.03 -131.132)"/>
    <path d="M727.948 165.868a5.796 5.796 0 0 1-5.79-5.789v-.02c-.133-2.139-.929-3.8-2.666-5.107-1.1-.792-2.454-1.259-3.775-1.259-.571 0-1.084.065-1.644.22-.729.174-1.462.404-2.25.404a5.8 5.8 0 0 1-1.846-.304 5.67 5.67 0 0 1-3.335-2.908 5.65 5.65 0 0 1-.492-3.717 5.79 5.79 0 0 1 5.675-4.664c.792 0 1.21.27 2.205.488.56.124 1.156.177 1.721.164 1.344-.031 2.577-.455 3.698-1.254 1.666-1.209 2.734-3.262 2.723-5.32a4.7 4.7 0 0 1 .274-1.706 5.79 5.79 0 0 1 5.484-3.944h.002c.626 0 1.246.1 1.845.303a5.75 5.75 0 0 1 3.333 2.915 5.75 5.75 0 0 1 .306 4.42 5.786 5.786 0 0 1-7.312 3.646l-.114-.039a6.384 6.384 0 0 0-5.751.904 6.39 6.39 0 0 0-2.63 5.194q0 .081-.002.162a6.385 6.385 0 0 0 8.465 5.942 5.795 5.795 0 0 1 7.665 5.48 5.795 5.795 0 0 1-5.79 5.79z" style="fill:gray;fill-opacity:1;stroke-width:.228116;stroke-linecap:round;paint-order:stroke fill markers;stop-color:#000" transform="translate(-706.03 -131.132)"/>
    <g stroke="none" aria-label="MDAEncore" style="fill:#ff9200;stroke-width:.178574;stroke-linecap:round;stroke-linejoin:round;paint-order:stroke fill markers">
        <path d="m765.433 148.482-.085.925h-.103l-.086-.891c-.48-1.783-.891-3.531-1.474-5.383a1.13 1.13 0 0 0-1.063-.771c-.549 0-1.217.308-1.2 1.028v10.972h1.406l-.035-8.332-.171-2.297h.12l.308 1.766 1.372 4.577c.188.411.548.651.857.651a.95.95 0 0 0 .891-.651c.446-1.371.943-3.051 1.406-4.491l.394-1.852h.223l-.394 2.383-.051 8.006.017.24h1.405v-11.006c-.034-.72-.617-1.063-1.131-1.063-.411 0-.857.257-1.046.789a89 89 0 0 0-.908 2.983c-.24.805-.429 1.628-.652 2.417m8.959-4.697c.737 0 1.371.668 1.371 1.44v6.308c0 .772-.634 1.406-1.371 1.406h-2.297c0-3.103-.017-6.069-.017-9.154zm-2.623 10.577h2.623c1.457 0 2.794-1.2 2.794-2.829v-6.326c0-1.525-1.337-2.845-2.794-2.845h-2.623c-.634 0-1.097.445-1.097 1.097v9.788c0 .583.411 1.115 1.097 1.115m12.302 0h1.525L782.7 143.15c-.154-.548-.686-.925-1.114-.925-.446 0-.943.342-1.149.96l-2.846 11.177h1.492c.154-.635.377-1.492 1.046-4.097h2.88zm-3.6-5.503c.325-1.372.565-2.897.908-4.269l.137-1.165h.137l.12 1.165.875 4.269z" style="text-align:start;text-anchor:start;fill:#000;stroke:none" transform="translate(-706.03 -131.132)"/>
        <path d="M791.932 142.362h-4.303c-.583 0-1.148.463-1.148 1.114v8.023c0 1.526 1.302 2.863 2.845 2.863h2.606v-1.423h-2.606c-.788 0-1.423-.669-1.423-1.44v-2.572h3.858v-1.422h-3.858v-3.686l4.029-.034zm4.262 5.04c.737 0 1.354.617 1.354 1.337v5.623h1.388v-5.623c0-1.423-1.234-2.812-2.725-2.726-.463.034-1.132.206-1.44.926l-.189-.84h-1.097v8.263h1.388v-5.623c0-.72.6-1.337 1.32-1.337m8.135 3.84c0 .994-.6 1.817-1.32 1.817-.737 0-1.354-.6-1.354-1.337v-2.983c0-.72.617-1.32 1.354-1.32.72 0 1.32.771 1.32 1.8h1.389c-.017-1.8-1.269-3.206-2.709-3.206-1.474 0-2.743 1.183-2.743 2.726v2.983c0 1.474 1.252 2.725 2.743 2.725 1.526 0 2.692-1.457 2.709-3.205zm8.428-2.52c0-1.852-1.39-2.709-2.795-2.709-1.388 0-2.777.857-2.777 2.709v3c0 1.834 1.371 2.725 2.777 2.725 1.389 0 2.794-.89 2.794-2.725zm-1.39 3c0 .874-.702 1.32-1.405 1.32-.686 0-1.406-.446-1.406-1.32v-3c0-.875.72-1.337 1.406-1.337.703 0 1.406.462 1.406 1.337zm4.194 2.64v-5.915c.137-1.131 1.371-1.268 2.177-.702l.48-1.252c-.926-.737-2.246-.72-2.726.497l-.154-.84h-1.149v8.212zm8.41-5.623c0-1.509-1.234-2.726-2.709-2.726-1.543 0-2.725 1.303-2.725 2.743v2.966c0 1.56 1.268 2.708 2.725 2.708.789 0 1.817-.325 2.555-1.405l-1.132-.823c-.428.6-1.011.84-1.423.84-.737 0-1.337-.6-1.337-1.32v-.549h1.337c1.457 0 2.709-.874 2.709-2.434m-4.046 1.354v-1.32c0-.737.6-1.354 1.337-1.354.72 0 1.32.6 1.32 1.32 0 .737-.6 1.354-1.32 1.354z" style="text-align:start;text-anchor:start;stroke:none" transform="translate(-706.03 -131.132)"/>
    </g>
</svg>
